<svg xmlns="http://www.w3.org/2000/svg" width="42.417" height="41.812" viewBox="0 0 42.417 41.812">
  <g id="Сгруппировать_106" data-name="Сгруппировать 106" transform="translate(-330.024 -426.454)">
    <path id="Контур_1418" data-name="Контур 1418" d="M573.787,581.552c1.89.149,3.063,1.88,4.872,2.207,2.613,2.263,5.715,3.762,8.639,5.539,2.71,1.924,5.88,3.145,8.339,5.453a18.691,18.691,0,0,1-1.81,7.933c-.783,1.895-2.9,2.919-3.312,5.052-.148.169-.295.341-.441.513-1.917-.28-3.232.75-4.428,2.035-.175.149-.348.3-.522.455-1.17-.713-2.434-.332-3.661-.3-11.027.315-18.206-8.7-15.493-19.456.1-.4.162-.814.242-1.221a20.438,20.438,0,0,1,7.575-8.213m3.046,10.246c-1.094,3.755-.367,7.722-1.107,11.608a1.109,1.109,0,0,0,1.2,1.428,6.616,6.616,0,0,0,5.735-3.22,7.4,7.4,0,0,0,1.127-6.523c-1.128,2.053-.246,3.784-1.617,4.831-.751-.465.139-1.623-.826-2.029-.775,1.463.054,3.512-1.806,4.773-.154-1.34-.282-2.445-.409-3.549a3.121,3.121,0,0,0-.572,1.871c-.084.881.281,2.292-.913,2.317-1.37.029-.764-1.418-.784-2.2-.079-3.1-.032-6.2-.032-9.305" transform="translate(-231.085 -147.044)" fill="#d04267"/>
    <path id="Контур_1419" data-name="Контур 1419" d="M569.239,573.809a20.44,20.44,0,0,0-7.575,8.213c-3.212-2.876-4.2-6.51-3.636-10.671,1.443-.37,2.172-1.591,3.083-2.594a23.578,23.578,0,0,1,8.128,5.051m-8.232-2.747c-.747,2.25-.183,3.027,1.161,3.284.593.114,1.583.092,1.526-.555-.127-1.445-2.021-.921-2.687-2.729" transform="translate(-226.536 -139.301)" fill="#95a1e6"/>
    <path id="Контур_1426" data-name="Контур 1426" d="M607.628,584.684c-2.924-1.777-6.026-3.276-8.639-5.538,2.624-2.314,5.985-3.292,8.986-4.921,1.368-.743,2.029-.009,2.494,1.331.831,2.395-.153,4.3-1.455,6.11-.675.938-1.519,1.734-1.387,3.018" transform="translate(-251.415 -142.43)" fill="#e69fb2"/>
    <path id="Контур_1425" data-name="Контур 1425" d="M637.409,622.915a18.686,18.686,0,0,0,1.809-7.933c2.646.7,4.723,2.437,6.958,3.865,1.706,1.09.76,2.068-.4,2.789-2.592,1.606-5.454,1.648-8.365,1.28" transform="translate(-274.666 -167.275)" fill="#95a1e6"/>
    <path id="Контур_1420" data-name="Контур 1420" d="M559.089,564.156c-.912,1-1.64,2.223-3.083,2.594a10.989,10.989,0,0,1-1.46-5.6c1.807.944,3.443,1.527,4.544,3" transform="translate(-224.514 -134.699)" fill="#d04267"/>
    <path id="Контур_1424" data-name="Контур 1424" d="M627.9,648.384c.146-.172.293-.344.441-.513a7.884,7.884,0,0,0,4.607,2.494c-.592,1.5-1.828,2.035-2.984,3.061-.622-1.859-.474-3.851-2.064-5.042" transform="translate(-268.914 -187.179)" fill="#2646d8"/>
    <path id="Контур_1423" data-name="Контур 1423" d="M615.367,654.78c.173-.153.347-.306.522-.456.954,1.368,2.668,1.39,4.122,2.274-.47,1.383-1.69,1.87-2.8,2.753-.969-1.512-.381-3.49-1.845-4.571" transform="translate(-261.327 -191.085)" fill="#2646d8"/>
    <path id="Контур_1422" data-name="Контур 1422" d="M592.62,607.5c0,3.1-.046,6.205.032,9.305.02.783-.586,2.23.784,2.2,1.194-.025.829-1.436.913-2.317a3.121,3.121,0,0,1,.572-1.871c.128,1.1.255,2.209.409,3.549,1.86-1.261,1.031-3.31,1.806-4.773.966.406.075,1.564.826,2.029,1.372-1.047.49-2.778,1.617-4.831a7.4,7.4,0,0,1-1.127,6.523,6.616,6.616,0,0,1-5.735,3.221,1.109,1.109,0,0,1-1.2-1.428c.74-3.885.013-7.852,1.107-11.608" transform="translate(-246.872 -162.75)" fill="#e69fb2"/>
    <path id="Контур_1421" data-name="Контур 1421" d="M565.29,574.594c.665,1.808,2.56,1.284,2.687,2.729.057.647-.933.669-1.526.555-1.344-.257-1.908-1.035-1.161-3.284" transform="translate(-230.819 -142.833)" fill="#2646d8"/>
  </g>
</svg>
