<svg xmlns="http://www.w3.org/2000/svg" xmlns:xlink="http://www.w3.org/1999/xlink" width="671.817" height="672.71" viewBox="0 0 671.817 672.71"><defs><clipPath id="a"><rect width="671.817" height="672.67" transform="translate(0 0.04)" fill="none"/></clipPath><clipPath id="b"><rect width="671.817" height="672.71" fill="none"/></clipPath></defs><g clip-path="url(#a)"><path d="M595.706,517.29a76.454,76.454,0,1,1-76.454-76.454,76.455,76.455,0,0,1,76.454,76.454" fill="#61d9d3"/><path d="M153.335,340.669a76.454,76.454,0,1,1-76.454-76.454,76.454,76.454,0,0,1,76.454,76.454" fill="#61d9d3"/><path d="M164.619,441.594c13.164,2.175,24.6,7.943,34.9,16.336A73.218,73.218,0,0,1,226.5,505.218c2.47,16.738.478,33.248-8.186,48.365-2.21,3.858-4.125,7.923-7.767,10.742-4.5-4.152-9.3-8-15.161-9.93-8.717-2.874-17.572-5.33-26.368-7.963.255-3.021-1.4-3.761-4.009-3.352l-2.263-12.062q-.644-4.224-1.288-8.446c7.635-.916,12.757-8.776,13.134-14.588a47.346,47.346,0,0,0-7.464-29.734c4.624-5.734,3.617-11.817-2.7-12.893-5.663-.965-11.519-1.245-17.255-1.771-6.828-.625-11.292,4.469-14.025,10.611-2.917,6.555-2.59,13.516-2.511,20.443-3.826,4.111-3.15,9.151,1.939,12.014,1.8,1.012,2.646,2.109,2.741,4.016q.845,16.983,1.693,33.967l-2.386,1.65c-2.168.789-4.362,1.511-6.5,2.377-9.309,3.774-18.977,6.715-27.567,12.147-2.978,1.882-5.227,4.75-8.545,6.139a72.993,72.993,0,0,1-17.991-41.632c-3.907-38.926,20.867-73.978,58.616-83a75.142,75.142,0,0,1,31.985-.717" fill="#d0d9f6"/><path d="M121,277.151c4.983,4.958,10.924,8.806,15.32,14.506,9.509,12.328,15.745,25.715,17.161,41.472a80.913,80.913,0,0,1-5.517,37.766,17.452,17.452,0,0,0-.593,4.013c-2.194-.731-1.95,1.377-2.478,2.31-7.065,12.488-16.375,22.758-29.03,29.787-4.732-11.817-9.267-23.731-15.719-34.758-1.221-2.088-2.094-4.83-5.2-5.149h.034c-1.729-4.548-6-4.772-9.817-5.767l6.373-14.3c.8.1,1.6.172,2.394.292,10.466,1.572,17.97-5.009,17.91-15.613-.032-5.78-2.607-10.679-5.03-15.671-.785-1.617-2.021-.872-3.133-.938a2.429,2.429,0,0,0-1.013-2.065q.407-1.5.809-2.993a3.067,3.067,0,0,0,.356-2.936c-.137,1.021-.264,1.965-.391,2.908l-1.46.188-3.621-5.73a1.559,1.559,0,0,0-1.521-.918c.129-2.1-1.792-2.773-2.854-4.035-1.331-1.583-3.94-1.7-4.654-4.016,2.705-3.566,2.1-6.862-1.665-9.046-7.715-4.475-18.3-.458-20.9,8.014-.382,1.246-.412,2.294-2.145,2.263-5.194-.092-7.331,3.351-8.56,7.708a35.3,35.3,0,0,0-1.01,12.508c.234,2.909,1.089,5.945,3.587,7.475,2.83,1.734,3.251,4.208,3.845,6.961,1.131,5.243,3.282,7.145,7.6,7.128-1.145,5.009-4.446,9.044-6.225,13.767-11.269-9.639-22.113-5.194-29.417,4.609-6.478,8.694-10.738,18.577-14.892,28.5-.513,1.228-1.056,2.442-1.825,4.215A68.163,68.163,0,0,1,5.486,369.251c-17.729-44.542,9.228-94.485,56.21-103.763,19.545-3.86,38.152-.809,55.373,9.559,1.274.767,2.622,1.409,3.936,2.11" fill="#5bc57f"/><path d="M80.74,126.07c3.625-7.889,7.6-15.493,13.268-22.244a75.246,75.246,0,0,1,42.83-25.8c22.1-4.757,42.61-.361,61.121,12.743a75.586,75.586,0,0,1,28.562,39.156,73.224,73.224,0,0,1-.132,46.8c-6.2,18.351-17.321,33.112-34.661,42.6-1-7.583-.557-15.213-.77-22.823-.321-11.486-5.917-18-17.078-20.756-5.45-1.344-10.5.288-15.693,1.118l.723-10.843q.58-4.8,1.163-9.6c3.836,1.4,7.562,1.834,11.141-.823,2.37-1.759,3.725-4.232,5.177-6.664,4.956-.27,9.931,1.152,15.335.056-2.9-4.026-2.8-8.108-1.923-12.335a50.81,50.81,0,0,0,.5-5.269,9.578,9.578,0,0,0-5.408-10.093c-4.887-2.652-8.615-6.578-12.058-10.83a37.247,37.247,0,0,0-7.216-7.16c-6.715-4.769-13.119-4.512-19.349.811a31.025,31.025,0,0,0-3.516,3.4c-4.546,5.335-9.662,9.865-16.128,12.847-4.781,2.205-6.97,6.292-6.939,11.534.036,5.95.242,11.931-4.851,16.795l25.367,2.888-4.056,22.69c-2.471-1.112-4.879-2.4-7.425-3.3Q117.48,167,110.783,176.96a33.96,33.96,0,0,0-3.22,6.09c-3.4,8.3-5.353,17.028-7.39,25.726-3.139-2.272-5.351-5.464-8.078-8.144-7.418-10.564-12.938-21.9-14.959-34.828a79.983,79.983,0,0,1,2.711-36.614c.321-1.034.6-2.083.894-3.125" fill="#f3d37c"/><path d="M92.007,566.95c3.317-1.389,5.567-4.256,8.545-6.139,8.59-5.432,18.258-8.373,27.567-12.147,2.136-.866,4.331-1.588,6.5-2.376.845,4.859,1.485,9.769,3.331,14.9.657-.881,1.14-1.257,1.251-1.722.834-3.475,2.611-3.585,5.092-1.533a10.913,10.913,0,0,0,1.386.858c7.278,4.363,7.278,4.362,14.031-.9,4.222-3.287,4.218-3.283,7.242.739.117.156.474.13.83.216,1.138-4.071,1.049-8.257,1.232-12.415,8.8,2.633,17.651,5.089,26.368,7.963,5.861,1.933,10.657,5.778,15.161,9.931-1.23,3.55-4.288,5.64-6.724,8.186-1.247,1.3-2.415,2.432-2.409,4.335-1.622-1.3-2.41.27-3.389,1.026A79.172,79.172,0,0,1,169.7,591.841c-9.841,2.622-19.867,2.629-29.931,1.935-13.194-2.586-25.625-7-36.226-15.561-4.185-3.379-8.706-6.471-11.53-11.266M130.5,577.5c3.393,0,6.8-.182,10.177.053,3.1.217,3.6-1.284,3.543-3.893-.052-2.558-.1-4.486-3.589-4.373-6.373.207-12.766.249-19.134-.017-3.572-.149-3.875,1.576-3.977,4.43-.112,3.133,1.051,4.071,4.026,3.85s5.969-.048,8.955-.05" fill="#ffd55f"/><path d="M63.861,352.284c1.779-4.723,5.08-8.757,6.223-13.767,6.473-3.374,6.855-10.815.765-15.017-1.833-1.265-2.017-3.1-1.781-5.08a3.651,3.651,0,0,1,3.182-3.272c2.316-.459,3.395,1.226,4.334,2.959a.962.962,0,0,0,.694,1.1q-.158,1.258-.315,2.513c-1.88-.016-2.142-1.776-3.078-2.822-.735-.821-1.654-1.006-2.388-.043a1.292,1.292,0,0,0,.738,2.192c2.28.1,3.042,2.6,5.1,2.87a3.712,3.712,0,0,0,.764,2.666c4.269,7.181,4.308,14.571,1.328,22.218a76.648,76.648,0,0,0-4.342,13.488l-.116.024c-2.483.238-4.295-1.546-6.491-2.153l-1.424-1.183c-.4-2.55-2.233-4.413-3.2-6.693" fill="#814429"/><path d="M90.363,416.622v.217c-2.625.41-3.863-.282-3.776-3.361.221-7.82.074-15.65.074-23.69,2.509.508,1.84,1.861,1.845,2.726.035,6.769-.056,13.539-.033,20.309,0,1.5-.569,3.449,1.888,3.8" fill="#92a2eb"/><path d="M94.5,389.32c-2.073-1.438-4.445-2.528-5.7-4.912l-.051.051c2.233.96,3.729,1.568,3.1-2.207-.769-4.643-.341-9.34,2.658-13.375a30.717,30.717,0,0,0-.059,20.5Z" fill="#92a2eb"/><path d="M49.519,393.42,44.6,409.9c0-6,2.071-11.4,3.976-16.838Z" fill="#92a2eb"/><path d="M103.381,412.923a.458.458,0,0,1-.438.121c-.4-5.887-3.188-11.281-3.527-17.18l-.048.029c.576,1.508,1.1,3.038,1.738,4.517,1.676,3.861,1.284,8.308,3.438,12.027h-.052l-1.11.487" fill="#92a2eb"/><path d="M78.958,377.058c-4.688-4.006-4.007-9.464-3.986-14.744l.115-.024.325.185c-.382,5.248,1.356,9.985,3.513,14.623Z" fill="#92a2eb"/><path d="M67.057,358.978q.715.592,1.424,1.183-.336,2.9-.662,5.8l-.763-.069Z" fill="#92a2eb"/><path d="M97.768,393.407c-1.25-1.234-2.7-2.31-3.269-4.088l-.051.057c2.264.417,3.1,1.979,3.281,4.075Z" fill="#92a2eb"/><path d="M86.333,382.772c-1.627-.091-2.9-.655-3.268-2.437l-.043.035a5.82,5.82,0,0,1,3.27,2.455Z" fill="#92a2eb"/><path d="M88.795,384.407c-1.167-.024-2.2-.249-2.461-1.635l-.042.053a3.459,3.459,0,0,1,2.454,1.633Z" fill="#92a2eb"/><path d="M99.416,395.865c-1.116-.439-1.349-1.47-1.648-2.457l-.038.044c1.4.245,1.556,1.317,1.639,2.442Z" fill="#92a2eb"/><path d="M82.242,379.5a1.6,1.6,0,0,1-1.631-.8l-.045.036,1.642.8Z" fill="#92a2eb"/><path d="M83.065,380.334q-.413-.416-.823-.834l-.034.046.815.824Z" fill="#92a2eb"/><path d="M80.61,378.705l-.818-.819-.042.031.815.824Z" fill="#92a2eb"/><path d="M79.793,377.886l-.836-.828-.032.04.824.819Z" fill="#92a2eb"/><path d="M525.316,370.538c-2.6-7.979-5.674-15.765-6.729-24.243a77.966,77.966,0,0,1,6.382-42.066c5.838-13.17,15.429-23.169,26.641-31.826l.745-.826-.042.074c5.407-2.162,10.3-5.383,15.784-7.432a77.215,77.215,0,0,1,91.227,30.087c19.6,30.231,15.811,70.154-9.092,95.563-.659.672-1.439,1.226-2.163,1.835-3.359-8.974-9.7-14.46-19.119-16.35-7.06-1.416-14.644-.916-20.8-5.668q-.18-5.687-.361-11.373c-1.281-3.763-.068-7.67-.662-11.473a30.118,30.118,0,0,0,6.947-14.986c.19-1.3.19-2.686,2.319-2.45,3.2.356,2.117-1.415.886-2.819,1.779-.706,3.673,2.159,4.781-.832a4.859,4.859,0,0,0-1.627-5.825c-1.512-1.317-3.355-.8-5.1-.758.278-5.526-1.041-10.607-4.866-14.68-1.583-1.686-1.6-2.911-.811-4.948,2.386-6.17-.014-12.619-5.739-16.287-5.992-3.84-12.922-3.534-17.56,1.112-1.286,1.289-2.08,1-3.464.584-6.811-2.028-11.763,1.455-11.914,8.45-.038,1.719-.361,2.683-2.016,3.362-1.531.629-2.477,2.089-3.393,3.446-5.341,7.91-3.49,16.267,5.07,22.961-1.505,4.47,3.34,6.628,4.841,6.779,4.2.42,3.689,3.21,4.39,5.556a22.167,22.167,0,0,0,4.32,8.642,7.146,7.146,0,0,1,1.69,5.174c.057,6.762-1.363,13.479-.571,20.257-4.949,3.817-10.837,4.669-16.777,5-11.932.66-22.45,9.38-23.772,19.986-2.22-1.132-3.608-3.193-5.362-4.841-5.872-5.523-9.542-12.675-14.087-19.181" fill="#f3d37c"/><path d="M485.684,222.579a67.718,67.718,0,0,1-23.815-16.6A78.634,78.634,0,0,1,442.7,168.357c-3.867-19.083-.771-37.017,8.875-53.761a74.5,74.5,0,0,1,36.656-32.323c17.458-7.237,35.484-8.326,53.686-2.238,11.255,3.764,21.445,9.434,29.774,17.826,6.875,6.928,13.016,14.589,16.668,23.884.591,1.5,1.462,2.894,2.2,4.336,2.784,9.815,4.8,19.7,4.4,30.025a76.313,76.313,0,0,1-14.387,42.1c-.537.756-.944,1.6-1.411,2.409l-.69.768.046-.119c-3.32,3.425-6.342,7.145-10.084,10.15-2.009-3.143-1.448-6.828-2.088-10.25-.97-5.194-1.243-10.556-3.713-15.36-3.579-6.96-9.554-9.118-20.042-7.4-3.686-7.27-7.984-14.183-12.263-21.108,6.941.39,13.2-1.16,18.32-6.214,9.252-9.126,10.64-23.5,3.378-35.731-10.926-18.4-38.461-26.971-57.793-17.817-10.339,4.9-17.031,12.968-19.2,24.323-1.856,9.726,1.781,21.719,14.235,22.762a95.053,95.053,0,0,0,6.113,16.315c3.737,7.585,7.751,9.14,15.2,5.92l1.626,2.625,4.251,8.993c-10.581.33-16.662,4.107-19.735,12.615-3.78,10.463-7.369,20.994-11.041,31.5" fill="#c2ead1"/><path d="M460.755,565.944c-6.915-5.708-10.069-13.742-13.046-21.753-7.284-19.6-6.77-39.268,1.844-58.2a74.869,74.869,0,0,1,32.8-35.6,87.917,87.917,0,0,1,24.01-8.688c22.836-3.333,43.669,1.372,61.748,16.031,17.023,13.8,26.514,31.787,28.335,53.683,1.654,19.881-3.964,37.625-15.9,53.5-1.921,2.554-3.228,3.636-6.222.8-5.982-5.674-13.971-7.7-21.524-10.409-1.659-.6-3.411-.98-4.811-2.15,1-.437,2-.86,2.991-1.311,11.446-5.207,19.979-17.483,14.8-31.733-.773-2.123.507-2.557,1.624-3.479,6.425-5.313,9.192-12.194,7.581-20.323-1.563-7.888-6.729-12.881-14.48-14.989-1.865-.507-2.532-.813-2.106-3.109A19.109,19.109,0,0,0,535.972,455.7a8.346,8.346,0,0,1-6.4-1.2c-11.406-6.826-25.348-2.246-28.317,10.5a3.2,3.2,0,0,1-1.9,2.3c-11.145,6.019-13.272,16.276-5.6,26.469,1.038,1.611,3.619,1.824,3.817,4.2-.781,4.523-2.3,8.948-1.64,13.654.8,5.714,4.038,8.657,9.745,8.746q0,1.969-.011,3.939a108.649,108.649,0,0,0-.836,16.306l-1.711,2.4c-3.063,2.19-7.056,3.148-9.027,6.79-.642-.07-1.406-.4-1.909-.171-10.724,4.955-22.279,8.322-31.421,16.319" fill="#c1e9d1"/><path d="M493.749,493.765c-7.672-10.2-5.545-20.452,5.6-26.471a3.19,3.19,0,0,0,1.9-2.3c2.969-12.743,16.911-17.323,28.317-10.5a8.355,8.355,0,0,0,6.4,1.2A19.11,19.11,0,0,1,558.4,478.207c-.427,2.3.24,2.6,2.106,3.109,7.751,2.108,12.916,7.1,14.479,14.989,1.611,8.129-1.156,15.01-7.581,20.323-1.116.922-2.4,1.356-1.624,3.479,5.184,14.25-3.35,26.525-14.8,31.733-.99.451-1.992.874-2.991,1.311-3.246-.279-5.687-2.545-8.656-3.5-2.9-2.81-6.341-5.1-8.519-8.632-.658-.757-1.194-.854-1.5.279l.07-.044-2.184.122c-1.3-5.941-2.324-11.918-1.052-17.986,1.252-5.973,1.378-12.5,7.4-16.329a14.8,14.8,0,0,0-.047,2.031c.333,3.066,2.055,4.769,5.151,4.409,2.926-.341,4.08-2.4,3.882-5.221a24.005,24.005,0,0,0-.517-2.791c2.556-.924,2.5-3.037,1.929-5.005a3.9,3.9,0,0,0-4.247-3,22.759,22.759,0,0,0-3.869,1.015l-3.207-1.628c.453-7.441-2.975-13.225-9.684-15.786-2.336-.892-4.356-1.755-4.486-5.534-1.719,2.528-3.579,2.788-5.462,3.182a8.184,8.184,0,0,0-5.916,3.95,12.858,12.858,0,0,1-1.989-.33c-6.717-2.194-12.089,2.125-11.222,9.088.1.808.438,1.572-.118,2.324" fill="#040305"/><path d="M544.765,394.559c1.323-10.607,11.84-19.327,23.772-19.986,5.939-.328,11.827-1.182,16.777-5,7.588,5.51,15.2,5.668,22.841.11,6.151,4.753,13.734,4.252,20.795,5.669,9.419,1.89,15.76,7.376,19.119,16.349-10.706,11.218-24.057,17.464-39.053,20.37-5.046.978-10.246,1.159-15.374,1.7-2.688-.307-5.386-.564-8.068-.929-15.391-2.1-29.249-7.635-40.809-18.29" fill="#b4cecf"/><path d="M498.933,591.369a33.677,33.677,0,0,1-12.371-4.644q8.913-10.006,17.839-20c1.483-1.65.184-2.726-.656-3.873-3.2-4.37-6.436-8.709-9.66-13.059,1.972-3.642,5.964-4.6,9.028-6.79l9.718,10.4c.888.949,1.617,2.429,3.219.857q6.649-6.523,13.336-13.007l-.07.044,1.5-.278c2.177,3.533,5.616,5.823,8.519,8.632-14.536,11.561-27.041,25.138-38.943,39.308a17.9,17.9,0,0,0-1.46,2.405" fill="#d0d9f6"/><path d="M578.471,201.383l.69-.767c-.473.038-.764.238-.69.767" fill="#040305"/><path d="M282.4,131.846c-3.78-1.081-5.334-4.669-7.31-7.343C262.6,107.6,256.8,88.89,259.411,67.57a76.136,76.136,0,0,1,21.5-44.642C292.5,10.928,307,3.674,323.64,1.05a74.565,74.565,0,0,1,44.5,6.182c21.353,10.194,35.424,27.054,41.813,49.887a73.252,73.252,0,0,1-3.189,49.41c-3.474,8.186-7.5,16.3-14.776,22.079-3.89-3.348-8.369-5.787-12.811-8.282,2.729-7.1,1.153-13.379-3.793-18.9-4.1-4.579-5.948-9.489-3.913-15.7A8.942,8.942,0,0,0,367.8,74.94c-4.6-3.165-6.843-7.678-7.542-13-1.27-9.662-4.772-17.814-14.559-21.943,1.415-1.644,2.683-2.882,3.673-4.311,3.642-5.256,3.113-11.96-1.132-15.6-4.529-3.879-11.833-3.582-16.425.669-4.334,4.012-5.175,10.254-2.122,16.115.664,1.275,2,2.325-.436,3.393-8.754,3.831-12.708,11.1-13.717,20.185-.667,6-3,10.924-7.934,14.559a12.96,12.96,0,0,0-5.36,11.314,15.29,15.29,0,0,1-6.377,13.325c-7.334,5.7-9.284,14.185-6.116,23.064a48.285,48.285,0,0,0-7.342,9.135" fill="#d0d9f6"/><path d="M270.936,635.428c-2.747-1.8-3.942-4.727-5.162-7.518-5.078-11.612-7.8-23.755-6.9-36.457a77.209,77.209,0,0,1,17.372-44.336c11.071-13.652,25.268-22,41.978-26.379,8.775-2.3,17.875-1.975,26.758-1.186a70.577,70.577,0,0,1,38.23,15.668c13.179,10.484,22.341,23.666,26.71,39.924,5.825,21.674,2.785,42.209-8.835,61.433-.82,1.356-1.509,2.994-3.5,3.076-4.464-4.77-9.3-9.074-15.2-12.023l.01-.039c2.776-3.623,6.333-6.617,8.1-11.047,4.443-11.151-1.512-21.378-13.379-23.032-5.668-.79-11.061.359-16.5,1.533-5.016,1.083-9.959,2.622-15.18,2.4a70.348,70.348,0,0,1-.736-11.6c4.057-.357,5.287-2.747,4.658-6.475,6.578-4.762,9.581-11.169,7.842-19.15-1.779-8.164-7.269-12.79-15.471-14.219a2.881,2.881,0,0,1-.319-.47c-1.764-6.122-4.275-11.786-9.957-15.333-4.213-2.63-7.688-.979-8.913,3.746-1.17,4.513-.2,8.875.238,13.3-.965.74-1.941,1.468-2.894,2.223-8.661,6.861-13.067,15.836-12.736,26.865.251,8.383,7.786,14.822,15.32,12.539q.072,2.888.143,5.776a.338.338,0,0,0-.258.375l-3.2.476c-12.637,1.891-20.088,11.719-16.1,22.173.844,2.214-.6,2.132-1.906,2.452-11.258,2.757-21.514,7.505-30.218,15.3" fill="#f3d37c"/><path d="M382.387,627.629c5.9,2.949,10.735,7.254,15.2,12.023.589,1.57-.446,2.576-1.286,3.627A74.748,74.748,0,0,1,369.147,665c-1.8-3.219-1.7-7.193-4.482-10.078l3.1,10.8a76.944,76.944,0,0,1-95.049-25.914c-.912-1.3-2.186-2.518-1.785-4.382,8.7-7.8,18.956-12.546,30.213-15.3,1.306-.32,2.749-.238,1.906-2.451-3.986-10.454,3.464-20.282,16.1-22.173l3.2-.475c1.678,1.351,1.046,3.241,1.062,4.923.069,7,.046,6.953,6.746,8.615a53.678,53.678,0,0,1,5.728,2.009,15.4,15.4,0,0,0,8.756.8c1.62.577,2.238,2.62,4.119,2.814l-.053-.04a1.558,1.558,0,0,0,1.7.85l-.051-.038c2.5,3.214,6.014,4.422,9.867,4.944l-.065-.037c4.443,3.1,9.626,3.983,14.783,4.942l-.068-.038a9,9,0,0,0,7.509,2.863m-52.155-8.646c1.465,3.707-.843,6.567-2.341,9.486a17.765,17.765,0,0,0-1.22,13.73c.367,1.219,1.26,3.223,3.174,1.99,1.5-.966.761-2.686-.285-3.5-4.313-3.376-2.885-7.054-.864-10.849,2-3.753,3.746-7.562,2.583-12a5.433,5.433,0,0,0,.014-3.593c-.521-1.307-1.455-2.089-2.758-.795-1.636,1.625-.74,4.452,1.7,5.532m-8.334-.634c.766,3.506-1.283,6.051-3.163,8.5-3.212,4.193-3.892,8.886-3.242,13.894a2.96,2.96,0,0,0,2.107,2.756,1.494,1.494,0,0,0,1.73-.755,2.148,2.148,0,0,0-.4-2.651c-4.365-4.441-2.013-8.363.759-12.344,2.361-3.393,4.517-6.886,3.369-11.34.3-1.8.458-3.69-1.79-4.23-.973-.234-1.715.9-1.677,1.89.066,1.744-1.139,4.316,2.31,4.275m-3.31-7.91a27.145,27.145,0,0,1-8.355.506,7.969,7.969,0,0,0,8.355-.506m2-1.191q.069.282.14.564c.363-.018.813.088,1.071-.087.342-.231,1.6-.372.462-1.094-.3-.193-1.1.391-1.672.617" fill="#5bc57f"/><path d="M104.193,213.772l-4.021-4.99c2.037-8.7,4-17.425,7.39-25.727a33.928,33.928,0,0,1,3.22-6.09q6.711-9.961,17.941-5.993c2.546.9,4.953,2.19,7.424,3.3a69.506,69.506,0,0,0,5.469,7.08c4.456,4.5,11.749,3.738,14.823-1.327.623-1.028,1.17-2.1,1.751-3.158,5.193-.831,10.241-2.463,15.693-1.119,11.16,2.752,16.757,9.27,17.078,20.755.212,7.61-.225,15.24.77,22.823-10.123,6.686-21.441,9.779-33.376,10.561a75.5,75.5,0,0,1-51.3-14.952c-.83-.614-1.568-1.613-2.858-1.164m40.447-4.292v.044c2.316,0,4.633.012,6.948,0a3.994,3.994,0,0,0,.393-7.969c-4.753-.251-9.535-.226-14.294-.023-2.38.1-3.6,1.992-3.621,4.227a3.547,3.547,0,0,0,3.407,3.683c.074,0,.149,0,.223,0,2.3.171,4.628.039,6.944.039m23.438-4.321a2.143,2.143,0,0,0-2.145,2.011c-.162,1.305.645,2.011,1.876,2.131a1.885,1.885,0,0,0,2.12-1.616,1.847,1.847,0,0,0,.016-.306,1.977,1.977,0,0,0-1.716-2.207c-.05-.006-.1-.011-.151-.013m-6.33-8.787a1.877,1.877,0,0,0,1.991-1.756q0-.072,0-.144a1.922,1.922,0,0,0-1.782-2.053,2.059,2.059,0,0,0-.236,0,1.669,1.669,0,0,0-1.858,1.688,1.892,1.892,0,0,0,1.882,2.27" fill="#92a2eb"/><path d="M379.177,120.327c4.443,2.493,8.922,4.932,12.813,8.281-.012,1.393-1.01,2.192-1.9,3.011-23.731,21.932-50.9,27.848-81.559,17.475l.675-10.063-.944-.089-1.192,9.379c-9.451-3.653-18.161-8.416-24.668-16.476a48.4,48.4,0,0,1,7.342-9.135c3.958-2.032,7.855-4.189,12.166-5.444,5.575-1.623,11.19-3.137,16.68-5.011,10.175-3.473,10.49-4.073,10.12-14.693,6.961,1.422,13.877,1.891,20.649-.912.064,1.215.178,2.429.184,3.645.048,8.525,1.185,10.411,9.161,13.54a131.744,131.744,0,0,0,20.468,6.493" fill="#88b1b8"/><path d="M568.431,211.415l-.933,1.316c-3.981,2.573-7.811,5.428-11.969,7.674-21.035,11.364-42.845,12.65-65.28,4.587-.352-3.809,1.269-7.258,2.439-11.508-3.485,3.4-2.558,7.565-4.1,10.854a4.29,4.29,0,0,1-2.9-1.759c3.671-10.5,7.26-21.033,11.04-31.5,3.074-8.507,9.154-12.285,19.736-12.615,2.237,2.252,3.116,5.323,4.777,7.924,2.49,3.9,8.241,4.277,10.852.658a28.44,28.44,0,0,1,10.5-8.649c10.489-1.716,16.463.442,20.042,7.4,2.47,4.8,2.743,10.166,3.713,15.36.64,3.423.078,7.108,2.088,10.25m-70.041-5.975a.8.8,0,0,0-.825.775v.036c-1.052.029-1.516.65-1.634,1.621a1.483,1.483,0,0,0-.8,1.658c-1.6.33-1.962,1.417-2.155,3.18a4.417,4.417,0,0,0,2.1-3.229,1.463,1.463,0,0,0,.81-1.655c1.075,0,1.522-.648,1.645-1.619l.815-.818a1.127,1.127,0,0,0,.285-.14c.042-.036.025-.139.034-.212l-.264.4" fill="#5cc57f"/><path d="M464.807,571.218c-1.659-1.346-3.686-2.771-4.051-5.271,9.142-8,20.7-11.363,31.42-16.319.5-.232,1.267.1,1.909.171,3.223,4.351,6.462,8.69,9.66,13.059.84,1.148,2.14,2.224.657,3.874q-8.955,9.965-17.839,20c-5.732-1.884-10.24-5.885-15.2-9.035" fill="#61d9d3"/><path d="M367.77,665.722l-3.1-10.8c2.781,2.885,2.685,6.859,4.482,10.078l-1.378.722" fill="#c1e9d1"/><path d="M488.582,224.338c1.545-3.288.618-7.459,4.1-10.854-1.17,4.25-2.791,7.7-2.439,11.508a1.751,1.751,0,0,1-1.664-.654" fill="#c1e9d1"/><path d="M307.073,148.323l1.192-9.379.944.088-.674,10.063Z" fill="#e59db0"/><path d="M552.355,271.578l-.745.825c.1-.413.084-.922.745-.825" fill="#61d9d3"/><path d="M137,544.638q-.848-16.983-1.693-33.967c-.1-1.907-.943-3-2.741-4.017-5.089-2.862-5.764-7.9-1.939-12.014,1.566.351,3.158.446,3.585,2.613.513,2.6,2.681,1.967,4.237,1.429,2.265-.783,3.232-2.829,3.411-5.109.285-3.638.266-7.3.644-10.931.6-5.739,4.138-7.74,8.982-4.741,5.3,3.283,10.352,3.414,15.636.351a47.341,47.341,0,0,1,7.465,29.734c-.377,5.811-5.5,13.671-13.134,14.588-3.038-1.739-6.389-1.85-10.82-2.41,4.7,4.018,7.706,8.186,12.107,10.857q1.13,6.031,2.257,12.062-4.662,7.422-9.318,14.846c-2.485,3.972-2.723,3.78-5.948.277-4.2-4.559-7.2-10.263-12.73-13.567m22.58-40.53c.344.39.7.793,1.176.2a6.134,6.134,0,0,0-.672-.714c2.316-1.584,5.074.035,7.462-1.031-1.086-3.539-1.145-3.972-3.714-3.62-4.062.556-9.337-2.566-12.142,3.372,2.664,1.454,5.778-.582,7.891,1.794m4.221.854a7.728,7.728,0,0,0-1.376-.395c-.223-.017-.464.194-.7.3.261.19.516.52.788.536a4.185,4.185,0,0,0,1.284-.444" fill="#f4b8bc"/><path d="M167.128,478.252c-5.284,3.063-10.335,2.932-15.636-.351-4.844-3-8.385-1-8.982,4.741-.378,3.626-.358,7.293-.644,10.931-.179,2.28-1.146,4.326-3.41,5.109-1.556.539-3.724,1.176-4.237-1.429-.427-2.167-2.02-2.261-3.586-2.613-.079-6.927-.406-13.887,2.511-20.443,2.733-6.141,7.2-11.236,14.025-10.61,5.735.526,11.591.806,17.254,1.771,6.321,1.077,7.329,7.158,2.7,12.893" fill="#814429"/><path d="M137,544.637c5.532,3.3,8.531,9.008,12.73,13.568,3.225,3.5,3.464,3.694,5.948-.277q4.648-7.43,9.318-14.847c2.614-.409,4.265.331,4.011,3.352-.182,4.158-.094,8.345-1.231,12.415-.356-.086-.713-.061-.83-.217-3.025-4.021-3.02-4.025-7.242-.738-6.754,5.257-6.754,5.257-14.031.9a10.913,10.913,0,0,1-1.386-.858c-2.481-2.052-4.258-1.942-5.092,1.533-.111.464-.594.84-1.252,1.722-1.845-5.13-2.486-10.039-3.331-14.9L137,544.64" fill="#fbfbf8"/><path d="M162.742,531.02c-4.4-2.67-7.4-6.839-12.107-10.857,4.43.56,7.781.67,10.82,2.41q.644,4.223,1.288,8.446" fill="#040305"/><path d="M76.586,318.107c-.942-1.734-2.02-3.418-4.336-2.959a3.649,3.649,0,0,0-3.182,3.271c-.236,1.979-.052,3.816,1.782,5.08,6.089,4.2,5.708,11.645-.766,15.018-4.318.017-6.469-1.885-7.6-7.128-.593-2.752-1.015-5.227-3.845-6.96-2.5-1.531-3.351-4.567-3.586-7.475a35.3,35.3,0,0,1,1.015-12.512c1.228-4.357,3.365-7.8,8.558-7.708,1.734.031,1.764-1.017,2.146-2.263,2.6-8.472,13.185-12.49,20.9-8.014,3.764,2.184,4.372,5.48,1.669,9.044a12.6,12.6,0,0,1-1.9.642c-6.065,1.045-7.674,3.509-6.26,9.629a14.634,14.634,0,0,0,1.848,5.32c.531,3.184-.711,5.185-3.9,5.982a18.706,18.706,0,0,0-2.545,1.034" fill="#040305"/><path d="M76.964,321.722q.158-1.258.316-2.515a26.394,26.394,0,0,0,3.673-1.534c2.275-1.364,3.914-.875,5.149,1.381,2.522,1.039,5.309,1.141,7.729,2.768,1.551,1.043,3.667.328,5.243-.9.739-.578,1.079-1.286-.266-1.617l-.574-.689c1.7-1.351,4.372-1.2,5.452-3.511,1.112.067,2.349-.679,3.133.938,2.423,4.992,5,9.893,5.031,15.671.059,10.6-7.444,17.186-17.911,15.613-.8-.119-1.6-.2-2.394-.291a19.057,19.057,0,0,0-1.851-.8c-3.531-1.1-6.592-2.554-6.038-7.142.051-.421-.469-.911-.724-1.368a36.119,36.119,0,0,0-3.84-12.824c-.063-.548-.268-.974-.9-1.031l.034-.006c.194-1.04.126-1.942-1.156-2.211l-.109.072" fill="#040305"/><path d="M99.369,395.893c-.083-1.125-.243-2.2-1.639-2.442-.178-2.1-1.017-3.659-3.282-4.075a30.717,30.717,0,0,1,.059-20.5l-.051.08a1.573,1.573,0,0,0,.5-1.855c3.1.32,3.974,3.061,5.2,5.149,6.451,11.028,10.986,22.941,15.719,34.758a33.718,33.718,0,0,1-11.326,5.431c-2.153-3.72-1.761-8.167-3.437-12.028-.642-1.479-1.162-3.01-1.738-4.517" fill="#61d9d3"/><path d="M79.75,377.917l-.824-.819c-2.158-4.637-3.9-9.376-3.511-14.624l.906-.152a17.881,17.881,0,0,0,8.851-.987c3.817,1,8.087,1.219,9.817,5.767l-.531,1.853.051-.079c-3,4.035-3.427,8.731-2.659,13.375.625,3.774-.871,3.167-3.1,2.207a3.459,3.459,0,0,0-2.454-1.633,5.817,5.817,0,0,0-3.269-2.455l-.815-.823-1.643-.806-.815-.824" fill="#61d9d3"/><path d="M85.171,361.339a17.877,17.877,0,0,1-8.85.987c.413-1.7.7-3.447,1.26-5.1,2.153-6.4,4.828-12.652,5.348-19.5.255.457.776.948.725,1.368-.554,4.588,2.507,6.039,6.037,7.142a18.575,18.575,0,0,1,1.851.8q-3.185,7.152-6.372,14.3" fill="#814429"/><path d="M83.028,311.094a14.667,14.667,0,0,1-1.848-5.323c-1.413-6.12.195-8.584,6.261-9.629a12.6,12.6,0,0,0,1.9-.642c.711,2.316,3.32,2.435,4.651,4.019,1.062,1.262,2.983,1.93,2.855,4.034-.059.094-.185.2-.166.279a2.532,2.532,0,0,0,.248.5l.025-.02c-1.488-.376-1.938.285-1.664,1.667l.028-.039c-2,.758-1.294,2.459-1.355,3.891l-.678.5c-2.356-2.02-4.678-4.283-7.779-1.116l-.035.033c-1.373-.128-1.572,1.3-2.44,1.841" fill="#814429"/><path d="M103.685,315.1c-1.08,2.314-3.751,2.16-5.449,3.514-1.352.567-3.24-.158-4.258,1.673a3.651,3.651,0,0,0,4.83-.987c1.345.331,1.005,1.038.266,1.617-1.575,1.233-3.692,1.947-5.242.9-2.42-1.628-5.207-1.729-7.727-2.768,7.166-.993,8.164-2.2,7.179-8.718l.677-.5c1.773,4.145,5.1,4.069,8.713,3.2a2.43,2.43,0,0,1,1.011,2.069" fill="#814429"/><path d="M98.365,304.471l3.619,5.728c-.617,2.263-2.249,2.461-4.075,1.811-2.978-1.058-2.541-3.7-2.594-6.069l-.028.039a2.7,2.7,0,0,0,1.664-1.667l-.025.02,1.439.137" fill="#814429"/><path d="M95.315,305.942c.054,2.374-.383,5.011,2.594,6.069,1.825.649,3.457.452,4.075-1.811l1.461-.186.035.027q-.4,1.5-.808,2.994c-3.616.867-6.94.944-8.713-3.2.063-1.433-.644-3.134,1.357-3.892" fill="#e59db0"/><path d="M103.445,310.014c.127-.943.253-1.886.391-2.908a3.062,3.062,0,0,1-.356,2.936Z" fill="#e59db0"/><path d="M98.365,304.471l-1.439-.137a2.646,2.646,0,0,1-.248-.5c-.019-.073.107-.184.166-.279a1.561,1.561,0,0,1,1.521.918" fill="#e59db0"/><path d="M94.456,368.955l.531-1.853h-.033a1.574,1.574,0,0,1-.5,1.855" fill="#92a2eb"/><path d="M140.205,151.583,114.842,148.7c5.093-4.864,4.887-10.845,4.851-16.8-.031-5.242,2.158-9.329,6.939-11.534,6.466-2.982,11.582-7.512,16.128-12.847a31.109,31.109,0,0,1,3.516-3.4c6.232-5.323,12.635-5.58,19.35-.811a37.246,37.246,0,0,1,7.216,7.16c3.442,4.252,7.17,8.178,12.058,10.83a9.579,9.579,0,0,1,5.408,10.093,50.815,50.815,0,0,1-.5,5.269c-.875,4.228-.98,8.309,1.923,12.335-5.4,1.1-10.379-.327-15.336-.055.713-3.57,2.33-6.94,2.286-10.686-.019-1.58-.143-2.769-1.964-3.5-7-2.826-12.619-7.328-16.157-14.143-.849-1.635-1.615-1.909-2.87-.293-2,2.573-4.336,4.9-6.192,7.562-1.667,2.4-2.728,2.474-4.381.02-1.166-1.731-2.956-2.868-5.277-2.056a5.572,5.572,0,0,0-3.751,5.332,15.626,15.626,0,0,0,.746,3.949c-.532,1.989-1.886,4.059.571,5.751a1.41,1.41,0,0,0,1.658.791c.289.862,1.129.806,1.779,1.066-.612,3.031-.918,6.153-2.638,8.855" fill="#5cc57f"/><path d="M140.2,151.584c1.719-2.7,2.024-5.824,2.637-8.855.528-.3,1.432-.141,1.409-1.133l.087.009c1.081.164,1.988.087,1.886-1.555l-1.884,1.434c.251-3.127-1.7-4.3-4.326-4.876a1.642,1.642,0,0,0-1.179-1.486,15.582,15.582,0,0,1-.746-3.949,5.572,5.572,0,0,1,3.75-5.332c2.321-.812,4.112.324,5.278,2.056,1.653,2.453,2.715,2.375,4.381-.02,1.855-2.665,4.194-4.989,6.192-7.562,1.255-1.616,2.021-1.342,2.87.293,3.537,6.815,9.159,11.317,16.157,14.143,1.821.735,1.944,1.925,1.963,3.5.045,3.746-1.572,7.116-2.285,10.686-1.45,2.432-2.8,4.9-5.176,6.664-3.58,2.657-7.3,2.227-11.141.824-1.337-3.752-4.839-4.219-7.936-5.463,1.928,5.3,3.652,10.5,6.773,15.058q-.361,5.422-.722,10.844c-.582,1.055-1.127,2.131-1.751,3.159-3.074,5.065-10.367,5.827-14.823,1.327a69.233,69.233,0,0,1-5.468-7.079l4.056-22.69m4.854-17.207-.171-.546c-.022.08-.087.19-.057.232a1.689,1.689,0,0,0,.294.266c1.207,1.143,1.574,2.746,2.266,4.169-.087-1.766.538-3.941-2.333-4.12m24.343,4.977c-1.32-.288-2.519-.085-2.648,1.47a1.977,1.977,0,0,0,2.124,2.316,2.742,2.742,0,0,0,2.806-2.362c.257-1.766-1.484-.957-2.282-1.424" fill="#c47e62"/><path d="M158.91,166.024c-3.121-4.558-4.845-9.757-6.773-15.058,3.1,1.243,6.6,1.71,7.936,5.463q-.58,4.8-1.163,9.6" fill="#040305"/><path d="M130.5,577.506c-2.986,0-5.985-.171-8.955.049s-4.138-.718-4.026-3.85c.1-2.853.4-4.579,3.977-4.43,6.369.266,12.761.223,19.134.017,3.486-.113,3.537,1.815,3.589,4.372.053,2.609-.438,4.11-3.543,3.894-3.377-.236-6.783-.053-10.177-.052" fill="#fbfbf8"/><path d="M103.382,412.924l1.11-.487a.867.867,0,0,1-1.11.487" fill="#61d9d3"/><path d="M82.929,337.722c-.52,6.847-3.2,13.1-5.349,19.5-.556,1.655-.847,3.4-1.26,5.1l-.907.151-.326-.184A76.651,76.651,0,0,1,79.43,348.8c2.98-7.647,2.941-15.036-1.327-22.218a3.713,3.713,0,0,1-.764-2.665l-.048.05.938-.107-.034.006a1,1,0,0,0,.9,1.031,36.144,36.144,0,0,1,3.839,12.824" fill="#979bb6"/><path d="M93.282,310.336c.985,6.514-.014,7.725-7.179,8.718-1.236-2.257-2.875-2.745-5.151-1.381a26.389,26.389,0,0,1-3.673,1.533.96.96,0,0,1-.7-1.1,18.8,18.8,0,0,1,2.546-1.034c3.186-.8,4.428-2.8,3.9-5.981.868-.539,1.067-1.966,2.44-1.839.412,1.085-.709,1.645-.87,2.551-.47,2.627.346,4.7,3,5.3,2.459.556,4.265-.728,4.544-3.314.292-2.713-1.107-4.333-3.881-4.579-.914-.081-1.842,0-2.763,0,3.1-3.168,5.422-.9,7.779,1.116" fill="#979bb6"/><path d="M77.342,323.919c-2.062-.27-2.824-2.767-5.1-2.87a1.292,1.292,0,0,1-.738-2.192c.735-.963,1.654-.779,2.388.042.935,1.046,1.2,2.805,3.078,2.823l.111-.07q.109,1.158.216,2.317Z" fill="#979bb6"/><path d="M570.644,323.168c-8.56-6.692-10.411-15.051-5.069-22.961.916-1.357,1.861-2.817,3.393-3.445,1.655-.679,1.979-1.643,2.016-3.362.152-6.995,5.1-10.479,11.914-8.451,1.383.412,2.177.7,3.464-.583,4.638-4.646,11.568-4.951,17.56-1.112,5.725,3.668,8.125,10.117,5.739,16.287-.788,2.037-.772,3.262.811,4.948,3.825,4.073,5.144,9.154,4.866,14.678-.166,2.162-1.184,2.812-3.253,1.994a17.712,17.712,0,0,1-9.209-8.268c-.73-1.32-.467-3.6-2.7-3.635-2.339-.038-3.55,1.755-4.611,3.545a18.446,18.446,0,0,0-1.707,3.247c-1.448,4.177-4.873,6.381-8.446,8.257-1.906,1-5.291,1.609-6.173.134-2.646-4.423-5.547-2.33-8.6-1.274" fill="#040305"/><path d="M570.644,323.164c3.052-1.056,5.952-3.149,8.6,1.273.882,1.475,4.268.866,6.173-.134,3.574-1.876,7-4.079,8.446-8.257a18.381,18.381,0,0,1,1.707-3.247c1.061-1.79,2.272-3.583,4.611-3.545,2.229.036,1.966,2.314,2.7,3.635a17.7,17.7,0,0,0,9.207,8.275c2.069.818,3.087.167,3.253-1.994,1.745-.035,3.588-.557,5.1.76a4.859,4.859,0,0,1,1.628,5.825c-1.109,2.991-3,.126-4.781.832,1.231,1.4,2.315,3.174-.885,2.819-2.128-.236-2.13,1.149-2.319,2.45a30.117,30.117,0,0,1-6.946,14.986,23.062,23.062,0,0,1-11.832,4.494c4.854,2.588,8.023,5.889,12.494,6.979q.18,5.686.361,11.373c-7.64,5.558-15.253,5.4-22.84-.111-.793-6.778.628-13.5.571-20.258a7.146,7.146,0,0,0-1.689-5.174,22.166,22.166,0,0,1-4.32-8.642c-.7-2.345-.2-5.135-4.391-5.555-1.5-.15-6.347-2.309-4.841-6.778m22.538,10.616-.24-.242.283.2c2.31,2.35,4.521,1.679,6.7-.051-2.215.837-4.489.167-6.74.089m-1.267-2.562a.889.889,0,0,0-.07.278c0,.033.123.061.189.093a.913.913,0,0,0,.067-.277c0-.035-.121-.063-.186-.094m-15.348-3.627c-.218-.147-.417-.378-.638-.4s-.6.139-.632.286c-.112.458.145.709.619.548a3.028,3.028,0,0,0,.651-.434" fill="#fcd6c8"/><path d="M607.8,358.313c-4.471-1.09-7.639-4.39-12.493-6.979a23.05,23.05,0,0,0,11.832-4.494c.593,3.8-.62,7.71.662,11.473" fill="#f9c2b2"/><path d="M489.269,144.617c-12.454-1.044-16.091-13.037-14.235-22.763,2.168-11.354,8.859-19.427,19.2-24.323,19.332-9.153,46.867-.58,57.793,17.817,7.262,12.227,5.874,26.6-3.378,35.732-5.123,5.054-11.379,6.6-18.32,6.214-.7-1.144-1.806-2.059-1.983-3.5,1.213-.614,2.715-.993.744-2.668-2.549-2.168-4.905-4.564-7.344-6.862a31.34,31.34,0,0,0,1.364-2.927c1.12-3.184.659-6-2.574-7.611-2.9-1.443-7.169.042-7.955,3.463-1.308,5.7-5.091,4.97-8.939,4.342-2.378-.388-4.635-1.465-7-2.03-2.542-.608-4.719-4.45-6.843-2.679-1.383,1.152-.436,5.1-.533,7.794" fill="#040305"/><path d="M489.271,144.617c.1-2.7-.85-6.643.533-7.794,2.124-1.77,4.3,2.071,6.843,2.679,2.36.565,4.617,1.642,7,2.03,3.848.628,7.63,1.353,8.939-4.342.786-3.421,5.055-4.906,7.955-3.463,3.234,1.609,3.694,4.426,2.574,7.611a31.453,31.453,0,0,1-1.364,2.926c-2.273-1.676-3.879-1.93-4.747,1.51-.692,2.744-2.049,5.316-3.031,7.994-.869,2.371-1.114,3.955,2.49,2.8,3.863-1.235,7.917-1.876,11.888-2.775.178,1.441,1.282,2.356,1.984,3.5,4.279,6.925,8.577,13.838,12.264,21.108a28.44,28.44,0,0,0-10.5,8.649c-2.611,3.619-8.361,3.242-10.852-.658-1.66-2.6-2.539-5.672-4.777-7.924l-4.251-8.993a8.6,8.6,0,0,0,.1-7.224,4.9,4.9,0,0,0-1.723,4.6c-7.45,3.22-11.464,1.665-15.2-5.92a95.055,95.055,0,0,1-6.113-16.315" fill="#814429"/><path d="M510.584,166.851a4.9,4.9,0,0,1,1.723-4.6,8.607,8.607,0,0,1-.1,7.224l-1.626-2.625" fill="#040305"/><path d="M535.834,498.5a22.759,22.759,0,0,1,3.869-1.015,3.9,3.9,0,0,1,4.247,3c.57,1.968.627,4.082-1.927,5-3.139-1.18-6.185-1.849-8.471,1.574-6.025,3.827-6.151,10.356-7.4,16.329-1.272,6.067-.246,12.045,1.051,17.986-1.272,1.109-2.887,1.344-4.434,1.768-6.35,1.738-12.191-.073-17.943-2.538a108.675,108.675,0,0,1,.836-16.308c.141,1.119.281,2.239.518,4.129l9.438-10.925c-4.224.982-7.265,1.256-9.949,2.871-5.707-.09-8.948-3.032-9.745-8.746-.657-4.706.859-9.131,1.64-13.653,2.784-.325,5.621.865,8.393-.59,5.615-2.946,6.071-8.335,1.121-14.693a8.184,8.184,0,0,1,5.916-3.95c1.883-.4,3.744-.655,5.462-3.183.13,3.78,2.15,4.642,4.486,5.534,6.709,2.56,10.137,8.345,9.683,15.783q-1.949-.625-3.9-1.244a24.114,24.114,0,0,0-.788-3.965,8.339,8.339,0,0,0-15.663,5.7,7.879,7.879,0,0,0,7.179,5.679c4.648.426,7.307-2.15,9.125-6.01,2.436.4,4.512,2.563,7.25,1.474" fill="#eaa25f"/><path d="M507.079,482.684c4.95,6.358,4.494,11.746-1.121,14.693-2.772,1.455-5.609.265-8.393.59-.2-2.379-2.779-2.593-3.817-4.2.558-.75.222-1.514.122-2.321-.867-6.963,4.5-11.283,11.221-9.088a12.857,12.857,0,0,0,1.989.33" fill="#d0d9f6"/><path d="M504.823,540.611c5.751,2.465,11.593,4.276,17.942,2.538,1.547-.424,3.162-.66,4.435-1.768l2.185-.122q-6.671,6.5-13.335,13.007c-1.6,1.572-2.331.092-3.22-.857q-4.865-5.2-9.717-10.4.854-1.2,1.71-2.4" fill="#61d9d3"/><path d="M505.669,520.365c2.685-1.615,5.726-1.889,9.949-2.871l-9.441,10.937c-.237-1.888-.378-3.01-.518-4.129Z" fill="#040305"/><path d="M533.552,507.065c2.286-3.423,5.332-2.754,8.471-1.574a24.267,24.267,0,0,1,.516,2.792c.2,2.822-.956,4.88-3.882,5.221-3.1.36-4.818-1.343-5.151-4.409a14.8,14.8,0,0,1,.047-2.03" fill="#cf3e64"/><path d="M535.834,498.5c-2.738,1.089-4.814-1.077-7.251-1.473q.074-.7.148-1.4l3.895,1.244,3.208,1.631" fill="#979bb6"/><path d="M530.816,541.024l-1.5.278c.307-1.132.843-1.034,1.5-.278" fill="#61d9d3"/><path d="M328.711,97.562c.372,10.62.057,11.221-10.118,14.694-5.491,1.873-11.106,3.388-16.681,5.011-4.312,1.255-8.208,3.411-12.166,5.443-3.167-8.878-1.217-17.362,6.118-23.062a15.293,15.293,0,0,0,6.376-13.325A12.96,12.96,0,0,1,307.6,75.01c4.936-3.636,7.267-8.559,7.934-14.56,1.01-9.087,4.964-16.354,13.717-20.185,2.44-1.068,1.1-2.118.436-3.393-3.052-5.861-2.212-12.1,2.122-16.115,4.592-4.251,11.9-4.548,16.425-.669,4.245,3.636,4.775,10.34,1.132,15.6-.991,1.429-2.259,2.667-3.673,4.311,9.787,4.129,13.289,12.28,14.559,21.943.7,5.325,2.94,9.838,7.542,13a8.941,8.941,0,0,1,3.677,10.784c-2.035,6.215-.19,11.125,3.913,15.7,4.947,5.521,6.522,11.8,3.793,18.9a131.409,131.409,0,0,1-20.47-6.492c-7.976-3.128-9.114-5.015-9.161-13.539-.007-1.215-.12-2.43-.184-3.645-2.532-3.664-7.644-2.97-10.79-6.272,7.008-.75,12.025-3.939,15.14-10.024,1.178-2.3,1.09-3.8-1.345-5.344a47.166,47.166,0,0,1-11.528-10.852,65.846,65.846,0,0,1-7.8-13.534c-1.785,2.513-2.814,4.94-4.764,6.692-1.888,1.7-3.522,3.885-6.374,3.925-4.584.064-5.442,1.17-4.085,5.537-1.3,1.9-1.839,3.881-.186,5.81,1.628,1.9,3.565,1.161,5.443.362.419,2.254.253,4.864,1.366,6.7,3.4,5.584,4.239,11.616,4.27,17.916" fill="#040305"/><path d="M344.65,611.368a15.377,15.377,0,0,1-8.755-.8,53.678,53.678,0,0,0-5.728-2.009c-6.7-1.662-6.678-1.615-6.746-8.615-.016-1.682.615-3.572-1.063-4.923a.34.34,0,0,1,.257-.376c3.2-2.354,4.456-6.028,6.578-9.172-2.547.806-5.323.834-6.72,3.4-7.534,2.283-15.069-4.156-15.32-12.539-.33-11.029,4.075-20,12.736-26.865.953-.755,1.929-1.483,2.893-2.224q2.247-.523,4.5-1.046c1.184,2.442,2.956,4.346,5.644,4.912,2.443.515,2.686,1.623,2.451,3.976-.626,6.268,4.349,12.156,10.046,12.44,5.036,1.035,6.346,3.84,3.767,8.075-.487.8-.982,1.6-1.474,2.392-2.554-.22-3.856.54-3.14,3.455a20.364,20.364,0,0,1,.133,4.4,70.128,70.128,0,0,0,.737,11.6c-1.688,4.112-.464,8.363-.6,12.549q-.1.686-.189,1.372m-24.748-49.533c-1.531-2.8,1.741-2.978,2.345-4.8-4.822,1.2-5.124,1.748-2.345,4.8" fill="#d19f6c"/><path d="M344.838,610c.138-4.186-1.086-8.438.6-12.549,5.221.221,10.164-1.318,15.179-2.4,5.435-1.174,10.827-2.323,16.5-1.533,11.868,1.654,17.823,11.88,13.379,23.032-1.765,4.43-5.322,7.424-8.1,11.046a19.689,19.689,0,0,0-7.518-2.824l.068.039c-4.62-2.567-9.658-3.886-14.783-4.943l.065.038a54.969,54.969,0,0,0-9.867-4.945l.051.038a1.555,1.555,0,0,0-1.694-.849l.052.04c-2.457-3.176-1.228-4.776,2.243-5.8,3.121-.916,6.175-1.984,9.386-2.656,5.377-1.125,10.8-.453,16.173-.829-11.2-2.237-21.712-.078-31.735,5.091" fill="#5cc57f"/><path d="M347.711,577.991c.492-.8.987-1.592,1.474-2.392,2.579-4.235,1.269-7.039-3.767-8.075-.113-1.217-.287-2.433-.329-3.652-.212-6.13-2.554-11.855-3.356-17.871,8.2,1.43,13.692,6.056,15.471,14.221,1.739,7.981-1.264,14.388-7.842,19.147a1.571,1.571,0,0,1-1.65-1.377" fill="#cf3e64"/><path d="M327.277,546.2l-4.5,1.046c-.436-4.422-1.407-8.784-.237-13.3,1.226-4.725,4.7-6.376,8.913-3.746,5.683,3.547,8.193,9.211,9.957,15.332-4.763-.851-9.542-2.08-14.136.665" fill="#e59db0"/><path d="M327.277,546.2c4.594-2.745,9.373-1.516,14.136-.665a2.885,2.885,0,0,0,.32.47c.8,6.015,3.145,11.74,3.356,17.87.042,1.219.216,2.435.328,3.652-5.7-.283-10.672-6.172-10.046-12.44.235-2.353-.008-3.461-2.451-3.975-2.688-.566-4.46-2.47-5.643-4.912" fill="#040305"/><path d="M322.466,588.87c1.4-2.564,4.174-2.591,6.72-3.4-2.121,3.144-3.378,6.818-6.578,9.172q-.07-2.886-.143-5.775" fill="#040305"/><path d="M347.711,577.99a1.571,1.571,0,0,0,1.65,1.377c.63,3.731-.6,6.121-4.658,6.478a20.3,20.3,0,0,0-.132-4.4c-.716-2.916.586-3.676,3.14-3.456" fill="#040305"/><path d="M374.878,624.766a19.7,19.7,0,0,1,7.518,2.824l-.01.04a9,9,0,0,1-7.508-2.864" fill="#c1e9d1"/><path d="M323.046,616.411c1.148,4.453-1.008,7.947-3.369,11.339-2.772,3.983-5.124,7.9-.759,12.345a2.147,2.147,0,0,1,.4,2.651,1.493,1.493,0,0,1-1.73.754,2.961,2.961,0,0,1-2.107-2.756c-.65-5.008.031-9.7,3.242-13.894,1.88-2.454,3.929-5,3.163-8.5.757-.424-1.5-2.644,1.156-1.936" fill="#814429"/><path d="M331.269,617.838c1.163,4.435-.584,8.243-2.583,12-2.021,3.8-3.449,7.474.864,10.849,1.046.819,1.785,2.539.285,3.505-1.914,1.232-2.807-.77-3.174-1.99a17.764,17.764,0,0,1,1.22-13.73c1.5-2.919,3.806-5.778,2.345-9.486q.525-.573,1.043-1.144" fill="#814429"/><path d="M344.838,610c10.022-5.169,20.531-7.327,31.735-5.091-5.373.376-10.8-.3-16.173.829-3.211.672-6.265,1.74-9.386,2.656-3.473,1.019-4.7,2.619-2.245,5.795-1.881-.194-2.5-2.237-4.119-2.814q.095-.688.188-1.374" fill="#c1e9d1"/><path d="M323.046,616.414c-2.657-.708-.4,1.512-1.156,1.936-3.449.04-2.244-2.533-2.31-4.277-.038-.99.7-2.124,1.677-1.89,2.248.541,2.091,2.428,1.79,4.23" fill="#cf3e64"/><path d="M331.269,617.838q-.519.571-1.043,1.144c-2.442-1.08-3.337-3.907-1.7-5.531,1.3-1.3,2.238-.513,2.758.795a5.43,5.43,0,0,1-.014,3.592" fill="#cf3e64"/><path d="M360.162,619.862c5.125,1.057,10.163,2.376,14.783,4.943-5.158-.96-10.341-1.843-14.783-4.943" fill="#c1e9d1"/><path d="M350.36,614.955a54.9,54.9,0,0,1,9.867,4.944c-3.853-.523-7.363-1.729-9.867-4.944" fill="#c1e9d1"/><path d="M318.579,610.438a7.968,7.968,0,0,1-8.355.507,27.144,27.144,0,0,0,8.355-.507" fill="#c1e9d1"/><path d="M320.581,609.247c.571-.227,1.368-.81,1.672-.617,1.139.722-.12.863-.462,1.094-.258.175-.707.068-1.071.087q-.07-.282-.14-.564" fill="#c1e9d1"/><path d="M348.717,614.144a1.556,1.556,0,0,1,1.694.85,1.556,1.556,0,0,1-1.694-.85" fill="#c1e9d1"/><path d="M144.639,209.48c-2.315,0-4.641.132-6.943-.038a3.55,3.55,0,0,1-3.632-3.464c0-.074,0-.148,0-.222.02-2.234,1.241-4.125,3.621-4.227,4.757-.2,9.54-.228,14.294.023a3.994,3.994,0,0,1-.393,7.969c-2.316.016-4.632,0-6.948,0v-.044" fill="#fbfbf8"/><path d="M168.078,205.159a1.977,1.977,0,0,1,1.88,2.069c0,.051-.007.1-.013.151a1.884,1.884,0,0,1-1.828,1.938,1.864,1.864,0,0,1-.308-.016c-1.231-.12-2.038-.825-1.876-2.131a2.143,2.143,0,0,1,2.145-2.011" fill="#cf3e64"/><path d="M161.747,196.372a1.891,1.891,0,0,1-1.92-1.862,1.922,1.922,0,0,1,.038-.407,1.667,1.667,0,0,1,1.634-1.7,1.7,1.7,0,0,1,.226.011,1.922,1.922,0,0,1,2.02,1.819,2.047,2.047,0,0,1-1.852,2.139q-.072,0-.144,0" fill="#cf3e64"/><path d="M317.818,66.778c-1.357-4.366-.5-5.472,4.085-5.536,2.852-.04,4.486-2.229,6.374-3.924,1.951-1.753,2.978-4.179,4.764-6.692a65.768,65.768,0,0,0,7.8,13.533,47.166,47.166,0,0,0,11.528,10.852c2.435,1.54,2.522,3.042,1.344,5.343-3.114,6.085-8.131,9.274-15.139,10.024,3.146,3.3,8.259,2.607,10.79,6.272-6.772,2.8-13.689,2.334-20.649.913-.032-6.3-.875-12.333-4.271-17.917-1.114-1.832-.948-4.441-1.367-6.694,1.068-1.7,1.535-3.475.214-5.21-1.481-1.945-3.478-1.591-5.47-.963m18.166,5.85-.838-.287q.147.421.3.845l1.47,1.024c1.91,1.474,3.791,1.264,5.646-.1.13-.224.427-.551.363-.654-.325-.524-.651-.2-.943.1H337.52q-.764-.465-1.529-.924" fill="#d19f6c"/><path d="M495.068,209.481a4.422,4.422,0,0,1-2.1,3.229c.193-1.763.555-2.85,2.155-3.18l-.06-.049" fill="#c1e9d1"/><path d="M495.934,207.872c.117-.972.582-1.592,1.634-1.621l-.046-.045c-.123.972-.569,1.615-1.645,1.619Z" fill="#c1e9d1"/><path d="M495.877,207.825a1.461,1.461,0,0,1-.809,1.655l.06.049a1.483,1.483,0,0,1,.806-1.658l-.057-.046" fill="#c1e9d1"/><path d="M498.336,205.388l-.815.818.046.045a.8.8,0,0,1,.789-.811h.036Z" fill="#c1e9d1"/><path d="M498.392,205.44l.264-.4c-.01.073.007.176-.034.212a1.128,1.128,0,0,1-.285.14l.055.052" fill="#c1e9d1"/><path d="M159.583,504.108c-2.112-2.377-5.226-.341-7.891-1.8,2.8-5.938,8.08-2.816,12.143-3.372,2.569-.352,2.629.081,3.714,3.621-2.388,1.065-5.146-.554-7.462,1.03q-.254.256-.5.516" fill="#814429"/><path d="M163.8,504.961a4.185,4.185,0,0,1-1.284.444c-.272-.016-.526-.346-.788-.536.233-.109.474-.32.7-.3a7.728,7.728,0,0,1,1.376.395" fill="#814429"/><path d="M160.087,503.592a6.213,6.213,0,0,1,.672.714c-.473.594-.832.191-1.176-.2.167-.173.333-.344.5-.515" fill="#814429"/><path d="M77.288,323.968l-.216-2.317c1.279.268,1.348,1.171,1.154,2.21Z" fill="#814429"/><path d="M79.091,324.9a1,1,0,0,1-.9-1.031c.628.057.832.483.9,1.031" fill="#814429"/><path d="M96.951,304.31a2.705,2.705,0,0,1-1.665,1.667c-.274-1.382.177-2.042,1.665-1.667" fill="#e59db0"/><path d="M98.807,319.3a3.651,3.651,0,0,1-4.83.987c1.019-1.83,2.906-1.1,4.258-1.672l.571.685" fill="#040305"/><path d="M138.833,135.121a1.644,1.644,0,0,1,1.18,1.488c-1.151,1.258-.374,2.733-.462,4.11l-.147.154c-2.457-1.693-1.1-3.763-.571-5.752" fill="#c1e9d1"/><path d="M144.248,141.6c.025.991-.879.828-1.407,1.133-.65-.26-1.49-.2-1.779-1.066l.032-.04,3.154-.027" fill="#c1e9d1"/><path d="M141.063,141.663a1.41,1.41,0,0,1-1.658-.791l.145-.151a1.569,1.569,0,0,1,1.546.9Z" fill="#c1e9d1"/><path d="M169.4,139.354c.8.467,2.539-.343,2.282,1.424a2.742,2.742,0,0,1-2.806,2.362,1.975,1.975,0,0,1-2.124-2.316c.129-1.555,1.327-1.758,2.648-1.47" fill="#040305"/><path d="M141.1,141.623a1.569,1.569,0,0,0-1.546-.9c.09-1.379-.688-2.853.464-4.112,2.629.57,4.577,1.747,4.326,4.874v.122l-.087-.009-3.155.027" fill="#5cc57f"/><path d="M145.053,134.38c2.876.177,2.25,2.352,2.338,4.118-.692-1.423-1.058-3.026-2.266-4.169Z" fill="#c1e9d1"/><path d="M144.335,141.6v-.119l1.884-1.432c.1,1.643-.8,1.719-1.886,1.555" fill="#c1e9d1"/><path d="M145.125,134.328a1.688,1.688,0,0,1-.294-.266c-.03-.042.035-.152.057-.232.057.182.114.364.169.548l.069-.05" fill="#c1e9d1"/><path d="M85.5,309.22c.922-.006,1.85-.085,2.763,0,2.774.246,4.174,1.865,3.881,4.579-.279,2.586-2.085,3.87-4.543,3.314-2.659-.6-3.475-2.678-3.006-5.3.162-.9,1.282-1.465.871-2.551l.034-.033" fill="#814429"/><path d="M593.183,333.784c2.251.078,4.525.748,6.74-.089-2.175,1.73-4.388,2.4-6.7.051Z" fill="#040305"/><path d="M591.915,331.223c.066.031.184.059.186.094a.906.906,0,0,1-.066.276c-.067-.031-.188-.059-.19-.092a.956.956,0,0,1,.07-.278" fill="#040305"/><path d="M576.566,327.6a3.026,3.026,0,0,1-.651.434c-.474.161-.731-.09-.619-.548.036-.147.423-.307.632-.286s.42.253.638.4" fill="#d0d9f6"/><path d="M593.225,333.746l-.283-.2.24.242.043-.038" fill="#040305"/><path d="M528.343,153.794c-3.971.9-8.024,1.541-11.888,2.775-3.6,1.153-3.359-.431-2.49-2.8.982-2.678,2.339-5.249,3.031-7.994.867-3.44,2.474-3.186,4.747-1.51,2.439,2.3,4.794,4.7,7.344,6.864,1.97,1.675.468,2.054-.744,2.667" fill="#cf3e64"/><path d="M528.731,495.624q-.075.7-.148,1.4c-1.818,3.86-4.476,6.436-9.124,6.01a7.879,7.879,0,0,1-7.179-5.678,8.339,8.339,0,0,1,15.663-5.7,24.008,24.008,0,0,1,.789,3.965" fill="#d0d9f6"/><path d="M317.818,66.778c1.993-.627,3.989-.981,5.47.963,1.321,1.736.854,3.513-.214,5.21-1.878.8-3.814,1.538-5.442-.362-1.654-1.929-1.118-3.912.186-5.811" fill="#61d9d3"/><path d="M319.9,561.837c-2.779-3.052-2.477-3.6,2.345-4.8-.6,1.822-3.876,2-2.345,4.8" fill="#814429"/><path d="M337.514,73.551h4.464q.281.291.584.559c-1.859,1.366-3.739,1.576-5.646.1l.6-.658" fill="#814429"/><path d="M335.986,72.624l1.527.927q-.3.327-.6.657-.738-.51-1.473-1.023.282-.27.544-.561" fill="#814429"/><path d="M335.443,73.185q-.148-.421-.3-.845c.279.1.558.192.838.285-.174.191-.355.378-.543.559" fill="#814429"/><path d="M341.977,73.547c.293-.3.619-.621.944-.1.063.1-.233.431-.361.655q-.3-.265-.582-.558" fill="#814429"/></g><g clip-path="url(#b)"><path d="M455.017,268.365c3.822,3.676,5.7,8.55,7.854,13.188a138.2,138.2,0,0,1,12.616,69.814A136.305,136.305,0,0,1,448,424.279a139.32,139.32,0,0,1-89.982,54.495,154.659,154.659,0,0,1-34.553,1.25c-15.374-.962-30.19-5.1-44.336-11.371a136.648,136.648,0,0,1-44.121-30.887c-20.388-21.463-33.108-46.723-37.543-76.212a146.145,146.145,0,0,1-1.252-31.281A134.857,134.857,0,0,1,206.95,285.8,138.033,138.033,0,0,1,240,238.8a34.794,34.794,0,0,0,2.627-3.086c1.176.262,2.346.559,3.529.779,5.309.984,10.624-1.271,12.214-5.467.731-1.932,2.239-4.65-1.848-5.033a42.893,42.893,0,0,1,14.879-9.132c7.331,6.3,7.283,6.251,14.139-.81,1.624-1.673,2.238-2.889.039-4.458a8.12,8.12,0,0,1-1.439-1.869c5.507-.223,10.187-3.552,15.593-4.152.592.748.068,1.746.834,2.594,2.432,2.7,5.073,4.518,8.877,3.216,4.424-1.514,5.27-5.007,4.943-9.117l14.615-1.579c1.231,5.617,3.131,7.131,9.041,7.193,24.728.261,47.473,7.2,68.443,20.21,14.662,9.1,26.7,21,37.247,34.526,2.433,6.239,5.027,7.562,11.278,5.752m-3.784,87.362c-.067-.976-.188-1.922-1.277-2.341-7.321-7.039-16.948-9.89-25.776-14.191-4.562-13.921-9.789-27.6-15.228-41.194-1.089-2.722-.958-5.974-3.315-8.177-2.026-6.044-6.367-8.981-13.435-8.985q-43.73-.021-87.461-.006-24.316,0-48.635.014c-6.678.015-11.493,3.526-12.718,9.105a6.348,6.348,0,0,0-2.194,2.834q-9.428,23.461-18.913,46.9a11.1,11.1,0,0,1-.752,2.705,27,27,0,0,0-3.309,15.09c.235,5.051,1.544,9.839,5.693,13.31,4.082,6.02,10.065,8.637,17.025,9.505,2.476,16.323,12.734,20.96,26.286,20.093,7.1.436,13.265-1.556,17.533-7.5,1.663-2.315,2.266-2.035,3.927,0a20.434,20.434,0,0,0,22.862,6.518c8-2.69,13.293-9.944,13.79-18.9,5.807-.059,11.616-.042,17.42-.2,6.867-.186,13.754.574,20.6-.412,1.041,16.535,12.755,21.319,25.7,20.5,7.7.444,14.071-2,18.466-8.6,1.638-2.46,2.1-.086,2.769.668,6.673,7.54,15.7,9.934,24.26,6.361,8.618-3.6,13.136-11.532,12.36-21.7,1.747-1.9,3.765-3.593,4.676-6.13a9.739,9.739,0,0,0,1.391-4.458,1.573,1.573,0,0,0,.408-1.764,14.335,14.335,0,0,0-2.153-9.045" fill="#88b1b8"/><path d="M443.739,262.613c-10.542-13.529-22.584-25.427-37.246-34.526-20.97-13.013-43.716-19.95-68.444-20.21-5.909-.063-7.81-1.576-9.041-7.194,1.837-5.28,3.443-6.432,9.867-6.245,26.047.757,50.361,7.565,72.7,21.116A146.2,146.2,0,0,1,451.722,251.5c.81,1.048,1.965,1.948,1.86,3.494-6.067-.844-8.747,1.232-9.842,7.621" fill="#5cc57f"/><path d="M284.147,209.719a8.1,8.1,0,0,0,1.439,1.869c2.2,1.568,1.586,2.786-.038,4.458-6.856,7.061-6.808,7.108-14.139.81-2.715-2.222-2.313-3.971.219-6.355,6.315-5.948,6.183-6.087,12.519-.782" fill="#e59db0"/><path d="M256.529,225.989c4.086.384,2.579,3.1,1.847,5.033-1.589,4.2-6.9,6.451-12.213,5.466-1.184-.219-2.353-.516-3.529-.778-.37-2.366-2.608-3.63-3.33-5.9-.9-2.816-.561-3.972,2.665-3.861,4.848.167,9.707.042,14.561.04" fill="#c1e9d1"/><path d="M314.392,202.262c.327,4.11-.52,7.6-4.943,9.116-3.8,1.3-6.445-.521-8.877-3.216-.766-.849-.242-1.846-.834-2.6.2-3.963,1.685-7.12,5.865-8.061s6.851,1.332,8.789,4.755" fill="#2545d8"/><path d="M443.739,262.613c1.1-6.389,3.775-8.465,9.842-7.621,6.049,3.252,6.565,8.061,1.436,13.373-6.251,1.81-8.845.487-11.278-5.752" fill="#cf3e64"/><path d="M222.277,339.684q9.465-23.446,18.913-46.9a6.356,6.356,0,0,1,2.194-2.835l56.525.082c2.678,8.093,4.521,16.466,8.119,24.251.386,1.706.679,3.438,1.177,5.111,2,6.725,4.067,13.431,6.109,20.145-2.176.025-4.352.07-6.528.072q-43.256.042-86.51.074" fill="#dcf4e4"/><path d="M222.274,339.684l86.51-.074c2.176,0,4.352-.047,6.528-.071q.014,15.528.025,31.053l-27.823.119c-4.633-8.138-11.423-12.3-20.972-11.38-10.267-1.288-17.92,2.839-23.464,11.332l-19.173.128c-4.148-3.473-5.457-8.261-5.692-13.312a27,27,0,0,1,3.309-15.09,11.1,11.1,0,0,0,.752-2.705" fill="#c1e9d1"/><path d="M299.909,290.031l-56.525-.081c1.226-5.58,6.04-9.09,12.719-9.1q24.316-.054,48.635-.014,43.729,0,87.461.006c7.068,0,11.408,2.941,13.434,8.985l-31.432.214-72.783-.087-1.509.081" fill="#5cc57f"/><path d="M374.2,290.037l31.432-.214c2.359,2.2,2.227,5.454,3.316,8.176,5.44,13.593,10.667,27.274,15.229,41.2-4.429.846-8.9.249-13.345.344a14.321,14.321,0,0,0-8.416-13.92c-5.46-2.65-9.44-2.022-13.978,2.207A398.881,398.881,0,0,1,374.2,290.041" fill="#c1e9d1"/><path d="M243.08,370.663c5.543-8.494,13.2-12.62,23.464-11.333.7.348,1.385.731,2.1,1.037,8.983,3.841,13.739,10.657,13.7,19.664-.034,8.917-4.9,15.615-14.094,19.323-.551.223-.954.421-1.038,1.032-13.552.868-23.81-3.77-26.286-20.092q1.073-4.816,2.147-9.632m28.8-.6.584.261q-.109-.309-.218-.619l-.829-.814q-.814-.428-1.632-.852l-.6-.234.24.591q.8.428,1.612.855c.28.271.559.542.84.812m-20.407-.366c-.355.319-.853.836-.39,1.134.591.38.614-.373.742-.77l.814-.812c4.727-1.812,9.4-3.929,14.763-2.072-5.522-3.163-10.12-2.489-15.118,1.73l-.81.79m22.813,4.45c.221.324.158,1.158.76.8.46-.273.027-.828-.339-1.156-.142-.746.022-1.658-.966-1.959a.668.668,0,0,0-.552.348c-.16.924.544,1.411,1.1,1.966m.594,10.552c2.059-2.239,1.35-4.873.814-7.5-.572,2.42-.264,4.951-.814,7.5m-1.3,3.524c.262-.292.617-.532.735-.858.143-.394-.057-.843-.571-.607-.292.134-.481.564-.624.9-.039.091.257.324.46.565" fill="#f5ecde"/><path d="M389.057,400.395c-12.946.818-24.661-3.967-25.7-20.5a20.781,20.781,0,0,1,1.794-9.073q7.516-13.461,23.314-10.923c9.3,2.417,15.109,9.327,15.869,18.872.673,8.451-4.7,16.767-13.043,20.29-.783.331-2.038-.013-2.234,1.333m4.651-30.334.58.25-.229-.6-.813-.83-1.613-.91a12.13,12.13,0,0,0-16.753.887l-.811.81q-.41.419-.818.841l-.247.574.586-.231c.28-.277.561-.554.838-.834l.81-.792a16.028,16.028,0,0,1,16.049-.823l1.583.845q.418.406.836.811m1.99,2.065-.588-.255.224.615c.171.136.441.42.5.383.451-.3.158-.534-.132-.743m.808,2.369a18.566,18.566,0,0,1-1.025,12.615c3.906-3.786,4.178-8.435,1.025-12.615" fill="#f5ecde"/><path d="M389.056,400.4c.2-1.346,1.451-1,2.234-1.333,8.345-3.523,13.717-11.839,13.044-20.29-.76-9.545-6.571-16.455-15.869-18.872a9.162,9.162,0,0,1,1.9-.541c8.942-.576,14.758,4.118,19.04,11.367a42.091,42.091,0,0,1,1.484,6.712c.15,2.349,1.068,2.954,3.264,2.916,6.517-.111,13.042-.2,19.554.014a23.031,23.031,0,0,0,13.207-3.249c.776,10.174-3.742,18.106-12.36,21.7-8.557,3.573-17.587,1.179-24.26-6.36-.668-.755-1.131-3.129-2.769-.669-4.395,6.6-10.768,9.045-18.466,8.6" fill="#040305"/><path d="M267.22,400.387c.085-.611.488-.809,1.039-1.032,9.192-3.709,14.059-10.407,14.094-19.324.035-9.007-4.721-15.824-13.7-19.663-.718-.307-1.4-.69-2.1-1.037,9.548-.92,16.339,3.243,20.972,11.38.444,1.846,1.221,3.684,1.26,5.538.078,3.648,1.9,4.192,5.13,4.146,10.473-.15,20.95.046,31.425.11-.5,8.956-5.788,16.211-13.79,18.9a20.435,20.435,0,0,1-22.862-6.518c-1.661-2.032-2.263-2.313-3.927,0-4.267,5.94-10.431,7.932-17.533,7.5" fill="#040305"/><path d="M325.332,380.505c-10.476-.063-20.953-.26-31.425-.11-3.234.046-5.052-.5-5.129-4.146-.04-1.854-.817-3.692-1.26-5.537l27.823-.119,1.648-.013,48.161.242a20.781,20.781,0,0,0-1.794,9.073c-6.851.986-13.737.225-20.6.411-5.8.157-11.612.139-17.419.2" fill="#d33d64"/><path d="M410.833,339.537c4.448-.1,8.915.5,13.344-.344,8.829,4.3,18.455,7.152,25.775,14.191-.87,1.406-2.521,1.323-3.778,1.99-3.7,1.964-4.071,6.337-.761,8.792l-.043-.043c1.6,3.776,4.973,1.921,7.609,2.409a9.734,9.734,0,0,1-1.393,4.456c-1.613-.118-3.225-.319-4.838-.337-8.666-.1-17.333-.145-26-.211q.464-1.923.924-3.847c3.557-.642,7.478,1.26,10.727-1.533,3.6-3.1,3.767-4.84.776-8.321l-.837-.8c-3.948-2.664-8.276-1.211-12.475-1.148l-1.269-.726c-1.733-3.98-5.594-5.231-9.033-7-4.424-2.269-8.884-4.466-13.329-6.694l.349-.8H407.5l3.336-.037" fill="#5cc57f"/><path d="M420.749,370.44c8.666.066,17.333.115,26,.211,1.614.018,3.225.219,4.838.337-.909,2.539-2.929,4.232-4.676,6.131a23.054,23.054,0,0,1-13.207,3.248c-6.512-.219-13.037-.125-19.554-.014-2.2.037-3.114-.567-3.264-2.915a42.086,42.086,0,0,0-1.484-6.712l11.347-.285" fill="#d33d64"/><path d="M243.08,370.663l-2.147,9.632c-6.959-.868-12.942-3.486-17.025-9.5l19.172-.127" fill="#cf3e64"/><path d="M451.23,355.725a14.338,14.338,0,0,1,2.155,9.046,12.018,12.018,0,0,1-8.016-.645l.043.043c-1.981-6.006-.685-7.887,5.817-8.441" fill="#5cc57f"/><path d="M451.23,355.725c-6.5.554-7.8,2.435-5.817,8.441-3.31-2.455-2.944-6.828.761-8.792,1.257-.667,2.908-.584,3.778-1.99,1.09.419,1.211,1.365,1.278,2.341" fill="#c1e9d1"/><path d="M445.37,364.123a12.018,12.018,0,0,0,8.016.645,1.574,1.574,0,0,1-.408,1.764c-2.635-.487-6.014,1.368-7.609-2.409" fill="#c1e9d1"/><path d="M316.987,370.58l-1.647.013q-.012-15.526-.025-31.053c-2.042-6.714-4.107-13.421-6.109-20.146-.5-1.672-.791-3.406-1.178-5.11l.022-.013c1.419.708,1.48,2.183,1.875,3.433,2.315,7.337,4.59,14.687,6.88,22.031q.093,15.423.182,30.846" fill="#979bb6"/><path d="M299.909,290.033c.5-.027,1.006-.054,1.511-.083.351,3.64,1.855,6.964,2.836,10.432,1.306,4.618,3.671,8.95,3.795,13.889l-.022.014c-3.6-7.785-5.441-16.158-8.119-24.252" fill="#979bb6"/><path d="M308.05,314.269c-.124-4.94-2.489-9.272-3.795-13.889-.981-3.468-2.485-6.793-2.836-10.432l72.781.088a398.214,398.214,0,0,0,14.239,37.788c-1.622,3.488-1.317,6.958.091,10.419-.789,1.421-2.142,1.383-3.494,1.351-.064-2.825.954-5.911-.619-8.406-3.343-5.3-8.872-2.482-13.466-3.085-2.947-.386-4.975,1.293-6.126,3.8-.986,2.145-.466,4.544-.449,6.839-.876.12-1.859-.063-2.447.867l-45.128.125c-2.289-7.345-4.563-14.7-6.878-22.032-.395-1.25-.455-2.725-1.875-3.433" fill="#dcf4e4"/><path d="M388.531,338.244c-1.408-3.461-1.713-6.931-.091-10.418,4.538-4.229,8.517-4.858,13.978-2.207a14.321,14.321,0,0,1,8.416,13.92l-3.337.037a11.631,11.631,0,0,0-7.365-10.755c-2.566-1.162-5.3-1.585-7.6.539-2.131,1.97-1.331,4.46-.742,6.845.24.972,1.68,2.022.664,2.834-1.284,1.026-2.808.476-3.922-.8" fill="#040305"/><path d="M252.281,368.908c5-4.217,9.6-4.891,15.12-1.729-5.362-1.857-10.036.26-14.762,2.072-.118-.115-.237-.23-.358-.343" fill="#c1e9d1"/><path d="M274.879,384.7c.55-2.545.242-5.076.814-7.5.537,2.623,1.245,5.256-.814,7.5" fill="#c1e9d1"/><path d="M274.283,374.151c-.551-.556-1.255-1.042-1.094-1.968a.668.668,0,0,1,.552-.348c.988.3.824,1.213.966,1.959-.139.121-.281.24-.424.356" fill="#c1e9d1"/><path d="M273.577,388.226c-.2-.241-.5-.475-.46-.565.143-.336.333-.765.624-.9.513-.236.714.213.571.607-.117.326-.472.567-.735.858" fill="#c1e9d1"/><path d="M274.7,373.8c.365.328.8.882.339,1.155-.6.357-.539-.477-.761-.8q.213-.172.423-.355" fill="#c1e9d1"/><path d="M251.825,370.066c-.13.4-.152,1.148-.744.768-.463-.3.035-.815.391-1.133.117.124.234.244.353.365" fill="#c1e9d1"/><path d="M269.785,368.04l1.631.853c-.125.121-.252.242-.38.361l-1.609-.856q.184-.174.358-.358" fill="#c1e9d1"/><path d="M269.427,368.4l-.24-.591.6.233c-.115.122-.235.241-.358.358" fill="#c1e9d1"/><path d="M252.639,369.251l-.814.814c-.117-.12-.235-.24-.352-.364l.809-.792q.179.17.356.342" fill="#c1e9d1"/><path d="M271.412,368.894l.828.814c-.124.117-.247.237-.367.358q-.418-.406-.84-.812c.126-.119.253-.239.379-.36" fill="#c1e9d1"/><path d="M272.245,369.708l.218.619-.585-.261c.119-.121.242-.24.367-.358" fill="#c1e9d1"/><path d="M388.531,338.243c1.114,1.271,2.638,1.82,3.922.795,1.015-.811-.425-1.863-.665-2.834-.589-2.386-1.389-4.876.742-6.845,2.3-2.123,5.035-1.7,7.6-.538a11.631,11.631,0,0,1,7.366,10.754H396.583l-.349.8c4.444,2.229,8.9,4.426,13.328,6.694,3.44,1.764,7.3,3.016,9.033,7-.716.358-1.409.769-2.15,1.062a5.352,5.352,0,0,0-3.634,6.029c.347,2.995,2.3,4.775,5.25,5.307a24.078,24.078,0,0,0,3.612.128q-.461,1.924-.923,3.848l-11.348.284c-4.282-7.248-10.1-11.942-19.04-11.367a9.162,9.162,0,0,0-1.9.542q-15.824-2.527-23.315,10.917l-48.162-.242q-.091-15.424-.183-30.846l45.126-.125c2.526,6.533,13.846,8.5,19.407,3.379,2.652.414,2.564-2.156,3.7-3.394,1.351.032,2.7.07,3.494-1.351m-53.7,13.054H323.794v.423h11.035Zm-10.176-4.135c.013.143.026.285.038.428h10.18v-.428Zm-2.285,1.977c-.017.191-.035.382-.052.573.074-.088.2-.172.209-.267s-.1-.2-.157-.306" fill="#c1e9d1"/><path d="M374.878,368.858a12.132,12.132,0,0,1,16.754-.883c-.111.148-.227.292-.346.431a16.024,16.024,0,0,0-16.048.821q-.179-.187-.36-.369" fill="#c1e9d1"/><path d="M396.505,374.495c3.154,4.181,2.881,8.829-1.025,12.615a18.566,18.566,0,0,0,1.025-12.615" fill="#c1e9d1"/><path d="M392.869,369.253l-1.582-.847c.119-.139.234-.281.345-.43q.809.453,1.613.909-.19.183-.376.367" fill="#c1e9d1"/><path d="M373.249,370.509q.41-.42.821-.838c.12.119.239.236.361.351l-.841.832q-.165-.177-.341-.344" fill="#c1e9d1"/><path d="M395.7,372.125c.288.21.582.44.13.744-.055.036-.325-.247-.5-.383.125-.117.246-.238.365-.361" fill="#c1e9d1"/><path d="M395.333,372.485l-.224-.614.589.254q-.177.184-.365.36" fill="#c1e9d1"/><path d="M375.239,369.227q-.4.4-.809.793c-.121-.114-.24-.231-.36-.35l.809-.811c.121.121.241.243.36.368" fill="#c1e9d1"/><path d="M373.589,370.852l-.586.231c.083-.191.165-.383.246-.574.116.111.23.225.34.343" fill="#c1e9d1"/><path d="M393.7,370.062l-.836-.812q.184-.183.375-.367l.814.829c-.121.113-.239.229-.353.35" fill="#c1e9d1"/><path d="M394.058,369.713l.228.6-.58-.249q.171-.178.352-.349" fill="#c1e9d1"/><path d="M421.673,366.593a24.073,24.073,0,0,1-3.612-.128c-2.945-.532-4.9-2.312-5.249-5.308a5.353,5.353,0,0,1,3.634-6.029c.741-.292,1.435-.7,2.151-1.062l1.269.724.713,1.17a21.557,21.557,0,0,1,1.342,8.773l-.246,1.858" fill="#fbfbf8"/><path d="M420.579,355.961l-.713-1.17c4.2-.062,8.526-1.516,12.475,1.148l-.179.206-11.584-.184" fill="#c1e9d1"/><path d="M421.675,366.592l.246-1.858a28.025,28.025,0,0,0,10.168,0l.313.324c-3.25,2.792-7.17.891-10.727,1.532" fill="#c1e9d1"/><path d="M433.179,356.737c2.99,3.482,2.827,5.219-.777,8.322l-.309-.321a7.07,7.07,0,0,0,.878-7.816Z" fill="#c1e9d1"/><path d="M432.34,355.939l.837.8-.2.182q-.4-.39-.811-.776Z" fill="#c1e9d1"/><path d="M385.037,339.594c-1.135,1.238-1.047,3.808-3.7,3.394-2.915.864-5.9.2-8.849.43-3.8.3-6.567-1.106-8.111-4.676-.017-2.3-.537-4.7.449-6.84,1.151-2.506,3.179-4.185,6.126-3.8,4.594.6,10.123-2.216,13.465,3.084,1.573,2.5.554,5.582.619,8.406" fill="#5cc57f"/><path d="M364.379,338.743c1.544,3.569,4.316,4.978,8.111,4.676,2.944-.235,5.934.434,8.849-.43-5.56,5.125-16.882,3.154-19.407-3.379.589-.93,1.571-.748,2.447-.866" fill="#040305"/><path d="M334.832,351.72H323.795V351.3h11.038v.423" fill="#dcf4e4"/><path d="M324.656,347.162h10.217v.428H324.7c-.013-.143-.025-.285-.038-.428" fill="#dcf4e4"/><path d="M322.372,349.14c.058.1.165.21.156.306s-.134.178-.209.267q.025-.287.053-.573" fill="#dcf4e4"/><path d="M432.161,356.144q.406.387.811.776a7.075,7.075,0,0,1-.881,7.818,28.086,28.086,0,0,1-10.171,0,21.558,21.558,0,0,0-1.342-8.773l11.583.184" fill="#5cc57f"/></g></svg>