<svg xmlns="http://www.w3.org/2000/svg" xmlns:xlink="http://www.w3.org/1999/xlink" width="1206.439" height="817.78" viewBox="0 0 1206.439 817.78"><defs><clipPath id="a"><rect width="1206.439" height="817.78" fill="none"/></clipPath><clipPath id="b"><rect width="101.893" height="102.645" fill="none"/></clipPath></defs><g clip-path="url(#a)"><path d="M470.368,782.958,398.457,790.9l-91.215-9.62L243.68,760.469c-2.575-3.713-6.28-4.472-10.455-4l.679.318c-48.18-27.659-94.5-57.778-129.795-101.767C90.979,638.66,78.836,621.5,66.243,604.71c-40.592-76.244-62.076-156.56-49.233-243.4C35.975,233.087,101.994,136.935,215.636,73.86c11.082-6.151,25.481-5.408,34.095-16.567,6.489-1.939,13.164-3.406,19.437-5.89C332.158,26.456,397.034,23.326,463,35.1c88.887,15.861,162.058,59.7,220.953,127.4,31.374,36.063,53.12,77.627,70.025,122.6,20.2,53.732,20.32,108.848,19.254,164.557-7.362,61.705-26.867,119.13-61.95,170.639C656.305,701,581.066,753.545,486.986,779.316l-16.619,3.642" transform="translate(-4.532 -9.712)" fill="#faeee0"/><path d="M1175.747,1048.187c-11.316,23.357-41.809,42.468-67.763,42.468H114.466c-25.954,0-38.2-19.236-27.2-42.748l52.608-112.524c10.993-23.511,41.221-42.747,67.175-42.747h996.871c25.954,0,37.931,19.111,26.615,42.468Z" transform="translate(-28.361 -304.179)" fill="#88b1b8"/><path d="M1205.311,1038.75h-76.519l7.3-7.054h76.519Zm-137.734,0H991.058l7.3-7.054h76.519Zm-137.733,0H853.325l7.3-7.054h76.519Zm-137.734,0H715.591l7.3-7.054h76.519Zm-137.733,0H577.857l7.3-7.054h76.519Zm-137.734,0H440.124l7.3-7.054h76.519Zm-137.734,0H302.39l7.3-7.054h76.519Zm-137.734,0H164.656l7.3-7.054h76.519Z" transform="translate(-56.109 -351.567)" fill="#fff"/><path d="M635.508,273.394q42.073-.355,84.146-.709c14.534-.119,17.095-3.872,11.964-17.575-6.148-16.424-24.444-27-41.927-22.9-7.714,1.808-11.752-.144-16.524-6.027-10.677-13.16-24.98-19.256-42.157-18.159-4.316.275-9.05,2.226-12.636-2.138-19.124-21.577-42.429-30.475-70.837-22.627-33.835,9.347-53.414,47.956-41.8,81.073,2.465,7.028,7.011,8.4,13.495,8.379q49.848-.184,99.7,0c5.526.012,11.051.446,16.578.685" transform="translate(-171.192 -61.49)" fill="#d3daf7"/><path d="M988.722,368.024A76.421,76.421,0,0,1,1011.1,371.5a73.967,73.967,0,0,1,37.526,27.182,3.866,3.866,0,0,1,.374,1c.861-.257,1.746-.452,2.578-.781,8.355-3.309,16.96-3.724,25.71-2.163a49.515,49.515,0,0,1,29.308,16.9,52.307,52.307,0,0,1,9.288,16.262c2.679,7.127,2.7,14.438,2.554,21.827,1.987.1,3.5,1.323,5.146,2.209,4.522,2.434,8.476,5.694,12.589,8.72a85.807,85.807,0,0,0,13.619-43.109c.922-22.19-5.758-41.95-19.592-59.3-.676-.849-1.464-1.61-1.365-2.819-1.125-.045-1.748-.879-2.417-1.595a86.038,86.038,0,0,0-35.738-23.138,83.169,83.169,0,0,0-36.469-4.18c-1.519.174-3.068.079-4.6.109.3,1.027-12.562,1.781-23.816,7.593-5.52,1.876-10.268,5.132-14.943,8.48a87.443,87.443,0,0,0-22.125,23.33" transform="translate(-336.923 -111.771)" fill="#c2ead1"/><path d="M1179.039,521.768c-5.091-3.745-9.984-7.78-15.58-10.791-2.038-1.1-3.909-2.607-6.367-2.734a61.96,61.96,0,0,1-10.169,28.01,63.414,63.414,0,0,1-36.818,26.105c.022,5.027.059,10.052.064,15.079.007,8.017-3.84,11.9-11.881,11.956-5.027.036-10.055.049-15.081-.014-1.74-.022-2.671.372-2.663,2.4q.138,32.165.161,64.331a153.757,153.757,0,0,0,16.562,7.318,151.565,151.565,0,0,0,19.829,3.634,85.982,85.982,0,0,0,35.715-5.526c8.45-3.141,15.82-8.142,23.138-13.247,7.056-6.721,13.779-13.711,18.662-22.264,12.24-21.439,14.619-43.971,7.612-67.57-.381-1.283-.7-2.584-1.044-3.878a10.162,10.162,0,0,1-1.031-1.68,78.725,78.725,0,0,0-13.158-22.239c-2.518-3.071-5.292-5.93-7.95-8.887" transform="translate(-368.212 -173.192)" fill="#5bc57f"/><path d="M910.774,841.625a28.258,28.258,0,0,1-9.4,1.359c-1.657.093-3.319.319-4.97.254-7.43-.291-14.854-.7-22.295-.428a37.42,37.42,0,0,0-18.376,5.687c-3.68,3.736-7.644,7.239-9.03,12.651-1.106,4.321-.815,4.8,3.675,4.8,1.566,0,3.132,0,4.7,0,68.337.121,136.674.44,205.009.256q34.214-.092,68.433-.193c3.247-.008,3.838-1.533,3.522-4.144-.765-6.3-5.64-10.965-12.7-11.9a104.473,104.473,0,0,0-10.695-.8c-6.914-.2-12.63-2.707-16.717-8.393a92.111,92.111,0,0,0-14.694-16.433c-1.207.044-2.061-.737-3.035-1.266-11.583-6.287-23.68-8.128-36.516-4.456-7.018,2.008-12.805,6.212-18.836,10-5.594,3.518-11.222,6.918-18.018,7.557-.045,3.462-.018,6.926-.161,10.383-.08,1.922.68,2.568,2.541,2.487,2.453-.108,4.915-.026,7.374-.013,2.359.013,3.669,1.44,4.442,3.453.734,1.914-.067,3.481-1.35,4.87-1.422,1.541-3.273,1.713-5.229,1.711q-27.489-.029-54.978-.011c-.558,0-1.121.033-1.675-.022-3.079-.305-5.31-2.449-5.306-5.071.005-2.9,2.208-4.868,5.556-4.938,2.792-.059,5.584-.09,8.377-.132-.737-1.25-1.432-2.526-2.216-3.746q-6.705-10.433-13.446-20.844c-4.667,1.885-8.775,4.762-13.049,7.348-6.646,4.02-13.1,8.446-20.941,9.969" transform="translate(-288.344 -278.317)" fill="#c2ead1"/><path d="M898.08,679.765l.007,0Z" transform="translate(-306.035 -231.64)" fill="#2646d8"/><path d="M898.256,683.818l0,.053-.189.1.186-.151" transform="translate(-306.031 -233.022)" fill="#2646d8"/><path d="M1082.464,527.221l-11.8,1.3-14.972-1.58-10.434-3.417a1.669,1.669,0,0,0-1.717-.656l.111.052c-7.909-4.54-15.511-9.484-21.305-16.705-2.156-2.686-4.149-5.5-6.216-8.259-6.664-12.516-10.19-25.7-8.082-39.954,3.113-21.048,13.95-36.831,32.6-47.185,1.819-1.009,4.182-.887,5.6-2.719,1.065-.318,2.161-.559,3.191-.967,10.34-4.094,20.989-4.608,31.818-2.676,14.59,2.6,26.6,9.8,36.269,20.912a64.746,64.746,0,0,1,11.495,20.124c3.315,8.821,3.336,17.868,3.16,27.012a61.955,61.955,0,0,1-10.169,28.01,63.413,63.413,0,0,1-36.818,26.1l-2.728.6" transform="translate(-343.3 -137.457)" fill="#dcf4e4"/><path d="M1020.177,588.025a125.2,125.2,0,0,1-.007,14.63q.029,13.88.057,27.758c2.429,1.568,4.826,3.19,7.305,4.674.91.546,1.945,1.635,3,1.043,1.1-.619.518-2.045.52-3.1q.069-27.513.066-55.026l-10.687-2.518q-.149,1.787-.3,3.574.024,4.483.047,8.966" transform="translate(-347.625 -196.105)" fill="#462817"/><path d="M1020.483,565.727l10.688,2.52c5.679.9,11.1,3.048,16.856,3.57-7.909-4.54-15.512-9.484-21.306-16.7-2.155-2.686-4.148-5.5-6.215-8.26-.293,6.291-.284,12.583-.022,18.875" transform="translate(-347.679 -186.348)" fill="#080a0d"/><path d="M892.562,364.727l-1.287.475,1.287-.475" transform="translate(-303.716 -124.286)" fill="#462817"/><path d="M898.692,362.216l.114-.036-.114.036" transform="translate(-306.243 -123.418)" fill="#462817"/><path d="M1040.553,582.876c-5.76-.523-11.177-2.666-16.856-3.57q-.022,27.511-.066,55.024c0,1.056.581,2.483-.52,3.1-1.056.593-2.09-.5-3-1.043-2.479-1.484-4.876-3.106-7.305-4.674l-6.7-3.214c2.1,7.027.2,10.039-7.02,11.137q5.533,3.382,11.064,6.764c1.028.63,2.26,1.007,2.817,2.234,2.572.227,4.329,2.183,6.58,3.1,3.294,1.335,4.229,3.643,4.211,7.289-.172,34.97-.1,69.941-.1,104.911,0,1.005,0,2.011-.05,3.015-.042.855-.476,1.728-1.308,1.7-3.142-.092-6.393,1.113-9.408-.687l-.3,0-.3.029c-2.792.043-5.585.074-8.377.132-3.348.07-5.551,2.04-5.556,4.938,0,2.622,2.227,4.766,5.306,5.071.554.055,1.117.022,1.675.022q27.489,0,54.979.011c1.955,0,3.806-.17,5.228-1.711,1.283-1.39,2.085-2.957,1.35-4.871-.773-2.013-2.083-3.44-4.442-3.453-2.458-.013-4.921-.095-7.374.013-1.862.082-2.621-.564-2.541-2.487.143-3.457.117-6.921.161-10.382q0-3.3,0-6.606l0-68.341q-.065-32.164-.161-64.33c-.009-2.026.924-2.419,2.663-2.4,5.026.063,10.053.05,15.08.014,8.042-.058,11.889-3.939,11.881-11.957,0-5.026-.042-10.052-.063-15.078l-2.729.6c-3.34,3.849-7.433,6.8-11.589,9.668a2.2,2.2,0,0,1-2.474,2.1c-3.461-.093-6.929-.111-10.388,0-2.04.068-2.431-.92-2.381-2.663.092-3.125.045-6.254.055-9.382l-10.432-3.416-1.717-.657Z" transform="translate(-340.205 -197.408)" fill="#814428"/><path d="M1011.394,850.39l.3-.029.3.005q0-14.621.005-29.245c-5.65.765-11.237,1.752-16.266,4.679q6.726,10.421,13.445,20.844c.784,1.22,1.48,2.5,2.216,3.746" transform="translate(-339.312 -279.81)" fill="#080a0d"/><path d="M1020.322,774.557q0,14.623-.005,29.244c3.013,1.8,6.265.593,9.407.686.833.024,1.267-.848,1.308-1.7.05-1,.05-2.009.05-3.015,0-34.97-.067-69.942.1-104.911.018-3.646-.917-5.954-4.21-7.289-2.251-.912-4.009-2.868-6.581-3.1l-.237,21.263q.076,21.545.149,43.093c.023,8.576.011,17.152.015,25.728" transform="translate(-347.635 -233.245)" fill="#462817"/><path d="M1080.6,590.82c-.011,3.127.036,6.257-.055,9.382-.051,1.743.341,2.73,2.38,2.663,3.46-.115,6.927-.1,10.388,0a2.2,2.2,0,0,0,2.473-2.1q-.108-4.182-.213-8.364L1080.6,590.82" transform="translate(-368.21 -201.331)" fill="#5bc57f"/><path d="M1103.34,592.541q.106,4.182.213,8.364c4.157-2.872,8.25-5.819,11.591-9.669l-11.8,1.3" transform="translate(-375.98 -201.473)" fill="#080a0d"/><path d="M1062.2,584.631l1.717.657a1.669,1.669,0,0,0-1.717-.657" transform="translate(-361.96 -199.215)" fill="#080a0d"/><path d="M996.479,663.668c7.216-1.1,9.115-4.11,7.02-11.137a22.9,22.9,0,0,0-3.358-2.162,6.781,6.781,0,0,0-6.872,11.547,20.408,20.408,0,0,0,3.211,1.752" transform="translate(-337.598 -221.438)" fill="#080a0d"/><path d="M959.432,521.054l-14.338,1.584-18.187-1.918-12.674-4.151a2.025,2.025,0,0,0-2.084-.8l.136.063c-9.607-5.514-18.842-11.52-25.88-20.291-2.618-3.263-5.039-6.683-7.55-10.032-8.093-15.2-12.377-31.216-9.817-48.53,3.781-25.567,16.944-44.738,39.6-57.314,2.209-1.226,5.08-1.078,6.8-3.3,1.294-.387,2.625-.679,3.876-1.175,12.56-4.974,25.495-5.6,38.648-3.251,17.723,3.162,32.312,11.9,44.055,25.4,6.255,7.19,10.591,15.477,13.962,24.444,4.027,10.713,4.052,21.7,3.839,32.81a75.254,75.254,0,0,1-12.351,34.023c-10.962,16.093-25.963,26.569-44.722,31.708Z" transform="translate(-295.887 -126.297)" fill="#5bc57f"/><path d="M1369.269,453.309c2.092.165,3.39,2.082,5.392,2.443,2.893,2.505,6.327,4.165,9.564,6.132,3,2.13,6.509,3.482,9.232,6.037a20.689,20.689,0,0,1-2,8.783c-.868,2.1-3.205,3.232-3.667,5.592-.164.187-.326.377-.488.568-2.123-.31-3.578.83-4.9,2.253-.193.165-.385.335-.578.5-1.3-.79-2.694-.368-4.054-.329-12.208.348-20.155-9.628-17.152-21.54.112-.445.18-.9.268-1.351a22.633,22.633,0,0,1,8.387-9.092m3.372,11.343c-1.211,4.157-.406,8.55-1.225,12.85a1.228,1.228,0,0,0,1.334,1.581,7.327,7.327,0,0,0,6.35-3.566,8.191,8.191,0,0,0,1.247-7.221c-1.249,2.273-.272,4.189-1.79,5.348-.832-.514.154-1.8-.915-2.246-.858,1.62.06,3.888-2,5.284l-.453-3.928a3.452,3.452,0,0,0-.634,2.071c-.093.975.311,2.537-1.011,2.564-1.516.032-.846-1.569-.868-2.437-.086-3.432-.036-6.867-.036-10.3" transform="translate(-463.434 -154.472)" fill="#d04267"/><path d="M1367.571,450.419a22.634,22.634,0,0,0-8.386,9.092c-3.555-3.183-4.644-7.207-4.025-11.813,1.6-.41,2.4-1.761,3.413-2.871a26.094,26.094,0,0,1,9,5.592m-9.113-3.041c-.827,2.491-.2,3.351,1.285,3.636.657.126,1.753.1,1.69-.614-.14-1.6-2.238-1.02-2.975-3.021" transform="translate(-461.736 -151.582)" fill="#95a1e6"/><path d="M1391.815,460.161c-3.238-1.966-6.671-3.627-9.564-6.132,2.906-2.562,6.626-3.645,9.949-5.448,1.514-.822,2.245-.01,2.76,1.474.92,2.651-.169,4.764-1.61,6.764-.748,1.039-1.682,1.92-1.535,3.341" transform="translate(-471.024 -152.75)" fill="#e69fb2"/><path d="M1407.725,484.256a20.689,20.689,0,0,0,2-8.783c2.928.773,5.228,2.7,7.7,4.279,1.889,1.206.843,2.29-.445,3.087-2.87,1.779-6.038,1.824-9.261,1.417" transform="translate(-479.704 -162.025)" fill="#95a1e6"/><path d="M1357.818,443.108c-1.01,1.109-1.816,2.461-3.413,2.872a12.17,12.17,0,0,1-1.617-6.2c2,1.045,3.811,1.691,5.031,3.324" transform="translate(-460.981 -149.863)" fill="#d04267"/><path d="M1401.422,497.847c.162-.191.324-.381.488-.568,1.246,1.589,3.045,2.237,5.1,2.762-.655,1.659-2.024,2.253-3.3,3.388-.689-2.058-.525-4.263-2.285-5.582" transform="translate(-477.557 -169.456)" fill="#2646d8"/><path d="M1393.111,502.062c.192-.169.384-.339.578-.5,1.056,1.515,2.953,1.538,4.563,2.517-.521,1.53-1.871,2.069-3.1,3.048-1.073-1.674-.422-3.864-2.042-5.061" transform="translate(-474.724 -170.914)" fill="#2646d8"/><path d="M1378.534,470.516c0,3.434-.051,6.869.036,10.3.022.868-.649,2.468.868,2.437,1.322-.028.918-1.589,1.011-2.564a3.453,3.453,0,0,1,.634-2.071l.454,3.928c2.059-1.4,1.141-3.664,2-5.284,1.069.449.083,1.732.915,2.246,1.518-1.158.541-3.075,1.79-5.348a8.19,8.19,0,0,1-1.247,7.221,7.327,7.327,0,0,1-6.35,3.566,1.228,1.228,0,0,1-1.334-1.581c.819-4.3.015-8.693,1.226-12.85" transform="translate(-469.328 -160.336)" fill="#e69fb2"/><path d="M1360.057,448.7c.736,2,2.834,1.421,2.974,3.021.063.716-1.032.74-1.69.614-1.487-.285-2.112-1.145-1.285-3.636" transform="translate(-463.335 -152.9)" fill="#2646d8"/><path d="M229.053,979.943c123.346,17.651,247.585,8.525,371.3,3.984,35.123-1.289,70.255-2.179,105.4-2.042,24.444.1,24.479-47.571,0-47.667-124.126-.487-248.143,12.426-372.28,7.366a1033.761,1033.761,0,0,1-104.411-9.309c-10.208-1.461-18.993,12-18.993,23.833,0,14.1,8.755,22.368,18.993,23.833" transform="translate(-71.581 -317.651)" fill="#282928"/><path d="M499.265,597.254l2.568.134,25.709,5.174,1.63,1.461c1.33,1.634,2.641,3.279,3.989,4.9,12.071,14.529,24.2,29.013,36.206,43.593,8.512,10.335,17.491,20.288,25.491,31.045-1.307.511-2.609,1.034-3.922,1.529-10.4,3.936-20.869,7.692-30.6,13.181-1.361.336-2.717.672-3.56,1.955-5.025.958-9.315,3.755-13.919,5.734-2.764,1.189-3.783.572-4.924-2.007-2.206-4.986-4.071-10.152-7.056-14.772a2.743,2.743,0,0,0-.067-.839c-4.253-10.3-9.654-20.026-15.081-29.729a5.17,5.17,0,0,0-5.394-2.591l1.958-6.486c1.445-1.5,1.66-3.544,2.333-5.384,5.5-1.214,7.549-3.3,8.035-8.209.715-7.215-6.075-18.578-12.921-21.622a8.11,8.11,0,0,0-5.109-1.663c-3.419.292-4.791-.77-5.076-4.488-.347-4.537-4.025-7.5-8.649-7.908-4.261-.381-7.49,1.42-9.094,5.418a3.459,3.459,0,0,1-3.159,2.528c-3.378.62-4.682,3.267-3.531,6.393.7,1.9.368,3.207-.121,5.029-1.156,4.309.792,8.055,3.663,11.164,2.378,2.574,5.423,3.777,8.8,1.982,2.07-1.1,2,.693,2.586,1.551a10.886,10.886,0,0,0,9.377,5.2c2.507.066,1.749,1.487,1.118,2.782-1.448,2.969-2.939,5.917-4.412,8.875-2.583-1.4-5.008-3.01-8.221-2.891a23.818,23.818,0,0,0-18.789,9.84c-5.9,7.757-10.067,16.588-14.46,25.249a9.61,9.61,0,0,0-.462,2.855c-1.866.4-2.1,2.119-2.7,3.481-2.219,5-4.364,10.043-6.561,15.058-3.752,8.566-2.829,13.535,3.764,20.118l-16.437.2a3.153,3.153,0,0,0-1.837-2.685c-1.108-2.712-2.243-5.4-5.106-6.8.021-1.243-.015-2.446-1.7-2.555.027-1.247-.024-2.442-1.7-2.549-1.85-6.366-5.858-11.372-10.2-16.167q-.425-.426-.851-.851c.022-1.245-.038-2.433-1.7-2.549a1.754,1.754,0,0,0-.85-1.7l-.853-.852c.078-1.456-.207-2.73-1.7-3.4a2.682,2.682,0,0,0-1.7-2.554,1.583,1.583,0,0,0-1.7-1.7c-1.056-4.431-3.887-7.771-6.8-11.061a1.585,1.585,0,0,0-1.46-1.7,1.659,1.659,0,0,0-.243,0,6.59,6.59,0,0,0-3.4-5.954,57.141,57.141,0,0,0-9.356-14.458l-.85-.851-.851-.852c.019-1.242-.031-2.437-1.7-2.55.019-1.243-.038-2.435-1.706-2.548.02-1.242-.019-2.444-1.7-2.553-1.059-4.43-3.886-7.771-6.8-11.056a2887.327,2887.327,0,0,0-3.4-5.1,1.586,1.586,0,0,0-1.461-1.7,1.632,1.632,0,0,0-.241,0,23.348,23.348,0,0,0-6.807-11.055c-.872-3.513-3.179-6.076-5.74-8.468,1.807,2.891,2.19,6.732,5.759,8.449,1.059,4.429,3.885,7.772,6.8,11.061a1.592,1.592,0,0,0,1.477,1.7,1.635,1.635,0,0,0,.227,0c-.018,1.241.014,2.447,1.7,2.552-.027,1.246.024,2.442,1.7,2.551.752,4.619,3.559,7.973,6.8,11.058a2996.8,2996.8,0,0,1,3.4,5.108,2.646,2.646,0,0,0,1.7,2.551l.852.851.852.85a30.023,30.023,0,0,0,9.356,14.459c0,2.635,1.523,4.394,3.4,5.955a1.586,1.586,0,0,0,1.461,1.7,1.48,1.48,0,0,0,.241,0c1.072,4.421,3.88,7.775,6.808,11.053a1.585,1.585,0,0,0,1.458,1.7,1.515,1.515,0,0,0,.245,0c-.016,1.24,0,2.456,1.7,2.551-.089,1.46.173,2.747,1.7,3.4l.852.852a1.757,1.757,0,0,0,.848,1.7,2.659,2.659,0,0,0,1.7,2.553l.852.851c2.037,6.249,6.338,11.067,10.214,16.154q1.693,2.558,3.4,5.106c1.1,2.717,2.245,5.4,5.1,6.8v2.557l-173.622.076c-1.969-16.727-3.858-33.463-5.94-50.175-1.169-9.393-1.618-18.88-3.578-28.172.173-1.445,1.39-2.023,2.33-2.859,7.414-6.615,15.814-11.87,23.98-17.447l1.746-1.041a271.215,271.215,0,0,1,26.5-13.034c6.094-2.516,12.247-4.889,18.374-7.325,3.375-.839,6.789-1.545,10.117-2.543,7.767-2.332,15.95-2.978,23.57-5.879l1.719-.088a18.1,18.1,0,0,0,2.528-.116,292.752,292.752,0,0,1,47.232-4.894c7.2-.148,14.4-.058,21.6-.072h1.75c9.324-.428,18.615.44,27.9.952,6.847.378,13.634,1.8,20.482,2.236,7.441.475,14.71,2.151,22.126,2.684" transform="translate(-84.272 -201.486)" fill="#d0d9f6"/><path d="M740.557,690.143c-8-10.753-16.979-20.708-25.491-31.045-12.009-14.58-24.136-29.064-36.207-43.593-1.346-1.619-2.659-3.266-3.989-4.9a31.2,31.2,0,0,1,3.29.639,223.26,223.26,0,0,1,55.376,25.271c16.615,10.6,31.947,23,47.959,34.452,1.128.807,2.068,2.007,3.685,1.842A13.99,13.99,0,0,0,787.143,675q18.251,13.381,36.555,26.69l1.641.95a193.426,193.426,0,0,0,17.076,12.719,3.031,3.031,0,0,0,2.486,1.784c3.468,3.663,7.794,6.136,12.209,9.116,5.1,4.586.782,3.487,8.529,6.739q-31.9.02-63.8.036c1.463-21.194-19.035-39.559-34.728-41.514-4.022-3.164-8.655-3.791-13.612-3.554-4.421.212-8.636,1.417-12.944,2.173" transform="translate(-229.973 -208.074)" fill="#f3d37c"/><path d="M931.513,771.3a3.035,3.035,0,0,1-2.486-1.784c1.255,0,2.46.073,2.486,1.784" transform="translate(-316.581 -262.223)" fill="#dbf3e4"/><path d="M752.2,859.27c-2.8-8.65-6.468-16.816-12.9-23.477-9.5-9.842-21.037-14.908-34.762-14.728-3.931.051-7.888-.462-11.8.367-5.731-.4-11.464-.745-17.128.6-20.32,4.822-33.38,17.343-39.448,37.258-5.952-.04-11.9-.1-17.853-.116q-45.281-.075-90.56-.128-.071-39.62-.142-79.241.092-.338.173-.678l16.435-.205c3.642,2.247,7.673,2.85,11.861,2.771,5.607.627,11.208,1.33,16.823,1.864,12.113,1.156,24.235,2.228,36.353,3.334a8.4,8.4,0,0,1,.614,1.578c.632,3.605,1.545,6.395,6.133,7.219a82.621,82.621,0,0,0,11.076,1.182c4.083.185,4.476-1.491,4.491-4.656.022-4.293-1.809-8.252-1.961-12.49l10.321.03c2.957,10.8,7.836,14.5,19.1,14.505,4.794,0,9.6-.165,14.381.042,5.827.253,10.8-1.318,14.694-5.8l3.709-2.711c.336,2.4,1.919,3.34,4.135,3.545.538,2.183,2.07,3.161,4.177,3.444.385,1.2.962,2.135,2.505,2.018-.084-1.653-1.13-1.993-2.183-2.325-1.214-1.4-2.324-2.943-4.309-3.357l-3.653-3.638,4.863-6.523c1.193,1.065,2.667.783,4.055.789,6.514.026,13.028.055,19.54-.02,1.3-.014,3.128.775,3.743-.983.479-1.367-1.1-2.13-1.864-3.1-4.172-5.306-9.312-9.847-12.52-15.909.71-1.007,2.2-.816,2.833-1.461,1.8-1.824,5.937-1.018,5.742-5.029q.129-.245.241-.5c1.918-.019,2.218-1.419,2.452-2.874,12.917,6.149,21,15.64,21.148,30.61h-10.8a8.466,8.466,0,0,0,3.454,2.775q17.451,8.757,34.918,17.486a40.017,40.017,0,0,1,16.5,14.858,5.145,5.145,0,0,0,5.117,2.77c7.36-.108,14.728-.183,22.084.011,5.607.148,10.184,2.549,12.719,7.768a13.9,13.9,0,0,1-.757,14.164c-1.053,1.661-2.114,3.839-4.828,3.319.9-1.056,1.857-2.071,2.7-3.176,2.926-3.855,4.149-8.06,2.007-12.668-1.986-4.271-5.294-7.161-10.134-7.244-8.761-.151-17.527.057-26.292.115-1.495-2.106-3.59-1.952-5.7-1.416-6.4,1.623-10.9,8.521-10.02,15.256a13.9,13.9,0,0,0,13.082,11.635c1.829.049,3.658.089,5.487.133q-1.528,6.359-3.056,12.714l-36.995.3m-196.314-52,.1.441h25.173v-.441Zm148.075-11.331c.139.212.231.52.411.578s.444-.115.67-.189q-.279-.4-.557-.806l-.524.414" transform="translate(-179.79 -255.527)" fill="#f3d37c"/><path d="M216.5,794.121c57.874-.026,145.573-.051,203.447-.076l.872.826L420.68,874.1l-73.632.14c-.289-.794-.61-1.576-.859-2.382-7.656-24.833-28.348-39.312-58.112-35.32a57.488,57.488,0,0,0-21.972,1.673c-5.049,1.422-9.395,4.3-14.186,6.222q-.557-3.824-1.115-7.646c3.356-3.7,2.042-8.263,2.28-12.533.147-2.636-.275-5.5,3.033-6.688,3,5.082,7.018,8.377,13.354,7.6a3.05,3.05,0,0,1,1.079-.347c6.387.578,11.2-3.82,11.408-10.451.2-6.522-4.369-11.119-10.818-10.878-8.346-2.009-14.4,2.307-14.554,10.368-3.385,1.326-4.845,4.1-5.561,7.42-.289,1.339.115,2.9-1.291,3.868-1.137-10.34-32.1-20.68-33.234-31.022" transform="translate(-73.776 -270.583)" fill="#f3d37c"/><path d="M440.143,836.878c0,.147,0,.293,0,.44h24.407c0-.146,0-.293-.005-.44Z" transform="translate(-149.985 -285.179)" fill="#90a0ea"/><path d="M617.282,685.481a5.178,5.178,0,0,1,5.394,2.592c5.427,9.7,10.828,19.428,15.081,29.729a2.756,2.756,0,0,1,.066.838c-3.391.074-6.781.219-10.171.194A3.456,3.456,0,0,0,624,721.1c-1.21,3-2.765,5.922-2.2,9.342-1.407,2.094-1.38,4.549-1.734,6.907-13.839-.874-27.448-3.538-41.173-5.3l.96-7.5q.125-.446.25-.891.289-.458.583-.917.939-2.874,1.878-5.748a21.323,21.323,0,0,0,4.577-9.512,26.248,26.248,0,0,0-4.712,9.147l-12.881-.331a4.062,4.062,0,0,0-4.817-.127l-3.593-.479a9.551,9.551,0,0,1,.462-2.855c4.394-8.66,8.556-17.492,14.46-25.249a23.817,23.817,0,0,1,18.789-9.84c3.214-.12,5.638,1.488,8.221,2.89,2.321,7.432,8.094,9.4,14.2,4.841" transform="translate(-191.218 -230.952)" fill="#d33d64"/><path d="M555.227,735.313l3.59.479a4.28,4.28,0,0,0,4.82.126q6.439.166,12.88.329c6.441.163.134.369.134.369q-.937,2.875-1.875,5.745l-.585.92q-.126.446-.25.891c-1.644,3.384-3.234,6.8-4.947,10.147-1.588,3.1.328,2.843,2.343,2.574,12.556.314,25.111.644,37.667.925,1.988.044,3.9.477,5.853.711,4.8.578,8.259,4.168,12.762,5.323l-.071-.058.922.921-.073-.071.925.925-.064-.075a22.654,22.654,0,0,0,5.55,8.969l.314.314c.152,4.238,1.983,8.2,1.961,12.491-.016,3.164-.409,4.84-4.492,4.656a82.7,82.7,0,0,1-11.075-1.183c-4.588-.825-5.5-3.613-6.133-7.219a8.507,8.507,0,0,0-.614-1.578c-.9-4.567-3.416-6.53-8.307-6.341-14.949.578-29.913.79-44.872,1.144-4.187.077-8.217-.525-11.861-2.772-6.59-6.581-7.515-11.55-3.764-20.118,2.2-5.015,4.343-10.053,6.562-15.058.6-1.362.837-3.074,2.7-3.481m61.526,39.574c2.9,3.82,3.469,8.4,4.181,12.933.875-5.025.192-9.562-4.181-12.933m7.835,3.21c1.255,3.69,1.51,7.476,2.044,11.212a12.5,12.5,0,0,0-2.044-11.212m-.739-2.672-.856-.761c-.09.33-.337.733-.227.97.126.272.57.4.875.585l.208-.794" transform="translate(-185.297 -250.569)" fill="#bf926d"/><path d="M758.155,779.749l-4.863,6.523a1.679,1.679,0,0,0-.672.311l-3.708,2.712c-7.442,1.388-14.979.426-22.446.907-8.845.57-15.473-2.465-19.521-10.535-.21-1.382-.462-2.76-.62-4.148-.89-7.859-.021-15.147,6.774-20.465.839-1.283,2.2-1.619,3.56-1.954,11.09-.793,22.187-1.89,33.194.8q2.587,2.032,5.172,4.068c4.3,6.794,2.949,14.4,3.131,21.786" transform="translate(-240.592 -256.321)" fill="#29b5d6"/><path d="M216.239,695.8c6.666-7,12.719-14.595,20.482-20.486,1.959,9.291,2.408,18.778,3.577,28.171,2.081,16.713,3.971,33.448,5.94,50.175q1.7,15.511,3.406,31.019c.036,2.109-.247,4.291.187,6.319.557,2.608-.475,3.823-2.77,4.194" transform="translate(-73.687 -230.125)" fill="#050507"/><path d="M227.5,741.233q-.008-5.523-.015-11.046c0-12.349,0-12.349-11.989-13.726" transform="translate(-73.433 -244.145)" fill="#050507"/><path d="M616.954,644.133a10.881,10.881,0,0,1-9.379-5.2c-.581-.857-.515-2.652-2.586-1.55-3.374,1.792-6.417.591-8.8-1.983-2.872-3.11-4.822-6.855-3.664-11.163.491-1.824.824-3.128.121-5.03-1.156-3.125.154-5.772,3.532-6.392a3.46,3.46,0,0,0,3.158-2.528c1.605-4,4.833-5.8,9.094-5.418,4.625.413,8.3,3.372,8.649,7.909.286,3.718,1.657,4.779,5.076,4.488a8.106,8.106,0,0,1,5.108,1.663c-2.191,2.6-3.346,5.328-2.274,8.909.722,2.411-.686,4.414-2.945,5.46-2.052.95-3.021-.434-3.865-2.1a3.132,3.132,0,0,0-3.864-1.789,2.269,2.269,0,0,0-1.676,2.2c-.127,1.865.334,3.385,2.568,3.6a.946.946,0,0,0,.462.158q.274,2.516.547,5.029l.525.773c.658.945,1.093,1.9.208,2.957" transform="translate(-201.798 -206.102)" fill="#050507"/><path d="M695.019,750.822c-6.795,5.319-7.664,12.607-6.774,20.465.158,1.387.411,2.766.62,4.147-2.046.462-4.311-.62-6.208.884l-10.32-.031c-.105-.1-.21-.208-.314-.314A15.245,15.245,0,0,0,666.472,767l.064.075-.925-.925.073.072-.921-.922.071.058c-2.268-3.064-5.884-4.064-8.981-5.859l-2.752-7.929c-.57-3.419.983-6.34,2.2-9.341a3.457,3.457,0,0,1,3.652-2.268c3.39.024,6.781-.12,10.171-.194,2.985,4.621,4.85,9.786,7.056,14.773,1.141,2.578,2.16,3.2,4.924,2.007,4.6-1.98,8.893-4.777,13.92-5.736" transform="translate(-222.513 -252.089)" fill="#bf926d"/><path d="M755.345,745.617c-11.007-2.688-22.1-1.591-33.194-.8,9.727-5.488,20.2-9.243,30.6-13.181,1.312-.5,2.614-1.018,3.922-1.53,4.309-.756,8.524-1.96,12.945-2.172,4.957-.238,9.589.39,13.614,3.553,1.711,3.559,3.607,7.039,4.643,10.885-.234,1.456-.534,2.855-2.452,2.874-.173-2.826-.289-5.669-2.67-7.732-.1-.826.254-1.9-1.151-2.107-.34,1.169.342,1.666,1.214,2.052q1.183,4.143,2.366,8.287c.2,4.015-3.939,3.21-5.743,5.034-.635.645-2.124.454-2.833,1.46-2.682-.09-3.942-1.638-4.649-4.108a19.342,19.342,0,0,0-3.367-7.261c-4.427-5.119-6.271-5.106-10.3.2-1.088,1.432-1.966,3.025-2.942,4.543m26.466,3.2a18.8,18.8,0,0,0-3.377-11.589c1.239,3.416,1.761,7.07,3.377,11.589" transform="translate(-246.084 -248.04)" fill="#bf926d"/><path d="M625.771,642.506c-2.235-.216-2.7-1.734-2.568-3.6a2.269,2.269,0,0,1,1.676-2.2,3.132,3.132,0,0,1,3.864,1.789c.844,1.664,1.814,3.048,3.866,2.1,2.259-1.046,3.666-3.048,2.945-5.46-1.072-3.584.084-6.307,2.274-8.909,6.845,3.047,13.636,14.41,12.921,21.624-.486,4.9-2.533,7-8.035,8.209-1.677-1.108-3.577-1.251-6.344-1.676l4.01,7.06q-.98,3.243-1.958,6.485c-6.112,4.559-11.883,2.592-14.2-4.841,1.473-2.957,2.963-5.906,4.411-8.875.632-1.294,1.388-2.717-1.118-2.783.887-1.054.452-2.015-.206-2.959.968-.079,2.081.043,2.683-.867,1.282-1.941,1.511-4.056-.466-5.574-1.055-.809-2.905-2.63-3.753.479" transform="translate(-212.36 -213.395)" fill="#bf926d"/><path d="M496.708,747.6c4.342,4.795,8.349,9.8,10.2,16.167l.017-.017c-3.874-5.087-8.177-9.9-10.214-16.154Z" transform="translate(-169.261 -254.755)" fill="#f9f5ee"/><path d="M647.2,675.992l-4.01-7.06c2.767.425,4.665.569,6.343,1.676-.673,1.839-.888,3.878-2.334,5.384" transform="translate(-219.177 -227.949)" fill="#050507"/><path d="M429.6,645.674c2.919,3.285,5.747,6.627,6.8,11.056l.016-.014c-3.245-3.085-6.053-6.439-6.8-11.058Z" transform="translate(-146.394 -220.018)" fill="#f9f5ee"/><path d="M418.359,629.619c-2.916-3.287-5.743-6.63-6.8-11.059l-.019.019a23.339,23.339,0,0,1,6.807,11.054l.013-.014" transform="translate(-140.238 -210.784)" fill="#f9f5ee"/><path d="M479.006,721.227c-2.928-3.279-5.736-6.631-6.808-11.053l-.011.01c2.913,3.29,5.746,6.63,6.8,11.059l.019-.019" transform="translate(-160.905 -242.003)" fill="#f9f5ee"/><path d="M408.59,614.193c-3.568-1.717-3.951-5.559-5.759-8.449,2.562,2.392,4.868,4.955,5.74,8.468Z" transform="translate(-137.271 -206.417)" fill="#f9f5ee"/><path d="M522.463,786.65c-2.858-1.4-4-4.087-5.1-6.8l-.017.015c2.863,1.395,4,4.088,5.106,6.8Z" transform="translate(-176.293 -265.745)" fill="#f9f5ee"/><path d="M467.858,704.515c-1.879-1.561-3.4-3.32-3.4-5.954l-.01.009a6.589,6.589,0,0,1,3.4,5.954l.012-.011" transform="translate(-158.267 -238.046)" fill="#f9f5ee"/><path d="M525.977,793.55l-.873-.826v-2.557l-.013.011a3.15,3.15,0,0,1,1.837,2.684q-.082.342-.173.68c-.258,0-.516,0-.773.008" transform="translate(-178.933 -269.262)" fill="#f9f5ee"/><path d="M489.378,736.795c-1.523-.659-1.784-1.945-1.7-3.406l-.021.021c1.5.666,1.781,1.941,1.7,3.4Z" transform="translate(-166.178 -249.914)" fill="#f9f5ee"/><path d="M492.833,742.442c1.666.116,1.727,1.3,1.7,2.549l0,0a2.66,2.66,0,0,1-1.7-2.552l-.009.008" transform="translate(-167.941 -252.996)" fill="#f9f5ee"/><path d="M485.086,729.54a2.68,2.68,0,0,1,1.7,2.553l.022-.02c-1.7-.094-1.719-1.311-1.7-2.551Z" transform="translate(-165.301 -248.596)" fill="#f9f5ee"/><path d="M446.8,672.731a2.644,2.644,0,0,1-1.7-2.551l-.009.007c1.671.116,1.721,1.309,1.7,2.551l.007-.007" transform="translate(-151.673 -228.374)" fill="#f9f5ee"/><path d="M442.505,666.317c1.668.115,1.725,1.3,1.7,2.547l.009-.008a2.658,2.658,0,0,1-1.7-2.554Z" transform="translate(-150.791 -227.053)" fill="#f9f5ee"/><path d="M424.443,637.933a2.649,2.649,0,0,1,1.7,2.549l.016-.013c-1.686-.1-1.72-1.311-1.7-2.551Z" transform="translate(-144.636 -217.38)" fill="#f9f5ee"/><path d="M514.766,775.989c1.684.109,1.72,1.313,1.7,2.555l.018-.015a2.678,2.678,0,0,1-1.7-2.55Z" transform="translate(-175.415 -264.427)" fill="#f9f5ee"/><path d="M513.9,774.658a2.673,2.673,0,0,1-1.7-2.556l-.018.017c1.68.107,1.734,1.3,1.7,2.55l.012-.01" transform="translate(-174.534 -263.106)" fill="#f9f5ee"/><path d="M441.643,664.985a2.65,2.65,0,0,1-1.7-2.554l-.015.014c1.682.108,1.721,1.311,1.7,2.553l.017-.014" transform="translate(-149.912 -225.734)" fill="#f9f5ee"/><path d="M428.741,644.337c-1.676-.109-1.729-1.3-1.7-2.551l-.015.013a2.666,2.666,0,0,1,1.7,2.555Z" transform="translate(-145.515 -218.699)" fill="#f9f5ee"/><path d="M423.58,637.037a1.592,1.592,0,0,1-1.7-1.472,1.653,1.653,0,0,1,0-.228l-.014.014a1.586,1.586,0,0,1,1.7,1.464,1.528,1.528,0,0,1,0,.239l.016-.016" transform="translate(-143.756 -216.501)" fill="#f9f5ee"/><path d="M484.223,728.643a1.584,1.584,0,0,1-1.7-1.456,1.705,1.705,0,0,1,0-.246l-.019.018a1.584,1.584,0,0,1,1.7,1.453,1.55,1.55,0,0,1,0,.249l.018-.018" transform="translate(-164.42 -247.717)" fill="#f9f5ee"/><path d="M471.319,709.295a1.586,1.586,0,0,1-1.7-1.46,1.641,1.641,0,0,1,0-.241l-.011.011a1.585,1.585,0,0,1,1.7,1.458,1.5,1.5,0,0,1,0,.243l.011-.01" transform="translate(-160.026 -241.123)" fill="#f9f5ee"/><path d="M491.543,739.862a1.753,1.753,0,0,1,.851,1.7l.009-.008a1.755,1.755,0,0,1-.848-1.7Z" transform="translate(-167.501 -252.115)" fill="#f9f5ee"/><path d="M495.418,746.31l.851.851,0,0-.852-.851Z" transform="translate(-168.821 -254.315)" fill="#f9f5ee"/><rect width="0.018" height="1.205" transform="matrix(0.707, -0.707, 0.707, 0.707, 323.188, 486.894)" fill="#f9f5ee"/><path d="M448.968,675.348l.85.852.01-.01-.852-.85Z" transform="translate(-152.993 -230.133)" fill="#f9f5ee"/><path d="M448.534,674.9l-.852-.851-.006.007.851.852.008-.008" transform="translate(-152.553 -229.693)" fill="#f9f5ee"/><path d="M772.285,887.492c.272.941.649,1.814,1.738,2.023.471.092.815-.18.682-.688-.283-1.072-1.2-1.371-2.139-1.607-10.117-8.479-28.486-8.742-37.182-1.272,1.286.64,2.13-.409,3.1-.789,7.554-2.948,15.164-3.8,23.177-1.729,3.746.97,6.793,3.479,10.618,4.06m-41.177,1.117c-2.967,1.807-5.741,3.791-6.8,7.35,2.659-2.089,5.422-4.084,6.8-7.35m1.992-.7c.231-.109.542-.162.661-.344.1-.144-.044-.443-.08-.673l-.914.4.334.622" transform="translate(-246.818 -300.075)" fill="#f9f5ee"/><path d="M988.321,915.763c-2.2,6.812-7.832,10.685-12.9,15.035-9.049,5.894-18.911,8.31-29.754,8.174-24.057-.3-48.121-.173-72.179-.007-3.795.026-5.006-.9-4.385-4.746,1-6.2.032-12.39-.806-18.551q18.5-.147,37-.3c1.971.085,3.94.239,5.912.243q38.558.092,77.119.148" transform="translate(-295.885 -311.927)" fill="#61d9d3"/><path d="M672.975,607.149l-.448.875c-.254-.5-.144-.81.448-.875" transform="translate(-229.131 -206.896)" fill="#90a0ea"/><path d="M977.839,875.18q-38.56-.069-77.12-.149c-1.97,0-3.941-.158-5.911-.243q1.528-6.359,3.056-12.714l-.084-.116,24.628-.072c1.757-.235,3.8.038,4.307-2.421l.026-.023c2.714.52,3.775-1.659,4.828-3.319a13.9,13.9,0,0,0,.756-14.164c-2.535-5.22-7.107-7.621-12.718-7.768-7.358-.194-14.725-.119-22.084-.011a5.147,5.147,0,0,1-5.118-2.771,40.006,40.006,0,0,0-16.5-14.854q-17.478-8.7-34.918-17.487a8.463,8.463,0,0,1-3.455-2.775h10.8l8.935.019,63.8-.035q17.068,8.44,34.15,16.849c.693.34,1.4,1.783,2.412.351,7.418,4.523,15.063,8.779,19.88,16.445.966,1.539,2.189,2.96,2.428,4.866-7.7,1.146-12.273,7.041-11.645,15.014.593,7.5,6.441,12.415,14.545,12.212a23.905,23.905,0,0,1-5.006,13.17M961.11,848.8c0-.276-.006-.552-.009-.828H940.176v.828Z" transform="translate(-285.404 -271.344)" fill="#29b5d6"/><path d="M849.526,774.865l-8.935-.019c-.149-14.97-8.231-24.46-21.148-30.61-1.036-3.846-2.931-7.325-4.643-10.884,15.692,1.955,36.189,20.319,34.725,41.513" transform="translate(-277.656 -249.901)" fill="#050507"/><path d="M597.632,915.725a60.119,60.119,0,0,0-.554,23.24l-110.84-.053c-22.366-.008-44.733-.053-67.1.058-3.077.015-4.5-.575-3.831-3.989,1.281-6.495.05-12.933-.779-19.367l73.633-.141,1.056.007q45.28.062,90.559.129c5.952.01,11.9.075,17.854.115" transform="translate(-141.258 -311.962)" fill="#61d9d3"/><path d="M924.735,857.152c8.764-.058,17.53-.265,26.291-.115,4.84.084,8.149,2.974,10.134,7.244,2.139,4.608.918,8.813-2.007,12.668-.839,1.1-1.792,2.12-2.7,3.176l-.026.023a7.109,7.109,0,0,0-4.236,1.587l-24.5-.173c.116-8.271.347-16.557-2.959-24.413" transform="translate(-315.118 -292.03)" fill="#29b5d6"/><path d="M788.422,747.584a19.368,19.368,0,0,1,3.366,7.261c.707,2.471,1.966,4.019,4.65,4.109,3.205,6.063,8.347,10.6,12.518,15.91.763.971,2.342,1.734,1.864,3.1-.615,1.758-2.448.968-3.743.983-6.513.074-13.027.045-19.54.019-1.388-.005-2.86.277-4.055-.788-.182-7.385,1.172-14.992-3.129-21.786l.952-1.084a24.877,24.877,0,0,0,2.514.16c1.759-.058,4.159.592,4.73-1.615.535-2.067-1.568-3.006-3.2-3.852.511-1.461,2.1-1.549,3.075-2.415" transform="translate(-265.917 -254.751)" fill="#d0d9f6"/><path d="M916.55,856.329c3.307,7.857,3.076,16.141,2.959,24.413q-.1.54-.2,1.079l.084.115c-1.829-.044-3.658-.084-5.487-.133a13.905,13.905,0,0,1-13.083-11.635c-.879-6.733,3.626-13.632,10.021-15.255,2.115-.537,4.21-.69,5.705,1.415" transform="translate(-306.933 -291.208)" fill="#fbfbf8"/><path d="M698,794.753c1.9-1.5,4.162-.423,6.208-.883,4.046,8.071,10.674,11.1,19.521,10.535,7.467-.481,15,.483,22.446-.908-3.891,4.485-8.867,6.056-14.694,5.8-4.786-.206-9.587-.04-14.38-.042-11.264,0-16.145-3.709-19.1-14.505" transform="translate(-237.853 -270.524)" fill="#050507"/><path d="M570.8,797.554c14.959-.355,29.922-.566,44.872-1.144,4.891-.189,7.41,1.772,8.307,6.342-12.119-1.107-24.241-2.178-36.354-3.334-5.617-.536-11.216-1.237-16.823-1.864" transform="translate(-194.509 -271.385)" fill="#050507"/><path d="M527.28,874.526l-1.055-.007q.068-39.612.138-79.225c.258-.011.516-.013.775-.008q.07,39.619.142,79.24" transform="translate(-179.319 -271.005)" fill="#d0d9f6"/><path d="M570.5,836.944H595.77v.441H570.6c-.032-.148-.064-.294-.1-.441" transform="translate(-194.408 -285.202)" fill="#dcf4e4"/><path d="M814.075,742.465c2.379,2.063,2.5,4.907,2.671,7.732q-.112.256-.242.5-1.183-4.145-2.366-8.288Z" transform="translate(-277.409 -252.988)" fill="#050507"/><path d="M783.164,809.405c1.985.415,3.094,1.955,4.309,3.358-.1.107-.212.209-.324.308-2.1-.285-3.637-1.264-4.173-3.448l.188-.219" transform="translate(-266.811 -275.817)" fill="#d0d9f6"/><path d="M776.7,804.2a1.658,1.658,0,0,1,.672-.31l3.652,3.636-.188.217c-2.218-.2-3.8-1.146-4.137-3.543" transform="translate(-264.673 -273.938)" fill="#d0d9f6"/><path d="M789.631,814.5c1.053.332,2.1.672,2.183,2.323-1.543.116-2.12-.814-2.5-2.017.109-.1.218-.2.322-.306" transform="translate(-268.969 -277.554)" fill="#d0d9f6"/><path d="M795.121,819.544l.524-.414.557.806c-.227.073-.492.252-.67.188s-.272-.368-.411-.578" transform="translate(-270.95 -279.131)" fill="#d0d9f6"/><path d="M305.338,856.543c23.827,4.442,39.9,21.165,43.153,44.889,2.846,20.789-8.787,41.948-28.374,51.523a43.6,43.6,0,0,1-13.255,4.215c-5.869.769-11.744,1.415-17.625.058-18.9-3.584-32.27-14.308-38.932-32.215-6.706-18.028-3.7-35.016,8.264-50.3,3.083-3.938,7.3-6.619,10.613-10.274,4.791-1.924,9.134-4.8,14.186-6.221a57.475,57.475,0,0,1,21.972-1.672m-33.207,26.35-.87.829q-.46.83-.918,1.659c-.556.095-1.1.241-1.152.918-.011.148.322.471.47.456.673-.072.788-.643.9-1.187a1.8,1.8,0,0,0,.882-1.665c.27-.3.541-.591.809-.889l.848-.837c.3-.272.605-.545.9-.821l.319-.5-.512.309q-.418.442-.834.887l-.845.841m4.394-3.237c.644-.16,1.295-.323,1.268-1.185a.392.392,0,0,0-.27-.266c-.844-.049-1.081.546-1.234,1.214l-.307.533.544-.3m41.5-.851,1.609.945a5.416,5.416,0,0,0,1.933,2.723,33.831,33.831,0,0,1,4.92,43.672c-.443.668-1.1,1.353-.036,2.349a17.936,17.936,0,0,0,1.637-1.85c5.518-8.235,6.466-17.364,4.781-26.821-1.512-8.486-5.418-15.647-12.953-20.407l-1.642-.909c-6.789-6.727-15.316-7.866-24.219-7.124-5.371.448-10.551,1.953-14.97,5.708,1.129.767,1.723.2,2.3-.1a35.26,35.26,0,0,1,23.367-3.519c4.853.907,8.916,3.4,13.273,5.333" transform="translate(-84.101 -291.746)" fill="#f9f5ee"/><path d="M296.852,830.041c4.914-1.624,8.341-4.625,8.852-10.052.53-5.619-2.54-9.138-7.182-11.624,6.449-.241,11.019,4.356,10.817,10.878-.205,6.633-5.021,11.03-11.407,10.452a3.044,3.044,0,0,0-1.079.347" transform="translate(-101.157 -275.46)" fill="#050507"/><path d="M440.143,836.878h24.4c0,.147,0,.293.005.44h-24.4c0-.146,0-.293,0-.44" transform="translate(-149.985 -285.179)" fill="#dcf4e4"/><path d="M632.89,766.448c3.1,1.792,6.712,2.794,8.981,5.859-4.5-1.156-7.967-4.745-12.762-5.322-1.947-.235-3.864-.668-5.852-.713-12.556-.28-25.112-.61-37.667-.925.366-1.8.434-3.687,1.643-5.219,13.725,1.758,27.334,4.422,41.171,5.3a6.867,6.867,0,0,0,4.486,1.022" transform="translate(-199.549 -259.026)" fill="#050507"/><path d="M585.717,756.251c-1.209,1.532-1.278,3.423-1.643,5.219-2.016.268-3.931.529-2.343-2.575,1.713-3.349,3.3-6.764,4.946-10.146l-.96,7.5" transform="translate(-198.034 -255.148)" fill="#b6cce6"/><path d="M655.021,765.614a6.867,6.867,0,0,1-4.486-1.022c.355-2.358.326-4.812,1.734-6.907l2.753,7.929" transform="translate(-221.68 -258.193)" fill="#b6cce6"/><path d="M593.579,732.371s-.134-.371-.134-.369a26.237,26.237,0,0,1,4.712-9.144,21.376,21.376,0,0,1-4.578,9.512" transform="translate(-202.226 -246.326)" fill="#cc3e64"/><path d="M571.415,735.79a4.284,4.284,0,0,1-4.821-.127,4.074,4.074,0,0,1,4.821.127" transform="translate(-193.076 -250.441)" fill="#cc3e64"/><path d="M589.92,746.922l.585-.919-.585.919" transform="translate(-201.024 -254.212)" fill="#b6cce6"/><path d="M654.479,795.342c4.371,3.371,5.056,7.907,4.18,12.932-.709-4.535-1.28-9.113-4.18-12.932" transform="translate(-223.024 -271.025)" fill="#050507"/><path d="M666.363,800.211a12.5,12.5,0,0,1,2.044,11.212c-.533-3.737-.788-7.522-2.044-11.212" transform="translate(-227.074 -272.684)" fill="#050507"/><path d="M673.444,781.084a15.231,15.231,0,0,1,5.55,8.97,22.66,22.66,0,0,1-5.55-8.97" transform="translate(-229.487 -266.167)" fill="#050507"/><path d="M664.668,795.765l-.209.795c-.306-.189-.752-.314-.875-.586-.111-.236.138-.639.227-.969l.856.762" transform="translate(-226.117 -270.91)" fill="#050507"/><path d="M670.854,778.509l.92.922Z" transform="translate(-228.604 -265.289)" fill="#050507"/><path d="M672.141,779.792l.925.925-.925-.925" transform="translate(-229.043 -265.727)" fill="#050507"/><path d="M778.629,753.341l-.952,1.087q-2.588-2.032-5.174-4.067c.975-1.516,1.854-3.109,2.942-4.541,4.03-5.306,5.874-5.319,10.3-.2-.975.867-2.563.955-3.073,2.415-2.547.856-3.557,2.883-4.046,5.307" transform="translate(-263.242 -252.783)" fill="#050507"/><path d="M627.109,650.02c.848-3.109,2.7-1.288,3.752-.479,1.977,1.518,1.748,3.632.467,5.574-.6.91-1.716.788-2.683.867l-.525-.773a2.541,2.541,0,0,0,2.259-3.332c-.289-1.536-1.341-2.005-2.806-1.7a.945.945,0,0,1-.462-.156" transform="translate(-213.697 -220.909)" fill="#cc3e64"/><path d="M627.815,651.115c1.464-.306,2.516.163,2.806,1.7a2.542,2.542,0,0,1-2.259,3.332q-.274-2.516-.547-5.029" transform="translate(-213.938 -221.848)" fill="#814329"/><path d="M810.9,753.645c-1.618-4.519-2.139-8.173-3.377-11.589a18.8,18.8,0,0,1,3.377,11.589" transform="translate(-275.177 -252.867)" fill="#050507"/><path d="M813.5,741.349c-.871-.386-1.552-.883-1.214-2.052,1.4.208,1.045,1.282,1.151,2.106l.062-.054" transform="translate(-276.767 -251.927)" fill="#050507"/><path d="M232.535,756.071l0-.063Z" transform="translate(-79.239 -257.622)" fill="#814329"/><path d="M539.625,1013l-1.778.111a.366.366,0,0,1,.076-.513.384.384,0,0,1,.1-.051q.752-.048,1.492-.1a.462.462,0,0,1,.115.551" transform="translate(-183.255 -345.009)" fill="#5bc57f"/><path d="M348.126,1012.68a.63.63,0,0,1,.849-.269.649.649,0,0,1,.171.131c-.283.471-.624.514-1.02.138" transform="translate(-118.629 -344.971)" fill="#5bc57f"/><path d="M1049.345,857.278a39.244,39.244,0,0,1,2.346,24.464,13.073,13.073,0,0,1-5.373-.781c-5.261-1.743-9.346-8.045-8.552-13.094,1-6.386,5.393-10.4,11.579-10.587" transform="translate(-353.601 -292.131)" fill="#29b5d6"/><path d="M1048.71,856.4c-6.186.19-10.574,4.2-11.579,10.587-.794,5.05,3.295,11.352,8.552,13.094a13.073,13.073,0,0,0,5.373.781l-.649,1.055c-8.1.2-13.953-4.706-14.545-12.212-.628-7.973,3.942-13.868,11.644-15.013a1.436,1.436,0,0,1,1.205,1.707" transform="translate(-352.966 -291.249)" fill="#90a0ea"/><path d="M778.008,887.5c-3.82-.584-6.868-3.093-10.614-4.063-8.013-2.075-15.624-1.22-23.177,1.729-.974.38-1.82,1.43-3.1.789,8.7-7.47,27.062-7.207,37.181,1.272Z" transform="translate(-252.546 -300.076)" fill="#b6cce6"/><path d="M731.109,892.755c-1.38,3.265-4.143,5.261-6.8,7.35,1.061-3.56,3.835-5.544,6.8-7.35" transform="translate(-246.819 -304.22)" fill="#b6cce6"/><path d="M797.37,890.651c.939.237,1.854.535,2.139,1.608.133.507-.211.779-.682.687-1.088-.212-1.465-1.084-1.74-2.023l.285-.272" transform="translate(-271.62 -303.503)" fill="#b6cce6"/><path d="M737.47,891.164l-.334-.622.914-.4c.036.231.173.529.08.673-.119.181-.431.235-.661.344" transform="translate(-251.191 -303.332)" fill="#b6cce6"/><path d="M1014.163,875.524H993.228V874.7h20.923c0,.276.005.552.009.828" transform="translate(-338.458 -298.066)" fill="#90a0ea"/><path d="M928.922,895.352l.2-1.078,24.5.173q-.039.416-.073.834l-24.627.072" transform="translate(-316.545 -304.738)" fill="#d0d9f6"/><path d="M966.281,894.548q.033-.417.073-.834a7.1,7.1,0,0,1,4.236-1.587c-.507,2.459-2.551,2.186-4.308,2.421" transform="translate(-329.275 -304.006)" fill="#90a0ea"/></g><g transform="translate(465.564 565.546)"><g clip-path="url(#b)"><path d="M808.113,908.333c.111,24.934-17.652,46.491-41.642,50.527-6.108.782-12.217,1.676-18.341.051-2.187-.52-4.432-.877-6.55-1.582-18.579-6.219-29.631-19.295-34.488-37.982a60.056,60.056,0,0,1,.561-23.24c6.066-19.915,19.124-32.432,39.448-37.252,5.666-1.344,11.389-1,17.125-.6,25.2,4.058,43.786,25.258,43.889,50.09m-19.653,17.883a35.246,35.246,0,0,0-2.544-38.749c-1.421-1.838-2.288-4.51-5.232-4.985-.264,1.676.97,2.169,1.65,2.977,5.972,7.053,9.3,14.965,9.188,24.415-.076,6.669-2.824,12.309-5.342,18.129-.646.467-1.387.893-1.268,1.854a.673.673,0,0,0,.553.347c1.013-.3.783-1.251.978-1.982,1.14-.2,1.523-1.148,2.017-2.008" transform="translate(-706.22 -857.887)" fill="#f9f5ee"/><path d="M824.392,900.185a35.246,35.246,0,0,1,2.544,38.749c-.494.86-.877,1.813-2.016,2.008l-.264-.221c2.518-5.818,5.266-11.459,5.342-18.129.111-9.451-3.215-17.363-9.188-24.415-.681-.809-1.914-1.3-1.651-2.977,2.943.477,3.811,3.147,5.233,4.985" transform="translate(-744.693 -870.599)" fill="#b6cce6"/><path d="M836.146,1012.47a.667.667,0,0,1,.026.689c-.17-.212-.34-.433-.5-.646.009,0,.231-.179.231-.179Z" transform="translate(-750.332 -910.515)" fill="#5bc57f"/><path d="M826.854,964.252l.264.221c-.2.732.034,1.684-.978,1.982a.673.673,0,0,1-.552-.347c-.119-.961.621-1.388,1.268-1.854" transform="translate(-746.892 -894.13)" fill="#b6cce6"/><path d="M788.041,1011.044c.119.357.238.723.347,1.08a73.654,73.654,0,0,1-18.758-.392.428.428,0,0,1,.03-.6.285.285,0,0,1,.038-.031c6.124,1.625,12.233.731,18.341-.051" transform="translate(-727.79 -910.075)" fill="#5bc57f"/></g></g><g clip-path="url(#a)"><path d="M781.8,756.557c.486-2.428,1.5-4.451,4.047-5.307,1.632.843,3.735,1.785,3.2,3.851-.572,2.207-2.971,1.556-4.73,1.614a24.671,24.671,0,0,1-2.514-.158" transform="translate(-266.409 -256)" fill="#bf926d"/><path d="M347.053,893.2c7.533,4.762,11.438,11.923,12.949,20.407,1.686,9.457.736,18.586-4.781,26.821a17.793,17.793,0,0,1-1.637,1.85c-1.067-1-.4-1.681.036-2.349a33.832,33.832,0,0,0-4.92-43.672,5.406,5.406,0,0,1-1.931-2.725c.1-.111.189-.222.281-.332" transform="translate(-118.167 -304.371)" fill="#b6cce6"/><path d="M324.2,888.334c-4.356-1.937-8.418-4.427-13.272-5.334a35.263,35.263,0,0,0-23.368,3.519c-.578.3-1.17.868-2.3.1,4.418-3.758,9.6-5.261,14.97-5.708,8.9-.742,17.431.4,24.219,7.124Z" transform="translate(-97.207 -300.118)" fill="#b6cce6"/><path d="M271.617,902.432c-.115.542-.228,1.114-.9,1.186-.148.016-.481-.308-.47-.456.048-.676.6-.822,1.156-.915l.218.185" transform="translate(-92.09 -307.455)" fill="#b6cce6"/><path d="M281.008,892.569c.156-.668.393-1.263,1.238-1.214a.386.386,0,0,1,.269.266c.028.862-.623,1.026-1.266,1.185Z" transform="translate(-95.758 -303.742)" fill="#b6cce6"/><path d="M344.578,891.822l1.643.908c-.091.109-.185.219-.28.33q-.81-.47-1.612-.942l.249-.3" transform="translate(-117.336 -303.902)" fill="#b6cce6"/><path d="M273.1,899.913a1.807,1.807,0,0,1-.884,1.662L272,901.39q.457-.833.916-1.66l.185.183" transform="translate(-92.687 -306.597)" fill="#b6cce6"/><path d="M277.015,896.042l-.906.817-.128-.129.837-.885.2.194" transform="translate(-94.045 -305.273)" fill="#b6cce6"/><path d="M281.091,893.438l-.543.3c.1-.179.2-.355.3-.535l.239.237" transform="translate(-95.601 -304.373)" fill="#b6cce6"/><path d="M277.25,895.688l.513-.309c-.107.167-.214.334-.318.5l-.2-.193" transform="translate(-94.477 -305.114)" fill="#b6cce6"/><path d="M274.378,898.594l-.81.888-.184-.182q.434-.416.871-.828l.123.121" transform="translate(-93.16 -306.168)" fill="#b6cce6"/><path d="M275.673,897.319q-.424.418-.846.839l-.121-.121c.28-.281.562-.561.843-.843Z" transform="translate(-93.61 -305.733)" fill="#b6cce6"/><path d="M285.13,820.262a1,1,0,1,0-.961-.961,1,1,0,0,0,.961.961" transform="translate(-96.835 -278.839)" fill="#90a0ea"/><path d="M285.13,820.262a1,1,0,1,0-.961-.961,1,1,0,0,0,.961.961" transform="translate(-96.835 -278.839)" fill="#90a0ea"/><rect width="184.452" height="817.78" fill="#fff"/></g></svg>