<svg xmlns="http://www.w3.org/2000/svg" xmlns:xlink="http://www.w3.org/1999/xlink" width="480.811" height="992.297" viewBox="0 0 480.811 992.297"><defs><clipPath id="a"><rect width="303.274" height="260.398" transform="translate(87.743 387.507)" fill="none"/></clipPath></defs><g transform="translate(-237 -2568.203)"><path d="M97.393,259.3l-.061-.078c.136.175.12.154.061.078" transform="translate(237 2568.203)"/><path d="M310.981,516.681a71.758,71.758,0,1,1-71.758-71.758,71.758,71.758,0,0,1,71.758,71.758" transform="translate(237 2568.203)" fill="#61d9d3"/><path d="M193.773,341.783l-.169-.072-.034-.014.2.086" transform="translate(237 2568.203)"/><path d="M228.2,330.616l-.16-.022c-.2-.025.089.012.16.022" transform="translate(237 2568.203)"/><path d="M328.667,303.69c-.173.138.546-.413,0,0" transform="translate(237 2568.203)"/><path d="M295.072,652.8a6.872,6.872,0,1,1-6.872-6.872,6.872,6.872,0,0,1,6.872,6.872" transform="translate(237 2568.203)" fill="#134b75"/><path d="M210.922,378.531a6.872,6.872,0,1,1-6.872-6.872,6.872,6.872,0,0,1,6.872,6.872" transform="translate(237 2568.203)" fill="#134b75"/><path d="M119.709,523.108a6.873,6.873,0,1,1-6.872-6.872,6.872,6.872,0,0,1,6.872,6.872" transform="translate(237 2568.203)" fill="#274684"/><path d="M355.592,414.181a154.581,154.581,0,0,1,39.08,102.985v0a159.74,159.74,0,0,1-1.837,23.887q-1.14,7.452-3.014,14.757a11.089,11.089,0,0,1-7.036,21.029q-2.01,4.824-4.337,9.507a153.059,153.059,0,0,1-7.6,13.517C437.7,558.9,461.064,495.81,461.064,495.81s-37.918-49.561-105.472-81.629" transform="translate(237 2568.203)" fill="#88b1b8"/><path d="M85,499.777A154.262,154.262,0,0,1,95.52,458.441a156.53,156.53,0,0,1,23.992-40.089q1.735-2.109,3.547-4.151c-67.528,32.068-105.431,81.61-105.431,81.61s23.363,63.083,90.216,104.056q-.732-1.158-1.443-2.334a154.521,154.521,0,0,1-22.312-75.75A11.09,11.09,0,0,1,85,499.777" transform="translate(237 2568.203)" fill="#88b1b8"/><g transform="translate(237 2568.203)" opacity="0.49"><g clip-path="url(#a)"><path d="M381.915,494.978a143.859,143.859,0,0,0-38.293-77.488,145.565,145.565,0,0,0-16.984-15.174,265.693,265.693,0,0,0-87.183-14.808h-.219a265.683,265.683,0,0,0-87.2,14.815q-4.346,3.3-8.43,6.937a145.34,145.34,0,0,0-27.7,33.228,143.416,143.416,0,0,0-20.344,62.993,11.1,11.1,0,0,1-.468,11.478q-.008,5.73.429,11.456a143.458,143.458,0,0,0,32.553,80.574q1.308,1.579,2.66,3.124C159.9,625.6,195.055,648.273,238.667,647.9c43.624.376,80.14-22.31,109.313-35.8a144.658,144.658,0,0,0,27.032-45.785v-.056a11.033,11.033,0,0,1,2.259-6.707,145.683,145.683,0,0,0,4.644-64.577M239.236,616.357a100.3,100.3,0,1,1,100.3-100.3,100.3,100.3,0,0,1-100.3,100.3M131.8,410.227a151.457,151.457,0,0,0-39.816,70.9A150.294,150.294,0,0,0,88.625,500.1a11.02,11.02,0,0,1,3.781,1.8,146.738,146.738,0,0,1,10.148-40.581,148.832,148.832,0,0,1,22.817-38.128,147.307,147.307,0,0,1,16.7-17.2q-5.241,2.038-10.274,4.239M112.9,593.6A147.011,147.011,0,0,1,95.79,552.177a148.569,148.569,0,0,1-4.142-31.892,11.027,11.027,0,0,1-3.905,1.476q.1,3.618.38,7.231a150.83,150.83,0,0,0,26.888,75.086q3.99,2.244,8.177,4.375A148.668,148.668,0,0,1,112.9,593.6m263.676-21.663q-2.236,5.61-4.932,11.025a147.1,147.1,0,0,1-16.151,25.492q4.182-2.127,8.17-4.373a152.212,152.212,0,0,0,15.861-28.9,11.057,11.057,0,0,1-2.948-3.248m12.669-78.106a151.249,151.249,0,0,0-40.262-81.471q-1.031-1.079-2.083-2.134-5.061-2.205-10.325-4.259a149.48,149.48,0,0,1,23.306,25.777,147.032,147.032,0,0,1,27.193,85.413v.015a151.5,151.5,0,0,1-1.747,22.712,144.358,144.358,0,0,1-3.416,16.107,11.033,11.033,0,0,1,4.189-.821h.109a153.378,153.378,0,0,0,3.036-61.339" fill="#c2ead1"/></g></g><path d="M393.664,454.961a13.9,13.9,0,1,1-13.9-13.9,13.9,13.9,0,0,1,13.9,13.9" transform="translate(237 2568.203)" fill="#fff"/><path d="M97.983,560.848a7.023,7.023,0,1,1-7.023-7.023,7.023,7.023,0,0,1,7.023,7.023" transform="translate(237 2568.203)" fill="#fff"/><path d="M162.253,464a92.835,92.835,0,0,1,84.821-40.546,92.9,92.9,0,0,1,84.9,86.786q.173,2.9.174,5.809a1.828,1.828,0,0,0,3.654,0,96.425,96.425,0,0,0-40.7-78.771,95.851,95.851,0,0,0-42.192-16.823A96.451,96.451,0,0,0,162.8,457.052q-1.929,2.5-3.7,5.107c-1.323,1.952,1.842,3.783,3.157,1.845" transform="translate(237 2568.203)" fill="#88b1b8"/><path d="M239.236,608.968a92.805,92.805,0,0,1-92.915-92.915,1.829,1.829,0,0,0-3.655,0,96.5,96.5,0,0,0,96.57,96.57,1.829,1.829,0,0,0,0-3.655" transform="translate(237 2568.203)" fill="#88b1b8"/><path d="M309.69,576.64a94.359,94.359,0,0,1-31.346,23.731,91.983,91.983,0,0,1-10.692,4.174c-2.229.718-1.276,4.248.972,3.524a96.728,96.728,0,0,0,43.65-28.845c1.534-1.769-1.04-4.365-2.584-2.584" transform="translate(237 2568.203)" fill="#88b1b8"/><path d="M105.727,416.672a168.436,168.436,0,0,1,33.467-33.78q5.485-4.147,11.294-7.841c1.977-1.261.146-4.426-1.845-3.156a173.011,173.011,0,0,0-37.31,32.036q-4.6,5.27-8.762,10.9a1.843,1.843,0,0,0,.656,2.5,1.868,1.868,0,0,0,2.5-.656" transform="translate(237 2568.203)" fill="#f3d37c"/><path d="M240.449,682.617a161.823,161.823,0,0,1-35.888-3.886,168.371,168.371,0,0,1-17.263-4.8q-4.209-1.416-8.341-3.054c-2.765-1.1-4.615-1.886-7.577-3.251a169.652,169.652,0,0,1-30.107-17.864c-2.25-1.672-3.952-3-6.4-5.03q-3.354-2.78-6.565-5.73a170.967,170.967,0,0,1-12.206-12.424q-3.239-3.652-6.266-7.487c-.216-.274-.43-.549-.646-.824q-.393-.507-.069-.088-.213-.276-.425-.554-.741-.972-1.468-1.953-1.457-1.965-2.854-3.972A171.18,171.18,0,0,1,94.113,594.99a3.655,3.655,0,0,0-6.311,3.689,175.352,175.352,0,0,0,20.287,29.767,170.714,170.714,0,0,0,25.424,24.514,172.272,172.272,0,0,0,102.251,36.9q2.343.063,4.685.063a3.655,3.655,0,1,0,0-7.309" transform="translate(237 2568.203)" fill="#f3d37c"/><path d="M369.164,624.3A169.7,169.7,0,0,1,324.8,661.73q-7.176,4.182-14.737,7.647c-2.136.98-.28,4.131,1.845,3.155a172.2,172.2,0,0,0,48.53-33.427q5.951-5.833,11.312-12.225c1.5-1.789-1.067-4.387-2.583-2.584" transform="translate(237 2568.203)" fill="#f3d37c"/><path d="M240.449,350.744q7.938.009,15.852.731,1.905.177,3.806.4.948.109,1.894.23c.252.031.5.064.756.1-.61-.08.594.083.725.1q3.843.544,7.659,1.265a168.471,168.471,0,0,1,29.36,8.36q1.633.63,3.254,1.295c.284.116.568.234.851.351.683.281.294.122.145.059q1.017.429,2.026.875,3.444,1.512,6.816,3.179,6.635,3.276,12.965,7.123,6.373,3.873,12.39,8.3c2.238,1.644,3.417,2.554,5.583,4.308q2.818,2.283,5.538,4.685,6.25,5.518,11.942,11.63,2.841,3.052,5.531,6.24,1.287,1.525,2.538,3.08.683.849,1.354,1.706.224.285.446.572c-.354-.456.46.6.535.7,1.194,1.568,3.149,2.394,5,1.311,1.544-.9,2.514-3.42,1.311-5a176.145,176.145,0,0,0-45.08-41.719,172.053,172.053,0,0,0-56.869-23.36,176.288,176.288,0,0,0-36.328-3.821,3.654,3.654,0,1,0,0,7.309" transform="translate(237 2568.203)" fill="#f3d37c"/><path d="M310.982,357.8a10.711,10.711,0,1,1-10.711-10.711A10.712,10.712,0,0,1,310.982,357.8" transform="translate(237 2568.203)" fill="#f3d37c"/><path d="M176.414,362.761A10.711,10.711,0,1,1,165.7,352.05a10.711,10.711,0,0,1,10.711,10.711" transform="translate(237 2568.203)" fill="#f3d37c"/><path d="M147.45,652.215A10.711,10.711,0,1,1,136.739,641.5a10.711,10.711,0,0,1,10.711,10.711" transform="translate(237 2568.203)" fill="#f3d37c"/><path d="M392.26,610.8a10.711,10.711,0,1,1-10.711-10.711A10.711,10.711,0,0,1,392.26,610.8" transform="translate(237 2568.203)" fill="#f3d37c"/><path d="M405.534,775.068l.061.078c-.136-.175-.12-.154-.061-.078" transform="translate(237 2568.203)"/><path d="M114.624,268.778H199.7c1.715,0,3.434-.029,5.149,0,.325.006.647.022.971.047.772.06.328.044.163.016a13.463,13.463,0,0,1,1.8.44c-.081-.025,1.033.376.579.192s.594.289.531.256a15.114,15.114,0,0,1,1.47.886c.842.559-.4-.455.3.249.151.153.316.291.468.443.185.187.36.383.532.582.377.432-.39-.7.076.115.1.173.214.335.312.509s.411,1.013.125.176c.061.18.125.355.177.538.077.273.09.981.077.119q.025,1.709.026,3.418V329.4a3.655,3.655,0,0,0,7.31,0V279.55c0-1.733,0-3.466,0-5.2a11.623,11.623,0,0,0-4.182-8.866,17.068,17.068,0,0,0-11.058-4.016c-.7,0-1.4,0-2.1,0H137.1c-7.374,0-14.765-.15-22.138,0-.114,0-.228,0-.342,0a3.655,3.655,0,1,0,0,7.309" transform="translate(237 2568.203)" fill="#88b1b8"/><path d="M126.6,264.113a12.6,12.6,0,1,1-12.6-12.6,12.6,12.6,0,0,1,12.6,12.6" transform="translate(237 2568.203)" fill="#88b1b8"/><path d="M316.253,341.639V296.187q0-2.163,0-4.328c0-.557,0-1.113.038-1.669.017-.278.043-.555.071-.832-.077.764-.012.074.031-.123.1-.482.2-.959.348-1.431.069-.222.15-.439.224-.659.267-.793-.3.392,0,.012a10.782,10.782,0,0,0,.7-1.214c.421-.7-.557.517.029-.042.114-.109.216-.244.326-.36a12.071,12.071,0,0,1,.893-.814c-.792.673.209-.1.463-.253.214-.126.432-.243.653-.354.42-.211.567-.246.046-.046a18.365,18.365,0,0,1,2.522-.776c.453-.1.91-.176,1.366-.262.949-.179-.808.071.167-.026.292-.03.584-.064.877-.089,1.522-.133,3.048-.146,4.575-.146h48.289c8.8,0,17.6.123,26.4,0,.142,0,.284,0,.425,0a3.654,3.654,0,1,0,0-7.309H330.577c-4.881,0-9.909.113-14.345,2.4-4.325,2.229-6.577,6.481-7.141,11.172a34.833,34.833,0,0,0-.147,4.162v48.44a3.654,3.654,0,1,0,7.309,0" transform="translate(237 2568.203)" fill="#5bc57f"/><path d="M418.278,279.243a12.6,12.6,0,1,1-12.6-12.6,12.6,12.6,0,0,1,12.6,12.6" transform="translate(237 2568.203)" fill="#5bc57f"/><path d="M363.3,769.088H310.17c-.367,0-.735,0-1.1,0h-.19c-.127,0-.255,0-.382-.006-.048,0-1.238-.111-.476-.006a9.782,9.782,0,0,1-1.049-.212c-.456-.114-.9-.262-1.341-.416-1.026-.358.333.18-.237-.107-.253-.128-.506-.254-.753-.4a12.916,12.916,0,0,1-1.258-.814c-.49-.357.565.564-.148-.136-.225-.222-.467-.425-.688-.651-.188-.192-.871-1.022-.415-.411a9.356,9.356,0,0,1-.766-1.2c-.085-.16-.162-.323-.24-.487.373.783.1.253.048.022-.012-.059-.159-.6-.151-.6.067-.006.033.966.037.034.011-2.052,0-4.1,0-6.157V724.411c0-8.354.142-16.721,0-25.074,0-.142,0-.285,0-.427a3.654,3.654,0,1,0-7.309,0V755.3c0,2.742-.038,5.488,0,8.23.106,7.621,8.236,12.8,15.206,12.868,8.6.087,17.2,0,25.791,0H363.3a3.654,3.654,0,1,0,0-7.309" transform="translate(237 2568.203)" fill="#5bc57f"/><path d="M377.215,772.743a12.6,12.6,0,1,1-12.6-12.6,12.6,12.6,0,0,1,12.6,12.6" transform="translate(237 2568.203)" fill="#5bc57f"/><path d="M206.487,706.381v32.6c0,.4,0,.8,0,1.206,0,.382-.007.763-.027,1.145-.014.248-.165,1.452-.035.666-.082.5-.176.991-.307,1.478a12.177,12.177,0,0,1-.442,1.325c.3-.751-.046.032-.2.307-.083.146-.171.291-.263.433-.035.054-.516.723-.145.237s-.135.143-.183.2c-.136.15-.277.294-.423.434-.28.27-1.076.69-.28.28-.319.164-.612.413-.925.593s-.664.34-1,.508c.833-.418-.241.078-.565.184a18.788,18.788,0,0,1-2.362.589c-.321.059-1.252.187-.433.086-.536.066-1.072.12-1.611.16-1.1.081-2.2.108-3.3.11-6.475.015-12.95,0-19.425,0H139.834c-7.15,0-14.317-.147-21.466,0-.109,0-.219,0-.328,0a3.654,3.654,0,1,0,0,7.309h53.547q11.05,0,22.1,0c5.655,0,12.308-.62,16.364-5.084,3.657-4.026,3.745-9.178,3.745-14.274V706.381a3.655,3.655,0,1,0-7.309,0" transform="translate(237 2568.203)" fill="#5bc57f"/><path d="M131.413,752.576a12.6,12.6,0,1,1-12.6-12.6,12.6,12.6,0,0,1,12.6,12.6" transform="translate(237 2568.203)" fill="#5bc57f"/><path d="M249.361,327.87V253.155a3.655,3.655,0,1,0-7.31,0V327.87a3.655,3.655,0,1,0,7.31,0" transform="translate(237 2568.203)" fill="#c2ead1"/><path d="M258.309,253.155a12.6,12.6,0,1,1-12.6-12.6,12.6,12.6,0,0,1,12.6,12.6" transform="translate(237 2568.203)" fill="#c2ead1"/><path d="M237.513,707.919v76.574c0,3.547-.122,7.118,0,10.664,0,.05,0,.1,0,.15a3.655,3.655,0,1,0,7.309,0V718.734c0-3.548.122-7.119,0-10.665,0-.05,0-.1,0-.15a3.655,3.655,0,1,0-7.309,0" transform="translate(237 2568.203)" fill="#88b1b8"/><path d="M253.77,795.307a12.6,12.6,0,1,1-12.6-12.6,12.6,12.6,0,0,1,12.6,12.6" transform="translate(237 2568.203)" fill="#88b1b8"/><path d="M282.583,335.659V256.734c0-3.65.159-7.339,0-10.986,0-.052,0-.1,0-.157a1.829,1.829,0,0,0-3.655,0v78.925c0,3.649-.159,7.339,0,10.985,0,.053,0,.106,0,.158a1.829,1.829,0,0,0,3.655,0" transform="translate(237 2568.203)" fill="#d33d64"/><path d="M287.629,245.59a6.872,6.872,0,1,1-6.872-6.872,6.872,6.872,0,0,1,6.872,6.872" transform="translate(237 2568.203)" fill="#d33d64"/><path d="M142.414,296.481c8.91,0,17.824-.09,26.733,0,3.736.038,7.457,1.773,8.944,5.385a13.932,13.932,0,0,1,.692,5.472v31.09a1.828,1.828,0,0,0,3.654,0V308.1a27.832,27.832,0,0,0-.283-5.319,12.309,12.309,0,0,0-8.5-9.281,21.235,21.235,0,0,0-6.555-.671H142.414a1.829,1.829,0,0,0,0,3.655" transform="translate(237 2568.203)" fill="#929fea"/><path d="M148.224,294.654a6.872,6.872,0,1,1-6.872-6.872,6.872,6.872,0,0,1,6.872,6.872" transform="translate(237 2568.203)" fill="#929fea"/><path d="M186.759,697.419v23.362c0,2.631-.2,5.339-1.762,7.563-2.025,2.889-5.847,3.77-9.157,4.045-4.906.407-9.93.127-14.844.127H144.4a1.829,1.829,0,0,0,0,3.655H159.06c4.986,0,10,.143,14.981-.025,4.115-.139,8.5-.818,11.809-3.458,3.392-2.708,4.535-6.964,4.564-11.151.032-4.79,0-9.583,0-14.374v-9.744a1.829,1.829,0,0,0-3.655,0" transform="translate(237 2568.203)" fill="#d33d64"/><path d="M150.407,733.3a6.872,6.872,0,1,1-6.872-6.872,6.872,6.872,0,0,1,6.872,6.872" transform="translate(237 2568.203)" fill="#d33d64"/><path d="M270.816,702.151V797.31c0,4.4-.174,8.842,0,13.241,0,.061,0,.122,0,.183a1.829,1.829,0,0,0,3.655,0V715.575c0-4.4.174-8.842,0-13.241,0-.061,0-.122,0-.183a1.829,1.829,0,0,0-3.655,0" transform="translate(237 2568.203)" fill="#ffd55f"/><path d="M279.516,810.734a6.872,6.872,0,1,1-6.872-6.872,6.872,6.872,0,0,1,6.872,6.872" transform="translate(237 2568.203)" fill="#ffd55f"/><path d="M225.83,499.1a21.549,21.549,0,1,1-21.549-21.549A21.549,21.549,0,0,1,225.83,499.1" transform="translate(237 2568.203)" fill="#fff"/><circle cx="142.774" cy="142.774" r="142.774" transform="translate(274.215 3084.981) rotate(-45)" fill="none" stroke="#134b75" stroke-miterlimit="10" stroke-width="3.445"/><path d="M189.413,630.217a10.1,10.1,0,1,1-10.1-10.1,10.1,10.1,0,0,1,10.1,10.1" transform="translate(237 2568.203)" fill="#d33d64"/><path d="M366.414,484.175A11.715,11.715,0,1,1,354.7,472.46a11.715,11.715,0,0,1,11.715,11.715" transform="translate(237 2568.203)" fill="#d33d64"/><rect width="480.811" height="992.297" transform="translate(237 2568.203)" fill="none"/></g></svg>