<svg xmlns="http://www.w3.org/2000/svg" xmlns:xlink="http://www.w3.org/1999/xlink" width="760.786" height="380.393" viewBox="0 0 760.786 380.393"><defs><clipPath id="a"><rect width="760.786" height="380.393" fill="none"/></clipPath></defs><g clip-path="url(#a)"><path d="M0,380.393C0,170.308,170.308,0,380.393,0S760.786,170.308,760.786,380.393" fill="#faeee0"/><path d="M938.626,287.688a60.464,60.464,0,0,1-44.671,58.361c-9.642-.169-6.776,72.578-10.308,72.894q-2.7.242-5.46.243a61.077,61.077,0,0,1-6.675-.364c-3.461-.38-.88-70.083-10.1-73.053-24.982-8.05-43.668-30.52-43.668-58.081a60.438,60.438,0,1,1,120.876,0" transform="translate(-483.809 -134.449)" fill="#4c2618"/><path d="M941.626,287.688a60.464,60.464,0,0,1-44.671,58.361c-9.642-.169-6.776,72.578-10.308,72.894q-2.7.242-5.46.243a61.078,61.078,0,0,1-6.675-.364c-3.461-.38-.88-70.083-10.1-73.053-24.982-8.05-43.668-30.52-43.668-58.081a60.438,60.438,0,0,1,120.876,0" transform="translate(-485.583 -134.449)" fill="#fff"/><path d="M873.777,359.481v-3.888c10.695-.655,11.367-1.677,11.367-10.068V303.06c0-5.858-1.431-6.237-5.681-6.772l-3.7-.574v-3.469a91.36,91.36,0,0,0,21.061-5.7v58.983c0,8.58.606,9.413,11.27,10.068v3.888Z" transform="translate(-516.956 -169.528)"/><path d="M978.759,286.543c16.476,0,22.137,20.119,22.137,37.1,0,16.77-5.661,37.216-22.137,37.216-16.583,0-22.309-20-22.309-37.1,0-16.919,5.959-37.216,22.309-37.216m-.131,4.617c-7.758,0-9.623,16.661-9.623,32.219,0,15.633,2.371,32.863,9.82,32.863,7.586,0,9.486-16.741,9.486-32.747,0-16.2-2.2-32.335-9.684-32.335" transform="translate(-565.868 -169.529)"/><path d="M857.812,796.83q.011-35.041.022-70.081c0-6.515.055-13.03-.041-19.543-.022-1.472.371-2.048,1.807-1.868,4.979.028,9.958.078,14.938.078,5.437,0,10.874-.049,16.311-.076,1.449-.187,1.789.417,1.786,1.871q-.077,44.047-.036,88.1c0,.508.025,1.016.038,1.524Zm27.9-80.091c2.019.018,3.228-1.082,3.26-2.964a2.918,2.918,0,0,0-3.226-3.171,2.884,2.884,0,0,0-2.9,3.169,2.759,2.759,0,0,0,2.87,2.966" transform="translate(-507.499 -417.283)" fill="#162a2b"/><path d="M862.812,796.83q.011-35.041.022-70.081c0-6.515.055-13.03-.041-19.543-.022-1.472.371-2.048,1.807-1.868,4.979.028,9.958.078,14.938.078,5.437,0,10.874-.049,16.311-.076,1.449-.187,1.789.417,1.786,1.871q-.077,44.047-.036,88.1c0,.508.025,1.016.038,1.524Zm27.9-80.091c2.019.018,3.228-1.082,3.26-2.964a2.918,2.918,0,0,0-3.227-3.171,2.884,2.884,0,0,0-2.9,3.169,2.759,2.759,0,0,0,2.87,2.966" transform="translate(-510.457 -417.283)" fill="#88b1b8"/><path d="M869.1,584.507a171.256,171.256,0,0,1,4.855-37.843c.818-3.483,3.043-6.29,4.639-9.4,1.532-2.981,3.2-5.891,4.8-8.837a7.209,7.209,0,0,1,2.021-2.436q6.96-5.2,13.857-10.477a10.553,10.553,0,0,1,3.24-1.632,6.2,6.2,0,0,1,6,3.37,6.135,6.135,0,0,1-2.525,7.4c-1.257.911-2.388,2-3.576,3-1.709,1.352-3.372,2.766-5.139,4.037-1.638,1.179-2.434,2.934-3.457,4.546-.491.774-.466,1.368.421,1.885a6.233,6.233,0,0,1,2.031,1.789c.033,1.023-.489,1.991-.308,3.03a3,3,0,0,0-1.082,3.477c.388,1.6.974,3.212,2.938,3.6a6.121,6.121,0,0,0-.348,2.429,4.12,4.12,0,0,0-.758,4.766,4.526,4.526,0,0,0,4.122,2.816q0,.632.007,1.263c-1.6.8-1.351,2.31-1.115,3.569.264,1.412.822,2.864,2.6,3.169.235,4.477-1.572,9.307-1.614,13.786a16.83,16.83,0,0,1-3.628.831,7.58,7.58,0,0,0-4.208,1.865l-23.773-.011" transform="translate(-514.187 -304.031)" fill="#8c4b31"/><path d="M936.334,575.917a6.124,6.124,0,0,1,.348-2.43,9.1,9.1,0,0,1,2.832-2.576c-2.69-.624-4.268-1.99-4.688-4.5-.181-1.039.341-2.006.307-3.03a10.474,10.474,0,0,1,4.477-2.619,3.446,3.446,0,0,0,1.768-.8,23.589,23.589,0,0,0,6.728-2.419,13.243,13.243,0,0,0,3.917-1.137c2.5-.829,4.989-1.709,7.482-2.57a4.52,4.52,0,0,1,5.1,1.416,4.574,4.574,0,0,1,.812,5.236c-.286.648-.553,1.3-.828,1.956a9.428,9.428,0,0,0-1.323.256c-3.578,1.225-7.149,2.47-10.722,3.709l-8.013,2.739a32.345,32.345,0,0,0,8.012-2.128c3.263-1.007,6.533-1.992,9.784-3.035a7.78,7.78,0,0,0,3.042-1.229c2.365.6,3.706,1.963,3.966,4.044.293,2.343-.787,4.086-3.483,5.626.171.407.558.358.895.453a5.105,5.105,0,0,1,3.78,4.652,4.972,4.972,0,0,1-3.376,4.76c-1.029.4-2.066.777-3.393,1.274,2.073.617,3.447,1.563,3.5,3.655a3.921,3.921,0,0,1-2.793,4.057,16.4,16.4,0,0,1-4.011.806,7.653,7.653,0,0,0-2.418.613l-10.062,2.725c-3.7.008-5.081-2.391-3.523-6.324a5.887,5.887,0,0,1-2.846-.882,5.762,5.762,0,0,1-1.905-3.447q0-.632-.007-1.263a3.394,3.394,0,0,1,.82-2.077c.539-.711.252-.9-.432-1.088a4.864,4.864,0,0,1-3.752-4.417m20.183,9.747a33.212,33.212,0,0,0-6.379,2.034c2.143-.481,4.384-.573,6.364-1.647a29.627,29.627,0,0,0,5.761-1.257c.368-.092.964-.138.806-.673s-.674-.242-1.04-.132c-1.839.552-3.675,1.115-5.512,1.674m-5.487-8.55-3.816,1.159.114.406,3.712-.989c4.458-1.562,9.134-2.468,13.472-4.4-4.622.845-9.009,2.486-13.482,3.828m-1.757,10.792a1.462,1.462,0,0,0-.419-.083c-.27.029-.679.1-.288.448.187.169.525-.071.707-.366m-5.495-18.257c-.007-.032,0-.079-.023-.093a.3.3,0,0,0-.113-.025l.031.158.105-.041m-1.016.347.124-.067c-.036-.029-.07-.078-.108-.082s-.082.039-.123.061l.107.087m3.779,8.8c-.018-.032-.029-.081-.056-.092s-.078.007-.118.013l.078.144.1-.065m-1.027.215c-.031.021-.078.036-.089.065s.03.061.048.092l.142-.11-.1-.046" transform="translate(-553.052 -327.496)" fill="#5b291a"/><path d="M865.027,686.783l23.773.011c1.167.007,2.336.054,3.5.007.873-.035,1.143.318,1.132,1.162-.028,2.133.017,4.267.033,6.4-5.437.027-10.873.075-16.31.076-4.979,0-9.958-.049-14.938-.077.015-1.925.11-3.853.019-5.773-.064-1.339.261-2.032,1.729-1.786a5.563,5.563,0,0,0,1.061-.021" transform="translate(-510.117 -406.307)" fill="#fff"/><path d="M991.1,575.634a7.777,7.777,0,0,1-3.042,1.229c-3.251,1.043-6.521,2.028-9.784,3.035q0-.306,0-.611c3.573-1.239,7.144-2.485,10.723-3.71a9.48,9.48,0,0,1,1.323-.256l.779.313" transform="translate(-578.78 -340.379)" fill="#040404"/><path d="M922.01,724.414a2.759,2.759,0,0,1-2.87-2.966,2.884,2.884,0,0,1,2.9-3.169,2.918,2.918,0,0,1,3.226,3.171c-.033,1.882-1.242,2.981-3.26,2.964" transform="translate(-543.794 -424.958)" fill="#050c1e"/><path d="M937.762,547.607l.1,8.835a3.441,3.441,0,0,1-1.768.8,10.473,10.473,0,0,0-4.478,2.619,6.232,6.232,0,0,0-2.031-1.789c-.887-.517-.912-1.112-.421-1.885,1.023-1.612,1.819-3.368,3.457-4.546,1.767-1.271,3.431-2.685,5.139-4.038" transform="translate(-549.537 -323.983)" fill="#fdfbfa"/><path d="M936.86,608.33a4.863,4.863,0,0,0,3.752,4.417c.684.188.971.376.431,1.088a3.393,3.393,0,0,0-.82,2.077A4.527,4.527,0,0,1,936.1,613.1a4.12,4.12,0,0,1,.758-4.766" transform="translate(-553.578 -359.909)" fill="#040404"/><path d="M933.1,585.045c.42,2.513,2,3.879,4.688,4.5a9.1,9.1,0,0,0-2.832,2.576c-1.964-.39-2.551-2-2.938-3.6a3,3,0,0,1,1.082-3.477" transform="translate(-551.33 -346.132)" fill="#040404"/><path d="M946.868,633.439c-.723,1.022-.144,2.211-.424,3.29-1.774-.3-2.331-1.756-2.6-3.168-.236-1.259-.482-2.772,1.115-3.569a5.762,5.762,0,0,0,1.905,3.447" transform="translate(-558.31 -372.725)" fill="#040404"/><path d="M974.561,605.715c4.473-1.342,8.86-2.983,13.482-3.828-4.339,1.937-9.014,2.843-13.472,4.405q0-.289-.009-.577" transform="translate(-576.583 -356.097)" fill="#040404"/><path d="M966.667,585.031q0,.306,0,.612a32.4,32.4,0,0,1-8.012,2.128l8.013-2.739" transform="translate(-567.172 -346.124)" fill="#040404"/><path d="M987.978,629.52c1.837-.559,3.672-1.122,5.511-1.674.366-.11.886-.391,1.041.132s-.438.581-.806.673a29.581,29.581,0,0,1-5.761,1.256c.005-.129.01-.258.015-.387" transform="translate(-584.512 -371.352)" fill="#040404"/><path d="M978.757,632.2c0,.129-.009.257-.015.387-1.98,1.075-4.221,1.166-6.365,1.647a33.2,33.2,0,0,1,6.379-2.034" transform="translate(-575.291 -374.03)" fill="#040404"/><path d="M969.033,611.262q0,.288.009.577l-3.712.988-.114-.406,3.816-1.159" transform="translate(-571.055 -361.643)" fill="#040404"/><path d="M969,637.566c-.182.295-.52.535-.707.365-.391-.353.018-.419.288-.448a1.473,1.473,0,0,1,.419.083" transform="translate(-572.781 -377.156)" fill="#040404"/><path d="M956.607,592.811l-.1.041-.031-.158a.294.294,0,0,1,.113.025c.02.014.016.061.023.093" transform="translate(-565.881 -350.658)" fill="#dfa480"/><path d="M954.159,593.618l-.107-.087c.041-.022.084-.064.123-.061s.073.052.109.081l-.124.067" transform="translate(-564.449 -351.117)" fill="#dfa480"/><path d="M963.317,615.247l-.1.065-.077-.145c.04-.006.085-.025.118-.013s.037.06.056.092" transform="translate(-569.828 -363.944)" fill="#dfa480"/><path d="M960.923,615.913l.1.046-.142.11c-.018-.031-.056-.07-.048-.092s.057-.044.089-.065" transform="translate(-568.461 -364.395)" fill="#dfa480"/><path d="M582.433,395.687a60.464,60.464,0,0,1-44.671,58.361c-9.642-.169-6.776,72.578-10.308,72.894q-2.7.242-5.46.243a61.186,61.186,0,0,1-6.675-.364c-3.461-.381-.88-70.083-10.1-73.053-24.982-8.05-43.668-30.52-43.668-58.081a60.438,60.438,0,1,1,120.876,0" transform="translate(-273.073 -198.345)" fill="#4c2618"/><path d="M586.434,395.687a60.464,60.464,0,0,1-44.671,58.361c-9.642-.169-6.776,72.578-10.308,72.894q-2.7.242-5.46.243a61.184,61.184,0,0,1-6.675-.364c-3.461-.381-.88-70.083-10.1-73.053-24.982-8.05-43.668-30.52-43.668-58.081a60.438,60.438,0,1,1,120.876,0" transform="translate(-275.44 -198.345)" fill="#fff"/><path d="M517.584,467.481v-3.888c10.695-.655,11.367-1.677,11.367-10.068V411.06c0-5.858-1.431-6.237-5.681-6.772l-3.7-.574v-3.469a91.358,91.358,0,0,0,21.061-5.7v58.983c0,8.58.606,9.413,11.27,10.068v3.888Z" transform="translate(-306.22 -233.424)"/><path d="M622.566,394.543c16.476,0,22.137,20.119,22.137,37.1,0,16.77-5.661,37.216-22.137,37.216-16.583,0-22.309-20-22.309-37.1,0-16.919,5.959-37.216,22.309-37.216m-.131,4.617c-7.758,0-9.623,16.661-9.623,32.219,0,15.633,2.37,32.863,9.82,32.863,7.586,0,9.486-16.741,9.486-32.747,0-16.2-2.2-32.335-9.684-32.335" transform="translate(-355.132 -233.425)"/><path d="M501.619,859.907c.007-23.36.016-1.8.022-25.158,0-6.515.055-13.03-.041-19.543-.022-1.472.371-2.048,1.807-1.868,4.979.028,9.958.078,14.938.078,5.437,0,10.874-.049,16.311-.076,1.449-.187,1.789.417,1.786,1.871-.052,29.365-.038,13.807-.036,43.172,0,.508.025,1.016.038,1.524Zm27.9-35.168c2.019.018,3.228-1.082,3.26-2.964a2.918,2.918,0,0,0-3.227-3.171,2.884,2.884,0,0,0-2.9,3.169,2.759,2.759,0,0,0,2.87,2.966" transform="translate(-296.763 -481.179)" fill="#eaa25f"/><path d="M506.619,859.907c.007-23.36.016-1.8.022-25.158,0-6.515.055-13.03-.041-19.543-.022-1.472.371-2.048,1.807-1.868,4.979.028,9.958.078,14.938.078,5.437,0,10.874-.049,16.311-.076,1.449-.187,1.789.417,1.786,1.871-.052,29.365-.038,13.807-.036,43.172,0,.508.025,1.016.038,1.524Zm27.9-35.168c2.019.018,3.228-1.082,3.26-2.964a2.918,2.918,0,0,0-3.227-3.171,2.884,2.884,0,0,0-2.9,3.169,2.759,2.759,0,0,0,2.87,2.966" transform="translate(-299.721 -481.179)" fill="#f3d37c"/><path d="M512.905,692.507a171.26,171.26,0,0,1,4.855-37.843c.818-3.483,3.043-6.29,4.64-9.4,1.532-2.981,3.2-5.891,4.8-8.837a7.209,7.209,0,0,1,2.021-2.436q6.96-5.2,13.857-10.477a10.555,10.555,0,0,1,3.24-1.632,6.2,6.2,0,0,1,6,3.37,6.135,6.135,0,0,1-2.525,7.4c-1.257.911-2.388,2-3.576,3-1.709,1.352-3.372,2.766-5.139,4.037-1.638,1.179-2.434,2.934-3.457,4.546-.491.774-.466,1.368.421,1.885a6.231,6.231,0,0,1,2.031,1.789c.033,1.023-.489,1.991-.307,3.03a3,3,0,0,0-1.082,3.477c.388,1.6.974,3.212,2.938,3.6a6.121,6.121,0,0,0-.348,2.429,4.12,4.12,0,0,0-.758,4.766,4.526,4.526,0,0,0,4.122,2.816q0,.632.007,1.263c-1.6.8-1.351,2.31-1.115,3.569.265,1.412.822,2.864,2.6,3.169.235,4.477-1.572,9.307-1.614,13.786a16.828,16.828,0,0,1-3.628.831,7.58,7.58,0,0,0-4.208,1.865l-23.773-.011" transform="translate(-303.452 -367.927)" fill="#dfa480"/><path d="M580.142,683.917a6.123,6.123,0,0,1,.348-2.43,9.1,9.1,0,0,1,2.832-2.576c-2.69-.624-4.268-1.99-4.688-4.5-.181-1.039.341-2.006.307-3.03a10.474,10.474,0,0,1,4.477-2.619,3.446,3.446,0,0,0,1.768-.8,23.588,23.588,0,0,0,6.728-2.419,13.242,13.242,0,0,0,3.917-1.136c2.5-.829,4.989-1.709,7.482-2.57a4.52,4.52,0,0,1,5.1,1.416,4.574,4.574,0,0,1,.812,5.236c-.286.648-.553,1.3-.828,1.956a9.418,9.418,0,0,0-1.323.256c-3.578,1.224-7.149,2.47-10.722,3.709l-8.013,2.739a32.339,32.339,0,0,0,8.012-2.128c3.263-1.007,6.533-1.992,9.784-3.035a7.781,7.781,0,0,0,3.042-1.229c2.365.6,3.706,1.963,3.966,4.044.293,2.343-.787,4.086-3.483,5.626.171.407.558.358.895.453a5.105,5.105,0,0,1,3.78,4.652,4.972,4.972,0,0,1-3.376,4.76c-1.029.4-2.066.777-3.394,1.274,2.073.617,3.447,1.563,3.5,3.655a3.921,3.921,0,0,1-2.793,4.057,16.394,16.394,0,0,1-4.011.806,7.655,7.655,0,0,0-2.418.613l-10.062,2.725c-3.7.008-5.081-2.391-3.523-6.324a5.887,5.887,0,0,1-2.846-.882,5.762,5.762,0,0,1-1.905-3.447q0-.632-.007-1.263a3.393,3.393,0,0,1,.82-2.077c.539-.711.252-.9-.432-1.088a4.864,4.864,0,0,1-3.752-4.417m20.183,9.747a33.212,33.212,0,0,0-6.379,2.034c2.143-.481,4.384-.573,6.364-1.647a29.617,29.617,0,0,0,5.761-1.257c.368-.092.964-.138.806-.673s-.674-.242-1.04-.132c-1.839.552-3.675,1.115-5.512,1.674m-5.487-8.55-3.816,1.159.113.406,3.712-.989c4.458-1.562,9.133-2.468,13.472-4.405-4.622.845-9.009,2.486-13.482,3.828m-1.757,10.792a1.462,1.462,0,0,0-.419-.083c-.27.029-.679.1-.288.448.187.169.525-.071.707-.366m-5.495-18.257c-.007-.032,0-.079-.023-.093a.294.294,0,0,0-.113-.025l.031.158.105-.041m-1.016.347.124-.067c-.036-.029-.07-.078-.108-.082s-.082.039-.123.061l.107.087m3.779,8.8c-.018-.032-.029-.081-.056-.092s-.078.007-.118.013l.078.144.1-.065m-1.027.215c-.031.021-.078.036-.089.065s.03.061.048.092l.142-.11-.1-.046" transform="translate(-342.316 -391.392)" fill="#f8b38c"/><path d="M508.835,794.783l23.773.011c1.167.007,2.336.054,3.5.007.873-.035,1.143.318,1.132,1.162-.028,2.133.017,4.267.033,6.4-5.437.027-10.874.075-16.311.076-4.979,0-9.958-.049-14.938-.077.016-1.925.11-3.853.019-5.773-.064-1.339.261-2.032,1.729-1.786a5.563,5.563,0,0,0,1.061-.021" transform="translate(-299.382 -470.204)" fill="#fff"/><path d="M626.816,761.048a2.908,2.908,0,0,1-.2-2.246c3.284-1.306.044-.12,3.217-1.66a.668.668,0,0,0,.349-.624,7.653,7.653,0,0,1,2.418-.613c-3.812,3.445-1.265,2.619-5.779,5.143" transform="translate(-370.645 -447.219)" fill="#dfa480"/><path d="M634.906,683.634a7.778,7.778,0,0,1-3.042,1.229c-3.251,1.043-6.521,2.028-9.784,3.035q0-.306,0-.611c3.573-1.239,7.144-2.485,10.722-3.71a9.484,9.484,0,0,1,1.324-.256l.779.313" transform="translate(-368.044 -404.276)" fill="#c48f70"/><path d="M565.817,832.414a2.759,2.759,0,0,1-2.87-2.966,2.884,2.884,0,0,1,2.9-3.169,2.918,2.918,0,0,1,3.226,3.171c-.033,1.882-1.242,2.981-3.26,2.964" transform="translate(-333.059 -488.854)" fill="#050c1e"/><path d="M581.569,655.607q.051,4.417.1,8.835a3.44,3.44,0,0,1-1.768.8,10.473,10.473,0,0,0-4.478,2.619,6.231,6.231,0,0,0-2.031-1.789c-.887-.517-.912-1.112-.421-1.885,1.023-1.612,1.819-3.368,3.457-4.546,1.767-1.271,3.43-2.685,5.139-4.037" transform="translate(-338.801 -387.879)" fill="#fdfbfa"/><path d="M580.668,716.33a4.863,4.863,0,0,0,3.752,4.417c.684.188.971.376.431,1.088a3.393,3.393,0,0,0-.82,2.077,4.527,4.527,0,0,1-4.122-2.817,4.12,4.12,0,0,1,.758-4.766" transform="translate(-342.842 -423.805)" fill="#ad7e63"/><path d="M576.911,693.045c.42,2.513,2,3.879,4.688,4.5a9.1,9.1,0,0,0-2.832,2.576c-1.964-.39-2.551-2-2.938-3.6a3,3,0,0,1,1.082-3.477" transform="translate(-340.594 -410.029)" fill="#ad7e63"/><path d="M590.676,741.439c-.723,1.022-.144,2.211-.424,3.29-1.774-.3-2.331-1.756-2.6-3.168-.236-1.259-.482-2.772,1.115-3.569a5.761,5.761,0,0,0,1.905,3.447" transform="translate(-347.575 -436.621)" fill="#ac8975"/><path d="M630.743,757.407a.293.293,0,0,1-.145.272c-1.32.669-2.591,1.444-3.957,2.012a5.44,5.44,0,0,1-.084-1.1l4.186-1.185" transform="translate(-370.692 -448.108)" fill="#b4927f"/><path d="M618.369,713.715c4.472-1.342,8.86-2.983,13.482-3.828-4.339,1.937-9.014,2.843-13.473,4.405q0-.289-.009-.577" transform="translate(-365.848 -419.993)" fill="#c48f70"/><path d="M610.474,693.031c0,.2,0,.408,0,.612a32.372,32.372,0,0,1-8.012,2.128l8.013-2.739" transform="translate(-356.436 -410.021)" fill="#dfa480"/><path d="M631.785,737.52c1.837-.559,3.672-1.122,5.511-1.674.366-.11.886-.391,1.041.132s-.438.581-.806.673a29.578,29.578,0,0,1-5.761,1.256c.005-.129.01-.258.015-.387" transform="translate(-373.777 -435.248)" fill="#c48f70"/><path d="M622.563,740.2c0,.129-.009.257-.015.387-1.98,1.075-4.221,1.166-6.365,1.647a33.2,33.2,0,0,1,6.379-2.034" transform="translate(-364.555 -437.926)" fill="#dfa480"/><path d="M612.84,719.262q0,.288.009.577l-3.712.988-.114-.406,3.816-1.159" transform="translate(-360.319 -425.54)" fill="#dfa480"/><path d="M612.809,745.566c-.182.295-.52.535-.707.365-.391-.353.018-.419.288-.448a1.46,1.46,0,0,1,.419.083" transform="translate(-362.045 -441.052)" fill="#dfa480"/><path d="M600.414,700.811l-.1.041-.031-.159a.294.294,0,0,1,.113.025c.02.014.016.061.023.093" transform="translate(-355.145 -414.554)" fill="#dfa480"/><path d="M597.966,701.617l-.107-.087c.041-.022.084-.064.123-.061s.073.052.109.081l-.124.067" transform="translate(-353.714 -415.013)" fill="#dfa480"/><path d="M607.125,723.247l-.1.065-.077-.144c.04-.006.085-.025.118-.013s.038.06.056.092" transform="translate(-359.093 -427.84)" fill="#dfa480"/><path d="M604.731,723.913l.1.046-.142.11c-.018-.031-.056-.07-.048-.092s.057-.044.089-.064" transform="translate(-357.726 -428.292)" fill="#dfa480"/><path d="M1157.557,327.688a60.464,60.464,0,0,0,44.671,58.361c9.642-.169,6.776,72.578,10.308,72.894q2.7.242,5.46.243a61.061,61.061,0,0,0,6.675-.364c3.461-.38.88-70.083,10.1-73.053,24.982-8.05,43.668-30.52,43.668-58.081a60.438,60.438,0,0,0-120.876,0" transform="translate(-684.85 -158.114)" fill="#4c2618"/><path d="M1160.558,327.688a60.464,60.464,0,0,0,44.671,58.361c9.642-.169,6.776,72.578,10.307,72.894q2.7.242,5.46.243a61.063,61.063,0,0,0,6.675-.364c3.461-.38.88-70.083,10.1-73.053,24.982-8.05,43.668-30.52,43.668-58.081a60.438,60.438,0,1,0-120.876,0" transform="translate(-686.625 -158.114)" fill="#fff"/><path d="M1213.584,403.481v-3.888c10.695-.655,11.367-1.677,11.367-10.068V347.06c0-5.858-1.431-6.237-5.681-6.772l-3.7-.574v-3.469a91.358,91.358,0,0,0,21.061-5.7v58.983c0,8.58.606,9.413,11.271,10.068v3.888Z" transform="translate(-717.997 -195.56)"/><path d="M1318.566,330.543c16.476,0,22.137,20.119,22.137,37.1,0,16.77-5.661,37.216-22.137,37.216-16.583,0-22.309-20-22.309-37.1,0-16.919,5.959-37.216,22.309-37.216m-.132,4.617c-7.758,0-9.623,16.661-9.623,32.219,0,15.633,2.371,32.863,9.82,32.863,7.586,0,9.486-16.741,9.486-32.747,0-16.2-2.2-32.335-9.684-32.335" transform="translate(-766.909 -195.56)"/><path d="M1328.19,820.494c.014-.508.038-1.016.038-1.524,0-29.365.015-42.395-.036-71.76,0-1.454.337-2.058,1.786-1.87,5.437.027,10.874.075,16.311.076,4.979,0,9.958-.049,14.938-.077,1.436-.18,1.829.4,1.807,1.867-.1,6.513-.043,13.029-.041,19.543.006,23.361.015,30.385.022,53.746Zm9.792-66.722a2.884,2.884,0,0,0-2.9-3.169,2.918,2.918,0,0,0-3.227,3.171c.033,1.883,1.242,2.981,3.26,2.964a2.759,2.759,0,0,0,2.87-2.966" transform="translate(-785.802 -440.948)" fill="#871a3c"/><path d="M1333.19,820.494c.014-.508.038-1.016.038-1.524,0-29.365.015-42.395-.036-71.76,0-1.454.337-2.058,1.786-1.87,5.437.027,10.874.075,16.311.076,4.979,0,9.958-.049,14.938-.077,1.436-.18,1.829.4,1.807,1.867-.1,6.513-.043,13.029-.041,19.543.006,23.361.015,30.385.022,53.746Zm9.792-66.722a2.884,2.884,0,0,0-2.9-3.169,2.918,2.918,0,0,0-3.227,3.171c.033,1.883,1.242,2.981,3.26,2.964a2.759,2.759,0,0,0,2.87-2.966" transform="translate(-788.76 -440.948)" fill="#d33d64"/><path d="M1344.564,624.507a171.245,171.245,0,0,0-4.855-37.843c-.818-3.483-3.043-6.29-4.64-9.4-1.532-2.981-3.2-5.891-4.8-8.837a7.209,7.209,0,0,0-2.021-2.436q-6.96-5.2-13.858-10.477a10.555,10.555,0,0,0-3.24-1.632,6.2,6.2,0,0,0-6,3.37,6.135,6.135,0,0,0,2.525,7.4c1.257.911,2.388,2,3.576,3,1.709,1.352,3.373,2.766,5.139,4.038,1.638,1.178,2.434,2.934,3.457,4.546.491.774.466,1.368-.422,1.885a6.232,6.232,0,0,0-2.031,1.789c-.033,1.023.489,1.991.307,3.03a3,3,0,0,1,1.082,3.477c-.388,1.6-.974,3.212-2.938,3.6a6.122,6.122,0,0,1,.348,2.429,4.12,4.12,0,0,1,.758,4.766,4.527,4.527,0,0,1-4.122,2.816q0,.632-.007,1.263c1.6.8,1.351,2.31,1.115,3.569-.264,1.412-.822,2.864-2.6,3.169-.235,4.477,1.572,9.307,1.614,13.786a16.825,16.825,0,0,0,3.628.831,7.581,7.581,0,0,1,4.208,1.865l23.773-.011" transform="translate(-771.949 -327.696)" fill="#bc7a22"/><path d="M1279.432,620.334c-.684.188-.971.377-.431,1.088a3.4,3.4,0,0,1,.82,2.077q0,.631-.007,1.263a5.759,5.759,0,0,1-1.905,3.446,5.882,5.882,0,0,1-2.846.882c1.558,3.934.18,6.332-3.523,6.324l-10.062-2.725a7.654,7.654,0,0,0-2.418-.613,16.375,16.375,0,0,1-4.011-.805,3.921,3.921,0,0,1-2.793-4.057c.056-2.092,1.43-3.037,3.5-3.655-1.328-.5-2.365-.875-3.394-1.274a4.973,4.973,0,0,1-3.376-4.76,5.1,5.1,0,0,1,3.78-4.652c.336-.1.724-.047.895-.453-2.7-1.54-3.776-3.283-3.483-5.626.26-2.081,1.6-3.449,3.966-4.045a7.774,7.774,0,0,0,3.042,1.229c3.251,1.044,6.521,2.028,9.784,3.035a32.375,32.375,0,0,0,8.012,2.128l-8.013-2.739c-3.573-1.239-7.145-2.485-10.723-3.709a9.364,9.364,0,0,0-1.323-.256c-.274-.652-.542-1.308-.828-1.956a4.574,4.574,0,0,1,.812-5.236,4.52,4.52,0,0,1,5.1-1.416c2.492.862,4.979,1.741,7.482,2.57a13.243,13.243,0,0,0,3.917,1.137,23.593,23.593,0,0,0,6.728,2.419,3.442,3.442,0,0,0,1.768.8,10.479,10.479,0,0,1,4.477,2.62c-.033,1.024.489,1.991.307,3.03-.42,2.513-2,3.879-4.688,4.5a9.1,9.1,0,0,1,2.832,2.576,6.13,6.13,0,0,1,.348,2.43,4.863,4.863,0,0,1-3.752,4.417m-21.943,3.656c-.366-.11-.886-.391-1.04.131s.438.581.806.673a29.607,29.607,0,0,0,5.761,1.256c1.98,1.074,4.22,1.166,6.364,1.647a33.177,33.177,0,0,0-6.379-2.034c-1.837-.559-3.672-1.122-5.512-1.674m-2.483-10.7c4.339,1.937,9.014,2.843,13.472,4.405l3.712.989.114-.406-3.816-1.159c-4.473-1.342-8.86-2.983-13.481-3.828m15.945,14.986c.391-.353-.018-.419-.288-.448a1.446,1.446,0,0,0-.418.083c.182.295.52.535.707.365m4.893-18.582.031-.158a.3.3,0,0,0-.113.025c-.02.014-.016.061-.022.093l.1.041m1.018.219c-.041-.022-.084-.064-.123-.061s-.072.053-.108.082l.124.067.107-.087m-3.79,8.954.077-.145c-.04-.006-.085-.025-.118-.013s-.038.06-.056.092l.1.065m.829.2.142.11c.018-.031.056-.07.048-.092s-.057-.044-.089-.065l-.1.046" transform="translate(-738.941 -351.161)" fill="#a8680b"/><path d="M1361.008,726.783l-23.773.011c-1.167.007-2.336.054-3.5.007-.874-.035-1.143.318-1.132,1.162.028,2.133-.017,4.267-.033,6.4,5.437.027,10.874.075,16.311.076,4.979,0,9.958-.049,14.938-.077-.016-1.925-.11-3.853-.019-5.773.064-1.339-.261-2.032-1.729-1.786a5.563,5.563,0,0,1-1.061-.021" transform="translate(-788.393 -429.973)" fill="#fff"/><path d="M1261.627,615.634a7.779,7.779,0,0,0,3.041,1.229c3.251,1.043,6.521,2.028,9.784,3.035q0-.306,0-.611c-3.573-1.239-7.144-2.485-10.722-3.71a9.472,9.472,0,0,0-1.323-.256l-.779.313" transform="translate(-746.421 -364.045)" fill="#4c2618"/><path d="M1340.415,764.414a2.759,2.759,0,0,0,2.87-2.966,2.884,2.884,0,0,0-2.9-3.169,2.918,2.918,0,0,0-3.227,3.171c.033,1.882,1.242,2.981,3.26,2.964" transform="translate(-791.106 -448.623)" fill="#050c1e"/><path d="M1320.481,587.607q-.051,4.417-.1,8.835a3.442,3.442,0,0,0,1.768.8,10.472,10.472,0,0,1,4.478,2.619,6.23,6.23,0,0,1,2.031-1.789c.887-.517.912-1.112.421-1.885-1.023-1.612-1.819-3.368-3.457-4.546-1.767-1.271-3.431-2.685-5.139-4.037" transform="translate(-781.181 -347.648)" fill="#fdfbfa"/><path d="M1326.264,648.33a4.863,4.863,0,0,1-3.752,4.417c-.684.188-.971.376-.431,1.088a3.393,3.393,0,0,1,.82,2.077,4.527,4.527,0,0,0,4.122-2.817,4.12,4.12,0,0,0-.758-4.766" transform="translate(-782.022 -383.574)" fill="#4c2618"/><path d="M1329.633,625.045c-.42,2.513-2,3.879-4.688,4.5a9.1,9.1,0,0,1,2.833,2.576c1.964-.39,2.551-2,2.938-3.6a3,3,0,0,0-1.082-3.477" transform="translate(-783.882 -369.798)" fill="#4c2618"/><path d="M1319.814,673.439c.723,1.022.144,2.211.424,3.29,1.774-.3,2.332-1.756,2.6-3.168.236-1.259.482-2.772-1.115-3.569a5.762,5.762,0,0,1-1.905,3.447" transform="translate(-780.847 -396.39)" fill="#4c2618"/><path d="M1277.214,645.715c-4.473-1.342-8.86-2.983-13.482-3.828,4.339,1.937,9.014,2.843,13.472,4.405q0-.289.009-.577" transform="translate(-747.667 -379.762)" fill="#4c2618"/><path d="M1293.032,625.031q0,.306,0,.612a32.4,32.4,0,0,0,8.012,2.128l-8.013-2.739" transform="translate(-765.001 -369.79)" fill="#4c2618"/><path d="M1273.779,669.52c-1.837-.559-3.672-1.122-5.511-1.674-.366-.11-.886-.391-1.041.132s.438.581.806.673a29.585,29.585,0,0,0,5.761,1.256c-.005-.129-.01-.258-.015-.387" transform="translate(-749.719 -395.017)" fill="#4c2618"/><path d="M1283.309,672.2c.005.129.01.257.015.387,1.98,1.075,4.221,1.166,6.365,1.647a33.207,33.207,0,0,0-6.38-2.034" transform="translate(-759.249 -397.695)" fill="#4c2618"/><path d="M1296.732,651.262q0,.288-.009.577l3.712.988.114-.406-3.816-1.159" transform="translate(-767.185 -385.309)" fill="#4c2618"/><path d="M1301.048,677.566c.182.295.52.535.707.365.391-.353-.018-.419-.288-.448a1.46,1.46,0,0,0-.419.083" transform="translate(-769.744 -400.821)" fill="#dfa480"/><path d="M1314.505,632.811l.1.041.031-.159a.3.3,0,0,0-.113.024c-.02.014-.016.061-.022.093" transform="translate(-777.706 -374.323)" fill="#dfa480"/><path d="M1316.813,633.617l.107-.087c-.041-.022-.084-.064-.123-.061s-.073.052-.109.081l.124.067" transform="translate(-778.998 -374.782)" fill="#dfa480"/><path d="M1307.738,655.247l.1.065.077-.145c-.04-.006-.085-.025-.118-.013s-.038.06-.056.092" transform="translate(-773.702 -387.609)" fill="#dfa480"/><path d="M1310.107,655.913l-.1.046.142.11c.017-.031.056-.07.048-.092s-.057-.044-.089-.065" transform="translate(-775.044 -388.06)" fill="#dfa480"/><path d="M1485.557,269.688a60.464,60.464,0,0,0,44.671,58.361c9.642-.169,6.776,72.578,10.308,72.894q2.7.242,5.46.243a61.177,61.177,0,0,0,6.675-.364c3.461-.381.88-70.083,10.1-73.053,24.982-8.05,43.668-30.52,43.668-58.081a60.438,60.438,0,0,0-120.876,0" transform="translate(-878.906 -123.799)" fill="#4c2618"/><path d="M1488.558,269.688a60.464,60.464,0,0,0,44.671,58.361c9.642-.169,6.776,72.578,10.308,72.894q2.7.242,5.46.243a61.175,61.175,0,0,0,6.675-.364c3.461-.381.88-70.083,10.1-73.053,24.982-8.05,43.668-30.52,43.668-58.081a60.438,60.438,0,0,0-120.876,0" transform="translate(-880.681 -123.799)" fill="#fff"/><path d="M1541.584,345.482v-3.888c10.695-.655,11.367-1.677,11.367-10.068V289.061c0-5.858-1.431-6.237-5.681-6.771l-3.7-.574v-3.469a91.361,91.361,0,0,0,21.061-5.7v58.983c0,8.58.606,9.413,11.271,10.068v3.888Z" transform="translate(-912.053 -161.246)"/><path d="M1646.566,272.543c16.476,0,22.137,20.119,22.137,37.1,0,16.77-5.661,37.216-22.137,37.216-16.583,0-22.309-20-22.309-37.1,0-16.919,5.959-37.216,22.309-37.216m-.132,4.617c-7.758,0-9.623,16.661-9.623,32.219,0,15.633,2.371,32.863,9.82,32.863,7.586,0,9.486-16.741,9.486-32.748,0-16.2-2.2-32.334-9.684-32.334" transform="translate(-960.965 -161.246)"/><path d="M1656.19,787c.014-.508.038-1.016.038-1.525,0-29.365.015-66.9-.036-96.263,0-1.454.337-2.058,1.786-1.87,5.437.027,10.874.075,16.311.076,4.979,0,9.958-.049,14.938-.077,1.436-.181,1.829.4,1.807,1.867-.1,6.513-.043,13.029-.041,19.543.006,23.361.015,54.889.022,78.249Zm9.792-91.225a2.884,2.884,0,0,0-2.9-3.169,2.918,2.918,0,0,0-3.227,3.171c.033,1.883,1.242,2.982,3.26,2.964a2.759,2.759,0,0,0,2.87-2.966" transform="translate(-979.858 -406.634)" fill="#88b1b8"/><path d="M1661.19,787c.014-.508.038-1.016.038-1.525,0-29.365.015-66.9-.036-96.263,0-1.454.337-2.058,1.786-1.87,5.437.027,10.874.075,16.311.076,4.979,0,9.958-.049,14.938-.077,1.436-.181,1.829.4,1.807,1.867-.1,6.513-.043,13.029-.041,19.543.006,23.361.015,54.889.022,78.249Zm9.792-91.225a2.884,2.884,0,0,0-2.9-3.169,2.918,2.918,0,0,0-3.227,3.171c.033,1.883,1.242,2.982,3.26,2.964a2.759,2.759,0,0,0,2.87-2.966" transform="translate(-982.816 -406.634)" fill="#c1dbdb"/><path d="M1672.564,566.508a171.251,171.251,0,0,0-4.855-37.843c-.818-3.483-3.043-6.29-4.64-9.4-1.532-2.981-3.2-5.891-4.8-8.837a7.209,7.209,0,0,0-2.021-2.436q-6.96-5.2-13.858-10.477a10.555,10.555,0,0,0-3.24-1.632,6.2,6.2,0,0,0-6,3.37,6.135,6.135,0,0,0,2.525,7.4c1.257.911,2.388,2,3.576,3,1.709,1.352,3.373,2.766,5.139,4.038,1.638,1.179,2.434,2.934,3.457,4.546.491.774.466,1.368-.422,1.885a6.229,6.229,0,0,0-2.031,1.789c-.033,1.023.489,1.991.307,3.03a3,3,0,0,1,1.082,3.477c-.388,1.6-.974,3.211-2.938,3.6a6.122,6.122,0,0,1,.348,2.429,4.12,4.12,0,0,1,.758,4.766,4.527,4.527,0,0,1-4.122,2.817q0,.632-.007,1.263c1.6.8,1.351,2.31,1.115,3.569-.264,1.412-.822,2.864-2.6,3.169-.235,4.477,1.572,9.307,1.614,13.786a16.825,16.825,0,0,0,3.628.831,7.58,7.58,0,0,1,4.208,1.865l23.773-.011" transform="translate(-966.005 -293.382)" fill="#dfa480"/><path d="M1607.432,562.335c-.684.188-.971.377-.431,1.088a3.4,3.4,0,0,1,.82,2.077q0,.632-.007,1.263a5.759,5.759,0,0,1-1.905,3.447,5.882,5.882,0,0,1-2.846.882c1.558,3.934.18,6.332-3.523,6.324l-10.062-2.725a7.654,7.654,0,0,0-2.418-.613,16.372,16.372,0,0,1-4.011-.805,3.921,3.921,0,0,1-2.793-4.057c.056-2.092,1.43-3.037,3.5-3.655-1.328-.5-2.365-.875-3.394-1.274a4.972,4.972,0,0,1-3.376-4.76,5.1,5.1,0,0,1,3.78-4.652c.336-.1.724-.047.895-.454-2.7-1.539-3.776-3.282-3.483-5.625.26-2.081,1.6-3.449,3.966-4.045a7.772,7.772,0,0,0,3.042,1.229c3.251,1.044,6.521,2.028,9.784,3.035a32.38,32.38,0,0,0,8.012,2.128l-8.013-2.739c-3.573-1.239-7.145-2.485-10.723-3.709a9.355,9.355,0,0,0-1.323-.256c-.274-.652-.542-1.308-.828-1.956a4.574,4.574,0,0,1,.812-5.236,4.52,4.52,0,0,1,5.1-1.416c2.492.862,4.979,1.741,7.482,2.57a13.243,13.243,0,0,0,3.917,1.136,23.594,23.594,0,0,0,6.728,2.418,3.44,3.44,0,0,0,1.768.8,10.478,10.478,0,0,1,4.477,2.62c-.033,1.024.489,1.991.307,3.03-.42,2.513-2,3.879-4.688,4.5a9.1,9.1,0,0,1,2.832,2.576,6.13,6.13,0,0,1,.348,2.43,4.862,4.862,0,0,1-3.752,4.417m-21.943,3.656c-.366-.11-.886-.391-1.04.131s.438.581.806.673a29.612,29.612,0,0,0,5.761,1.256c1.98,1.074,4.22,1.166,6.364,1.647a33.181,33.181,0,0,0-6.379-2.034c-1.837-.559-3.672-1.122-5.512-1.674m-2.483-10.7c4.339,1.937,9.014,2.843,13.472,4.405l3.712.989.114-.406-3.816-1.159c-4.473-1.342-8.86-2.983-13.481-3.828m15.945,14.986c.391-.353-.018-.419-.288-.448a1.446,1.446,0,0,0-.418.083c.182.295.52.535.707.365m4.893-18.581.031-.159a.3.3,0,0,0-.113.025c-.02.014-.016.061-.022.093l.1.041m1.018.219c-.041-.022-.084-.064-.123-.061s-.072.053-.108.082l.124.067.107-.087m-3.79,8.954.077-.145c-.04-.006-.085-.025-.118-.013s-.038.06-.056.092Zm.829.2.142.11c.018-.031.056-.07.048-.092s-.057-.044-.089-.065l-.1.046" transform="translate(-932.997 -316.847)" fill="#f8b38c"/><path d="M1689.008,668.784l-23.773.011c-1.167.007-2.336.054-3.5.007-.874-.035-1.143.318-1.132,1.162.028,2.133-.017,4.267-.033,6.4,5.437.027,10.874.075,16.311.076,4.979,0,9.958-.049,14.938-.077-.016-1.925-.11-3.853-.019-5.773.064-1.339-.261-2.032-1.729-1.786a5.563,5.563,0,0,1-1.061-.021" transform="translate(-982.449 -395.658)" fill="#fff"/><path d="M1607.434,635.049a2.908,2.908,0,0,0,.2-2.246c-3.284-1.306-.044-.12-3.217-1.66a.668.668,0,0,1-.349-.624,7.649,7.649,0,0,0-2.418-.613c3.813,3.445,1.265,2.619,5.779,5.143" transform="translate(-947.593 -372.674)" fill="#dfa480"/><path d="M1589.627,557.634a7.786,7.786,0,0,0,3.042,1.23c3.251,1.043,6.521,2.028,9.784,3.035,0-.2,0-.408,0-.611-3.573-1.24-7.144-2.485-10.722-3.71a9.49,9.49,0,0,0-1.323-.256l-.779.312" transform="translate(-940.477 -329.731)" fill="#c48f70"/><path d="M1668.415,706.414a2.759,2.759,0,0,0,2.87-2.966,2.884,2.884,0,0,0-2.9-3.169,2.918,2.918,0,0,0-3.227,3.171c.033,1.882,1.242,2.982,3.26,2.964" transform="translate(-985.162 -414.309)" fill="#050c1e"/><path d="M1648.481,529.608q-.051,4.417-.1,8.835a3.437,3.437,0,0,0,1.768.8,10.477,10.477,0,0,1,4.478,2.62,6.231,6.231,0,0,1,2.031-1.789c.887-.517.912-1.112.421-1.885-1.023-1.612-1.819-3.368-3.457-4.546-1.767-1.271-3.431-2.685-5.139-4.037" transform="translate(-975.237 -313.334)" fill="#fdfbfa"/><path d="M1654.264,590.331a4.863,4.863,0,0,1-3.752,4.417c-.684.188-.971.377-.431,1.088a3.393,3.393,0,0,1,.82,2.077,4.527,4.527,0,0,0,4.122-2.817,4.12,4.12,0,0,0-.758-4.766" transform="translate(-976.078 -349.26)" fill="#ad7e63"/><path d="M1657.633,567.046c-.42,2.513-2,3.879-4.688,4.5a9.1,9.1,0,0,1,2.833,2.576c1.964-.39,2.551-2,2.938-3.6a3,3,0,0,0-1.082-3.477" transform="translate(-977.938 -335.484)" fill="#ad7e63"/><path d="M1647.814,615.44c.723,1.022.144,2.211.424,3.29,1.774-.3,2.332-1.756,2.6-3.168.236-1.259.482-2.772-1.115-3.569a5.762,5.762,0,0,1-1.905,3.447" transform="translate(-974.903 -362.076)" fill="#ac8975"/><path d="M1606.307,631.408a.293.293,0,0,0,.145.272c1.32.669,2.591,1.444,3.957,2.012a5.44,5.44,0,0,0,.084-1.1l-4.186-1.185" transform="translate(-950.346 -373.562)" fill="#b4927f"/><path d="M1605.214,587.715c-4.473-1.342-8.86-2.983-13.482-3.828,4.339,1.937,9.014,2.843,13.472,4.405q0-.289.01-.577" transform="translate(-941.722 -345.447)" fill="#c48f70"/><path d="M1621.032,567.032q0,.306,0,.612a32.4,32.4,0,0,0,8.012,2.128l-8.013-2.739" transform="translate(-959.057 -335.475)" fill="#dfa480"/><path d="M1601.779,611.521c-1.837-.559-3.672-1.122-5.511-1.674-.366-.11-.886-.391-1.041.132s.438.581.806.673a29.581,29.581,0,0,0,5.761,1.256c-.005-.129-.01-.258-.015-.387" transform="translate(-943.775 -360.703)" fill="#c48f70"/><path d="M1611.309,614.2c.005.129.01.257.015.387,1.98,1.075,4.221,1.166,6.365,1.647a33.2,33.2,0,0,0-6.38-2.034" transform="translate(-953.305 -363.381)" fill="#dfa480"/><path d="M1624.732,593.262q0,.288-.009.577l3.712.988.114-.406-3.816-1.159" transform="translate(-961.241 -350.994)" fill="#dfa480"/><path d="M1629.048,619.567c.182.295.52.535.707.366.391-.353-.018-.419-.288-.448a1.46,1.46,0,0,0-.419.083" transform="translate(-963.8 -366.507)" fill="#dfa480"/><path d="M1642.505,574.812l.1.041.031-.158a.292.292,0,0,0-.113.024c-.02.014-.016.061-.022.093" transform="translate(-971.762 -340.009)" fill="#dfa480"/><path d="M1644.813,575.619l.107-.087c-.041-.022-.084-.064-.123-.061s-.073.052-.109.081l.124.067" transform="translate(-973.054 -340.468)" fill="#dfa480"/><path d="M1635.738,597.247l.1.064.077-.144c-.04-.006-.085-.026-.118-.013s-.038.06-.056.092" transform="translate(-967.758 -353.294)" fill="#dfa480"/><path d="M1638.107,597.914l-.1.046.142.11c.017-.031.056-.07.048-.092s-.057-.044-.089-.064" transform="translate(-969.1 -353.746)" fill="#dfa480"/><path d="M222.433,347.687a60.464,60.464,0,0,1-44.671,58.361c-9.642-.169-6.776,72.578-10.308,72.894q-2.7.242-5.46.243a61.17,61.17,0,0,1-6.675-.364c-3.461-.381-.88-70.083-10.1-73.053-24.982-8.05-43.668-30.52-43.668-58.081a60.438,60.438,0,1,1,120.876,0" transform="translate(-60.085 -169.946)" fill="#4c2618"/><path d="M226.434,347.687a60.464,60.464,0,0,1-44.671,58.361c-9.642-.169-6.776,72.578-10.308,72.894q-2.7.242-5.46.243a61.17,61.17,0,0,1-6.675-.364c-3.461-.381-.88-70.083-10.1-73.053-24.982-8.05-43.668-30.52-43.668-58.081a60.438,60.438,0,1,1,120.876,0" transform="translate(-62.452 -169.946)" fill="#fff"/><path d="M157.584,419.481v-3.888c10.695-.655,11.367-1.677,11.367-10.068V363.06c0-5.858-1.431-6.237-5.681-6.772l-3.7-.574v-3.469a91.357,91.357,0,0,0,21.061-5.7v58.983c0,8.58.606,9.413,11.27,10.068v3.888Z" transform="translate(-93.232 -205.026)"/><path d="M262.566,346.543c16.476,0,22.137,20.119,22.137,37.1,0,16.77-5.661,37.216-22.137,37.216-16.583,0-22.309-20-22.309-37.1,0-16.919,5.959-37.216,22.309-37.216m-.132,4.617c-7.758,0-9.623,16.661-9.623,32.219,0,15.633,2.371,32.863,9.82,32.863,7.586,0,9.486-16.741,9.486-32.747,0-16.2-2.2-32.335-9.684-32.335" transform="translate(-142.144 -205.027)"/><path d="M141.619,831.918c.007-23.36.016-21.809.022-45.169,0-6.515.055-13.03-.041-19.543-.022-1.472.371-2.048,1.807-1.868,4.979.028,9.958.078,14.938.078,5.437,0,10.874-.049,16.311-.076,1.449-.187,1.789.417,1.786,1.871-.051,29.365-.038,33.818-.036,63.183,0,.508.025,1.016.038,1.524Zm27.9-55.179c2.019.018,3.228-1.082,3.26-2.964a2.918,2.918,0,0,0-3.226-3.171,2.884,2.884,0,0,0-2.9,3.169,2.759,2.759,0,0,0,2.87,2.966" transform="translate(-83.775 -452.781)" fill="#006837"/><path d="M144.619,831.918c.007-23.36.016-21.809.022-45.169,0-6.515.055-13.03-.041-19.543-.022-1.472.371-2.048,1.807-1.868,4.979.028,9.958.078,14.938.078,5.437,0,10.874-.049,16.311-.076,1.449-.187,1.789.417,1.786,1.871-.051,29.365-.038,33.818-.036,63.183,0,.508.025,1.016.038,1.524Zm27.9-55.179c2.019.018,3.228-1.082,3.26-2.964a2.918,2.918,0,0,0-3.226-3.171,2.884,2.884,0,0,0-2.9,3.169,2.759,2.759,0,0,0,2.87,2.966" transform="translate(-85.55 -452.781)" fill="#5bc57f"/><path d="M152.9,644.507a171.253,171.253,0,0,1,4.855-37.843c.818-3.483,3.043-6.29,4.639-9.4,1.532-2.981,3.2-5.891,4.8-8.837a7.208,7.208,0,0,1,2.021-2.435q6.96-5.2,13.858-10.477a10.554,10.554,0,0,1,3.24-1.632,6.2,6.2,0,0,1,6,3.37,6.135,6.135,0,0,1-2.525,7.4c-1.257.911-2.388,2-3.576,3-1.709,1.352-3.372,2.766-5.139,4.038-1.638,1.179-2.434,2.934-3.457,4.546-.491.774-.466,1.368.421,1.885a6.232,6.232,0,0,1,2.031,1.789c.033,1.023-.489,1.991-.307,3.03a3,3,0,0,0-1.082,3.477c.388,1.6.974,3.212,2.938,3.6a6.122,6.122,0,0,0-.348,2.429,4.12,4.12,0,0,0-.758,4.766,4.526,4.526,0,0,0,4.122,2.816q0,.632.007,1.263c-1.6.8-1.351,2.31-1.115,3.569.265,1.412.822,2.864,2.6,3.169.235,4.477-1.572,9.307-1.614,13.786a16.825,16.825,0,0,1-3.628.831,7.581,7.581,0,0,0-4.208,1.865l-23.773-.011" transform="translate(-90.464 -339.529)" fill="#a8680b"/><path d="M220.142,635.917a6.125,6.125,0,0,1,.348-2.43,9.1,9.1,0,0,1,2.832-2.576c-2.69-.624-4.268-1.99-4.688-4.5-.181-1.039.341-2.006.307-3.03a10.474,10.474,0,0,1,4.477-2.619,3.446,3.446,0,0,0,1.768-.8,23.589,23.589,0,0,0,6.728-2.419,13.24,13.24,0,0,0,3.917-1.137c2.5-.829,4.989-1.709,7.482-2.57a4.52,4.52,0,0,1,5.1,1.416,4.574,4.574,0,0,1,.812,5.236c-.286.648-.553,1.3-.828,1.956a9.42,9.42,0,0,0-1.324.256c-3.578,1.225-7.149,2.47-10.722,3.709l-8.013,2.739a32.339,32.339,0,0,0,8.012-2.128c3.263-1.007,6.533-1.992,9.784-3.035a7.78,7.78,0,0,0,3.042-1.229c2.365.6,3.706,1.963,3.966,4.044.293,2.343-.786,4.086-3.483,5.626.171.407.558.358.895.453a5.105,5.105,0,0,1,3.78,4.652,4.972,4.972,0,0,1-3.376,4.76c-1.029.4-2.066.777-3.394,1.274,2.073.617,3.447,1.563,3.5,3.655a3.921,3.921,0,0,1-2.793,4.057,16.4,16.4,0,0,1-4.011.806,7.654,7.654,0,0,0-2.418.613l-10.062,2.725c-3.7.008-5.082-2.391-3.523-6.324a5.887,5.887,0,0,1-2.846-.882,5.762,5.762,0,0,1-1.905-3.447q0-.632-.007-1.263a3.394,3.394,0,0,1,.82-2.077c.539-.711.252-.9-.432-1.088a4.864,4.864,0,0,1-3.752-4.417m20.183,9.747a33.2,33.2,0,0,0-6.379,2.034c2.143-.481,4.384-.573,6.364-1.647a29.621,29.621,0,0,0,5.761-1.256c.368-.092.964-.138.806-.673s-.674-.242-1.04-.132c-1.839.552-3.675,1.115-5.512,1.674m-5.487-8.55-3.816,1.159.114.406,3.712-.989c4.459-1.562,9.134-2.468,13.472-4.405-4.622.845-9.009,2.487-13.482,3.828m-1.757,10.792a1.46,1.46,0,0,0-.419-.083c-.27.029-.679.1-.288.448.187.169.525-.071.707-.365m-5.495-18.257c-.007-.032,0-.079-.023-.093a.294.294,0,0,0-.113-.025l.031.158.105-.041m-1.016.347.124-.067c-.036-.029-.07-.078-.108-.082s-.082.039-.123.061l.107.087m3.779,8.8c-.018-.032-.029-.081-.056-.092s-.078.007-.118.013l.078.144.1-.065m-1.027.215c-.031.021-.078.036-.089.065s.03.061.048.092l.142-.11-.1-.046" transform="translate(-129.328 -362.994)" fill="#bf926d"/><path d="M148.835,746.783l23.773.011c1.167.007,2.336.054,3.5.007.874-.035,1.143.318,1.132,1.162-.028,2.133.017,4.267.033,6.4-5.437.027-10.874.075-16.311.076-4.979,0-9.958-.049-14.938-.077.016-1.925.11-3.853.019-5.773-.064-1.339.261-2.032,1.729-1.786a5.563,5.563,0,0,0,1.061-.021" transform="translate(-86.394 -441.805)" fill="#fff"/><path d="M270.817,711.823a2.908,2.908,0,0,1-.2-2.246c3.284-1.306-1.59,1.1,1.583-.434a.668.668,0,0,0,.348-.624,7.667,7.667,0,0,1,2.418-.613c-3.812,3.445.369,1.394-4.146,3.917" transform="translate(-160.024 -418.821)" fill="#dfa480"/><path d="M274.906,635.634a7.778,7.778,0,0,1-3.041,1.229c-3.251,1.043-6.521,2.028-9.784,3.035q0-.306,0-.611c3.573-1.239,7.144-2.485,10.722-3.71a9.474,9.474,0,0,1,1.324-.256l.779.313" transform="translate(-155.056 -375.877)" fill="#4c2618"/><path d="M205.817,784.414a2.759,2.759,0,0,1-2.87-2.966,2.884,2.884,0,0,1,2.9-3.169,2.918,2.918,0,0,1,3.227,3.171c-.033,1.882-1.242,2.981-3.26,2.964" transform="translate(-120.07 -460.456)" fill="#050c1e"/><path d="M221.569,607.607l.1,8.835a3.441,3.441,0,0,1-1.768.8,10.473,10.473,0,0,0-4.478,2.619,6.231,6.231,0,0,0-2.031-1.789c-.887-.517-.912-1.112-.421-1.885,1.023-1.612,1.819-3.368,3.457-4.546,1.767-1.271,3.431-2.685,5.139-4.037" transform="translate(-125.813 -359.481)" fill="#fdfbfa"/><path d="M220.668,668.33a4.863,4.863,0,0,0,3.752,4.417c.684.188.971.376.431,1.088a3.393,3.393,0,0,0-.82,2.077,4.527,4.527,0,0,1-4.122-2.817,4.12,4.12,0,0,1,.758-4.766" transform="translate(-129.854 -395.407)" fill="#4c2618"/><path d="M216.912,645.045c.42,2.513,2,3.879,4.688,4.5a9.1,9.1,0,0,0-2.832,2.576c-1.965-.39-2.551-2-2.938-3.6a3,3,0,0,1,1.082-3.477" transform="translate(-127.606 -381.63)" fill="#4c2618"/><path d="M230.676,693.439c-.723,1.022-.144,2.211-.424,3.29-1.774-.3-2.331-1.756-2.6-3.168-.236-1.259-.482-2.772,1.115-3.569a5.761,5.761,0,0,0,1.905,3.447" transform="translate(-134.587 -408.223)" fill="#4c2618"/><path d="M270.743,709.407a.293.293,0,0,1-.145.272c-1.32.669-2.591,1.444-3.957,2.012a5.44,5.44,0,0,1-.084-1.1l4.186-1.185" transform="translate(-157.704 -419.709)" fill="#4c2618"/><path d="M258.368,665.715c4.473-1.342,8.86-2.983,13.482-3.828-4.339,1.937-9.014,2.843-13.472,4.405q0-.289-.009-.577" transform="translate(-152.859 -391.595)" fill="#4c2618"/><path d="M250.474,645.031q0,.306,0,.612a32.4,32.4,0,0,1-8.012,2.128Z" transform="translate(-143.448 -381.622)" fill="#4c2618"/><path d="M271.785,689.52c1.837-.559,3.672-1.122,5.511-1.674.366-.11.886-.391,1.041.131s-.438.581-.806.673a29.582,29.582,0,0,1-5.761,1.256c.005-.129.01-.258.015-.387" transform="translate(-160.788 -406.85)" fill="#4c2618"/><path d="M262.564,692.2c0,.129-.009.257-.015.387-1.98,1.075-4.221,1.166-6.365,1.647a33.21,33.21,0,0,1,6.38-2.034" transform="translate(-151.567 -409.528)" fill="#4c2618"/><path d="M252.84,671.262q0,.288.009.577l-3.712.988-.114-.406,3.816-1.159" transform="translate(-147.331 -397.141)" fill="#4c2618"/><path d="M252.81,697.566c-.182.295-.52.535-.707.365-.39-.353.018-.419.288-.448a1.462,1.462,0,0,1,.419.083" transform="translate(-149.057 -412.653)" fill="#dfa480"/><path d="M240.414,652.811l-.1.041-.031-.159a.3.3,0,0,1,.113.024c.02.014.016.061.023.093" transform="translate(-142.157 -386.156)" fill="#dfa480"/><path d="M237.966,653.618l-.107-.087c.041-.022.084-.064.123-.061s.073.052.109.081l-.124.067" transform="translate(-140.725 -386.615)" fill="#dfa480"/><path d="M247.125,675.247l-.1.065-.077-.145c.04-.006.085-.025.118-.013s.038.06.056.092" transform="translate(-146.105 -399.442)" fill="#dfa480"/><path d="M244.731,675.913l.1.046-.142.11c-.018-.031-.056-.07-.048-.092s.057-.044.089-.065" transform="translate(-144.738 -399.893)" fill="#dfa480"/></g></svg>