<svg xmlns="http://www.w3.org/2000/svg" xmlns:xlink="http://www.w3.org/1999/xlink" width="310.512" height="71.939" viewBox="0 0 310.512 71.939">
  <defs>
    <clipPath id="clip-path">
      <rect id="Прямоугольник_6" data-name="Прямоугольник 6" width="310.512" height="71.939" fill="#fcfcfc"/>
    </clipPath>
  </defs>
  <g id="Сгруппировать_159" data-name="Сгруппировать 159" transform="translate(-64.168 -6801)">
    <g id="Сгруппировать_45" data-name="Сгруппировать 45" transform="translate(64.168 6801)">
      <g id="Сгруппировать_11" data-name="Сгруппировать 11" clip-path="url(#clip-path)" style="isolation: isolate">
        <text id="Insure_Vision" data-name="Insure Vision" transform="translate(0 57.007)" fill="#fcfcfc" font-size="51" font-family="SegoeUI, Segoe UI"><tspan x="0" y="0">Insu</tspan><tspan y="0" letter-spacing="-0.01em">r</tspan><tspan y="0">e Vision</tspan></text>
        <path id="Контур_587" data-name="Контур 587" d="M377.814,3.323a25.41,25.41,0,0,0-16.783,6.038,2.076,2.076,0,0,1-2.891.132,1.482,1.482,0,0,1,.075-2.341,27.306,27.306,0,0,1,7.313-4.65,29.128,29.128,0,0,1,7.61-2.177A32.409,32.409,0,0,1,381.47.217,29.067,29.067,0,0,1,394.9,5.2c.858.591,1.662,1.248,2.45,1.914a1.615,1.615,0,0,1,.088,2.406,2.022,2.022,0,0,1-2.7-.036,25.161,25.161,0,0,0-8.619-4.866,26.344,26.344,0,0,0-8.306-1.293" transform="translate(-135.202 0)" fill="#fcfcfc"/>
        <path id="Контур_588" data-name="Контур 588" d="M395.78,19.038a1.561,1.561,0,0,1-1.018,1.422,1.99,1.99,0,0,1-2.149-.281,35.292,35.292,0,0,0-2.959-2.056,17.123,17.123,0,0,0-10.274-2.051,16.909,16.909,0,0,0-9.459,3.993,1.978,1.978,0,0,1-2.689.13,1.538,1.538,0,0,1,.045-2.472,19.515,19.515,0,0,1,6.217-3.694,21.464,21.464,0,0,1,8.139-1.373,20.689,20.689,0,0,1,13.472,5.063,5.664,5.664,0,0,1,.83,1.233l-.155.086" transform="translate(-138.617 -5.672)" fill="#fcfcfc"/>
        <path id="Контур_589" data-name="Контур 589" d="M384.715,25.518a12.361,12.361,0,0,1,8.237,3.011,1.473,1.473,0,0,1,.392,2.031,1.884,1.884,0,0,1-1.968.8,2.288,2.288,0,0,1-1.032-.474,8.819,8.819,0,0,0-7.061-1.945,8.274,8.274,0,0,0-4.344,1.969,1.986,1.986,0,0,1-3.049-.483,1.564,1.564,0,0,1,.542-2.011,12.735,12.735,0,0,1,8.284-2.9" transform="translate(-142.048 -11.444)" fill="#fcfcfc"/>
      </g>
    </g>
  </g>
</svg>
