<svg id="Сгруппировать_41" data-name="Сгруппировать 41" xmlns="http://www.w3.org/2000/svg" xmlns:xlink="http://www.w3.org/1999/xlink" width="671.817" height="672.67" viewBox="0 0 671.817 672.67">
  <defs>
    <clipPath id="clip-path">
      <rect id="Прямоугольник_5" data-name="Прямоугольник 5" width="671.817" height="672.67" fill="none"/>
    </clipPath>
  </defs>
  <g id="Сгруппировать_9" data-name="Сгруппировать 9" clip-path="url(#clip-path)">
    <path id="Контур_397" data-name="Контур 397" d="M801.448,722.062a76.454,76.454,0,1,1-76.454-76.454,76.454,76.454,0,0,1,76.454,76.454" transform="translate(-205.742 -204.812)" fill="#2545d8"/>
    <path id="Контур_398" data-name="Контур 398" d="M153.534,463.375A76.454,76.454,0,1,1,77.08,386.921a76.454,76.454,0,0,1,76.453,76.454" transform="translate(-0.199 -122.746)" fill="#2545d8"/>
    <path id="Контур_399" data-name="Контур 399" d="M198.823,646.076c13.164,2.175,24.6,7.943,34.9,16.336A73.214,73.214,0,0,1,260.7,709.7c2.47,16.738.478,33.248-8.186,48.365-2.21,3.858-4.125,7.923-7.767,10.742-4.5-4.152-9.3-8-15.161-9.93-8.717-2.874-17.572-5.33-26.368-7.963.255-3.021-1.4-3.761-4.009-3.352L196.946,735.5q-.644-4.224-1.288-8.446c7.635-.916,12.757-8.776,13.134-14.588a47.346,47.346,0,0,0-7.464-29.734c4.624-5.734,3.617-11.817-2.7-12.893-5.663-.965-11.519-1.245-17.255-1.771-6.828-.625-11.292,4.469-14.025,10.611-2.917,6.555-2.59,13.516-2.511,20.443-3.826,4.111-3.15,9.151,1.939,12.014,1.8,1.012,2.646,2.109,2.741,4.016q.844,16.983,1.693,33.967l-2.386,1.65c-2.168.789-4.362,1.511-6.5,2.377-9.309,3.774-18.977,6.715-27.567,12.147-2.978,1.882-5.227,4.75-8.545,6.139A72.994,72.994,0,0,1,108.221,729.8c-3.907-38.926,20.867-73.978,58.616-83a75.149,75.149,0,0,1,31.985-.717" transform="translate(-34.204 -204.522)" fill="#d0d9f6"/>
    <path id="Контур_400" data-name="Контур 400" d="M121.005,399.7c4.983,4.958,10.924,8.806,15.32,14.506,9.509,12.328,15.745,25.715,17.161,41.472a80.911,80.911,0,0,1-5.517,37.766,17.48,17.48,0,0,0-.593,4.013c-2.194-.731-1.95,1.377-2.478,2.31-7.065,12.488-16.375,22.758-29.03,29.787-4.732-11.817-9.267-23.731-15.719-34.758-1.221-2.088-2.094-4.83-5.2-5.149h.034c-1.729-4.548-6-4.772-9.817-5.767l6.373-14.3c.8.1,1.6.172,2.394.292,10.466,1.572,17.97-5.009,17.91-15.613-.032-5.78-2.607-10.679-5.03-15.671-.785-1.617-2.021-.872-3.133-.938a2.428,2.428,0,0,0-1.013-2.065q.406-1.5.809-2.993a3.066,3.066,0,0,0,.356-2.936c-.137,1.021-.264,1.965-.391,2.908l-1.46.188-3.621-5.73a1.559,1.559,0,0,0-1.521-.918c.129-2.1-1.792-2.773-2.854-4.035-1.331-1.583-3.94-1.7-4.654-4.016,2.705-3.566,2.1-6.862-1.665-9.046-7.715-4.475-18.3-.458-20.9,8.014-.382,1.246-.412,2.294-2.145,2.263-5.194-.092-7.331,3.351-8.56,7.708A35.315,35.315,0,0,0,55.051,439.5c.234,2.909,1.089,5.945,3.587,7.475,2.83,1.734,3.251,4.208,3.845,6.961,1.131,5.243,3.282,7.145,7.6,7.128-1.145,5.009-4.446,9.044-6.225,13.767-11.269-9.639-22.113-5.194-29.417,4.609-6.478,8.694-10.738,18.577-14.892,28.5-.513,1.228-1.056,2.442-1.825,4.215A68.155,68.155,0,0,1,5.486,491.8c-17.729-44.542,9.228-94.485,56.21-103.763,19.545-3.86,38.152-.809,55.373,9.559,1.274.767,2.622,1.409,3.936,2.11" transform="translate(0 -122.589)" fill="#c1e9d1"/>
    <path id="Контур_401" data-name="Контур 401" d="M116.119,161.4c3.625-7.889,7.6-15.493,13.268-22.244a75.246,75.246,0,0,1,42.83-25.8c22.1-4.757,42.61-.361,61.121,12.743A75.586,75.586,0,0,1,261.9,165.255a73.224,73.224,0,0,1-.132,46.8c-6.2,18.351-17.321,33.112-34.661,42.6-1-7.583-.557-15.213-.77-22.823-.321-11.486-5.917-18-17.078-20.756-5.45-1.344-10.5.288-15.693,1.118l.723-10.843q.581-4.8,1.163-9.6c3.836,1.4,7.562,1.834,11.141-.823,2.37-1.759,3.725-4.232,5.177-6.664,4.956-.27,9.931,1.152,15.335.056-2.9-4.026-2.8-8.108-1.923-12.335a50.808,50.808,0,0,0,.5-5.269,9.578,9.578,0,0,0-5.408-10.093c-4.887-2.652-8.615-6.578-12.058-10.83a37.219,37.219,0,0,0-7.216-7.16c-6.715-4.769-13.119-4.512-19.349.811a31.064,31.064,0,0,0-3.516,3.4c-4.546,5.335-9.662,9.865-16.128,12.847-4.781,2.205-6.97,6.292-6.939,11.534.036,5.95.242,11.931-4.851,16.795l25.367,2.888q-2.028,11.345-4.056,22.69c-2.471-1.112-4.879-2.4-7.425-3.3q-11.244-3.97-17.941,5.992a33.978,33.978,0,0,0-3.22,6.09c-3.395,8.3-5.353,17.028-7.39,25.726-3.139-2.272-5.351-5.464-8.078-8.144-7.418-10.564-12.938-21.9-14.959-34.828a79.982,79.982,0,0,1,2.711-36.614c.321-1.034.6-2.083.894-3.125" transform="translate(-35.379 -35.37)" fill="#f2d8e0"/>
    <path id="Контур_402" data-name="Контур 402" d="M134.757,820.719c3.317-1.389,5.567-4.256,8.545-6.139,8.59-5.432,18.258-8.373,27.567-12.147,2.136-.866,4.331-1.588,6.5-2.376.845,4.859,1.485,9.769,3.331,14.9.657-.881,1.14-1.257,1.251-1.722.834-3.475,2.611-3.585,5.092-1.533a10.985,10.985,0,0,0,1.386.858c7.278,4.363,7.278,4.362,14.031-.9,4.222-3.287,4.218-3.283,7.242.739.117.156.474.13.83.216,1.138-4.071,1.049-8.257,1.232-12.415,8.8,2.633,17.651,5.089,26.368,7.963,5.861,1.933,10.657,5.778,15.161,9.931-1.23,3.55-4.288,5.64-6.724,8.186-1.247,1.3-2.415,2.432-2.409,4.335-1.622-1.3-2.41.27-3.389,1.026a79.169,79.169,0,0,1-28.324,13.969c-9.841,2.622-19.867,2.629-29.931,1.935-13.194-2.586-25.625-7-36.226-15.561-4.185-3.379-8.706-6.471-11.53-11.266m38.494,10.555c3.393,0,6.8-.182,10.177.053,3.105.217,3.6-1.284,3.543-3.893-.052-2.558-.1-4.486-3.589-4.373-6.373.207-12.766.249-19.134-.017-3.572-.149-3.875,1.576-3.977,4.43-.112,3.133,1.051,4.071,4.026,3.85s5.969-.048,8.955-.05" transform="translate(-42.75 -253.809)" fill="#979bb6"/>
    <path id="Контур_403" data-name="Контур 403" d="M93.534,498.621c1.779-4.723,5.08-8.757,6.223-13.767,6.473-3.374,6.855-10.815.765-15.017-1.833-1.265-2.017-3.1-1.781-5.08a3.651,3.651,0,0,1,3.182-3.272c2.316-.459,3.395,1.226,4.334,2.959a.962.962,0,0,0,.694,1.1q-.157,1.258-.315,2.513c-1.88-.016-2.142-1.776-3.078-2.822-.735-.821-1.654-1.006-2.388-.043a1.292,1.292,0,0,0,.738,2.192c2.28.1,3.042,2.6,5.1,2.87a3.711,3.711,0,0,0,.764,2.666c4.269,7.181,4.308,14.571,1.328,22.218a76.666,76.666,0,0,0-4.342,13.488l-.116.024c-2.483.238-4.295-1.546-6.491-2.153l-1.424-1.183c-.4-2.55-2.233-4.413-3.2-6.693" transform="translate(-29.673 -146.377)" fill="#814429"/>
    <path id="Контур_404" data-name="Контур 404" d="M130.594,597.675s0,.22,0,.217c-2.625.41-3.863-.282-3.776-3.361.221-7.82.074-15.65.074-23.69,2.509.508,1.84,1.861,1.845,2.726.035,6.769-.056,13.539-.033,20.309.005,1.5-.569,3.449,1.888,3.8" transform="translate(-40.231 -181.093)" fill="#92a2eb"/>
    <path id="Контур_405" data-name="Контур 405" d="M135.733,560.656c-2.073-1.438-4.445-2.528-5.7-4.912l-.051.051c2.233.96,3.729,1.568,3.1-2.207-.769-4.643-.341-9.34,2.658-13.375a30.717,30.717,0,0,0-.059,20.5Z" transform="translate(-41.234 -171.376)" fill="#92a2eb"/>
    <path id="Контур_406" data-name="Контур 406" d="M70.239,575.993l-4.924,16.478c0-6,2.071-11.4,3.976-16.838l.948.36" transform="translate(-20.72 -182.613)" fill="#92a2eb"/>
    <path id="Контур_407" data-name="Контур 407" d="M149.552,596.8a.459.459,0,0,1-.438.121c-.4-5.887-3.188-11.281-3.527-17.18l-.048.029c.576,1.508,1.1,3.038,1.738,4.517,1.676,3.861,1.284,8.308,3.438,12.027l-.052,0-1.11.487" transform="translate(-46.171 -183.917)" fill="#92a2eb"/>
    <path id="Контур_408" data-name="Контур 408" d="M113.772,545.334c-4.688-4.006-4.007-9.464-3.986-14.744l.115-.024.325.185c-.382,5.248,1.356,9.985,3.513,14.623Z" transform="translate(-34.814 -168.316)" fill="#92a2eb"/>
    <path id="Контур_409" data-name="Контур 409" d="M98.215,525.715q.715.592,1.424,1.183-.336,2.9-.662,5.8l-.763-.069Z" transform="translate(-31.158 -166.777)" fill="#92a2eb"/>
    <path id="Контур_410" data-name="Контур 410" d="M141.652,574.243c-1.25-1.234-2.7-2.31-3.269-4.088l-.051.057c2.264.417,3.1,1.979,3.281,4.075Z" transform="translate(-43.884 -180.876)" fill="#92a2eb"/>
    <path id="Контур_411" data-name="Контур 411" d="M124.909,559.433c-1.627-.091-2.9-.655-3.268-2.437l-.043.035a5.819,5.819,0,0,1,3.27,2.455Z" transform="translate(-38.576 -176.701)" fill="#92a2eb"/>
    <path id="Контур_412" data-name="Контур 412" d="M128.89,562.2c-1.167-.024-2.2-.249-2.461-1.635l-.042.053a3.459,3.459,0,0,1,2.454,1.633Z" transform="translate(-40.095 -177.833)" fill="#92a2eb"/>
    <path id="Контур_413" data-name="Контур 413" d="M144.825,578.6c-1.116-.439-1.349-1.47-1.648-2.457l-.038.044c1.4.245,1.556,1.317,1.639,2.442Z" transform="translate(-45.409 -182.775)" fill="#92a2eb"/>
    <path id="Контур_414" data-name="Контур 414" d="M119.676,555.4a1.6,1.6,0,0,1-1.631-.8l-.045.036,1.642.8Z" transform="translate(-37.434 -175.943)" fill="#92a2eb"/>
    <path id="Контур_415" data-name="Контур 415" d="M121.262,556.607q-.412-.416-.823-.834l-.034.046.815.824Z" transform="translate(-38.197 -176.313)" fill="#92a2eb"/>
    <path id="Контур_416" data-name="Контур 416" d="M117.665,554.228l-.818-.819-.042.031.815.824Z" transform="translate(-37.055 -175.563)" fill="#92a2eb"/>
    <path id="Контур_417" data-name="Контур 417" d="M116.465,553.025l-.836-.828-.032.04.824.819Z" transform="translate(-36.672 -175.179)" fill="#92a2eb"/>
    <path id="Контур_418" data-name="Контур 418" d="M765.986,491.025c-2.6-7.979-5.674-15.765-6.729-24.243a77.96,77.96,0,0,1,6.382-42.066c5.838-13.17,15.429-23.169,26.641-31.826l.745-.826-.042.074c5.407-2.162,10.3-5.383,15.784-7.432a77.216,77.216,0,0,1,91.227,30.087c19.6,30.231,15.811,70.154-9.092,95.563-.659.672-1.439,1.226-2.163,1.835-3.359-8.974-9.7-14.46-19.119-16.35-7.06-1.416-14.644-.916-20.8-5.668q-.18-5.686-.361-11.373c-1.281-3.763-.068-7.67-.662-11.473a30.115,30.115,0,0,0,6.947-14.986c.19-1.3.19-2.686,2.319-2.45,3.2.356,2.117-1.415.886-2.819,1.779-.706,3.673,2.159,4.781-.832a4.86,4.86,0,0,0-1.627-5.825c-1.512-1.317-3.355-.795-5.1-.758.278-5.526-1.041-10.607-4.866-14.68-1.583-1.686-1.6-2.911-.811-4.948,2.386-6.17-.014-12.619-5.739-16.287-5.992-3.84-12.922-3.534-17.56,1.112-1.286,1.289-2.08,1-3.464.584-6.811-2.028-11.763,1.455-11.914,8.45-.038,1.719-.361,2.683-2.016,3.362-1.531.629-2.477,2.089-3.393,3.446-5.341,7.91-3.49,16.267,5.07,22.961-1.505,4.47,3.34,6.628,4.841,6.779,4.195.42,3.689,3.21,4.39,5.556a22.176,22.176,0,0,0,4.32,8.642,7.146,7.146,0,0,1,1.69,5.174c.057,6.762-1.363,13.479-.571,20.257-4.949,3.817-10.837,4.669-16.777,5-11.932.66-22.45,9.38-23.772,19.986-2.22-1.132-3.608-3.193-5.362-4.841-5.872-5.523-9.542-12.675-14.087-19.181" transform="translate(-240.67 -120.527)" fill="#d0d9f6"/>
    <path id="Контур_419" data-name="Контур 419" d="M690.628,257.87a67.722,67.722,0,0,1-23.815-16.6,78.634,78.634,0,0,1-19.169-37.622c-3.867-19.083-.771-37.017,8.875-53.761a74.5,74.5,0,0,1,36.656-32.323c17.458-7.237,35.484-8.326,53.686-2.238,11.255,3.764,21.445,9.434,29.774,17.826,6.875,6.928,13.016,14.589,16.668,23.884.591,1.5,1.462,2.894,2.2,4.336,2.784,9.815,4.8,19.7,4.4,30.025a76.313,76.313,0,0,1-14.387,42.1c-.537.756-.944,1.6-1.411,2.409l-.69.768.046-.119c-3.32,3.425-6.342,7.145-10.084,10.15-2.009-3.143-1.448-6.828-2.088-10.25-.97-5.194-1.243-10.556-3.713-15.36-3.579-6.96-9.554-9.118-20.042-7.4-3.686-7.27-7.984-14.183-12.263-21.108,6.941.39,13.2-1.16,18.32-6.214,9.252-9.126,10.64-23.5,3.378-35.731-10.926-18.4-38.461-26.971-57.793-17.817-10.339,4.9-17.031,12.968-19.2,24.323-1.856,9.726,1.781,21.719,14.235,22.762a95.057,95.057,0,0,0,6.113,16.315c3.737,7.585,7.751,9.14,15.2,5.92l1.626,2.625,4.251,8.993c-10.581.33-16.662,4.107-19.735,12.615-3.78,10.463-7.369,20.994-11.041,31.5" transform="translate(-204.944 -35.331)" fill="#f2d8e0"/>
    <path id="Контур_420" data-name="Контур 420" d="M666.423,770.644c-6.915-5.708-10.069-13.742-13.046-21.753-7.284-19.6-6.77-39.268,1.844-58.2a74.869,74.869,0,0,1,32.8-35.6,87.93,87.93,0,0,1,24.01-8.688c22.836-3.333,43.669,1.372,61.748,16.031,17.023,13.8,26.514,31.787,28.335,53.683,1.654,19.881-3.964,37.625-15.9,53.5-1.921,2.554-3.228,3.636-6.222.8-5.982-5.674-13.971-7.7-21.524-10.409-1.659-.6-3.411-.98-4.811-2.15,1-.437,2-.86,2.991-1.311,11.446-5.207,19.979-17.483,14.8-31.733-.773-2.123.507-2.557,1.624-3.479,6.425-5.313,9.192-12.194,7.581-20.323-1.563-7.888-6.729-12.881-14.48-14.989-1.865-.507-2.532-.813-2.106-3.109A19.108,19.108,0,0,0,741.64,660.4a8.351,8.351,0,0,1-6.4-1.2c-11.406-6.826-25.348-2.246-28.317,10.5a3.2,3.2,0,0,1-1.9,2.3c-11.145,6.019-13.272,16.276-5.6,26.469,1.038,1.611,3.619,1.824,3.817,4.2-.781,4.523-2.3,8.948-1.64,13.654.8,5.714,4.038,8.657,9.745,8.746q-.005,1.969-.011,3.939a108.668,108.668,0,0,0-.836,16.306l-1.711,2.4c-3.063,2.19-7.056,3.148-9.027,6.79-.642-.07-1.406-.4-1.909-.171-10.724,4.955-22.279,8.322-31.421,16.319" transform="translate(-205.668 -204.74)" fill="#c1e9d1"/>
    <path id="Контур_421" data-name="Контур 421" d="M721.05,703.419c-7.672-10.195-5.545-20.452,5.6-26.471a3.193,3.193,0,0,0,1.9-2.3c2.969-12.743,16.911-17.323,28.317-10.5a8.352,8.352,0,0,0,6.4,1.2A19.109,19.109,0,0,1,785.7,687.861c-.427,2.3.24,2.6,2.106,3.109,7.751,2.108,12.916,7.1,14.479,14.989,1.611,8.129-1.156,15.01-7.581,20.323-1.116.922-2.4,1.356-1.624,3.479,5.184,14.25-3.35,26.525-14.8,31.733-.99.451-1.992.874-2.991,1.311-3.246-.279-5.687-2.545-8.656-3.5-2.9-2.81-6.341-5.1-8.519-8.632-.658-.757-1.194-.854-1.5.279l.07-.044-2.184.122c-1.3-5.941-2.324-11.918-1.052-17.986,1.252-5.973,1.378-12.5,7.4-16.329a14.755,14.755,0,0,0-.047,2.031c.333,3.066,2.055,4.769,5.151,4.409,2.926-.341,4.08-2.4,3.882-5.221a23.97,23.97,0,0,0-.517-2.791c2.556-.924,2.5-3.037,1.929-5.005a3.9,3.9,0,0,0-4.247-3,22.779,22.779,0,0,0-3.869,1.015l-3.207-1.628c.453-7.441-2.975-13.225-9.684-15.786-2.336-.892-4.356-1.755-4.486-5.534-1.719,2.528-3.579,2.788-5.462,3.182a8.184,8.184,0,0,0-5.916,3.95,12.913,12.913,0,0,1-1.989-.33c-6.717-2.194-12.089,2.125-11.222,9.088.1.808.438,1.572-.118,2.324" transform="translate(-227.301 -209.694)" fill="#040305"/>
    <path id="Контур_422" data-name="Контур 422" d="M797.886,566.221c1.323-10.607,11.84-19.327,23.772-19.986,5.939-.328,11.827-1.182,16.777-5,7.588,5.51,15.2,5.668,22.841.11,6.151,4.753,13.734,4.252,20.795,5.669,9.419,1.89,15.76,7.376,19.119,16.349-10.706,11.218-24.057,17.464-39.053,20.37-5.046.978-10.246,1.159-15.374,1.7-2.688-.307-5.386-.564-8.068-.929-15.391-2.1-29.249-7.635-40.809-18.29" transform="translate(-253.121 -171.702)" fill="#e59db0"/>
    <path id="Контур_423" data-name="Контур 423" d="M725.01,842.693a33.68,33.68,0,0,1-12.371-4.644q8.913-10.006,17.839-20c1.483-1.65.184-2.726-.656-3.873-3.2-4.37-6.436-8.709-9.66-13.059,1.972-3.642,5.964-4.6,9.028-6.79q4.859,5.2,9.718,10.4c.888.949,1.617,2.429,3.219.857q6.649-6.524,13.336-13.007l-.07.044,1.5-.278c2.177,3.533,5.616,5.823,8.519,8.632-14.536,11.561-27.041,25.138-38.943,39.308a17.889,17.889,0,0,0-1.46,2.405" transform="translate(-226.077 -251.364)" fill="#d0d9f6"/>
    <path id="Контур_424" data-name="Контур 424" d="M847.247,294.539l.69-.767c-.473.038-.764.238-.69.767" transform="translate(-268.776 -93.196)" fill="#040305"/>
    <path id="Контур_425" data-name="Контур 425" d="M545.786,355.355c3.822,3.676,5.7,8.55,7.854,13.188a138.2,138.2,0,0,1,12.616,69.814,136.306,136.306,0,0,1-27.49,72.912,139.315,139.315,0,0,1-89.982,54.495,154.692,154.692,0,0,1-34.553,1.25c-15.374-.962-30.19-5.1-44.336-11.371a136.641,136.641,0,0,1-44.121-30.887c-20.388-21.463-33.108-46.723-37.543-76.212a146.175,146.175,0,0,1-1.252-31.281,134.855,134.855,0,0,1,10.74-44.477,138.038,138.038,0,0,1,33.054-47A34.872,34.872,0,0,0,333.4,322.7c1.176.262,2.346.559,3.529.779,5.309.984,10.624-1.271,12.214-5.467.731-1.932,2.239-4.65-1.848-5.033a42.891,42.891,0,0,1,14.879-9.132c7.331,6.3,7.283,6.251,14.139-.81,1.624-1.673,2.238-2.889.039-4.458a8.114,8.114,0,0,1-1.439-1.869c5.507-.223,10.187-3.552,15.593-4.152.592.748.068,1.746.834,2.594,2.432,2.7,5.073,4.518,8.877,3.216,4.424-1.514,5.27-5.007,4.943-9.117l14.615-1.579c1.231,5.617,3.131,7.131,9.041,7.193,24.728.261,47.473,7.2,68.443,20.21,14.662,9.1,26.7,21,37.247,34.526,2.433,6.239,5.027,7.562,11.278,5.752M542,442.715c-.067-.976-.188-1.922-1.277-2.341-7.321-7.039-16.948-9.89-25.776-14.191-4.562-13.921-9.789-27.6-15.228-41.194-1.089-2.722-.958-5.974-3.315-8.177-2.026-6.044-6.367-8.981-13.435-8.985q-43.73-.021-87.461-.006-24.317,0-48.635.014c-6.678.015-11.493,3.526-12.718,9.105a6.35,6.35,0,0,0-2.194,2.834q-9.427,23.462-18.913,46.9a11.1,11.1,0,0,1-.752,2.705,27,27,0,0,0-3.309,15.09c.235,5.051,1.544,9.839,5.693,13.31,4.082,6.02,10.065,8.637,17.025,9.505,2.476,16.323,12.734,20.96,26.286,20.093,7.1.436,13.265-1.556,17.533-7.5,1.663-2.315,2.266-2.035,3.927,0a20.433,20.433,0,0,0,22.862,6.518c8-2.69,13.293-9.944,13.79-18.9,5.807-.059,11.616-.042,17.42-.2,6.867-.186,13.754.574,20.6-.412,1.041,16.535,12.755,21.319,25.7,20.5,7.7.444,14.071-2,18.466-8.6,1.638-2.46,2.1-.086,2.769.668,6.673,7.54,15.7,9.934,24.26,6.361,8.618-3.6,13.136-11.532,12.36-21.7,1.747-1.9,3.765-3.593,4.676-6.13a9.74,9.74,0,0,0,1.391-4.458,1.572,1.572,0,0,0,.408-1.764A14.336,14.336,0,0,0,542,442.715" transform="translate(-90.938 -91.261)" fill="#f9f8cd"/>
    <path id="Контур_426" data-name="Контур 426" d="M402.652,131.806c-3.78-1.081-5.334-4.669-7.31-7.343-12.494-16.9-18.3-35.613-15.684-56.933a76.136,76.136,0,0,1,21.5-44.642c11.588-12,26.086-19.254,42.729-21.878a74.566,74.566,0,0,1,44.5,6.182C509.74,17.386,523.811,34.246,530.2,57.079a73.252,73.252,0,0,1-3.189,49.41c-3.474,8.186-7.5,16.3-14.776,22.079-3.89-3.348-8.369-5.787-12.811-8.282,2.729-7.1,1.153-13.379-3.793-18.9-4.1-4.579-5.948-9.489-3.913-15.7A8.942,8.942,0,0,0,488.042,74.9c-4.6-3.165-6.843-7.678-7.542-13-1.27-9.662-4.772-17.814-14.559-21.943,1.415-1.644,2.683-2.882,3.673-4.311,3.642-5.256,3.113-11.96-1.132-15.6-4.529-3.879-11.833-3.582-16.425.669-4.334,4.012-5.175,10.254-2.122,16.115.664,1.275,2,2.325-.436,3.393-8.754,3.831-12.708,11.1-13.717,20.185-.667,6-3,10.924-7.934,14.559a12.959,12.959,0,0,0-5.36,11.314,15.291,15.291,0,0,1-6.377,13.325c-7.334,5.7-9.284,14.185-6.116,23.064a48.3,48.3,0,0,0-7.342,9.135" transform="translate(-120.247 0)" fill="#d0d9f6"/>
    <path id="Контур_427" data-name="Контур 427" d="M391.14,876.5c-2.747-1.8-3.942-4.727-5.162-7.518-5.078-11.612-7.8-23.755-6.9-36.457a77.206,77.206,0,0,1,17.372-44.336c11.071-13.652,25.268-22,41.978-26.379,8.775-2.3,17.875-1.975,26.758-1.186a70.573,70.573,0,0,1,38.23,15.668c13.179,10.484,22.341,23.666,26.71,39.924,5.825,21.674,2.785,42.209-8.835,61.433-.82,1.356-1.509,2.994-3.5,3.076-4.464-4.77-9.3-9.074-15.2-12.023l.01-.039c2.776-3.623,6.333-6.617,8.1-11.047,4.443-11.151-1.512-21.378-13.379-23.032-5.668-.79-11.061.359-16.495,1.533-5.016,1.083-9.959,2.622-15.18,2.4a70.353,70.353,0,0,1-.736-11.6c4.057-.357,5.287-2.747,4.658-6.475,6.578-4.762,9.581-11.169,7.842-19.15-1.779-8.164-7.269-12.79-15.471-14.219a2.859,2.859,0,0,1-.319-.47c-1.764-6.122-4.275-11.786-9.957-15.333-4.213-2.63-7.688-.979-8.913,3.746-1.17,4.513-.2,8.875.238,13.3-.965.74-1.941,1.468-2.894,2.223-8.661,6.861-13.067,15.836-12.736,26.865.251,8.383,7.786,14.822,15.32,12.539q.072,2.888.143,5.776a.338.338,0,0,0-.258.375q-1.6.237-3.2.476c-12.637,1.891-20.088,11.719-16.1,22.173.844,2.214-.6,2.132-1.906,2.452C410.1,863.952,399.844,868.7,391.14,876.5" transform="translate(-120.204 -241.112)" fill="#f2d8e0"/>
    <path id="Контур_428" data-name="Контур 428" d="M508.24,904.042c5.9,2.949,10.735,7.254,15.2,12.023.589,1.57-.446,2.576-1.286,3.627A74.742,74.742,0,0,1,495,941.412c-1.8-3.219-1.7-7.193-4.482-10.078l3.1,10.8a76.944,76.944,0,0,1-95.049-25.914c-.912-1.3-2.186-2.518-1.785-4.382,8.7-7.8,18.956-12.546,30.213-15.3,1.306-.32,2.749-.238,1.906-2.451-3.986-10.454,3.464-20.282,16.1-22.173l3.2-.475c1.678,1.351,1.046,3.241,1.062,4.923.069,7,.046,6.953,6.746,8.615a53.9,53.9,0,0,1,5.728,2.009,15.4,15.4,0,0,0,8.756.8c1.62.577,2.238,2.62,4.119,2.814l-.053-.04a1.558,1.558,0,0,0,1.695.85l-.051-.038c2.5,3.214,6.014,4.422,9.867,4.944l-.065-.037c4.443,3.1,9.626,3.983,14.783,4.942l-.068-.038a9,9,0,0,0,7.509,2.863M456.076,895.4c1.465,3.707-.843,6.567-2.341,9.486a17.764,17.764,0,0,0-1.22,13.73c.367,1.219,1.26,3.223,3.174,1.99,1.5-.966.761-2.686-.285-3.5-4.313-3.376-2.885-7.054-.864-10.849,2-3.753,3.746-7.562,2.583-12a5.431,5.431,0,0,0,.014-3.593c-.521-1.307-1.455-2.089-2.758-.795-1.636,1.625-.74,4.452,1.7,5.532m-8.334-.634c.766,3.506-1.283,6.051-3.163,8.5-3.212,4.193-3.892,8.886-3.242,13.894a2.959,2.959,0,0,0,2.107,2.756,1.494,1.494,0,0,0,1.73-.755,2.148,2.148,0,0,0-.4-2.651c-4.365-4.441-2.013-8.363.759-12.344,2.361-3.393,4.517-6.886,3.369-11.34.3-1.8.458-3.69-1.79-4.23-.973-.234-1.715.9-1.677,1.89.066,1.744-1.139,4.316,2.31,4.275m-3.31-7.91a27.144,27.144,0,0,1-8.355.506,7.968,7.968,0,0,0,8.355-.506m2-1.191c.046.188.093.376.14.564.363-.018.813.088,1.071-.087.342-.231,1.6-.372.462-1.094-.3-.193-1.1.391-1.672.617" transform="translate(-125.853 -276.453)" fill="#5cc57f"/>
    <path id="Контур_429" data-name="Контур 429" d="M150.737,292.629l-4.021-4.99c2.037-8.7,4-17.425,7.39-25.727a33.908,33.908,0,0,1,3.22-6.09q6.711-9.962,17.941-5.993c2.546.9,4.953,2.19,7.424,3.3a69.408,69.408,0,0,0,5.469,7.08c4.456,4.5,11.749,3.738,14.823-1.327.623-1.028,1.17-2.1,1.751-3.158,5.193-.831,10.241-2.463,15.693-1.119,11.16,2.752,16.757,9.27,17.078,20.755.212,7.61-.225,15.24.77,22.823-10.123,6.686-21.441,9.779-33.376,10.561a75.5,75.5,0,0,1-51.3-14.952c-.83-.614-1.568-1.613-2.858-1.164m40.447-4.292v.044c2.316,0,4.633.012,6.948,0a3.994,3.994,0,0,0,.393-7.969c-4.753-.251-9.535-.226-14.294-.023-2.38.1-3.6,1.992-3.621,4.227a3.548,3.548,0,0,0,3.63,3.685c2.3.171,4.628.039,6.944.039m23.438-4.321a2.143,2.143,0,0,0-2.145,2.011c-.162,1.305.645,2.011,1.876,2.131a1.885,1.885,0,0,0,2.136-1.922,1.977,1.977,0,0,0-1.867-2.22m-6.33-8.787a1.877,1.877,0,0,0,1.994-1.9,1.922,1.922,0,0,0-2.018-2.055,1.667,1.667,0,0,0-1.858,1.688,1.892,1.892,0,0,0,1.882,2.27" transform="translate(-46.544 -78.897)" fill="#92a2eb"/>
    <path id="Контур_430" data-name="Контур 430" d="M510.394,165.176c4.443,2.493,8.922,4.932,12.813,8.281-.012,1.393-1.01,2.192-1.9,3.011-23.731,21.932-50.9,27.848-81.559,17.475q.338-5.032.675-10.063l-.944-.089-1.192,9.379c-9.451-3.653-18.161-8.416-24.668-16.476a48.4,48.4,0,0,1,7.342-9.135c3.958-2.032,7.855-4.189,12.166-5.444,5.575-1.623,11.19-3.137,16.68-5.011,10.175-3.473,10.49-4.073,10.12-14.693,6.961,1.422,13.877,1.891,20.649-.912.064,1.215.178,2.429.184,3.645.048,8.525,1.185,10.411,9.161,13.54a131.694,131.694,0,0,0,20.468,6.493" transform="translate(-131.217 -44.889)" fill="#cf3e64"/>
    <path id="Контур_431" data-name="Контур 431" d="M794.1,293.989l-.933,1.316c-3.981,2.573-7.811,5.428-11.969,7.674-21.035,11.364-42.845,12.65-65.28,4.587-.352-3.809,1.269-7.258,2.439-11.508-3.485,3.395-2.558,7.565-4.1,10.854a4.287,4.287,0,0,1-2.9-1.759c3.671-10.5,7.26-21.033,11.04-31.5,3.074-8.507,9.154-12.285,19.736-12.615,2.237,2.252,3.116,5.323,4.777,7.924,2.49,3.9,8.241,4.277,10.852.658a28.435,28.435,0,0,1,10.5-8.649c10.489-1.716,16.463.442,20.042,7.4,2.47,4.8,2.743,10.166,3.713,15.36.64,3.423.078,7.108,2.088,10.25m-70.041-5.975a.8.8,0,0,0-.825.811c-1.052.029-1.516.65-1.634,1.621a1.482,1.482,0,0,0-.8,1.658c-1.6.33-1.962,1.417-2.155,3.18a4.415,4.415,0,0,0,2.095-3.229,1.462,1.462,0,0,0,.81-1.655c1.075,0,1.522-.648,1.645-1.619l.815-.818a1.128,1.128,0,0,0,.285-.14c.042-.036.025-.139.034-.212l-.264.4" transform="translate(-225.669 -82.614)" fill="#5cc57f"/>
    <path id="Контур_432" data-name="Контур 432" d="M596.362,346.693c-10.542-13.529-22.584-25.427-37.246-34.526-20.97-13.013-43.716-19.95-68.444-20.21-5.909-.063-7.81-1.576-9.041-7.194,1.837-5.28,3.443-6.432,9.867-6.245,26.047.757,50.361,7.565,72.7,21.116a146.2,146.2,0,0,1,40.147,35.942c.81,1.048,1.965,1.948,1.86,3.494-6.067-.844-8.747,1.232-9.842,7.621" transform="translate(-152.792 -88.351)" fill="#5cc57f"/>
    <path id="Контур_433" data-name="Контур 433" d="M678.893,826.5c-1.659-1.346-3.686-2.771-4.051-5.271,9.142-8,20.7-11.363,31.42-16.319.5-.232,1.267.1,1.909.171,3.223,4.351,6.462,8.69,9.66,13.059.84,1.148,2.14,2.224.657,3.874q-8.955,9.965-17.839,20c-5.732-1.884-10.24-5.885-15.2-9.035" transform="translate(-214.086 -255.322)" fill="#2545d8"/>
    <path id="Контур_434" data-name="Контур 434" d="M409.14,299.126a8.084,8.084,0,0,0,1.439,1.869c2.2,1.568,1.586,2.786-.038,4.458-6.856,7.061-6.808,7.108-14.139.81-2.715-2.222-2.313-3.971.219-6.355,6.315-5.948,6.183-6.087,12.519-.782" transform="translate(-125.162 -93.678)" fill="#e59db0"/>
    <path id="Контур_435" data-name="Контур 435" d="M367.272,324.715c4.086.384,2.579,3.1,1.847,5.033-1.589,4.2-6.9,6.451-12.213,5.466-1.184-.219-2.353-.516-3.529-.778-.37-2.366-2.608-3.63-3.33-5.9-.9-2.816-.561-3.972,2.665-3.861,4.848.167,9.707.042,14.561.04" transform="translate(-110.912 -102.997)" fill="#c1e9d1"/>
    <path id="Контур_436" data-name="Контур 436" d="M453.416,287.678c.327,4.11-.52,7.6-4.943,9.116-3.8,1.3-6.445-.521-8.877-3.216-.766-.849-.242-1.846-.834-2.6.2-3.963,1.685-7.12,5.865-8.061s6.851,1.332,8.789,4.755" transform="translate(-139.193 -89.687)" fill="#2545d8"/>
    <path id="Контур_437" data-name="Контур 437" d="M649.671,374.754c1.1-6.389,3.775-8.465,9.842-7.621,6.049,3.252,6.565,8.061,1.436,13.373-6.251,1.81-8.845.487-11.278-5.752" transform="translate(-206.101 -116.412)" fill="#cf3e64"/>
    <path id="Контур_438" data-name="Контур 438" d="M537.209,969.967l-3.1-10.8c2.781,2.885,2.685,6.859,4.482,10.078l-1.378.722" transform="translate(-169.439 -304.285)" fill="#c1e9d1"/>
    <path id="Контур_439" data-name="Контур 439" d="M715.6,323.473c1.545-3.288.618-7.459,4.1-10.854-1.17,4.25-2.791,7.7-2.439,11.508a1.752,1.752,0,0,1-1.664-.654" transform="translate(-227.018 -99.175)" fill="#c1e9d1"/>
    <path id="Контур_440" data-name="Контур 440" d="M449.752,212.823l1.192-9.379.944.088-.674,10.063-1.462-.772" transform="translate(-142.679 -64.54)" fill="#e59db0"/>
    <path id="Контур_441" data-name="Контур 441" d="M808.656,397.7l-.745.825c.095-.413.084-.922.745-.825" transform="translate(-256.301 -126.162)" fill="#2545d8"/>
    <path id="Контур_442" data-name="Контур 442" d="M196.563,765.988q-.847-16.983-1.693-33.967c-.095-1.907-.943-3-2.741-4.017-5.089-2.862-5.764-7.9-1.939-12.014,1.566.351,3.158.446,3.585,2.613.513,2.6,2.681,1.967,4.237,1.429,2.265-.783,3.232-2.829,3.411-5.109.285-3.638.266-7.3.644-10.931.6-5.739,4.138-7.74,8.982-4.741,5.3,3.283,10.352,3.414,15.636.351a47.34,47.34,0,0,1,7.465,29.734c-.377,5.811-5.5,13.671-13.134,14.588-3.038-1.739-6.389-1.85-10.82-2.41,4.7,4.018,7.706,8.186,12.107,10.857q1.13,6.031,2.257,12.062-4.662,7.422-9.318,14.846c-2.485,3.972-2.723,3.78-5.948.277-4.2-4.559-7.2-10.263-12.73-13.567m22.58-40.53c.344.39.7.793,1.176.2a6.131,6.131,0,0,0-.672-.714c2.316-1.584,5.074.035,7.462-1.031-1.086-3.539-1.145-3.972-3.714-3.62-4.062.556-9.337-2.566-12.142,3.372,2.664,1.454,5.778-.582,7.891,1.794m4.221.854a7.751,7.751,0,0,0-1.376-.395c-.223-.017-.464.194-.7.3.261.19.516.52.788.536a4.183,4.183,0,0,0,1.284-.444" transform="translate(-59.56 -221.39)" fill="#f4b8bc"/>
    <path id="Контур_443" data-name="Контур 443" d="M227.8,693.571c-5.284,3.063-10.335,2.932-15.636-.351-4.844-3-8.385-1-8.982,4.741-.378,3.626-.358,7.293-.644,10.931-.179,2.28-1.146,4.326-3.41,5.109-1.556.539-3.724,1.176-4.237-1.429-.427-2.167-2.02-2.261-3.586-2.613-.079-6.927-.406-13.887,2.511-20.443,2.733-6.141,7.2-11.236,14.025-10.61,5.735.526,11.591.806,17.254,1.771,6.321,1.077,7.329,7.158,2.7,12.893" transform="translate(-60.672 -215.359)" fill="#814429"/>
    <path id="Контур_444" data-name="Контур 444" d="M199.551,796.869c5.532,3.3,8.531,9.008,12.73,13.568,3.225,3.5,3.464,3.694,5.948-.277q4.648-7.43,9.318-14.847c2.614-.409,4.265.331,4.011,3.352-.182,4.158-.094,8.345-1.231,12.415-.356-.086-.713-.061-.83-.217-3.025-4.021-3.02-4.025-7.242-.738-6.754,5.257-6.754,5.257-14.031.9a11.028,11.028,0,0,1-1.386-.858c-2.481-2.052-4.258-1.942-5.092,1.533-.111.464-.594.84-1.252,1.722-1.845-5.13-2.486-10.039-3.331-14.9l2.386-1.65" transform="translate(-62.548 -252.272)" fill="#fbfbf8"/>
    <path id="Контур_445" data-name="Контур 445" d="M232.733,772.651c-4.4-2.67-7.4-6.839-12.107-10.857,4.43.56,7.781.67,10.82,2.41q.644,4.223,1.288,8.446" transform="translate(-69.991 -241.671)" fill="#040305"/>
    <path id="Контур_446" data-name="Контур 446" d="M102.095,450.288c-.942-1.734-2.02-3.418-4.336-2.959a3.65,3.65,0,0,0-3.182,3.271c-.236,1.979-.052,3.816,1.782,5.08,6.089,4.2,5.708,11.645-.766,15.018-4.318.017-6.469-1.885-7.6-7.128-.593-2.752-1.015-5.227-3.845-6.96-2.5-1.531-3.351-4.567-3.586-7.475a35.287,35.287,0,0,1,1.015-12.512c1.228-4.357,3.365-7.8,8.558-7.708,1.734.031,1.764-1.017,2.146-2.263,2.6-8.472,13.185-12.49,20.9-8.014,3.764,2.184,4.372,5.48,1.669,9.044a12.634,12.634,0,0,1-1.9.642c-6.065,1.045-7.674,3.509-6.26,9.629a14.63,14.63,0,0,0,1.848,5.32c.531,3.184-.711,5.185-3.9,5.982a18.736,18.736,0,0,0-2.545,1.034" transform="translate(-25.509 -132.221)" fill="#040305"/>
    <path id="Контур_447" data-name="Контур 447" d="M112.725,468.019q.158-1.258.316-2.515a26.282,26.282,0,0,0,3.673-1.534c2.275-1.364,3.914-.875,5.149,1.381,2.522,1.039,5.309,1.141,7.729,2.768,1.551,1.043,3.667.328,5.243-.9.739-.578,1.079-1.286-.266-1.617l-.574-.689c1.7-1.351,4.372-1.2,5.452-3.511,1.112.067,2.349-.679,3.133.938,2.423,4.992,5,9.893,5.031,15.671.059,10.6-7.444,17.186-17.911,15.613-.795-.119-1.6-.195-2.394-.291a18.887,18.887,0,0,0-1.851-.8c-3.531-1.1-6.592-2.554-6.038-7.142.051-.421-.469-.911-.724-1.368a36.13,36.13,0,0,0-3.84-12.824c-.063-.548-.268-.974-.9-1.031l.034-.006c.194-1.04.126-1.942-1.156-2.211l-.109.072" transform="translate(-35.761 -146.337)" fill="#040305"/>
    <path id="Контур_448" data-name="Контур 448" d="M142.448,566.405c-.083-1.125-.243-2.2-1.639-2.442-.178-2.1-1.017-3.659-3.282-4.075a30.717,30.717,0,0,1,.059-20.5l-.051.08a1.573,1.573,0,0,0,.5-1.855c3.1.32,3.974,3.061,5.2,5.149,6.451,11.028,10.986,22.941,15.719,34.758a33.722,33.722,0,0,1-11.326,5.431c-2.153-3.72-1.761-8.167-3.437-12.028-.642-1.479-1.162-3.01-1.738-4.517" transform="translate(-43.079 -170.552)" fill="#2545d8"/>
    <path id="Контур_449" data-name="Контур 449" d="M114.766,545.75l-.824-.819c-2.158-4.637-3.9-9.376-3.511-14.624l.906-.152a17.878,17.878,0,0,0,8.851-.987c3.817,1,8.087,1.219,9.817,5.767q-.266.927-.531,1.853l.051-.079c-3,4.035-3.427,8.731-2.659,13.375.625,3.774-.871,3.167-3.1,2.207a3.459,3.459,0,0,0-2.454-1.633,5.816,5.816,0,0,0-3.269-2.455l-.815-.823-1.643-.806-.815-.824" transform="translate(-35.016 -167.873)" fill="#2545d8"/>
    <path id="Контур_450" data-name="Контур 450" d="M120.633,518.2a17.876,17.876,0,0,1-8.85.987c.413-1.7.7-3.447,1.26-5.1,2.153-6.4,4.828-12.652,5.348-19.5.255.457.776.948.725,1.368-.554,4.588,2.507,6.039,6.037,7.142a18.744,18.744,0,0,1,1.851.8q-3.185,7.152-6.372,14.3" transform="translate(-35.462 -156.901)" fill="#814429"/>
    <path id="Контур_451" data-name="Контур 451" d="M120.525,448.337a14.661,14.661,0,0,1-1.848-5.323c-1.413-6.12.195-8.584,6.261-9.629a12.6,12.6,0,0,0,1.9-.642c.711,2.316,3.32,2.435,4.651,4.019,1.062,1.262,2.983,1.93,2.855,4.034-.059.094-.185.2-.166.279a2.549,2.549,0,0,0,.248.5l.025-.02c-1.488-.376-1.938.285-1.664,1.667l.028-.039c-2,.758-1.294,2.459-1.355,3.891l-.678.5c-2.356-2.02-4.678-4.283-7.779-1.116l-.035.033c-1.373-.128-1.572,1.3-2.44,1.841" transform="translate(-37.497 -137.283)" fill="#814429"/>
    <path id="Контур_452" data-name="Контур 452" d="M143.692,459c-1.08,2.314-3.751,2.16-5.449,3.514-1.352.567-3.24-.158-4.258,1.673a3.651,3.651,0,0,0,4.83-.987c1.345.331,1.005,1.038.266,1.617-1.575,1.233-3.692,1.947-5.242.9-2.42-1.628-5.207-1.729-7.727-2.768,7.166-.993,8.164-2.2,7.179-8.718l.677-.5c1.773,4.145,5.1,4.069,8.713,3.2A2.428,2.428,0,0,1,143.692,459" transform="translate(-40.007 -143.943)" fill="#814429"/>
    <path id="Контур_453" data-name="Контур 453" d="M142.639,445.81l3.619,5.728c-.617,2.263-2.249,2.461-4.075,1.811-2.978-1.058-2.541-3.7-2.594-6.069l-.028.039a2.7,2.7,0,0,0,1.664-1.667l-.025.02,1.439.137" transform="translate(-44.274 -141.379)" fill="#814429"/>
    <path id="Контур_454" data-name="Контур 454" d="M138.939,448.037c.054,2.374-.383,5.011,2.594,6.069,1.825.649,3.457.452,4.075-1.811q.731-.091,1.461-.186l.035.027q-.4,1.5-.808,2.994c-3.616.867-6.94.944-8.713-3.2.063-1.433-.644-3.134,1.357-3.892" transform="translate(-43.624 -142.135)" fill="#e59db0"/>
    <path id="Контур_455" data-name="Контур 455" d="M151.51,452.65c.127-.943.253-1.886.391-2.908a3.062,3.062,0,0,1-.356,2.936l-.035-.028" transform="translate(-48.065 -142.676)" fill="#e59db0"/>
    <path id="Контур_456" data-name="Контур 456" d="M143.285,445.456l-1.439-.137a2.607,2.607,0,0,1-.248-.5c-.019-.073.107-.184.166-.279a1.561,1.561,0,0,1,1.521.918" transform="translate(-44.92 -141.025)" fill="#e59db0"/>
    <path id="Контур_457" data-name="Контур 457" d="M138.344,539.467q.265-.927.531-1.853l-.033,0a1.574,1.574,0,0,1-.5,1.855" transform="translate(-43.888 -170.552)" fill="#92a2eb"/>
    <path id="Контур_458" data-name="Контур 458" d="M193.563,197.951,168.2,195.063c5.093-4.864,4.887-10.845,4.851-16.795-.031-5.242,2.158-9.329,6.939-11.534,6.466-2.982,11.582-7.512,16.128-12.847a31.114,31.114,0,0,1,3.516-3.4c6.232-5.323,12.635-5.58,19.35-.811a37.219,37.219,0,0,1,7.216,7.16c3.442,4.252,7.17,8.178,12.058,10.83a9.579,9.579,0,0,1,5.408,10.093,50.633,50.633,0,0,1-.5,5.269c-.875,4.228-.98,8.309,1.923,12.335-5.4,1.1-10.379-.327-15.336-.055.713-3.57,2.33-6.94,2.286-10.686-.019-1.58-.143-2.769-1.964-3.5-7-2.826-12.619-7.328-16.157-14.143-.849-1.635-1.615-1.909-2.87-.293-2,2.573-4.336,4.9-6.192,7.562-1.667,2.4-2.728,2.474-4.381.02-1.166-1.731-2.956-2.868-5.277-2.056a5.572,5.572,0,0,0-3.751,5.332,15.633,15.633,0,0,0,.746,3.949c-.532,1.989-1.886,4.059.571,5.751a1.41,1.41,0,0,0,1.658.791c.289.862,1.129.806,1.779,1.066-.612,3.031-.918,6.153-2.638,8.855" transform="translate(-53.358 -46.408)" fill="#5cc57f"/>
    <path id="Контур_459" data-name="Контур 459" d="M203.464,206.925c1.719-2.7,2.024-5.824,2.637-8.855.528-.3,1.432-.141,1.409-1.133l.087.009c1.081.164,1.988.087,1.886-1.555l-1.884,1.434c.251-3.127-1.7-4.3-4.326-4.876a1.642,1.642,0,0,0-1.179-1.486,15.572,15.572,0,0,1-.746-3.949,5.572,5.572,0,0,1,3.75-5.332c2.321-.812,4.112.324,5.278,2.056,1.653,2.453,2.715,2.375,4.381-.02,1.855-2.665,4.194-4.989,6.192-7.562,1.255-1.616,2.021-1.342,2.87.293,3.537,6.815,9.159,11.317,16.157,14.143,1.821.735,1.944,1.925,1.963,3.5.045,3.746-1.572,7.116-2.285,10.686-1.45,2.432-2.805,4.9-5.176,6.664-3.58,2.657-7.3,2.227-11.141.824-1.337-3.752-4.839-4.219-7.936-5.463,1.928,5.3,3.652,10.5,6.773,15.058q-.361,5.422-.722,10.844c-.582,1.055-1.127,2.131-1.751,3.159-3.074,5.065-10.367,5.827-14.823,1.327a69.227,69.227,0,0,1-5.468-7.079q2.028-11.345,4.056-22.69m4.854-17.207c-.057-.182-.114-.364-.171-.546-.022.08-.087.19-.057.232a1.665,1.665,0,0,0,.294.266c1.207,1.143,1.574,2.746,2.266,4.169-.087-1.766.538-3.941-2.333-4.12m24.343,4.977c-1.32-.288-2.519-.085-2.648,1.47a1.976,1.976,0,0,0,2.124,2.316,2.742,2.742,0,0,0,2.806-2.362c.257-1.766-1.484-.957-2.282-1.424" transform="translate(-63.26 -55.381)" fill="#814429"/>
    <path id="Контур_460" data-name="Контур 460" d="M229.6,236.11c-3.121-4.558-4.845-9.757-6.773-15.058,3.1,1.243,6.6,1.71,7.936,5.463q-.581,4.8-1.163,9.6" transform="translate(-70.69 -70.126)" fill="#040305"/>
    <path id="Контур_461" data-name="Контур 461" d="M185.1,841.952c-2.986,0-5.985-.171-8.955.049s-4.138-.718-4.026-3.85c.1-2.853.4-4.579,3.977-4.43,6.369.266,12.761.223,19.134.017,3.486-.113,3.537,1.815,3.589,4.372.053,2.609-.438,4.11-3.543,3.894-3.377-.236-6.783-.053-10.177-.052" transform="translate(-54.601 -264.486)" fill="#fbfbf8"/>
    <path id="Контур_462" data-name="Контур 462" d="M151.417,604.5l1.11-.487a.868.868,0,0,1-1.11.487" transform="translate(-48.035 -191.616)" fill="#2545d8"/>
    <path id="Контур_463" data-name="Контур 463" d="M117.818,488.143c-.52,6.847-3.2,13.1-5.349,19.5-.556,1.655-.847,3.4-1.26,5.1l-.907.151-.326-.184a76.69,76.69,0,0,1,4.343-13.488c2.98-7.647,2.941-15.036-1.327-22.218a3.712,3.712,0,0,1-.764-2.665l-.048.05.938-.107-.034.006a1,1,0,0,0,.9,1.031,36.146,36.146,0,0,1,3.839,12.824" transform="translate(-34.889 -150.461)" fill="#979bb6"/>
    <path id="Контур_464" data-name="Контур 464" d="M128.858,453.223c.985,6.514-.014,7.725-7.179,8.718-1.236-2.257-2.875-2.745-5.151-1.381a26.329,26.329,0,0,1-3.673,1.533.96.96,0,0,1-.7-1.1,18.916,18.916,0,0,1,2.546-1.034c3.186-.8,4.428-2.8,3.9-5.981.868-.539,1.067-1.966,2.44-1.839.412,1.085-.709,1.645-.87,2.551-.47,2.627.346,4.7,3,5.305,2.459.556,4.265-.728,4.544-3.314.292-2.713-1.107-4.333-3.881-4.579-.914-.081-1.842,0-2.763,0,3.1-3.168,5.422-.9,7.779,1.116" transform="translate(-35.576 -142.927)" fill="#979bb6"/>
    <path id="Контур_465" data-name="Контур 465" d="M110.4,471.712c-2.062-.27-2.824-2.767-5.1-2.87a1.292,1.292,0,0,1-.738-2.192c.735-.963,1.654-.779,2.388.042.935,1.046,1.2,2.805,3.078,2.823l.111-.07q.11,1.158.216,2.317Z" transform="translate(-33.058 -147.833)" fill="#979bb6"/>
    <path id="Контур_466" data-name="Контур 466" d="M832.04,453.491c-8.56-6.692-10.411-15.051-5.069-22.961.916-1.357,1.861-2.817,3.393-3.445,1.655-.679,1.979-1.643,2.016-3.362.152-6.995,5.1-10.479,11.914-8.451,1.383.412,2.177.705,3.464-.583,4.638-4.646,11.568-4.951,17.56-1.112,5.725,3.668,8.125,10.117,5.739,16.287-.788,2.037-.772,3.262.811,4.948,3.825,4.073,5.144,9.154,4.866,14.678-.166,2.162-1.184,2.812-3.253,1.994a17.712,17.712,0,0,1-9.209-8.268c-.73-1.32-.467-3.6-2.7-3.635-2.339-.038-3.55,1.755-4.611,3.545a18.423,18.423,0,0,0-1.707,3.247c-1.448,4.177-4.873,6.381-8.446,8.257-1.906,1-5.291,1.609-6.173.134-2.646-4.423-5.547-2.33-8.6-1.274" transform="translate(-261.396 -130.363)" fill="#040305"/>
    <path id="Контур_467" data-name="Контур 467" d="M835.656,466.8c3.052-1.056,5.952-3.149,8.6,1.273.882,1.475,4.268.866,6.173-.134,3.574-1.876,7-4.079,8.446-8.257a18.419,18.419,0,0,1,1.707-3.247c1.061-1.79,2.272-3.583,4.611-3.545,2.229.036,1.966,2.314,2.7,3.635A17.7,17.7,0,0,0,877.1,464.8c2.069.818,3.087.167,3.253-1.994,1.745-.035,3.588-.557,5.1.76a4.86,4.86,0,0,1,1.628,5.825c-1.109,2.991-3,.126-4.781.832,1.231,1.4,2.315,3.174-.885,2.819-2.128-.236-2.13,1.149-2.319,2.45a30.12,30.12,0,0,1-6.946,14.986,23.063,23.063,0,0,1-11.832,4.494c4.854,2.588,8.023,5.889,12.494,6.979q.18,5.686.361,11.373c-7.64,5.558-15.253,5.4-22.84-.111-.793-6.778.628-13.5.571-20.258a7.145,7.145,0,0,0-1.689-5.174,22.177,22.177,0,0,1-4.32-8.642c-.7-2.345-.2-5.135-4.391-5.555-1.5-.15-6.347-2.309-4.841-6.778m22.538,10.616-.24-.242.283.2c2.31,2.35,4.521,1.679,6.7-.051-2.215.837-4.489.167-6.74.089m-1.267-2.562a.913.913,0,0,0-.07.278c0,.033.123.061.189.093a.9.9,0,0,0,.067-.277c0-.035-.121-.063-.186-.094m-15.348-3.627c-.218-.147-.417-.378-.638-.4s-.6.139-.632.286c-.112.458.145.709.619.548a3.03,3.03,0,0,0,.651-.434" transform="translate(-265.012 -143.676)" fill="#814429"/>
    <path id="Контур_468" data-name="Контур 468" d="M884.4,519.411c-4.471-1.09-7.639-4.39-12.493-6.979a23.051,23.051,0,0,0,11.832-4.494c.593,3.8-.62,7.71.662,11.473" transform="translate(-276.602 -161.138)" fill="#040305"/>
    <path id="Контур_469" data-name="Контур 469" d="M709.778,188.159c-12.454-1.044-16.091-13.037-14.235-22.763,2.168-11.354,8.859-19.427,19.2-24.323,19.332-9.153,46.867-.58,57.793,17.817,7.262,12.227,5.874,26.6-3.378,35.732-5.123,5.054-11.379,6.6-18.32,6.214-.7-1.144-1.806-2.059-1.983-3.5,1.213-.614,2.715-.993.744-2.668-2.549-2.168-4.905-4.564-7.344-6.862a31.4,31.4,0,0,0,1.364-2.927c1.12-3.184.659-6-2.574-7.611-2.9-1.443-7.169.042-7.955,3.463-1.308,5.695-5.091,4.97-8.939,4.342-2.378-.388-4.635-1.465-7-2.03-2.542-.608-4.719-4.45-6.843-2.679-1.383,1.152-.436,5.1-.533,7.794" transform="translate(-220.509 -43.582)" fill="#040305"/>
    <path id="Контур_470" data-name="Контур 470" d="M716.5,206.438c.1-2.695-.85-6.643.533-7.794,2.124-1.77,4.3,2.071,6.843,2.679,2.36.565,4.617,1.642,7,2.03,3.848.628,7.63,1.353,8.939-4.342.786-3.421,5.055-4.906,7.955-3.463,3.234,1.609,3.694,4.426,2.574,7.611a31.453,31.453,0,0,1-1.364,2.926c-2.273-1.676-3.879-1.93-4.747,1.51-.692,2.744-2.049,5.316-3.031,7.994-.869,2.371-1.114,3.955,2.49,2.8,3.863-1.235,7.917-1.876,11.888-2.775.178,1.441,1.282,2.356,1.984,3.5,4.279,6.925,8.577,13.838,12.264,21.108a28.433,28.433,0,0,0-10.5,8.649c-2.611,3.619-8.361,3.242-10.852-.658-1.66-2.6-2.539-5.672-4.777-7.924l-4.251-8.993a8.605,8.605,0,0,0,.1-7.224,4.9,4.9,0,0,0-1.723,4.6c-7.45,3.22-11.464,1.665-15.2-5.92a95.069,95.069,0,0,1-6.113-16.315" transform="translate(-227.229 -61.861)" fill="#814429"/>
    <path id="Контур_471" data-name="Контур 471" d="M747.808,242.182a4.9,4.9,0,0,1,1.723-4.6,8.606,8.606,0,0,1-.1,7.224l-1.626-2.625" transform="translate(-237.224 -75.371)" fill="#040305"/>
    <path id="Контур_472" data-name="Контур 472" d="M766.186,719.4a22.779,22.779,0,0,1,3.869-1.015,3.9,3.9,0,0,1,4.247,3c.57,1.968.627,4.082-1.927,5-3.139-1.18-6.185-1.849-8.471,1.574-6.025,3.827-6.151,10.356-7.4,16.329-1.272,6.067-.246,12.045,1.051,17.986-1.272,1.109-2.887,1.344-4.434,1.768-6.35,1.738-12.191-.073-17.943-2.538a108.678,108.678,0,0,1,.836-16.308c.141,1.119.281,2.239.518,4.129L745.97,738.4c-4.224.982-7.265,1.256-9.949,2.871-5.707-.09-8.948-3.032-9.745-8.746-.657-4.706.859-9.131,1.64-13.653,2.784-.325,5.621.865,8.393-.59,5.615-2.946,6.071-8.335,1.121-14.693a8.184,8.184,0,0,1,5.916-3.95c1.883-.4,3.744-.655,5.462-3.183.13,3.78,2.15,4.642,4.486,5.534,6.709,2.56,10.137,8.345,9.683,15.783q-1.949-.625-3.895-1.244a24.057,24.057,0,0,0-.788-3.965,8.339,8.339,0,0,0-15.663,5.7,7.879,7.879,0,0,0,7.179,5.679c4.648.426,7.307-2.15,9.125-6.01,2.436.4,4.512,2.563,7.25,1.474" transform="translate(-230.352 -220.942)" fill="#814429"/>
    <path id="Контур_473" data-name="Контур 473" d="M736.494,706.48c4.95,6.358,4.494,11.746-1.121,14.693-2.772,1.455-5.609.265-8.393.59-.2-2.379-2.779-2.593-3.817-4.2.558-.75.222-1.514.122-2.321-.867-6.963,4.5-11.283,11.221-9.088a12.9,12.9,0,0,0,1.989.33" transform="translate(-229.415 -223.836)" fill="#d0d9f6"/>
    <path id="Контур_474" data-name="Контур 474" d="M738.59,791.743c5.751,2.465,11.593,4.276,17.942,2.538,1.547-.424,3.162-.66,4.435-1.768l2.185-.122q-6.67,6.5-13.335,13.007c-1.6,1.572-2.331.092-3.22-.857q-4.864-5.2-9.717-10.4.854-1.2,1.71-2.4" transform="translate(-233.767 -251.172)" fill="#2545d8"/>
    <path id="Контур_475" data-name="Контур 475" d="M740.619,760.756c2.685-1.615,5.726-1.889,9.949-2.871l-9.441,10.937c-.237-1.888-.378-3.01-.518-4.129l.01-3.937" transform="translate(-234.95 -240.431)" fill="#040305"/>
    <path id="Контур_476" data-name="Контур 476" d="M781.429,741.435c2.286-3.423,5.332-2.754,8.471-1.574a24.258,24.258,0,0,1,.516,2.792c.2,2.822-.956,4.88-3.882,5.221-3.1.36-4.818-1.343-5.151-4.409a14.734,14.734,0,0,1,.047-2.03" transform="translate(-247.877 -234.41)" fill="#cf3e64"/>
    <path id="Контур_477" data-name="Контур 477" d="M781.436,728.729c-2.738,1.089-4.814-1.077-7.251-1.473q.074-.7.148-1.4,1.947.621,3.895,1.244,1.606.818,3.208,1.631" transform="translate(-245.602 -230.269)" fill="#979bb6"/>
    <path id="Контур_478" data-name="Контур 478" d="M776.758,792.083l-1.5.278c.307-1.132.843-1.034,1.5-.278" transform="translate(-245.942 -251.099)" fill="#2545d8"/>
    <path id="Контур_479" data-name="Контур 479" d="M325.308,468.151q9.465-23.447,18.913-46.9a6.352,6.352,0,0,1,2.194-2.835l56.525.082c2.678,8.093,4.521,16.466,8.119,24.251.386,1.706.679,3.438,1.177,5.111,2,6.725,4.067,13.431,6.109,20.145-2.176.025-4.352.07-6.528.072q-43.255.042-86.51.074" transform="translate(-103.2 -132.738)" fill="#dcf4e4"/>
    <path id="Контур_480" data-name="Контур 480" d="M323.4,491.193q43.255-.036,86.51-.074c2.176,0,4.352-.047,6.528-.071q.013,15.528.025,31.053l-27.823.119c-4.633-8.138-11.423-12.3-20.972-11.38-10.267-1.288-17.92,2.839-23.464,11.332l-19.173.128c-4.148-3.473-5.457-8.261-5.692-13.312a27,27,0,0,1,3.309-15.09,11.1,11.1,0,0,0,.752-2.705" transform="translate(-101.295 -155.78)" fill="#c1e9d1"/>
    <path id="Контур_481" data-name="Контур 481" d="M412.748,414.258l-56.525-.081c1.226-5.58,6.04-9.09,12.719-9.1,16.211-.036,32.423-.014,48.635-.014q43.73,0,87.461.006c7.068,0,11.408,2.941,13.434,8.985l-31.432.214-72.783-.087-1.509.081" transform="translate(-113.008 -128.498)" fill="#5cc57f"/>
    <path id="Контур_482" data-name="Контур 482" d="M547.823,418.445l31.432-.214c2.359,2.2,2.227,5.454,3.316,8.176,5.44,13.593,10.667,27.274,15.229,41.2-4.429.846-8.9.249-13.345.344a14.322,14.322,0,0,0-8.416-13.92c-5.46-2.65-9.44-2.022-13.978,2.207a398.635,398.635,0,0,1-14.238-37.789" transform="translate(-173.791 -132.679)" fill="#c1e9d1"/>
    <path id="Контур_483" data-name="Контур 483" d="M354.78,531.26c5.543-8.494,13.2-12.62,23.464-11.333.7.348,1.385.731,2.1,1.037,8.983,3.841,13.739,10.657,13.7,19.664-.034,8.917-4.9,15.615-14.094,19.323-.551.223-.954.421-1.038,1.032-13.552.868-23.81-3.77-26.286-20.092q1.073-4.817,2.147-9.632m28.8-.6.584.261q-.11-.309-.218-.619l-.829-.814q-.815-.427-1.632-.852l-.6-.234.24.591q.8.428,1.612.855c.28.271.559.542.84.812m-20.407-.366c-.355.319-.853.836-.39,1.134.591.38.614-.373.742-.77l.814-.812c4.727-1.812,9.4-3.929,14.763-2.072-5.522-3.163-10.12-2.489-15.118,1.73l-.81.79m22.813,4.45c.221.324.158,1.158.76.8.46-.273.027-.828-.339-1.156-.142-.746.022-1.658-.966-1.959a.666.666,0,0,0-.552.348c-.16.924.544,1.411,1.1,1.966m.594,10.552c2.059-2.239,1.35-4.873.814-7.5-.572,2.42-.264,4.951-.814,7.5m-1.3,3.524c.262-.292.617-.532.735-.858.143-.394-.057-.843-.571-.607-.292.134-.481.564-.624.9-.039.091.257.324.46.565" transform="translate(-111.869 -164.868)" fill="#f5ecde"/>
    <path id="Контур_484" data-name="Контур 484" d="M557.639,561.178c-12.946.818-24.661-3.967-25.7-20.5a20.774,20.774,0,0,1,1.794-9.073q7.517-13.461,23.314-10.923c9.3,2.417,15.109,9.327,15.869,18.872.673,8.451-4.7,16.767-13.043,20.29-.783.331-2.038-.013-2.234,1.333m4.651-30.334.58.25-.229-.6-.813-.83-1.613-.91a12.131,12.131,0,0,0-16.753.887l-.811.81q-.41.419-.818.841l-.247.574.586-.231c.28-.277.561-.554.838-.834l.81-.792a16.029,16.029,0,0,1,16.049-.823q.791.423,1.583.845.418.407.836.811m1.99,2.065-.588-.255.224.615c.171.136.441.42.5.383.451-.3.158-.534-.132-.743m.808,2.369a18.565,18.565,0,0,1-1.025,12.615c3.906-3.786,4.178-8.435,1.025-12.615" transform="translate(-168.751 -165.054)" fill="#f5ecde"/>
    <path id="Контур_485" data-name="Контур 485" d="M569.305,561.091c.2-1.346,1.451-1,2.234-1.333,8.345-3.523,13.717-11.839,13.044-20.29-.76-9.545-6.571-16.455-15.869-18.872a9.18,9.18,0,0,1,1.9-.541c8.942-.576,14.758,4.118,19.04,11.367a42.078,42.078,0,0,1,1.484,6.712c.15,2.349,1.068,2.954,3.264,2.916,6.517-.111,13.042-.2,19.554.014a23.03,23.03,0,0,0,13.207-3.249c.776,10.174-3.742,18.106-12.36,21.7-8.557,3.573-17.587,1.179-24.26-6.36-.668-.755-1.131-3.129-2.769-.669-4.395,6.6-10.768,9.045-18.466,8.6" transform="translate(-180.418 -164.966)" fill="#040305"/>
    <path id="Контур_486" data-name="Контур 486" d="M390.82,561.033c.085-.611.488-.809,1.039-1.032,9.192-3.709,14.059-10.407,14.094-19.324.035-9.007-4.721-15.824-13.705-19.663-.718-.307-1.4-.69-2.1-1.037,9.548-.92,16.339,3.243,20.972,11.38.444,1.846,1.221,3.684,1.26,5.538.078,3.648,1.9,4.192,5.13,4.146,10.473-.15,20.95.046,31.425.11-.5,8.956-5.788,16.211-13.79,18.9a20.434,20.434,0,0,1-22.862-6.518c-1.661-2.032-2.263-2.313-3.927,0-4.267,5.94-10.431,7.932-17.533,7.5" transform="translate(-123.769 -164.917)" fill="#040305"/>
    <path id="Контур_487" data-name="Контур 487" d="M458.677,546.436c-10.476-.063-20.953-.26-31.425-.11-3.234.046-5.052-.5-5.129-4.146-.04-1.854-.817-3.692-1.26-5.537l27.823-.119,1.648-.013,48.161.242a20.789,20.789,0,0,0-1.794,9.073c-6.851.986-13.737.225-20.605.411-5.8.157-11.612.139-17.419.2" transform="translate(-133.514 -170.202)" fill="#cf3e64"/>
    <path id="Контур_488" data-name="Контур 488" d="M594.693,490.885c4.448-.095,8.915.5,13.344-.344,8.829,4.3,18.455,7.152,25.775,14.191-.87,1.406-2.521,1.323-3.778,1.99-3.7,1.964-4.071,6.337-.761,8.792l-.043-.043c1.595,3.776,4.973,1.921,7.609,2.409a9.737,9.737,0,0,1-1.393,4.456c-1.613-.118-3.225-.319-4.838-.337-8.666-.1-17.333-.145-26-.211q.463-1.923.924-3.847h0c3.557-.642,7.478,1.26,10.727-1.533,3.6-3.1,3.767-4.84.776-8.321l-.837-.8c-3.948-2.664-8.276-1.211-12.475-1.148l-1.269-.726c-1.733-3.98-5.594-5.231-9.033-7-4.424-2.269-8.884-4.466-13.329-6.694l.349-.8h10.915l3.336-.037" transform="translate(-184.029 -155.619)" fill="#5cc57f"/>
    <path id="Контур_489" data-name="Контур 489" d="M610.727,536.307c8.666.066,17.333.115,26,.211,1.614.018,3.225.219,4.838.337-.909,2.539-2.929,4.232-4.676,6.131a23.05,23.05,0,0,1-13.207,3.248c-6.512-.219-13.037-.125-19.554-.014-2.2.037-3.114-.567-3.264-2.915a42.044,42.044,0,0,0-1.484-6.712l11.347-.285" transform="translate(-190.147 -170.138)" fill="#cf3e64"/>
    <path id="Контур_490" data-name="Контур 490" d="M346.87,536.633l-2.147,9.632c-6.959-.868-12.942-3.486-17.025-9.5l19.172-.127" transform="translate(-103.959 -170.241)" fill="#cf3e64"/>
    <path id="Контур_491" data-name="Контур 491" d="M657.545,514.754A14.337,14.337,0,0,1,659.7,523.8a12.015,12.015,0,0,1-8.016-.645l.043.043c-1.981-6.006-.685-7.887,5.817-8.441" transform="translate(-206.484 -163.3)" fill="#5cc57f"/>
    <path id="Контур_492" data-name="Контур 492" d="M656.887,513.666c-6.5.554-7.8,2.435-5.817,8.441-3.31-2.455-2.944-6.828.761-8.792,1.257-.667,2.908-.584,3.778-1.99,1.09.419,1.211,1.365,1.278,2.341" transform="translate(-205.826 -162.212)" fill="#c1e9d1"/>
    <path id="Контур_493" data-name="Контур 493" d="M652.06,527.054a12.018,12.018,0,0,0,8.016.645,1.574,1.574,0,0,1-.408,1.764c-2.635-.487-6.014,1.368-7.609-2.409" transform="translate(-206.859 -167.202)" fill="#c1e9d1"/>
    <path id="Контур_494" data-name="Контур 494" d="M462.66,105.571c.372,10.62.057,11.221-10.118,14.694-5.491,1.873-11.106,3.388-16.681,5.011-4.312,1.255-8.208,3.411-12.166,5.443-3.167-8.878-1.217-17.362,6.118-23.062a15.294,15.294,0,0,0,6.376-13.325,12.959,12.959,0,0,1,5.36-11.313c4.936-3.636,7.267-8.559,7.934-14.56,1.01-9.087,4.964-16.354,13.717-20.185,2.44-1.068,1.1-2.118.436-3.393-3.052-5.861-2.212-12.1,2.122-16.115,4.592-4.251,11.9-4.548,16.425-.669,4.245,3.636,4.775,10.34,1.132,15.6-.991,1.429-2.259,2.667-3.673,4.311,9.787,4.129,13.289,12.28,14.559,21.943.7,5.325,2.94,9.838,7.542,13a8.941,8.941,0,0,1,3.677,10.784c-2.035,6.215-.19,11.125,3.913,15.7,4.947,5.521,6.522,11.8,3.793,18.9a131.467,131.467,0,0,1-20.47-6.492c-7.976-3.128-9.114-5.015-9.161-13.539-.007-1.215-.12-2.43-.184-3.645-2.532-3.664-7.644-2.97-10.79-6.272,7.008-.75,12.025-3.939,15.14-10.024,1.178-2.3,1.09-3.8-1.345-5.344a47.166,47.166,0,0,1-11.528-10.852,65.821,65.821,0,0,1-7.8-13.534c-1.785,2.513-2.814,4.94-4.764,6.692-1.888,1.7-3.522,3.885-6.374,3.925-4.584.064-5.442,1.17-4.085,5.537-1.3,1.9-1.839,3.881-.186,5.81,1.628,1.9,3.565,1.161,5.443.362.419,2.254.253,4.864,1.366,6.7,3.4,5.584,4.239,11.616,4.27,17.916" transform="translate(-133.949 -8.049)" fill="#040305"/>
    <path id="Контур_495" data-name="Контур 495" d="M487.357,865.095a15.373,15.373,0,0,1-8.755-.8,53.877,53.877,0,0,0-5.728-2.009c-6.7-1.662-6.678-1.615-6.746-8.615-.016-1.682.615-3.572-1.063-4.923a.34.34,0,0,1,.257-.376c3.2-2.354,4.456-6.028,6.578-9.172-2.547.806-5.323.834-6.72,3.4-7.534,2.283-15.069-4.156-15.32-12.539-.33-11.029,4.075-20,12.736-26.865.953-.755,1.929-1.483,2.893-2.224q2.247-.524,4.5-1.046c1.184,2.442,2.956,4.346,5.644,4.912,2.443.515,2.686,1.623,2.451,3.976-.626,6.268,4.349,12.156,10.046,12.44,5.036,1.035,6.346,3.84,3.767,8.075-.487.8-.982,1.595-1.474,2.392-2.554-.22-3.856.54-3.14,3.455a20.349,20.349,0,0,1,.133,4.4,70.146,70.146,0,0,0,.737,11.6c-1.688,4.112-.464,8.363-.6,12.549q-.1.686-.189,1.372m-24.748-49.533c-1.531-2.8,1.741-2.978,2.345-4.8-4.822,1.2-5.124,1.748-2.345,4.8" transform="translate(-142.707 -253.767)" fill="#d19f6c"/>
    <path id="Контур_496" data-name="Контур 496" d="M504.925,885.586c.138-4.186-1.086-8.438.6-12.549,5.221.221,10.164-1.318,15.179-2.4,5.435-1.174,10.827-2.323,16.5-1.533,11.868,1.654,17.823,11.88,13.379,23.032-1.765,4.43-5.322,7.424-8.1,11.046a19.7,19.7,0,0,0-7.518-2.824l.068.039c-4.62-2.567-9.658-3.886-14.783-4.943l.065.038a54.955,54.955,0,0,0-9.867-4.945l.051.038a1.556,1.556,0,0,0-1.694-.849l.052.04C506.4,886.6,507.629,885,511.1,883.98c3.121-.916,6.175-1.984,9.386-2.656,5.377-1.125,10.8-.453,16.173-.829-11.2-2.237-21.712-.078-31.735,5.091" transform="translate(-160.087 -275.63)" fill="#5cc57f"/>
    <path id="Контур_497" data-name="Контур 497" d="M506.494,831.627c.492-.8.987-1.592,1.474-2.392,2.579-4.235,1.269-7.039-3.767-8.075-.113-1.217-.287-2.433-.329-3.652-.212-6.13-2.554-11.855-3.356-17.871,8.2,1.43,13.692,6.056,15.471,14.221,1.739,7.981-1.264,14.388-7.842,19.147a1.571,1.571,0,0,1-1.65-1.377" transform="translate(-158.783 -253.676)" fill="#cf3e64"/>
    <path id="Контур_498" data-name="Контур 498" d="M476.886,791.91l-4.5,1.046c-.436-4.422-1.407-8.784-.237-13.3,1.226-4.725,4.7-6.376,8.913-3.746,5.683,3.547,8.193,9.211,9.957,15.332-4.763-.851-9.542-2.08-14.136.665" transform="translate(-149.609 -245.754)" fill="#e59db0"/>
    <path id="Контур_499" data-name="Контур 499" d="M479.344,799.138c4.594-2.745,9.373-1.516,14.136-.665a2.921,2.921,0,0,0,.32.47c.8,6.015,3.145,11.74,3.356,17.87.042,1.219.216,2.435.328,3.652-5.7-.283-10.672-6.172-10.046-12.44.235-2.353-.008-3.461-2.451-3.975-2.688-.566-4.46-2.47-5.643-4.912" transform="translate(-152.067 -252.982)" fill="#040305"/>
    <path id="Контур_500" data-name="Контур 500" d="M472.3,860.847c1.4-2.564,4.174-2.591,6.72-3.4-2.121,3.144-3.378,6.818-6.578,9.172q-.071-2.886-.143-5.775" transform="translate(-149.834 -272.017)" fill="#040305"/>
    <path id="Контур_501" data-name="Контур 501" d="M507.722,846.474a1.571,1.571,0,0,0,1.65,1.377c.63,3.731-.6,6.121-4.658,6.478a20.3,20.3,0,0,0-.132-4.4c-.716-2.916.586-3.676,3.14-3.456" transform="translate(-160.011 -268.524)" fill="#040305"/>
    <path id="Контур_502" data-name="Контур 502" d="M549.062,915a19.7,19.7,0,0,1,7.518,2.824l-.01.04A9,9,0,0,1,549.062,915" transform="translate(-174.184 -290.274)" fill="#c1e9d1"/>
    <path id="Контур_503" data-name="Контур 503" d="M469.529,902.7c1.148,4.453-1.008,7.947-3.369,11.339-2.772,3.983-5.124,7.9-.759,12.345a2.147,2.147,0,0,1,.4,2.651,1.494,1.494,0,0,1-1.73.754,2.96,2.96,0,0,1-2.107-2.756c-.65-5.008.031-9.7,3.242-13.894,1.88-2.454,3.929-5,3.163-8.5.757-.424-1.5-2.644,1.156-1.936" transform="translate(-146.483 -286.329)" fill="#814429"/>
    <path id="Контур_504" data-name="Контур 504" d="M482.659,904.853c1.163,4.435-.584,8.243-2.583,12-2.021,3.8-3.449,7.474.864,10.849,1.046.819,1.785,2.539.285,3.505-1.914,1.232-2.807-.77-3.174-1.99a17.767,17.767,0,0,1,1.22-13.73c1.5-2.919,3.806-5.778,2.345-9.486q.525-.573,1.043-1.144" transform="translate(-151.39 -287.055)" fill="#814429"/>
    <path id="Контур_505" data-name="Контур 505" d="M504.977,890.593c10.022-5.169,20.531-7.327,31.735-5.091-5.373.376-10.8-.3-16.173.829-3.211.672-6.265,1.74-9.386,2.656-3.473,1.019-4.7,2.619-2.245,5.795-1.881-.194-2.5-2.237-4.119-2.814q.094-.689.188-1.374" transform="translate(-160.139 -280.637)" fill="#c1e9d1"/>
    <path id="Контур_506" data-name="Контур 506" d="M471.465,900.787c-2.657-.708-.4,1.512-1.156,1.936-3.449.04-2.244-2.533-2.31-4.277-.038-.99.7-2.124,1.677-1.89,2.248.541,2.091,2.428,1.79,4.23" transform="translate(-148.419 -284.413)" fill="#cf3e64"/>
    <path id="Контур_507" data-name="Контур 507" d="M483.53,902.506q-.519.571-1.043,1.144c-2.442-1.08-3.337-3.907-1.7-5.531,1.3-1.3,2.238-.513,2.758.795a5.429,5.429,0,0,1-.014,3.592" transform="translate(-152.261 -284.708)" fill="#cf3e64"/>
    <path id="Контур_508" data-name="Контур 508" d="M527.509,907.817c5.125,1.057,10.163,2.376,14.783,4.943-5.158-.96-10.341-1.843-14.783-4.943" transform="translate(-167.347 -287.995)" fill="#c1e9d1"/>
    <path id="Контур_509" data-name="Контур 509" d="M513.152,900.63a54.92,54.92,0,0,1,9.867,4.944c-3.853-.523-7.363-1.729-9.867-4.944" transform="translate(-162.792 -285.715)" fill="#c1e9d1"/>
    <path id="Контур_510" data-name="Контур 510" d="M462.722,894.014a7.968,7.968,0,0,1-8.355.507,27.163,27.163,0,0,0,8.355-.507" transform="translate(-144.143 -283.616)" fill="#c1e9d1"/>
    <path id="Контур_511" data-name="Контур 511" d="M469.536,891.965c.571-.227,1.368-.81,1.672-.617,1.139.722-.12.863-.462,1.094-.258.175-.707.068-1.071.087-.047-.188-.094-.376-.14-.564" transform="translate(-148.955 -282.758)" fill="#c1e9d1"/>
    <path id="Контур_512" data-name="Контур 512" d="M510.745,899.437a1.555,1.555,0,0,1,1.694.85,1.555,1.555,0,0,1-1.694-.85" transform="translate(-162.028 -285.333)" fill="#c1e9d1"/>
    <path id="Контур_513" data-name="Контур 513" d="M206.932,302.987c-2.315,0-4.641.132-6.943-.038a3.549,3.549,0,0,1-3.63-3.686c.02-2.234,1.241-4.125,3.621-4.227,4.757-.2,9.54-.228,14.294.023a3.994,3.994,0,0,1-.393,7.969c-2.316.016-4.632,0-6.948,0v-.044" transform="translate(-62.293 -93.547)" fill="#fbfbf8"/>
    <path id="Контур_514" data-name="Контур 514" d="M245.168,300.426a1.977,1.977,0,0,1,1.867,2.22,1.884,1.884,0,0,1-2.136,1.922c-1.231-.12-2.038-.825-1.876-2.131a2.143,2.143,0,0,1,2.145-2.011" transform="translate(-77.09 -95.307)" fill="#cf3e64"/>
    <path id="Контур_515" data-name="Контур 515" d="M236.022,285.717a1.891,1.891,0,0,1-1.882-2.269A1.667,1.667,0,0,1,236,281.76a1.922,1.922,0,0,1,2.018,2.055,1.877,1.877,0,0,1-1.994,1.9" transform="translate(-74.275 -89.385)" fill="#cf3e64"/>
    <path id="Контур_516" data-name="Контур 516" d="M465.218,90.242c-1.357-4.366-.5-5.472,4.085-5.536,2.852-.04,4.486-2.229,6.374-3.924,1.951-1.753,2.978-4.179,4.764-6.692a65.8,65.8,0,0,0,7.8,13.533,47.155,47.155,0,0,0,11.528,10.852c2.435,1.54,2.522,3.042,1.344,5.343-3.114,6.085-8.131,9.274-15.139,10.024,3.146,3.3,8.259,2.607,10.79,6.272-6.772,2.8-13.689,2.334-20.649.913-.032-6.3-.875-12.333-4.271-17.917-1.114-1.832-.948-4.441-1.367-6.694,1.068-1.7,1.535-3.475.214-5.21-1.481-1.945-3.478-1.591-5.47-.963m18.166,5.85-.838-.287q.147.422.3.845l1.47,1.024c1.91,1.474,3.791,1.264,5.646-.1.13-.224.427-.551.363-.654-.325-.524-.651-.2-.943.1q-2.233,0-4.465,0-.764-.465-1.529-.924" transform="translate(-147.4 -23.504)" fill="#d19f6c"/>
    <path id="Контур_517" data-name="Контур 517" d="M724.124,306.756a4.421,4.421,0,0,1-2.095,3.229c.193-1.763.555-2.85,2.155-3.18l-.06-.049" transform="translate(-229.056 -97.315)" fill="#c1e9d1"/>
    <path id="Контур_518" data-name="Контур 518" d="M726.339,303.625c.117-.972.582-1.592,1.634-1.621l-.046-.045c-.123.972-.569,1.615-1.645,1.619Z" transform="translate(-230.405 -95.793)" fill="#c1e9d1"/>
    <path id="Контур_519" data-name="Контур 519" d="M725.906,304.331a1.462,1.462,0,0,1-.809,1.655l.06.049a1.483,1.483,0,0,1,.806-1.658l-.057-.046" transform="translate(-230.029 -96.546)" fill="#c1e9d1"/>
    <path id="Контур_520" data-name="Контур 520" d="M729.505,300.761l-.815.818.046.045a.8.8,0,0,1,.825-.811Z" transform="translate(-231.169 -95.413)" fill="#c1e9d1"/>
    <path id="Контур_521" data-name="Контур 521" d="M729.94,300.649l.264-.4c-.01.073.007.176-.034.212a1.126,1.126,0,0,1-.285.14l.055.052" transform="translate(-231.548 -95.249)" fill="#c1e9d1"/>
    <path id="Контур_522" data-name="Контур 522" d="M230.065,735.724c-2.112-2.377-5.226-.341-7.891-1.8,2.805-5.938,8.08-2.816,12.143-3.372,2.569-.352,2.629.081,3.714,3.621-2.388,1.065-5.146-.554-7.462,1.03q-.254.256-.5.516" transform="translate(-70.482 -231.656)" fill="#814429"/>
    <path id="Контур_523" data-name="Контур 523" d="M238.951,739.345a4.185,4.185,0,0,1-1.284.444c-.272-.016-.526-.346-.788-.536.233-.109.474-.32.7-.3a7.745,7.745,0,0,1,1.376.395" transform="translate(-75.147 -234.424)" fill="#814429"/>
    <path id="Контур_524" data-name="Контур 524" d="M234.236,737.524a6.193,6.193,0,0,1,.672.714c-.473.594-.832.191-1.176-.2q.25-.259.5-.515" transform="translate(-74.149 -233.972)" fill="#814429"/>
    <path id="Контур_525" data-name="Контур 525" d="M113.1,473.362q-.108-1.159-.216-2.317c1.279.268,1.348,1.171,1.154,2.21l-.938.107" transform="translate(-35.812 -149.434)" fill="#814429"/>
    <path id="Контур_526" data-name="Контур 526" d="M115.423,475.322a1,1,0,0,1-.9-1.031c.628.057.832.483.9,1.031" transform="translate(-36.332 -150.464)" fill="#814429"/>
    <path id="Контур_527" data-name="Контур 527" d="M141.19,445.6a2.706,2.706,0,0,1-1.665,1.667c-.274-1.382.177-2.042,1.665-1.667" transform="translate(-44.239 -141.33)" fill="#e59db0"/>
    <path id="Контур_528" data-name="Контур 528" d="M142.473,467.283a3.651,3.651,0,0,1-4.83.987c1.019-1.83,2.906-1.1,4.258-1.672l.571.685" transform="translate(-43.666 -148.023)" fill="#040305"/>
    <path id="Контур_529" data-name="Контур 529" d="M202.944,197.845a1.644,1.644,0,0,1,1.18,1.488c-1.151,1.258-.374,2.733-.462,4.11l-.147.154c-2.457-1.693-1.1-3.763-.571-5.752" transform="translate(-64.111 -62.764)" fill="#c1e9d1"/>
    <path id="Контур_530" data-name="Контур 530" d="M209.792,207.329c.025.991-.879.828-1.407,1.133-.65-.26-1.49-.2-1.779-1.066l.032-.04,3.154-.027" transform="translate(-65.544 -65.773)" fill="#c1e9d1"/>
    <path id="Контур_531" data-name="Контур 531" d="M205.836,206.989a1.41,1.41,0,0,1-1.658-.791l.145-.151a1.57,1.57,0,0,1,1.546.9Z" transform="translate(-64.773 -65.366)" fill="#c1e9d1"/>
    <path id="Контур_532" data-name="Контур 532" d="M246.877,203.994c.8.467,2.539-.343,2.282,1.424a2.742,2.742,0,0,1-2.806,2.362,1.976,1.976,0,0,1-2.124-2.316c.129-1.555,1.327-1.758,2.648-1.47" transform="translate(-77.476 -64.68)" fill="#040305"/>
    <path id="Контур_533" data-name="Контур 533" d="M205.855,205.038a1.57,1.57,0,0,0-1.546-.9c.09-1.379-.688-2.853.464-4.112,2.629.57,4.577,1.747,4.326,4.874v.122l-.087-.009-3.155.027" transform="translate(-64.76 -63.455)" fill="#5cc57f"/>
    <path id="Контур_534" data-name="Контур 534" d="M212.451,196.736c2.876.177,2.25,2.352,2.338,4.118-.692-1.423-1.058-3.026-2.266-4.169Z" transform="translate(-67.398 -62.396)" fill="#c1e9d1"/>
    <path id="Контур_535" data-name="Контур 535" d="M211.4,206.619V206.5l1.884-1.432c.1,1.643-.8,1.719-1.886,1.555" transform="translate(-67.065 -65.054)" fill="#c1e9d1"/>
    <path id="Контур_536" data-name="Контур 536" d="M212.416,196.453a1.692,1.692,0,0,1-.294-.266c-.03-.042.035-.152.057-.232.057.182.114.364.169.548l.069-.05" transform="translate(-67.291 -62.165)" fill="#c1e9d1"/>
    <path id="Контур_537" data-name="Контур 537" d="M124.752,452.819c.922-.006,1.85-.085,2.763,0,2.774.246,4.174,1.865,3.881,4.579-.279,2.586-2.085,3.87-4.543,3.314-2.659-.6-3.475-2.678-3.006-5.305.162-.905,1.282-1.465.871-2.551l.034-.033" transform="translate(-39.25 -143.639)" fill="#814429"/>
    <path id="Контур_538" data-name="Контур 538" d="M868.8,488.774c2.251.078,4.525.748,6.74-.089-2.175,1.73-4.388,2.4-6.7.051Z" transform="translate(-275.617 -155.03)" fill="#040305"/>
    <path id="Контур_539" data-name="Контур 539" d="M866.911,485.064c.066.031.184.059.186.094a.907.907,0,0,1-.066.276c-.067-.031-.188-.059-.19-.092a.936.936,0,0,1,.07-.278" transform="translate(-274.996 -153.881)" fill="#040305"/>
    <path id="Контур_540" data-name="Контур 540" d="M843.861,479.564a3.028,3.028,0,0,1-.651.434c-.474.161-.731-.09-.619-.548.036-.147.423-.307.632-.286s.42.253.638.4" transform="translate(-267.295 -152.009)" fill="#d0d9f6"/>
    <path id="Контур_541" data-name="Контур 541" d="M868.73,488.665l-.283-.2.24.242.043-.038" transform="translate(-275.505 -154.959)" fill="#040305"/>
    <path id="Контур_542" data-name="Контур 542" d="M766.9,220.212c-3.971.9-8.024,1.541-11.888,2.775-3.6,1.153-3.359-.431-2.49-2.8.982-2.678,2.339-5.249,3.031-7.994.867-3.44,2.474-3.186,4.747-1.51,2.439,2.3,4.794,4.7,7.344,6.864,1.97,1.675.468,2.054-.744,2.667" transform="translate(-238.557 -66.458)" fill="#cf3e64"/>
    <path id="Контур_543" data-name="Контур 543" d="M766.546,721.592q-.075.7-.148,1.4c-1.818,3.86-4.476,6.436-9.124,6.01a7.879,7.879,0,0,1-7.179-5.678,8.339,8.339,0,0,1,15.663-5.7,24.07,24.07,0,0,1,.789,3.965" transform="translate(-237.815 -226.008)" fill="#d0d9f6"/>
    <path id="Контур_544" data-name="Контур 544" d="M459.862,510.347l-1.647.013q-.012-15.527-.025-31.053c-2.042-6.714-4.107-13.421-6.109-20.146-.5-1.672-.791-3.406-1.178-5.11l.022-.013c1.419.708,1.48,2.183,1.875,3.433,2.315,7.337,4.59,14.687,6.88,22.031q.093,15.423.182,30.846" transform="translate(-143.044 -144.038)" fill="#979bb6"/>
    <path id="Контур_545" data-name="Контур 545" d="M439.012,418.5c.5-.027,1.006-.054,1.511-.083.351,3.64,1.855,6.964,2.836,10.432,1.306,4.618,3.671,8.95,3.795,13.889l-.022.014c-3.6-7.785-5.441-16.158-8.119-24.252" transform="translate(-139.272 -132.738)" fill="#979bb6"/>
    <path id="Контур_546" data-name="Контур 546" d="M447.855,442.736c-.124-4.94-2.489-9.272-3.795-13.889-.981-3.468-2.485-6.793-2.836-10.432l72.781.088a398.356,398.356,0,0,0,14.239,37.788c-1.622,3.488-1.317,6.958.091,10.419-.789,1.421-2.142,1.383-3.494,1.351-.064-2.825.954-5.911-.619-8.406-3.343-5.3-8.872-2.482-13.466-3.085-2.947-.386-4.975,1.293-6.126,3.8-.986,2.145-.466,4.544-.449,6.839-.876.12-1.859-.063-2.447.867l-45.128.125c-2.289-7.345-4.563-14.7-6.878-22.032-.395-1.25-.455-2.725-1.875-3.433" transform="translate(-139.974 -132.738)" fill="#dcf4e4"/>
    <path id="Контур_547" data-name="Контур 547" d="M568.26,482.547c-1.408-3.461-1.713-6.931-.091-10.418,4.538-4.229,8.517-4.858,13.978-2.207a14.322,14.322,0,0,1,8.416,13.92l-3.337.037a11.631,11.631,0,0,0-7.365-10.755c-2.566-1.162-5.3-1.585-7.6.539-2.131,1.97-1.331,4.46-.742,6.845.24.972,1.68,2.022.664,2.834-1.284,1.026-2.808.476-3.922-.795" transform="translate(-179.898 -148.574)" fill="#040305"/>
    <path id="Контур_548" data-name="Контур 548" d="M369.254,532.341c5-4.217,9.6-4.891,15.12-1.729-5.362-1.857-10.036.26-14.762,2.072q-.177-.173-.358-.343" transform="translate(-117.142 -167.704)" fill="#c1e9d1"/>
    <path id="Контур_549" data-name="Контур 549" d="M402.352,553.711c.55-2.545.242-5.076.814-7.5.537,2.623,1.245,5.256-.814,7.5" transform="translate(-127.642 -173.281)" fill="#c1e9d1"/>
    <path id="Контур_550" data-name="Контур 550" d="M400.959,540.663c-.551-.556-1.255-1.042-1.094-1.968a.667.667,0,0,1,.552-.348c.988.3.824,1.213.966,1.959-.139.121-.281.24-.424.356" transform="translate(-126.845 -170.783)" fill="#c1e9d1"/>
    <path id="Контур_551" data-name="Контур 551" d="M400.229,561.645c-.2-.241-.5-.475-.46-.565.143-.336.333-.765.624-.9.513-.236.714.213.571.607-.117.326-.472.567-.735.858" transform="translate(-126.821 -177.69)" fill="#c1e9d1"/>
    <path id="Контур_552" data-name="Контур 552" d="M401.9,541.22c.365.328.8.882.339,1.155-.6.357-.539-.477-.761-.8.142-.115.283-.233.423-.355" transform="translate(-127.365 -171.696)" fill="#c1e9d1"/>
    <path id="Контур_553" data-name="Контур 553" d="M368.154,535.589c-.13.4-.152,1.148-.744.768-.463-.3.035-.815.391-1.133.117.124.234.244.353.365" transform="translate(-116.498 -169.794)" fill="#c1e9d1"/>
    <path id="Контур_554" data-name="Контур 554" d="M394.725,532.792l1.631.853q-.188.182-.38.361l-1.609-.856q.184-.174.358-.358" transform="translate(-125.109 -169.023)" fill="#c1e9d1"/>
    <path id="Контур_555" data-name="Контур 555" d="M394.255,533.043l-.24-.591.6.233q-.173.183-.358.358" transform="translate(-124.997 -168.915)" fill="#c1e9d1"/>
    <path id="Контур_556" data-name="Контур 556" d="M369.237,534.406l-.814.814c-.117-.12-.235-.24-.352-.364l.809-.792c.119.113.238.227.356.342" transform="translate(-116.767 -169.426)" fill="#c1e9d1"/>
    <path id="Контур_557" data-name="Контур 557" d="M397.1,534.042l.828.814c-.124.117-.247.237-.367.358q-.419-.407-.84-.812c.126-.119.253-.239.379-.36" transform="translate(-125.857 -169.419)" fill="#c1e9d1"/>
    <path id="Контур_558" data-name="Контур 558" d="M398.324,535.234l.218.619-.585-.261c.119-.121.242-.24.367-.358" transform="translate(-126.248 -169.797)" fill="#c1e9d1"/>
    <path id="Контур_559" data-name="Контур 559" d="M535.484,484.324c1.114,1.271,2.638,1.82,3.922.795,1.015-.811-.425-1.863-.665-2.834-.589-2.386-1.389-4.876.742-6.845,2.3-2.123,5.035-1.7,7.6-.538a11.63,11.63,0,0,1,7.366,10.754H543.536l-.349.8c4.444,2.229,8.9,4.426,13.328,6.694,3.44,1.764,7.3,3.016,9.033,7-.716.358-1.409.769-2.15,1.062a5.352,5.352,0,0,0-3.634,6.029c.347,2.995,2.3,4.775,5.25,5.307a24.122,24.122,0,0,0,3.612.128q-.461,1.924-.923,3.848l-11.348.284c-4.282-7.248-10.1-11.942-19.04-11.367a9.144,9.144,0,0,0-1.9.542Q519.592,503.455,512.1,516.9l-48.162-.242q-.091-15.424-.183-30.846l45.126-.125c2.526,6.533,13.846,8.5,19.407,3.379,2.652.414,2.564-2.156,3.7-3.394,1.351.032,2.7.07,3.494-1.351m-53.7,13.477c0-.141,0-.282,0-.423H470.747c0,.141,0,.282,0,.423Zm-10.176-4.558q.02.214.038.428h10.18c0-.143,0-.285,0-.428Zm-2.285,1.977c-.017.191-.035.382-.052.573.074-.088.2-.172.209-.267s-.1-.2-.157-.306" transform="translate(-147.122 -150.352)" fill="#c1e9d1"/>
    <path id="Контур_560" data-name="Контур 560" d="M548.815,532.216a12.132,12.132,0,0,1,16.754-.883q-.167.222-.346.431a16.023,16.023,0,0,0-16.048.821q-.178-.187-.36-.369" transform="translate(-174.106 -167.629)" fill="#c1e9d1"/>
    <path id="Контур_561" data-name="Контур 561" d="M580.014,542.246c3.154,4.181,2.881,8.829-1.025,12.615a18.565,18.565,0,0,0,1.025-12.615" transform="translate(-183.678 -172.022)" fill="#c1e9d1"/>
    <path id="Контур_562" data-name="Контур 562" d="M574.43,533.974q-.791-.424-1.582-.847c.119-.139.234-.281.345-.43q.808.453,1.613.909-.19.183-.376.367" transform="translate(-181.73 -168.992)" fill="#c1e9d1"/>
    <path id="Контур_563" data-name="Контур 563" d="M546.429,536.018q.41-.42.821-.838c.12.119.239.236.361.351l-.841.832c-.11-.118-.224-.233-.341-.344" transform="translate(-173.349 -169.78)" fill="#c1e9d1"/>
    <path id="Контур_564" data-name="Контур 564" d="M579.139,538.774c.288.21.582.44.13.744-.055.036-.325-.247-.5-.383q.187-.176.365-.361" transform="translate(-183.61 -170.92)" fill="#c1e9d1"/>
    <path id="Контур_565" data-name="Контур 565" d="M578.67,539.017l-.224-.614.589.254q-.177.184-.365.36" transform="translate(-183.506 -170.803)" fill="#c1e9d1"/>
    <path id="Контур_566" data-name="Контур 566" d="M548.8,534.359q-.4.4-.809.793c-.121-.114-.24-.231-.36-.35l.809-.811q.181.181.36.368" transform="translate(-173.73 -169.403)" fill="#c1e9d1"/>
    <path id="Контур_567" data-name="Контур 567" d="M546.655,536.751l-.586.231q.124-.287.246-.574c.116.111.23.225.34.343" transform="translate(-173.235 -170.17)" fill="#c1e9d1"/>
    <path id="Контур_568" data-name="Контур 568" d="M576,535.206q-.418-.407-.836-.812.184-.183.375-.367l.814.829c-.121.113-.239.229-.353.35" transform="translate(-182.465 -169.415)" fill="#c1e9d1"/>
    <path id="Контур_569" data-name="Контур 569" d="M576.743,535.242l.228.6-.58-.249c.114-.119.231-.235.352-.349" transform="translate(-182.854 -169.8)" fill="#c1e9d1"/>
    <path id="Контур_570" data-name="Контур 570" d="M613.211,524.852a24.143,24.143,0,0,1-3.612-.128c-2.945-.532-4.9-2.312-5.249-5.308a5.353,5.353,0,0,1,3.634-6.029c.741-.292,1.435-.7,2.151-1.062l1.269.724.713,1.17a21.552,21.552,0,0,1,1.342,8.773l-.246,1.858h0" transform="translate(-191.707 -162.53)" fill="#fbfbf8"/>
    <path id="Контур_571" data-name="Контур 571" d="M615.418,514.346l-.713-1.17c4.2-.062,8.526-1.516,12.475,1.148l-.179.206-11.584-.184" transform="translate(-195.008 -162.656)" fill="#c1e9d1"/>
    <path id="Контур_572" data-name="Контур 572" d="M617.355,529.807l.246-1.858a28.014,28.014,0,0,0,10.168,0l.313.324c-3.25,2.792-7.17.891-10.727,1.532" transform="translate(-195.849 -167.486)" fill="#c1e9d1"/>
    <path id="Контур_573" data-name="Контур 573" d="M633.7,516.237c2.99,3.482,2.827,5.219-.777,8.322l-.309-.321a7.069,7.069,0,0,0,.878-7.816Z" transform="translate(-200.69 -163.771)" fill="#c1e9d1"/>
    <path id="Контур_574" data-name="Контур 574" d="M632.893,515.067q.418.4.837.8l-.2.182q-.4-.39-.811-.776Z" transform="translate(-200.722 -163.399)" fill="#c1e9d1"/>
    <path id="Контур_575" data-name="Контур 575" d="M464.924,97.516c1.993-.627,3.989-.981,5.47.963,1.321,1.736.854,3.513-.214,5.21-1.878.8-3.814,1.538-5.442-.362-1.654-1.929-1.118-3.912.186-5.811" transform="translate(-147.106 -30.778)" fill="#2545d8"/>
    <path id="Контур_576" data-name="Контур 576" d="M467.721,820.6c-2.779-3.052-2.477-3.6,2.345-4.8-.6,1.822-3.876,2-2.345,4.8" transform="translate(-147.819 -258.803)" fill="#814429"/>
    <path id="Контур_577" data-name="Контур 577" d="M494.059,107.666l4.464,0q.281.291.584.559c-1.859,1.366-3.739,1.576-5.646.1.2-.22.4-.439.6-.658" transform="translate(-156.545 -34.155)" fill="#814429"/>
    <path id="Контур_578" data-name="Контур 578" d="M491.846,106.309l1.527.927c-.2.218-.4.437-.6.657q-.738-.51-1.473-1.023.282-.27.544-.561" transform="translate(-155.86 -33.725)" fill="#814429"/>
    <path id="Контур_579" data-name="Контур 579" d="M491.166,106.739q-.148-.422-.3-.845c.279.1.558.192.838.285-.174.191-.355.378-.543.559" transform="translate(-155.723 -33.594)" fill="#814429"/>
    <path id="Контур_580" data-name="Контур 580" d="M500.874,107.487c.293-.3.619-.621.944-.1.063.1-.233.431-.361.655q-.3-.266-.582-.558" transform="translate(-158.897 -33.98)" fill="#814429"/>
    <path id="Контур_581" data-name="Контур 581" d="M554.024,485.687c-1.135,1.238-1.047,3.808-3.7,3.394-2.915.864-5.905.2-8.849.43-3.795.3-6.567-1.106-8.111-4.676-.017-2.3-.537-4.695.449-6.84,1.151-2.506,3.179-4.185,6.126-3.8,4.594.6,10.123-2.216,13.465,3.084,1.573,2.5.554,5.582.619,8.406" transform="translate(-169.156 -150.364)" fill="#5cc57f"/>
    <path id="Контур_582" data-name="Контур 582" d="M532.3,489.881c1.544,3.569,4.316,4.978,8.111,4.676,2.944-.235,5.934.434,8.849-.43-5.56,5.125-16.882,3.154-19.407-3.379.589-.93,1.571-.748,2.447-.866" transform="translate(-168.09 -155.409)" fill="#040305"/>
    <path id="Контур_583" data-name="Контур 583" d="M485.032,508.692H473.995c0-.141,0-.282,0-.423h11.038c0,.141,0,.282,0,.423" transform="translate(-150.369 -161.243)" fill="#dcf4e4"/>
    <path id="Контур_584" data-name="Контур 584" d="M475.257,502.213h10.217c0,.143,0,.285,0,.428H475.3c-.013-.143-.025-.285-.038-.428" transform="translate(-150.77 -159.322)" fill="#dcf4e4"/>
    <path id="Контур_585" data-name="Контур 585" d="M471.887,505.109c.058.1.165.21.156.306s-.134.178-.209.267c.017-.191.035-.382.053-.573" transform="translate(-149.684 -160.24)" fill="#dcf4e4"/>
    <path id="Контур_586" data-name="Контур 586" d="M627.332,515.283q.407.387.811.776a7.075,7.075,0,0,1-.881,7.818,28.107,28.107,0,0,1-10.171,0,21.553,21.553,0,0,0-1.342-8.773l11.583.184" transform="translate(-195.34 -163.41)" fill="#5cc57f"/>
  </g>
</svg>
