<svg id="Сгруппировать_42" data-name="Сгруппировать 42" xmlns="http://www.w3.org/2000/svg" xmlns:xlink="http://www.w3.org/1999/xlink" width="963.506" height="853.87" viewBox="0 0 963.506 853.87">
  <defs>
    <clipPath id="clip-path">
      <rect id="Прямоугольник_3" data-name="Прямоугольник 3" width="963.506" height="853.87" fill="none"/>
    </clipPath>
    <clipPath id="clip-path-2">
      <rect id="Прямоугольник_2" data-name="Прямоугольник 2" width="176.253" height="177.554" fill="none"/>
    </clipPath>
  </defs>
  <g id="Сгруппировать_5" data-name="Сгруппировать 5" clip-path="url(#clip-path)">
    <path id="Контур_1" data-name="Контур 1" d="M467.434,334.3l4.441.232,44.472,8.949,2.82,2.527c2.3,2.825,4.57,5.672,6.9,8.473,20.881,25.131,41.858,50.185,62.63,75.406,14.724,17.878,30.255,35.094,44.093,53.7-2.262.884-4.514,1.788-6.784,2.646-17.982,6.809-36.1,13.305-52.927,22.8-2.354.58-4.7,1.163-6.158,3.382-8.693,1.657-16.113,6.495-24.077,9.919-4.782,2.056-6.544.988-8.518-3.472-3.817-8.624-7.043-17.561-12.206-25.552a4.763,4.763,0,0,0-.115-1.45c-7.357-17.819-16.7-34.64-26.087-51.425-1.932-3.455-5.3-4.9-9.33-4.483q1.693-5.609,3.387-11.218c2.5-2.6,2.871-6.131,4.035-9.313,9.52-2.1,13.059-5.715,13.9-14.2,1.236-12.48-10.508-32.135-22.35-37.4-2.678-1.792-5.676-3.147-8.838-2.876-5.915.505-8.287-1.332-8.78-7.763-.6-7.848-6.963-12.966-14.962-13.68-7.371-.659-12.955,2.456-15.73,9.372-1.14,2.842-2.34,3.8-5.465,4.372-5.843,1.073-8.1,5.652-6.108,11.058,1.215,3.29.638,5.548-.21,8.7-2,7.453,1.37,13.932,6.337,19.311,4.114,4.453,9.381,6.535,15.217,3.429,3.581-1.9,3.467,1.2,4.473,2.683,3.909,5.761,9.181,8.94,16.22,8.992,4.337.114,3.026,2.573,1.935,4.812-2.505,5.136-5.084,10.236-7.632,15.352-4.467-2.426-8.661-5.206-14.221-5-13.63.506-24.484,6.484-32.5,17.021-10.209,13.418-17.414,28.694-25.012,43.675-.719,1.417-.553,3.282-.8,4.939-3.227.7-3.631,3.666-4.675,6.021-3.838,8.658-7.549,17.373-11.349,26.048-6.49,14.817-4.894,23.413,6.512,34.8l-28.433.35c-.344-2.038-1.114-3.783-3.177-4.644-1.917-4.691-3.881-9.349-8.832-11.762.037-2.149-.026-4.231-2.938-4.419.047-2.158-.042-4.225-2.948-4.41-3.2-11.012-10.133-19.672-17.644-27.966q-.735-.737-1.472-1.472c.039-2.153-.065-4.209-2.947-4.409a3.035,3.035,0,0,0-1.472-2.939l-1.475-1.474c.134-2.519-.358-4.723-2.947-5.876a4.638,4.638,0,0,0-2.94-4.417,2.737,2.737,0,0,0-2.946-2.943c-1.827-7.666-6.724-13.443-11.762-19.134a2.742,2.742,0,0,0-2.945-2.943,11.4,11.4,0,0,0-5.883-10.3,98.813,98.813,0,0,0-16.184-25.009q-.734-.737-1.47-1.473l-1.473-1.474c.033-2.148-.053-4.215-2.943-4.411.033-2.15-.065-4.211-2.951-4.407.034-2.148-.033-4.228-2.941-4.415-1.831-7.663-6.722-13.443-11.771-19.125a4.611,4.611,0,0,0-2.943-4.42,4.58,4.58,0,0,0-2.943-4.409,2.744,2.744,0,0,0-2.943-2.945c-1.959-7.584-6.2-13.765-11.774-19.122-1.509-6.077-5.5-10.51-9.929-14.647,3.126,5,3.788,11.644,9.962,14.614,1.831,7.662,6.72,13.445,11.764,19.132a2.754,2.754,0,0,0,2.946,2.94c-.032,2.147.025,4.233,2.943,4.414-.046,2.156.041,4.224,2.945,4.413,1.3,7.991,6.155,13.792,11.768,19.128a4.583,4.583,0,0,0,2.943,4.418,4.6,4.6,0,0,0,2.938,4.419,4.577,4.577,0,0,0,2.939,4.412q.737.735,1.475,1.472l1.473,1.47c2.825,10,8.475,18.172,16.184,25.011,0,4.557,2.634,7.6,5.885,10.3a2.744,2.744,0,0,0,2.944,2.944c1.854,7.648,6.712,13.449,11.777,19.119a2.741,2.741,0,0,0,2.944,2.945c-.028,2.145,0,4.249,2.945,4.412-.153,2.526.3,4.751,2.933,5.89l1.474,1.474a3.037,3.037,0,0,0,1.467,2.947,4.6,4.6,0,0,0,2.937,4.415l1.473,1.472c3.523,10.809,10.963,19.144,17.668,27.943a1765.43,1765.43,0,0,0,5.885,8.833c1.906,4.7,3.883,9.346,8.826,11.768q0,2.211,0,4.423l-300.327.132c-3.406-28.933-6.675-57.883-10.274-86.791-2.023-16.249-2.8-32.658-6.19-48.732.3-2.5,2.405-3.5,4.031-4.946,12.825-11.442,27.355-20.532,41.481-30.18l3.019-1.8c14.954-8.181,30.076-16.033,45.844-22.546,10.541-4.353,21.185-8.457,31.783-12.671,5.838-1.451,11.744-2.673,17.5-4.4,13.435-4.034,27.589-5.15,40.771-10.169l2.974-.152a31.24,31.24,0,0,0,4.373-.2,506.381,506.381,0,0,1,81.7-8.465c12.451-.255,24.911-.1,37.366-.124l3.027,0c16.129-.742,32.2.76,48.263,1.646,11.845.654,23.585,3.111,35.43,3.868,12.872.823,25.444,3.721,38.273,4.644" transform="translate(4.679 47.968)" fill="#d0d9f6"/>
    <path id="Контур_2" data-name="Контур 2" d="M628.238,194.233c-7.82-.06-15.644-.285-23.459-.11-4.048.091-6.871-1.015-9.123-4.624-15.581-24.979-21.727-51.983-18.222-81.248,4.5-37.585,23.781-65.985,54.017-87.675,14.976-10.421,31.687-16.144,49.7-18.352,2.029.039,4.194.747,5.831-1.169l23.618.055c1.179,1.475,2.8,1.251,4.384,1.129C741.733,5,765.441,16.182,783.741,34.786c32.182,32.716,44.446,72.591,33.8,118.275-2.846,12.217-8.365,23.29-14.343,34.212-2.186,3.994-5.042,5.122-9.456,5.118-18.862-.015-37.724.349-56.585.574-2.622-.559-5.241-1.1-7.537.944-2.822-.125-5.061.168-5.252,3.938-.3,5.948-1.251,11.871-.231,17.833q-.37.387-.749.768-1.211-.251-2.426-.5.639-11.64,1.277-23.281c2.614-.263,2.786-2.073,2.932-4.2q2.051-29.979,4.247-59.948c1.307-18.037,2.8-36.062,3.907-54.111.383-6.266,1.507-12.667-1.659-18.925q-4.741,68.551-9.483,137.1l-22.06-1.916q0-67.777,0-135.553l-2.784.017V190.809c-7.42-.312-14.724.846-22.051,1.724q-4.686-68.575-9.373-137.15c-3.019,2.363-2.337,4.861-2.2,7.2,1.479,24.632,2.977,49.263,4.66,73.881,1.15,16.815,2.588,33.61,3.932,50.411.181,2.267-.711,5.2,2.975,5.663q1.166,16.283,2.331,32.567c-5.409,3.964-2.129,9.476-1.843,13.954,3.128,49,6.707,97.964,10.143,146.942.73,10.412.691,10.383-10.185,11.458a12.721,12.721,0,0,0-3.293,1.318l-24.385-.04c-18.16.125-36.332-.607-54.476.707-2.486.5-3.487-1.41-4.534-2.98-31.764-47.68-29.972-109.617,5.926-155.32a11.029,11.029,0,0,1,2.311-1.728q36.612-6.79,73.229-13.547c3.261-.6,4.525-2.11,4.212-5.473-.629-6.785-1.145-13.592-1.381-20.4-.155-4.433-1.65-6.844-6.452-6l-38.655.237m3.544-118.62c-3.769-4.215-8.785-4.584-13.889-4.24-2.1.141-4.665.6-4.984,3.325a4.983,4.983,0,0,0,3.162,5.256c4.463,1.866,9.128,3.647,13.957,3.482,3.645-.124,6.977-1.778,3.216-6.325l-1.462-1.5m-6.815-14.336c.233.723.335,2.357,1.168,3.413,5.044,6.395,12.1,10.369,18.617,14.967,1.531,1.081,2.707-.108,3.131-1.771,1.68-6.6-7.475-22.012-14.108-23.776-5.174-1.374-8.875,1.336-8.808,7.166" transform="translate(83.894 0.156)" fill="#5bc57f"/>
    <path id="Контур_3" data-name="Контур 3" d="M744.827,180.545c39.494,22.095,61.648,55.747,67.741,100.488,4.13,30.318-3.488,57.846-18.165,83.975-2.193,3.9-4.965,5.747-9.9,5.7-19.554-.18-39.114.219-58.671.4-4.641-.156-9.309-.7-13.916-.375-8.235.579-16.428-1.452-24.665-.036-3.707.637-4.466-1.8-4.443-4.954.072-10.288,0-20.576.023-30.865q.124-70.541.265-141.081c6.32-1.463,12.6-3.184,19.149-3.3.1,2.932.436,5.877.258,8.792-1.461,23.932-2.94,47.862-4.568,71.784-1.81,26.611-3.845,53.209-5.608,79.823-.224,3.381-2,7.3,1.716,10.284,2.026-27.194,4.119-54.2,6.03-81.225,2.123-30.022,4.079-60.057,6.109-90.087q.377-.381.747-.768c1.893-.4,3.807-.712,5.674-1.2,10.661-2.812,21.939-2.913,32.227-7.351" transform="translate(101.108 26.735)" fill="#5bc57f"/>
    <path id="Контур_4" data-name="Контур 4" d="M569.9,480.735c-13.84-18.6-29.37-35.82-44.094-53.7-20.773-25.221-41.75-50.274-62.631-75.406-2.327-2.8-4.6-5.649-6.9-8.474a54.037,54.037,0,0,1,5.691,1.106,386.19,386.19,0,0,1,95.789,43.714c28.741,18.337,55.262,39.789,82.958,59.594,1.951,1.395,3.577,3.472,6.375,3.186a24.194,24.194,0,0,0,3.395,3.79q31.57,23.147,63.232,46.167l2.838,1.644c9.334,8.022,19.4,15.065,29.538,22a5.245,5.245,0,0,0,4.3,3.086c6,6.335,13.482,10.614,21.119,15.768,2.1-6.11-.381-12.019,1.7-17.4-.121,11.693-.346,23.433,13.054,29.057q-55.18.033-110.361.062c2.53-36.66-32.926-68.429-60.072-71.81-6.957-5.473-14.971-6.558-23.545-6.147-7.647.367-14.939,2.451-22.391,3.759" transform="translate(67.565 50.814)" fill="#90a0ea"/>
    <path id="Контур_5" data-name="Контур 5" d="M686.65,192.1q-.134,70.541-.264,141.083c-.018,10.288.049,20.577-.024,30.865-.022,3.154.736,5.59,4.444,4.953,8.237-1.416,16.43.614,24.665.036,4.607-.324,9.275.22,13.916.375-1.258,3.092-4,2.18-6.276,2.2-8.715.073-17.43.014-26.145,0-1.025-1.364-2.022-1.278-3,.054l-7.371.015-2.943-.028-7.343.013c-.98-1.356-1.963-1.4-2.949-.006-4.848-.528-9.875,1.193-14.576-1.165a12.72,12.72,0,0,1,3.292-1.319c10.876-1.073,10.915-1.046,10.185-11.458-3.436-48.977-7.015-97.945-10.142-146.941-.287-4.479-3.566-9.991,1.843-13.955l.336.09c-.42,8.343.721,16.6,1.3,24.893,2.716,39.271,5.256,78.554,7.937,117.827.582,8.529,1.5,17.036,2.228,25.556.227,2.665,1.555,3.884,4.266,3.877,2.955-.008,3.766-1.661,3.72-4.224-.034-1.959.014-3.918.014-5.878q0-69.432-.018-138.866c-.009-9.051-.273-18.1-.419-27.154a1.547,1.547,0,0,1,.5-.894q1.436.047,2.875.087l-.042-.038" transform="translate(97.551 28.438)" fill="#c2ead1"/>
    <path id="Контур_6" data-name="Контур 6" d="M733,500.327c11.755,7.109,21.741,16.539,32.589,24.839,2.317,1.773,4.666,3.5,7,5.254,8.245,6.713,16.66,13.23,24.664,20.219,3.909,3.413,9.335,5.313,11.383,10.716-1.752,2.476-2.971-.021-4.173-.608q-29.576-14.49-59.07-29.15c-13.4-5.62-13.174-17.361-13.054-29.054q.329-1.107.659-2.215" transform="translate(108.439 74.087)" fill="#050507"/>
    <path id="Контур_7" data-name="Контур 7" d="M681.072,348.621l2.943.028v95.223c1.89-11.131,2.088-22.309,3.127-33.41,1.926-20.579,3.7-41.157,4.245-61.827.975-1.332,1.972-1.418,3-.054-1.987,22.083-3.3,44.21-4.673,66.34s-3.179,44.223-4.474,66.361c-.4,6.789-1.146,13.59-1.245,20.42l-2.839-1.643c.312-9.267-1.017-18.51-1.944-27.623-.932-9.164-.192-18.43-2.143-27.584-1.064-4.985-1.519-10.684,1.173-16.761,2.46,4.7.4,9.11,2.833,12.753Z" transform="translate(100.134 51.471)" fill="#f9f5ee"/>
    <path id="Контур_8" data-name="Контур 8" d="M741.776,182.252c-10.288,4.438-21.565,4.539-32.227,7.351-1.867.493-3.781.808-5.674,1.2-1.02-5.962-.071-11.885.231-17.833.193-3.77,2.432-4.063,5.255-3.938l7.123,2.212c8.508,3.49,17.528,5.8,25.292,11" transform="translate(104.159 25.027)" fill="#050507"/>
    <path id="Контур_9" data-name="Контур 9" d="M715.717,171.434l-7.123-2.211c2.3-2.04,4.914-1.5,7.536-.945q-.207,1.581-.413,3.156" transform="translate(104.926 24.843)" fill="#c2ead1"/>
    <path id="Контур_10" data-name="Контур 10" d="M672.2,1.21c-1.637,1.916-3.8,1.208-5.831,1.169C667.993.4,669.7-1.189,672.2,1.21" transform="translate(98.674 0)" fill="#c2ead1"/>
    <path id="Контур_11" data-name="Контур 11" d="M713.019,504.075a5.247,5.247,0,0,1-4.3-3.086c2.17,0,4.254.126,4.3,3.086" transform="translate(104.945 74.185)" fill="#dbf3e4"/>
    <path id="Контур_12" data-name="Контур 12" d="M696.4,2.363c-1.59.123-3.205.347-4.385-1.129,2.146-2.279,3.181-.251,4.385,1.129" transform="translate(102.472 0.031)" fill="#c2ead1"/>
    <path id="Контур_13" data-name="Контур 13" d="M698.5,670.723c-4.841-14.963-11.189-29.088-22.316-40.61-16.439-17.025-36.391-25.788-60.131-25.476-6.8.088-13.645-.8-20.406.635-9.913-.693-19.83-1.289-29.627,1.036-35.148,8.341-57.74,30-68.236,64.448-10.295-.068-20.588-.179-30.883-.2q-78.325-.131-156.648-.222-.124-68.533-.247-137.068.16-.586.3-1.173l28.43-.354c6.3,3.887,13.272,4.929,20.517,4.794,9.7,1.084,19.388,2.3,29.1,3.225,20.954,2,41.921,3.853,62.882,5.766a14.5,14.5,0,0,1,1.063,2.729c1.094,6.236,2.673,11.061,10.609,12.488a143.092,143.092,0,0,0,19.158,2.045c7.063.32,7.742-2.58,7.77-8.053.038-7.426-3.13-14.275-3.393-21.606l17.853.052c5.114,18.676,13.555,25.088,33.041,25.091,8.293,0,16.6-.285,24.875.072,10.079.436,18.686-2.281,25.417-10.04l6.415-4.689c.581,4.147,3.32,5.777,7.153,6.133.93,3.775,3.58,5.468,7.225,5.957.666,2.083,1.664,3.692,4.333,3.49-.146-2.858-1.954-3.447-3.776-4.021-2.1-2.428-4.019-5.091-7.454-5.807q-3.16-3.145-6.318-6.293,4.207-5.642,8.412-11.283c2.064,1.843,4.612,1.354,7.014,1.364,11.267.045,22.536.094,33.8-.034,2.241-.025,5.411,1.341,6.475-1.7.828-2.365-1.9-3.685-3.224-5.365-7.215-9.177-16.108-17.033-21.657-27.519,1.228-1.742,3.8-1.412,4.9-2.527,3.119-3.155,10.27-1.761,9.933-8.7q.224-.424.417-.867c3.318-.034,3.837-2.455,4.241-4.972,22.344,10.637,36.323,27.053,36.581,52.948h-18.68a14.638,14.638,0,0,0,5.975,4.8q30.187,15.148,60.4,30.248a69.221,69.221,0,0,1,28.537,25.7c2.3,3.707,4.777,4.852,8.851,4.792,12.732-.187,25.476-.317,38.2.019,9.7.256,17.616,4.41,22,13.437,4.013,8.266,3.638,16.7-1.309,24.5-1.821,2.872-3.657,6.64-8.351,5.74,1.56-1.827,3.212-3.583,4.662-5.494,5.061-6.668,7.178-13.942,3.473-21.912-3.435-7.388-9.157-12.388-17.53-12.532-15.154-.261-30.317.1-45.478.2-2.585-3.643-6.21-3.376-9.868-2.449-11.063,2.807-18.855,14.74-17.333,26.389,1.416,10.832,11.535,19.835,22.629,20.127,3.164.084,6.328.154,9.491.23q-2.642,11-5.286,21.993l-63.994.517m-339.58-89.95c.056.255.112.509.168.763h43.544c0-.255,0-.509,0-.763Zm256.138-19.6c.241.367.4.9.711,1s.767-.2,1.159-.327q-.482-.7-.963-1.394l-.907.716" transform="translate(45.905 71.295)" fill="#90a0ea"/>
    <path id="Контур_14" data-name="Контур 14" d="M1,525.489c100.109-.044,251.81-.088,351.919-.132l1.507,1.429-.241,137.042-127.366.243c-.5-1.373-1.056-2.727-1.486-4.12-13.243-42.955-49.036-68-100.522-61.095a99.438,99.438,0,0,0-38.006,2.894c-8.733,2.46-16.251,7.431-24.538,10.762q-.964-6.615-1.929-13.226c5.806-6.406,3.533-14.293,3.944-21.681.254-4.559-.476-9.511,5.246-11.568,5.19,8.791,12.14,14.49,23.1,13.147a5.261,5.261,0,0,1,1.867-.6c11.047,1,19.377-6.607,19.733-18.078.349-11.282-7.558-19.234-18.713-18.816-14.436-3.476-24.917,3.99-25.175,17.934-5.855,2.293-8.381,7.087-9.619,12.834-.5,2.316.2,5.024-2.234,6.691C56.522,561.264,2.965,543.377,1,525.489" transform="translate(0.148 77.793)" fill="#90a0ea"/>
    <path id="Контур_15" data-name="Контур 15" d="M223.136,567.9c0,.254,0,.507-.006.761h42.219c0-.254-.006-.508-.009-.761Z" transform="translate(33.04 84.093)" fill="#90a0ea"/>
    <path id="Контур_16" data-name="Контур 16" d="M440.425,423.223c4.027-.411,7.4,1.03,9.33,4.484,9.389,16.785,18.73,33.605,26.087,51.425a4.763,4.763,0,0,1,.115,1.45c-5.866.127-11.731.378-17.594.335-3.084-.022-5.17,1.076-6.317,3.923-2.092,5.192-4.782,10.243-3.8,16.159-2.434,3.623-2.386,7.868-3,11.947-23.939-1.512-47.479-6.12-71.22-9.162l1.66-12.976q.215-.772.433-1.542.5-.792,1.01-1.586,1.624-4.97,3.247-9.942c4.223-4.728,6.453-10.4,7.918-16.454a45.393,45.393,0,0,0-8.151,15.822l-22.281-.573c-2.726-2.068-5.512-1.8-8.333-.218l-6.215-.829c.246-1.657.079-3.522.8-4.939,7.6-14.981,14.8-30.258,25.013-43.675,8.016-10.537,18.871-16.515,32.5-17.021,5.56-.207,9.754,2.574,14.222,5,4.013,12.856,14,16.26,24.569,8.373" transform="translate(50.838 60.688)" fill="#e59db0"/>
    <path id="Контур_17" data-name="Контур 17" d="M345.881,467.02l6.21.828c2.728,1.907,5.514,1.739,8.337.219q11.139.286,22.28.568s.233.637.233.637q-1.622,4.972-3.244,9.937l-1.013,1.591q-.217.772-.432,1.542c-2.844,5.854-5.593,11.757-8.557,17.551-2.747,5.37.566,4.918,4.053,4.452,21.718.543,43.436,1.115,65.156,1.6,3.438.076,6.754.825,10.123,1.231,8.295,1,14.287,7.209,22.076,9.208l-.123-.1,1.594,1.594-.126-.125,1.6,1.6-.111-.13a39.191,39.191,0,0,0,9.6,15.514l.544.544c.263,7.332,3.43,14.181,3.393,21.606-.029,5.473-.707,8.373-7.77,8.053a143.092,143.092,0,0,1-19.158-2.045c-7.937-1.427-9.515-6.251-10.609-12.488a14.653,14.653,0,0,0-1.061-2.729c-1.551-7.9-5.908-11.295-14.369-10.969-25.86,1-51.744,1.366-77.619,1.978-7.244.134-14.214-.907-20.517-4.794-11.4-11.383-13-19.979-6.511-34.8,3.8-8.675,7.512-17.39,11.35-26.048,1.044-2.355,1.447-5.317,4.675-6.021m106.426,68.454c5.017,6.607,6,14.525,7.231,22.37,1.514-8.692.332-16.54-7.231-22.37m13.552,5.552c2.171,6.382,2.612,12.931,3.535,19.394a21.619,21.619,0,0,0-3.535-19.394m-1.278-4.622-1.481-1.318c-.155.571-.583,1.269-.393,1.677.218.471.986.687,1.514,1.013l.359-1.372" transform="translate(48.281 69.155)" fill="#814329"/>
    <path id="Контур_18" data-name="Контур 18" d="M577.388,531.454q-4.205,5.641-8.412,11.284a2.891,2.891,0,0,0-1.163.537q-3.208,2.345-6.415,4.691c-12.873,2.4-25.91.737-38.827,1.569-15.3.985-26.765-4.263-33.766-18.224-.363-2.391-.8-4.774-1.073-7.175-1.54-13.594-.036-26.2,11.718-35.4,1.452-2.219,3.8-2.8,6.158-3.38,19.183-1.372,38.379-3.269,57.418,1.377q4.474,3.515,8.947,7.037c7.442,11.752,5.1,24.909,5.415,37.685" transform="translate(72.148 71.637)" fill="#29b5d6"/>
    <path id="Контур_19" data-name="Контур 19" d="M.74,442.867c11.53-12.1,22-25.246,35.43-35.437,3.388,16.072,4.165,32.481,6.188,48.73,3.6,28.909,6.868,57.858,10.274,86.791q2.947,26.832,5.892,53.657c.062,3.649-.426,7.422.324,10.931.963,4.511-.821,6.612-4.792,7.254" transform="translate(0.11 60.331)" fill="#050507"/>
    <path id="Контур_20" data-name="Контур 20" d="M20.764,491.146q-.014-9.554-.026-19.107c0-21.361,0-21.361-20.738-23.743" transform="translate(0 66.382)" fill="#050507"/>
    <path id="Контур_21" data-name="Контур 21" d="M416.991,405.41c-7.041-.048-12.314-3.227-16.223-8.988-1.006-1.482-.891-4.588-4.473-2.682-5.836,3.1-11.1,1.023-15.217-3.43-4.968-5.379-8.341-11.857-6.337-19.311.848-3.155,1.425-5.411.21-8.7-2-5.406.265-9.985,6.109-11.057,3.124-.574,4.324-1.531,5.464-4.373,2.776-6.915,8.359-10.031,15.73-9.372,8,.715,14.358,5.832,14.962,13.68.495,6.432,2.866,8.268,8.78,7.763,3.163-.27,6.159,1.084,8.837,2.876-3.79,4.5-5.789,9.216-3.934,15.411,1.248,4.171-1.186,7.635-5.094,9.444-3.549,1.643-5.227-.751-6.686-3.63a5.416,5.416,0,0,0-6.684-3.093,3.924,3.924,0,0,0-2.9,3.807c-.22,3.226.578,5.856,4.443,6.229a1.639,1.639,0,0,0,.8.272q.474,4.352.945,8.7l.909,1.336c1.138,1.634,1.89,3.295.359,5.116" transform="translate(55.404 49.962)" fill="#050507"/>
    <path id="Контур_22" data-name="Контур 22" d="M507.253,490.562c-11.753,9.2-13.257,21.807-11.718,35.4.272,2.4.712,4.784,1.072,7.174-3.54.8-7.458-1.073-10.739,1.529l-17.851-.053q-.274-.27-.544-.543c-1.549-6.191-4.359-11.606-9.6-15.514l.111.129-1.6-1.6.126.124q-.8-.8-1.594-1.594l.123.1c-3.924-5.3-10.178-7.03-15.535-10.134l-4.761-13.716c-.986-5.915,1.7-10.966,3.8-16.158,1.148-2.847,3.233-3.945,6.317-3.923,5.863.041,11.729-.208,17.594-.336,5.163,7.992,8.389,16.928,12.206,25.553,1.974,4.459,3.737,5.528,8.518,3.472,7.965-3.425,15.384-8.263,24.079-9.921" transform="translate(64.344 69.812)" fill="#814329"/>
    <path id="Контур_23" data-name="Контур 23" d="M560.656,490.311c-19.039-4.649-38.234-2.752-57.418-1.38,16.826-9.493,34.944-15.989,52.926-22.8,2.27-.859,4.522-1.762,6.784-2.646,7.453-1.308,14.745-3.391,22.393-3.758,8.574-.412,16.587.674,23.549,6.147,2.96,6.156,6.239,12.175,8.031,18.827-.405,2.518-.924,4.939-4.242,4.972-.3-4.887-.5-9.806-4.618-13.375-.182-1.428.439-3.286-1.991-3.644-.588,2.023.592,2.881,2.1,3.55q2.046,7.166,4.093,14.334c.338,6.946-6.814,5.553-9.933,8.707-1.1,1.115-3.675.785-4.9,2.526-4.639-.156-6.82-2.833-8.042-7.107-1.271-4.443-2.784-8.885-5.825-12.559-7.658-8.855-10.847-8.833-17.819.344-1.882,2.478-3.4,5.232-5.088,7.86m45.781,5.537c.335-8.854-2.406-14.566-5.841-20.047,2.143,5.909,3.046,12.229,5.841,20.047" transform="translate(74.518 68.063)" fill="#814329"/>
    <path id="Контур_24" data-name="Контур 24" d="M409.415,386.834c-3.866-.373-4.664-3-4.443-6.231a3.924,3.924,0,0,1,2.9-3.807,5.417,5.417,0,0,1,6.684,3.094c1.459,2.879,3.138,5.272,6.686,3.629,3.908-1.808,6.342-5.273,5.094-9.444-1.854-6.2.145-10.911,3.934-15.411,11.842,5.271,23.587,24.926,22.351,37.405-.84,8.485-4.381,12.1-13.9,14.2-2.9-1.917-6.187-2.165-10.973-2.9l6.937,12.213q-1.695,5.611-3.387,11.219c-10.573,7.885-20.556,4.482-24.569-8.374,2.548-5.115,5.126-10.216,7.631-15.351,1.092-2.239,2.4-4.7-1.935-4.813,1.534-1.824.782-3.486-.356-5.118,1.673-.137,3.6.075,4.641-1.5,2.216-3.358,2.613-7.016-.807-9.642-1.825-1.4-5.025-4.55-6.491.828" transform="translate(59.962 53.11)" fill="#814329"/>
    <path id="Контур_25" data-name="Контур 25" d="M279.317,479.228c7.511,8.294,14.442,16.954,17.645,27.966l.03-.03c-6.7-8.8-14.144-17.133-17.668-27.943Z" transform="translate(41.36 70.962)" fill="#f9f5ee"/>
    <path id="Контур_26" data-name="Контур 26" d="M431.746,413.3l-6.937-12.213c4.786.735,8.07.984,10.973,2.9-1.165,3.182-1.536,6.709-4.037,9.313" transform="translate(62.904 59.392)" fill="#050507"/>
    <path id="Контур_27" data-name="Контур 27" d="M212.665,378c5.049,5.682,9.941,11.462,11.771,19.125l.028-.026c-5.613-5.336-10.47-11.138-11.769-19.128Z" transform="translate(31.491 55.968)" fill="#f9f5ee"/>
    <path id="Контур_28" data-name="Контур 28" d="M206.519,370.186c-5.045-5.686-9.933-11.468-11.764-19.13l-.033.033c5.577,5.356,9.815,11.537,11.775,19.121l.023-.024" transform="translate(28.834 51.983)" fill="#f9f5ee"/>
    <path id="Контур_29" data-name="Контур 29" d="M266.757,461.17c-5.065-5.672-9.922-11.47-11.776-19.119l-.02.018C260,447.76,264.9,453.538,266.724,461.2l.033-.033" transform="translate(37.754 65.457)" fill="#f9f5ee"/>
    <path id="Контур_30" data-name="Контур 30" d="M196.035,352.941c-6.173-2.97-6.835-9.615-9.962-14.615,4.432,4.138,8.42,8.572,9.929,14.648l.033-.033" transform="translate(27.553 50.098)" fill="#f9f5ee"/>
    <path id="Контур_31" data-name="Контур 31" d="M308.668,523.022c-4.944-2.421-6.919-7.069-8.826-11.768l-.03.025c4.953,2.413,6.915,7.071,8.833,11.762l.023-.019" transform="translate(44.395 75.705)" fill="#f9f5ee"/>
    <path id="Контур_32" data-name="Контур 32" d="M253.175,440.816c-3.251-2.7-5.89-5.743-5.885-10.3l-.017.015a11.4,11.4,0,0,1,5.883,10.3l.02-.02" transform="translate(36.615 63.75)" fill="#f9f5ee"/>
    <path id="Контур_33" data-name="Контур 33" d="M309.042,527.357l-1.51-1.429q0-2.213,0-4.423l-.023.019c2.063.861,2.833,2.6,3.177,4.644q-.141.591-.3,1.176c-.445-.008-.892,0-1.337.014" transform="translate(45.534 77.223)" fill="#f9f5ee"/>
    <path id="Контур_34" data-name="Контур 34" d="M273.3,471c-2.634-1.139-3.086-3.364-2.933-5.891l-.036.037c2.59,1.151,3.081,3.357,2.947,5.876Z" transform="translate(40.03 68.872)" fill="#f9f5ee"/>
    <path id="Контур_35" data-name="Контур 35" d="M275.468,474.107c2.882.2,2.986,2.256,2.948,4.409l.006-.007a4.6,4.6,0,0,1-2.938-4.415l-.016.014" transform="translate(40.79 70.202)" fill="#f9f5ee"/>
    <path id="Контур_36" data-name="Контур 36" d="M267.773,461.3a4.636,4.636,0,0,1,2.94,4.417l.037-.036c-2.941-.163-2.974-2.267-2.946-4.412Z" transform="translate(39.651 68.303)" fill="#f9f5ee"/>
    <path id="Контур_37" data-name="Контур 37" d="M231.005,406.739a4.575,4.575,0,0,1-2.94-4.412l-.015.013c2.891.2,2.977,2.264,2.944,4.411l.011-.011" transform="translate(33.769 59.575)" fill="#f9f5ee"/>
    <path id="Контур_38" data-name="Контур 38" d="M225.48,398.5c2.885.2,2.984,2.257,2.949,4.406l.015-.013a4.6,4.6,0,0,1-2.937-4.418Z" transform="translate(33.388 59.005)" fill="#f9f5ee"/>
    <path id="Контур_39" data-name="Контур 39" d="M207.539,370.309a4.582,4.582,0,0,1,2.943,4.409l.028-.023c-2.917-.18-2.975-2.267-2.943-4.413Z" transform="translate(30.732 54.83)" fill="#f9f5ee"/>
    <path id="Контур_40" data-name="Контур 40" d="M297.253,507.429c2.912.188,2.975,2.27,2.938,4.419l.03-.025a4.633,4.633,0,0,1-2.948-4.411Z" transform="translate(44.016 75.136)" fill="#f9f5ee"/>
    <path id="Контур_41" data-name="Контур 41" d="M297.653,507.982a4.626,4.626,0,0,1-2.938-4.422l-.03.03c2.906.185,3,2.251,2.948,4.41l.02-.017" transform="translate(43.636 74.566)" fill="#f9f5ee"/>
    <path id="Контур_42" data-name="Контур 42" d="M225.888,399.048a4.584,4.584,0,0,1-2.944-4.418l-.026.026c2.908.187,2.976,2.267,2.943,4.415l.028-.024" transform="translate(33.009 58.436)" fill="#f9f5ee"/>
    <path id="Контур_43" data-name="Контур 43" d="M213.074,378.538c-2.9-.189-2.99-2.257-2.945-4.413l-.026.023a4.61,4.61,0,0,1,2.941,4.42l.03-.03" transform="translate(31.111 55.399)" fill="#f9f5ee"/>
    <path id="Контур_44" data-name="Контур 44" d="M207.947,370.66A2.754,2.754,0,0,1,205,367.719l-.023.024a2.745,2.745,0,0,1,2.943,2.945l.028-.028" transform="translate(30.352 54.451)" fill="#f9f5ee"/>
    <path id="Контур_45" data-name="Контур 45" d="M268.184,461.649a2.74,2.74,0,0,1-2.944-2.944l-.033.032a2.738,2.738,0,0,1,2.946,2.943l.031-.031" transform="translate(39.271 67.924)" fill="#f9f5ee"/>
    <path id="Контур_46" data-name="Контур 46" d="M255.361,442.431a2.743,2.743,0,0,1-2.944-2.943l-.02.018a2.742,2.742,0,0,1,2.945,2.943l.018-.018" transform="translate(37.374 65.078)" fill="#f9f5ee"/>
    <path id="Контур_47" data-name="Контур 47" d="M274.186,471.548a3.033,3.033,0,0,1,1.472,2.939l.016-.014a3.034,3.034,0,0,1-1.466-2.947l-.022.022" transform="translate(40.601 69.822)" fill="#f9f5ee"/>
    <path id="Контур_48" data-name="Контур 48" d="M278.035,477.946q.735.735,1.472,1.472l.007-.007-1.473-1.472Z" transform="translate(41.171 70.772)" fill="#f9f5ee"/>
    <path id="Контур_49" data-name="Контур 49" d="M272.9,470.264l1.475,1.474.021-.022-1.474-1.474-.022.022" transform="translate(40.41 69.632)" fill="#f9f5ee"/>
    <path id="Контур_50" data-name="Контур 50" d="M231.9,407.466l1.47,1.473.017-.017-1.474-1.47Z" transform="translate(34.338 60.334)" fill="#f9f5ee"/>
    <path id="Контур_51" data-name="Контур 51" d="M232.1,407.642l-1.474-1.472-.011.011,1.473,1.474.013-.014" transform="translate(34.149 60.144)" fill="#f9f5ee"/>
    <path id="Контур_52" data-name="Контур 52" d="M622.484,450.124c1.892-10.519,8.474-18.492,14.593-26.685,8.359-11.193,14.464-23.15,13.545-37.658.94-7.9-.573-15.465-3.1-22.895q-3.875-7.722-7.751-15.443l24.385.041c4.7,2.358,9.729.638,14.576,1.165l5.442,75.073,1.772-.109c0-5.077.414-10.194-.072-15.222-1.923-19.878-3.595-39.767-4.192-59.734l7.343-.013v92.223c-2.433-3.643-.374-8.051-2.833-12.753-2.693,6.077-2.238,11.775-1.174,16.76,1.953,9.154,1.211,18.42,2.143,27.584.928,9.113,2.256,18.357,1.945,27.624q-31.63-23.066-63.232-46.167a24.143,24.143,0,0,1-3.395-3.791" transform="translate(92.175 51.448)" fill="#dbf3e4"/>
    <path id="Контур_53" data-name="Контур 53" d="M662.93,169.133c4.8-.845,6.3,1.567,6.451,6,.238,6.809.752,13.615,1.382,20.4.312,3.363-.952,4.877-4.212,5.473q-36.629,6.7-73.229,13.547c5.984-10.64,15.794-17.377,25.153-24.546,3.251-2.49,6.764-4.638,10.157-6.942,10.864-6.043,22.573-10,34.3-13.931" transform="translate(87.857 25.02)" fill="#050507"/>
    <path id="Контур_54" data-name="Контур 54" d="M644.572,347.456q3.875,7.722,7.751,15.443c-13.887-1.1-26.92-6.057-40.407-8.974-7.345-1.59-14.552-3.82-21.822-5.76,18.145-1.316,36.317-.582,54.477-.708" transform="translate(87.379 51.437)" fill="#050507"/>
    <path id="Контур_55" data-name="Контур 55" d="M658.938,169.111c-11.724,3.926-23.433,7.887-34.3,13.931-4.479-3.6-3.72-8.871-4.357-13.7q19.327-.115,38.655-.235" transform="translate(91.85 25.041)" fill="#dbf3e4"/>
    <path id="Контур_56" data-name="Контур 56" d="M683.452,195.86a1.568,1.568,0,0,0-.5.9,68.178,68.178,0,0,0-19.021,3.967l-.336-.088-2.332-32.569,0,0c7.326-.878,14.631-2.036,22.05-1.723l.2.267q-.031,14.626-.063,29.251" transform="translate(97.918 24.624)" fill="#050507"/>
    <path id="Контур_57" data-name="Контур 57" d="M702.261,192.62c-6.552.121-12.829,1.841-19.15,3.3l.042.038q-.238-14.762-.473-29.525l.25-.224,22.06,1.916.057.083q-.637,11.64-1.278,23.281l-1.51,1.129" transform="translate(101.089 24.612)" fill="#050507"/>
    <path id="Контур_58" data-name="Контур 58" d="M701.1,189.36l1.51-1.129,2.427.5c-2.03,30.03-3.986,60.065-6.109,90.088-1.91,27.021-4,54.03-6.031,81.224-3.715-2.982-1.939-6.9-1.715-10.284,1.763-26.615,3.8-53.211,5.608-79.823,1.627-23.92,3.107-47.852,4.568-71.782.178-2.915-.16-5.861-.258-8.792" transform="translate(102.256 27.873)" fill="#c2ead1"/>
    <path id="Контур_59" data-name="Контур 59" d="M662.777,185.53c-3.685-.467-2.793-3.4-2.975-5.663-1.344-16.8-2.782-33.6-3.932-50.41-1.683-24.619-3.181-49.25-4.66-73.882-.141-2.336-.822-4.836,2.2-7.2q4.686,68.575,9.373,137.149Z" transform="translate(96.405 7.164)" fill="#c2ead1"/>
    <path id="Контур_60" data-name="Контур 60" d="M702.114,185.564q4.741-68.551,9.483-137.1c3.166,6.258,2.042,12.659,1.66,18.925-1.1,18.049-2.6,36.074-3.908,54.111q-2.172,29.97-4.247,59.948c-.146,2.125-.318,3.936-2.931,4.2l-.057-.083" transform="translate(103.967 7.176)" fill="#c2ead1"/>
    <path id="Контур_61" data-name="Контур 61" d="M680.473,183.837V48.159l2.785-.018V183.7l-.25.223-2.338.186-.2-.267" transform="translate(100.762 7.129)" fill="#c2ead1"/>
    <path id="Контур_62" data-name="Контур 62" d="M617.434,54.479c-.067-5.829,3.634-8.541,8.808-7.165,6.632,1.762,15.787,17.176,14.106,23.776-.422,1.662-1.6,2.852-3.13,1.77-6.515-4.6-13.574-8.572-18.617-14.966-.832-1.057-.935-2.69-1.168-3.414m19.161,13.7c-1.092-6.913-3.333-12.334-8.07-16.431-2.4-2.078-5.551-2.657-7.848-.161-2.427,2.637-.142,5.208,1.772,6.823,4.148,3.5,8.237,7.216,14.147,9.769" transform="translate(91.428 6.954)" fill="#c2ead1"/>
    <path id="Контур_63" data-name="Контур 63" d="M627.275,68.045c3.757,4.556.424,6.21-3.221,6.335-4.829.164-9.493-1.616-13.957-3.482a4.983,4.983,0,0,1-3.161-5.257c.318-2.724,2.887-3.184,4.984-3.325,5.1-.344,10.119.025,13.888,4.24l-1.075,1.13c-3.567-1.4-7.018-3.261-11-3.168-1.749.04-3.7.342-2.891,2.836,1.026,3.176,12.589,4.359,15.345,1.666q.563-.463,1.084-.975" transform="translate(89.868 9.213)" fill="#c2ead1"/>
    <path id="Контур_64" data-name="Контур 64" d="M623.508,66q.73.749,1.464,1.494c-.343.336-.7.661-1.079.968q-.728-.666-1.459-1.332L623.508,66" transform="translate(92.168 9.772)" fill="#c2ead1"/>
    <path id="Контур_65" data-name="Контур 65" d="M588.372,623.256c.471,1.627,1.123,3.137,3.006,3.5.815.158,1.41-.312,1.179-1.189-.489-1.855-2.071-2.372-3.7-2.781-17.5-14.667-49.273-15.121-64.316-2.2,2.223,1.107,3.684-.707,5.368-1.365,13.066-5.1,26.231-6.581,40.092-2.991,6.479,1.678,11.751,6.017,18.367,7.022m-71.227,1.933c-5.131,3.125-9.931,6.556-11.764,12.713,4.6-3.614,9.378-7.064,11.764-12.713m3.445-1.216c.4-.188.937-.281,1.143-.595.165-.249-.077-.767-.139-1.164l-1.582.684.578,1.075" transform="translate(74.835 90.522)" fill="#f9f5ee"/>
    <path id="Контур_66" data-name="Контур 66" d="M856.015,646.541c-3.812,11.783-13.546,18.482-22.32,26.007-15.653,10.195-32.711,14.374-51.469,14.139-41.612-.522-83.237-.3-124.852-.011-6.564.046-8.66-1.549-7.584-8.209,1.732-10.721.055-21.432-1.395-32.089q32-.255,64-.514c3.409.147,6.816.412,10.225.42q66.7.16,133.4.257" transform="translate(96.012 95.637)" fill="#cc3e64"/>
    <path id="Контур_67" data-name="Контур 67" d="M454.818,339.722l-.774,1.512c-.439-.861-.25-1.4.774-1.512" transform="translate(67.201 50.305)" fill="#90a0ea"/>
    <path id="Контур_68" data-name="Контур 68" d="M860.537,664.058q-66.7-.12-133.4-.257c-3.409-.008-6.817-.274-10.226-.42q2.643-11,5.286-21.993l-.145-.2,42.6-.124c3.039-.408,6.575.065,7.451-4.189l.045-.04c4.694.9,6.53-2.869,8.351-5.74,4.947-7.8,5.321-16.237,1.309-24.5-4.385-9.029-12.295-13.182-22-13.438-12.728-.336-25.471-.205-38.2-.018-4.073.06-6.549-1.085-8.852-4.793a69.207,69.207,0,0,0-28.536-25.694q-30.233-15.053-60.4-30.25a14.639,14.639,0,0,1-5.976-4.8H636.53l15.456.033q55.18-.029,110.361-.061,29.522,14.6,59.071,29.146c1.2.589,2.42,3.085,4.172.608,12.834,7.824,26.057,15.186,34.388,28.445,1.673,2.662,3.787,5.12,4.2,8.418-13.323,1.983-21.229,12.179-20.142,25.971,1.024,12.981,11.142,21.476,25.16,21.124-.365,8.552-3.715,15.969-8.659,22.781M831.6,618.429c-.006-.478-.01-.954-.016-1.432H795.389q0,.716,0,1.432Z" transform="translate(91.489 78.12)" fill="#29b5d6"/>
    <path id="Контур_69" data-name="Контур 69" d="M655.33,536.881l-15.456-.033c-.258-25.895-14.237-42.311-36.581-52.948-1.792-6.652-5.07-12.671-8.031-18.827,27.143,3.381,62.6,35.148,60.067,71.809" transform="translate(88.145 68.866)" fill="#050507"/>
    <path id="Контур_70" data-name="Контур 70" d="M663.6,196.8a68.127,68.127,0,0,1,19.02-3.965c.147,9.049.411,18.1.419,27.152q.065,69.432.02,138.866c0,1.959-.048,3.918-.014,5.877.045,2.564-.766,4.216-3.72,4.224-2.712.008-4.039-1.212-4.266-3.877-.728-8.52-1.646-17.026-2.228-25.556-2.681-39.273-5.22-78.556-7.937-117.826-.574-8.295-1.716-16.551-1.294-24.894" transform="translate(98.25 28.554)" fill="#5bc57f"/>
    <path id="Контур_71" data-name="Контур 71" d="M690.381,348.5c-.543,20.669-2.318,41.248-4.244,61.827-1.039,11.1-1.238,22.28-3.126,33.409V348.514l7.371-.014" transform="translate(101.138 51.605)" fill="#dcf4e4"/>
    <path id="Контур_72" data-name="Контур 72" d="M674.431,348.633c.6,19.969,2.269,39.857,4.192,59.734.486,5.03.072,10.146.072,15.222l-1.772.109-5.442-75.073c.986-1.394,1.969-1.349,2.949.007" transform="translate(99.431 51.471)" fill="#f9f5ee"/>
    <path id="Контур_73" data-name="Контур 73" d="M680.653,166.592q1.169-.093,2.339-.186.234,14.764.472,29.526-1.438-.041-2.875-.087.033-14.629.064-29.253" transform="translate(100.779 24.641)" fill="#5bc57f"/>
    <path id="Контур_74" data-name="Контур 74" d="M514.42,646.4a103.989,103.989,0,0,0-.959,40.2q-95.862-.045-191.728-.091c-38.689-.014-77.378-.091-116.066.1-5.324.026-7.79-.994-6.627-6.9,2.216-11.235.087-22.371-1.347-33.5l127.368-.243,1.827.011q78.324.107,156.647.222c10.295.017,20.59.129,30.884.2" transform="translate(29.274 95.653)" fill="#cc3e64"/>
    <path id="Контур_75" data-name="Контур 75" d="M704.455,588.162c15.159-.1,30.324-.458,45.478-.2,8.372.145,14.095,5.145,17.53,12.532,3.7,7.97,1.587,15.244-3.473,21.912-1.45,1.91-3.1,3.667-4.662,5.494l-.045.04a12.3,12.3,0,0,0-7.326,2.746l-42.384-.3c.2-14.307.6-28.639-5.118-42.229" transform="translate(104.314 87.05)" fill="#29b5d6"/>
    <path id="Контур_76" data-name="Контур 76" d="M575.006,479.209c3.039,3.675,4.552,8.117,5.823,12.56,1.223,4.273,3.4,6.951,8.042,7.107,5.545,10.488,14.438,18.344,21.653,27.521,1.32,1.68,4.052,3,3.224,5.365-1.064,3.04-4.234,1.674-6.475,1.7-11.266.129-22.534.079-33.8.034-2.4-.01-4.948.479-7.014-1.364-.315-12.775,2.028-25.932-5.412-37.686l1.647-1.876a42.628,42.628,0,0,0,4.349.276c3.042-.1,7.194,1.024,8.182-2.794.925-3.575-2.713-5.2-5.538-6.663.884-2.526,3.631-2.678,5.32-4.178" transform="translate(83.078 70.96)" fill="#d0d9f6"/>
    <path id="Контур_77" data-name="Контур 77" d="M707.988,588.517c5.72,13.59,5.321,27.921,5.118,42.229q-.172.933-.343,1.866l.145.2c-3.163-.076-6.327-.146-9.491-.23-11.094-.292-21.213-9.295-22.63-20.127-1.521-11.648,6.271-23.581,17.334-26.389,3.658-.928,7.282-1.194,9.868,2.449" transform="translate(100.781 86.695)" fill="#fbfbf8"/>
    <path id="Контур_78" data-name="Контур 78" d="M479.247,526.711c3.281-2.6,7.2-.731,10.738-1.528,7,13.961,18.465,19.208,33.768,18.224,12.917-.832,25.953.835,38.827-1.571-6.731,7.758-15.337,10.475-25.417,10.039-8.278-.357-16.583-.07-24.875-.072-19.485,0-27.927-6.416-33.04-25.091" transform="translate(70.965 77.767)" fill="#050507"/>
    <path id="Контур_79" data-name="Контур 79" d="M352.908,529.694c25.875-.613,51.759-.98,77.619-1.978,8.461-.327,12.818,3.065,14.369,10.969-20.964-1.914-41.931-3.767-62.885-5.767-9.715-.927-19.4-2.14-29.1-3.224" transform="translate(52.257 78.139)" fill="#050507"/>
    <path id="Контур_80" data-name="Контур 80" d="M310.459,663.658l-1.825-.013q.119-68.52.24-137.041c.447-.018.893-.022,1.34-.014q.122,68.533.246,137.068" transform="translate(45.702 77.975)" fill="#d0d9f6"/>
    <path id="Контур_81" data-name="Контур 81" d="M352.614,567.966h43.707c0,.255,0,.509,0,.763H352.782c-.055-.255-.111-.509-.168-.763" transform="translate(52.214 84.103)" fill="#dcf4e4"/>
    <path id="Контур_82" data-name="Контур 82" d="M594.542,474.164c4.115,3.569,4.32,8.488,4.619,13.375q-.193.443-.418.867-2.046-7.171-4.093-14.337Z" transform="translate(88.038 70.199)" fill="#050507"/>
    <path id="Контур_83" data-name="Контур 83" d="M563.978,540.613c3.434.719,5.352,3.381,7.453,5.809q-.27.276-.56.533c-3.641-.492-6.291-2.185-7.218-5.964,0,0,.325-.378.325-.378" transform="translate(83.464 80.052)" fill="#d0d9f6"/>
    <path id="Контур_84" data-name="Контур 84" d="M557.42,535.672a2.876,2.876,0,0,1,1.163-.537q3.157,3.145,6.317,6.29l-.324.375c-3.836-.351-6.574-1.982-7.156-6.128" transform="translate(82.541 79.241)" fill="#d0d9f6"/>
    <path id="Контур_85" data-name="Контур 85" d="M570.5,545.673c1.822.574,3.63,1.162,3.776,4.019-2.669.2-3.668-1.408-4.333-3.49.189-.168.377-.344.557-.529" transform="translate(84.395 80.802)" fill="#d0d9f6"/>
    <path id="Контур_86" data-name="Контур 86" d="M575.716,550.988l.907-.716q.482.7.963,1.394c-.393.126-.85.436-1.159.327s-.47-.637-.711-1" transform="translate(85.25 81.483)" fill="#d0d9f6"/>
    <path id="Контур_87" data-name="Контур 87" d="M121.9,589.462c41.216,7.683,69.026,36.611,74.645,77.647,4.923,35.96-15.2,72.56-49.081,89.124a75.426,75.426,0,0,1-22.929,7.291c-10.152,1.33-20.314,2.447-30.486.1-32.69-6.2-55.819-24.749-67.345-55.724-11.6-31.185-6.4-60.57,14.295-87.015,5.332-6.813,12.632-11.449,18.359-17.772,8.286-3.329,15.8-8.3,24.538-10.762a99.438,99.438,0,0,1,38.006-2.893M64.462,635.039l-1.505,1.433q-.794,1.435-1.587,2.87c-.961.164-1.908.417-1.992,1.587-.018.257.558.816.813.789,1.164-.125,1.363-1.114,1.557-2.053a3.109,3.109,0,0,0,1.525-2.879c.467-.511.936-1.023,1.4-1.538l1.467-1.448c.524-.471,1.047-.943,1.564-1.419l.552-.866-.887.535q-.723.765-1.442,1.535-.732.727-1.462,1.455m7.6-5.6c1.115-.277,2.24-.559,2.193-2.05a.676.676,0,0,0-.467-.46c-1.46-.086-1.871.944-2.135,2.1l-.53.922.94-.516m71.79-1.472,2.784,1.635c.439,2.049,1.92,3.378,3.343,4.711a58.519,58.519,0,0,1,8.51,75.542c-.766,1.155-1.908,2.341-.063,4.063a30.746,30.746,0,0,0,2.832-3.2c9.544-14.244,11.186-30.036,8.27-46.394-2.616-14.678-9.373-27.066-22.406-35.3l-2.84-1.572c-11.743-11.638-26.493-13.607-41.893-12.323-9.291.775-18.252,3.378-25.895,9.873,1.953,1.326,2.979.34,3.978-.176a60.994,60.994,0,0,1,40.421-6.088c8.395,1.569,15.422,5.877,22.959,9.225" transform="translate(3.057 87.189)" fill="#f9f5ee"/>
    <path id="Контур_88" data-name="Контур 88" d="M7,531.142c9.391.308,13.144-3.856,13.323-13.39s.078-19.081.1-28.618c13.036-.309,21.161,7.673,21.242,21.455.152,26.152,10.772,42.369,10.779,68.522,0,15.164-1.148-33.294,7.675,25.537l1.929,13.23c-5.727,6.324-13.027,10.959-18.359,17.772C23,662.1,17.792,691.479,29.4,722.664c11.526,30.976,34.656,49.522,67.339,55.723-8.236,2.367-16.758-.075-25.037,1.513H51.034a18.854,18.854,0,0,0-8.748,0l-39.814,0" transform="translate(0.366 72.428)" fill="#050507"/>
    <path id="Контур_89" data-name="Контур 89" d="M80.809,577.081c8.5-2.809,14.427-8,15.312-17.388.917-9.72-4.393-15.806-12.423-20.106,11.154-.417,19.06,7.535,18.71,18.817-.355,11.472-8.685,19.079-19.732,18.078a5.266,5.266,0,0,0-1.867.6" transform="translate(11.966 79.898)" fill="#050507"/>
    <path id="Контур_90" data-name="Контур 90" d="M223.136,567.9h42.2c0,.254.006.507.009.761H223.13c0-.254,0-.508.006-.761" transform="translate(33.04 84.093)" fill="#dcf4e4"/>
    <path id="Контур_91" data-name="Контур 91" d="M449.417,502.6c5.357,3.1,11.611,4.833,15.535,10.134-7.79-2-13.781-8.207-22.076-9.206-3.368-.406-6.683-1.155-10.123-1.232-21.719-.484-43.437-1.056-65.156-1.6.633-3.107.752-6.378,2.843-9.027,23.742,3.04,47.282,7.648,71.217,9.161a11.878,11.878,0,0,0,7.76,1.769" transform="translate(54.433 72.805)" fill="#050507"/>
    <path id="Контур_92" data-name="Контур 92" d="M371.094,493.343c-2.091,2.65-2.21,5.921-2.843,9.028-3.487.464-6.8.915-4.053-4.454,2.963-5.793,5.713-11.7,8.556-17.551l-1.66,12.977" transform="translate(53.779 71.131)" fill="#b6cce6"/>
    <path id="Контур_93" data-name="Контур 93" d="M439.865,502.958a11.878,11.878,0,0,1-7.76-1.769c.613-4.079.564-8.324,3-11.947q2.382,6.857,4.762,13.716" transform="translate(63.985 72.445)" fill="#b6cce6"/>
    <path id="Контур_94" data-name="Контур 94" d="M375.634,471.105s-.233-.642-.233-.637a45.392,45.392,0,0,1,8.151-15.817c-1.465,6.048-3.7,11.726-7.918,16.454" transform="translate(55.588 67.323)" fill="#cc3e64"/>
    <path id="Контур_95" data-name="Контур 95" d="M357.07,468.122c-2.823,1.52-5.609,1.688-8.339-.219,2.825-1.576,5.612-1.848,8.339.219" transform="translate(51.639 69.1)" fill="#cc3e64"/>
    <path id="Контур_96" data-name="Контур 96" d="M371.9,479.228l1.013-1.59q-.508.8-1.013,1.59" transform="translate(55.069 70.727)" fill="#b6cce6"/>
    <path id="Контур_97" data-name="Контур 97" d="M436.023,526.645c7.562,5.83,8.745,13.678,7.231,22.37-1.226-7.844-2.214-15.763-7.231-22.37" transform="translate(64.565 77.984)" fill="#050507"/>
    <path id="Контур_98" data-name="Контур 98" d="M447.827,531.481a21.62,21.62,0,0,1,3.535,19.394c-.923-6.464-1.364-13.012-3.535-19.394" transform="translate(66.313 78.7)" fill="#050507"/>
    <path id="Контур_99" data-name="Контур 99" d="M454.86,512.483c5.243,3.908,8.054,9.322,9.6,15.515a39.2,39.2,0,0,1-9.6-15.515" transform="translate(67.354 75.887)" fill="#050507"/>
    <path id="Контур_100" data-name="Контур 100" d="M446.962,527.625,446.6,529c-.528-.326-1.3-.542-1.514-1.013-.191-.409.238-1.107.393-1.677l1.481,1.318" transform="translate(65.9 77.934)" fill="#050507"/>
    <path id="Контур_101" data-name="Контур 101" d="M452.288,509.925l1.592,1.594-1.592-1.594" transform="translate(66.973 75.508)" fill="#050507"/>
    <path id="Контур_102" data-name="Контур 102" d="M453.566,511.2l1.6,1.6-1.6-1.6" transform="translate(67.163 75.697)" fill="#050507"/>
    <path id="Контур_103" data-name="Контур 103" d="M563.847,493.42,562.2,495.3q-4.476-3.515-8.949-7.034c1.687-2.623,3.207-5.378,5.089-7.856,6.971-9.178,10.161-9.2,17.818-.343-1.687,1.5-4.434,1.651-5.316,4.178-4.406,1.481-6.154,4.986-7,9.181" transform="translate(81.923 70.11)" fill="#050507"/>
    <path id="Контур_104" data-name="Контур 104" d="M408.838,383.591c1.466-5.378,4.666-2.228,6.491-.828,3.42,2.626,3.023,6.283.807,9.642-1.038,1.573-2.968,1.362-4.641,1.5l-.909-1.337c3.234-.612,4.494-2.649,3.908-5.763-.5-2.658-2.319-3.469-4.853-2.94a1.638,1.638,0,0,1-.8-.271" transform="translate(60.539 56.353)" fill="#cc3e64"/>
    <path id="Контур_105" data-name="Контур 105" d="M409.539,383.457c2.533-.529,4.353.282,4.853,2.94.584,3.115-.675,5.151-3.908,5.763q-.474-4.352-.945-8.7" transform="translate(60.643 56.758)" fill="#814329"/>
    <path id="Контур_106" data-name="Контур 106" d="M593.879,493.765c-2.8-7.817-3.7-14.137-5.841-20.047,3.435,5.481,6.177,11.193,5.841,20.047" transform="translate(87.075 70.147)" fill="#050507"/>
    <path id="Контур_107" data-name="Контур 107" d="M594.926,474.528c-1.506-.668-2.686-1.527-2.1-3.55,2.428.359,1.807,2.217,1.99,3.644l.108-.094" transform="translate(87.761 69.741)" fill="#050507"/>
    <path id="Контур_108" data-name="Контур 108" d="M636.313,67.8c-5.909-2.553-10-6.268-14.147-9.769-1.914-1.615-4.2-4.186-1.772-6.823,2.3-2.5,5.444-1.917,7.848.161,4.737,4.1,6.978,9.519,8.07,16.431" transform="translate(91.711 7.339)" fill="#5bc57f"/>
    <path id="Контур_109" data-name="Контур 109" d="M624.248,67.389q.73.666,1.459,1.333c-2.758,2.695-14.32,1.511-15.346-1.665-.807-2.494,1.142-2.8,2.891-2.836,3.978-.093,7.429,1.766,11,3.168" transform="translate(90.353 9.509)" fill="#5bc57f"/>
    <path id="Контур_110" data-name="Контур 110" d="M16.929,487.685l-.007-.11.007.11" transform="translate(2.506 72.199)" fill="#814329"/>
    <path id="Контур_111" data-name="Контур 111" d="M62.77,742.605c8.279-1.588,16.8.854,25.037-1.512,10.179,2.343,20.339,1.226,30.493-.1.186.647.379,1.295.568,1.943-18.706.436-37.409,1.231-56.1-.328" transform="translate(9.295 109.724)" fill="#5bc57f"/>
    <path id="Контур_112" data-name="Контур 112" d="M44.5,743.46l-3.328.267q-2.018-.632-4.026-1.264a18.862,18.862,0,0,1,8.751,0l-1.4.994" transform="translate(5.501 109.865)" fill="#5bc57f"/>
    <path id="Контур_113" data-name="Контур 113" d="M323.306,743.242l-3.076.193a.634.634,0,0,1,.3-.976q1.3-.084,2.581-.17a.8.8,0,0,1,.2.953" transform="translate(47.401 109.916)" fill="#5bc57f"/>
    <path id="Контур_114" data-name="Контур 114" d="M131.737,742.766a1.089,1.089,0,0,1,1.765-.239c-.49.814-1.078.889-1.765.239" transform="translate(19.507 109.9)" fill="#5bc57f"/>
    <path id="Контур_115" data-name="Контур 115" d="M836.827,588.163c5.76,13.683,7.359,27.764,4.057,42.316a22.6,22.6,0,0,1-9.294-1.351c-9.1-3.015-16.167-13.915-14.793-22.65,1.738-11.046,9.329-17.986,20.029-18.314" transform="translate(120.923 87.093)" fill="#29b5d6"/>
    <path id="Контур_116" data-name="Контур 116" d="M837.1,588.544c-10.7.328-18.291,7.268-20.029,18.314-1.374,8.736,5.7,19.636,14.793,22.65a22.6,22.6,0,0,0,9.294,1.351l-1.123,1.826c-14.018.354-24.136-8.141-25.16-21.124-1.087-13.792,6.818-23.987,20.142-25.969,1.619.333,2.164,1.421,2.084,2.952" transform="translate(120.649 86.713)" fill="#90a0ea"/>
    <path id="Контур_117" data-name="Контур 117" d="M585.892,623.263c-6.608-1.01-11.88-5.35-18.359-7.029-13.861-3.59-27.026-2.111-40.092,2.991-1.684.658-3.147,2.473-5.368,1.365,15.043-12.922,46.812-12.467,64.316,2.2Z" transform="translate(77.307 90.522)" fill="#b6cce6"/>
    <path id="Контур_118" data-name="Контур 118" d="M517.146,623.4c-2.387,5.648-7.166,9.1-11.766,12.713,1.835-6.157,6.634-9.588,11.766-12.713" transform="translate(74.835 92.311)" fill="#b6cce6"/>
    <path id="Контур_119" data-name="Контур 119" d="M578.158,621.31c1.625.409,3.207.925,3.7,2.781.231.877-.364,1.348-1.179,1.189-1.883-.366-2.535-1.876-3.009-3.5l.493-.471" transform="translate(85.539 92.002)" fill="#b6cce6"/>
    <path id="Контур_120" data-name="Контур 120" d="M518.7,622.569l-.578-1.075,1.582-.684c.062.4.3.915.139,1.164-.207.313-.746.406-1.143.595" transform="translate(76.722 91.928)" fill="#b6cce6"/>
    <path id="Контур_121" data-name="Контур 121" d="M808.7,606.895H772.486q0-.716,0-1.432h36.193c.006.478.01.954.016,1.432" transform="translate(114.387 89.655)" fill="#90a0ea"/>
    <path id="Контур_122" data-name="Контур 122" d="M708.614,626.774l.344-1.866,42.382.3q-.069.721-.125,1.443l-42.6.124" transform="translate(104.929 92.534)" fill="#d0d9f6"/>
    <path id="Контур_123" data-name="Контур 123" d="M745.721,626.965q.057-.722.125-1.443a12.287,12.287,0,0,1,7.327-2.746c-.877,4.255-4.412,3.782-7.452,4.189" transform="translate(110.424 92.219)" fill="#90a0ea"/>
    <g id="Сгруппировать_4" data-name="Сгруппировать 4" transform="translate(559.59 675.945)">
      <g id="Сгруппировать_3" data-name="Сгруппировать 3" clip-path="url(#clip-path-2)">
        <g id="Сгруппировать_2" data-name="Сгруппировать 2">
          <g id="Сгруппировать_1" data-name="Сгруппировать 1" clip-path="url(#clip-path-2)">
            <path id="Контур_124" data-name="Контур 124" d="M647.667,676.024c.192,43.131-30.534,80.419-72.031,87.4-10.566,1.354-21.132,2.9-31.726.088-3.783-.9-7.667-1.517-11.331-2.737-32.138-10.758-51.254-33.375-59.656-65.7a103.869,103.869,0,0,1,.971-40.2c10.492-34.448,33.081-56.1,68.236-64.438,9.8-2.325,19.7-1.737,29.622-1.045,43.587,7.019,75.74,43.69,75.917,86.644M613.674,706.97a60.968,60.968,0,0,0-4.4-67.028c-2.458-3.179-3.959-7.8-9.05-8.623-.456,2.9,1.677,3.752,2.854,5.15,10.33,12.2,16.085,25.885,15.893,42.233-.132,11.537-4.885,21.293-9.241,31.359-1.118.809-2.4,1.544-2.193,3.208a1.162,1.162,0,0,0,.956.6c1.752-.514,1.354-2.163,1.692-3.428,1.972-.339,2.635-1.986,3.488-3.473" transform="translate(-471.415 -588.763)" fill="#f9f5ee"/>
            <path id="Контур_125" data-name="Контур 125" d="M592.67,634.452a60.968,60.968,0,0,1,4.4,67.028c-.853,1.487-1.517,3.135-3.487,3.473l-.457-.382c4.356-10.065,9.109-19.821,9.241-31.359.192-16.349-5.561-30.034-15.893-42.233-1.178-1.4-3.31-2.251-2.855-5.15,5.092.824,6.592,5.444,9.052,8.623" transform="translate(-454.81 -583.274)" fill="#b6cce6"/>
            <path id="Контур_126" data-name="Контур 126" d="M600.815,742.408a1.153,1.153,0,0,1,.044,1.192c-.294-.367-.588-.75-.868-1.118.015,0,.4-.309.4-.309Z" transform="translate(-452.376 -566.047)" fill="#5bc57f"/>
            <path id="Контур_127" data-name="Контур 127" d="M592.177,694.415l.456.382c-.338,1.266.06,2.914-1.692,3.429a1.163,1.163,0,0,1-.956-.6c-.206-1.662,1.075-2.4,2.193-3.208" transform="translate(-453.861 -573.118)" fill="#b6cce6"/>
            <path id="Контур_128" data-name="Контур 128" d="M566.325,740.891c.206.618.412,1.25.6,1.869a127.44,127.44,0,0,1-32.448-.677.741.741,0,0,1,.118-1.1c10.594,2.811,21.16,1.265,31.726-.088" transform="translate(-462.105 -566.236)" fill="#5bc57f"/>
          </g>
        </g>
      </g>
    </g>
    <path id="Контур_129" data-name="Контур 129" d="M562.48,492.031c.842-4.2,2.589-7.7,7-9.181,2.823,1.459,6.461,3.087,5.536,6.662-.989,3.818-5.14,2.692-8.182,2.793a42.63,42.63,0,0,1-4.349-.274" transform="translate(83.29 71.499)" fill="#814329"/>
    <path id="Контур_130" data-name="Контур 130" d="M130.879,623.839c13.03,8.236,19.786,20.624,22.4,35.3,2.916,16.359,1.273,32.151-8.27,46.394a30.746,30.746,0,0,1-2.832,3.2c-1.845-1.722-.7-2.908.063-4.063a58.52,58.52,0,0,0-8.51-75.542c-1.424-1.333-2.9-2.661-3.34-4.714.165-.193.326-.383.486-.574" transform="translate(19.308 92.376)" fill="#b6cce6"/>
    <path id="Контур_131" data-name="Контур 131" d="M136.651,624.621c-7.534-3.351-14.561-7.659-22.957-9.228a60.994,60.994,0,0,0-40.421,6.088c-1,.516-2.025,1.5-3.978.176,7.643-6.5,16.6-9.1,25.895-9.873,15.4-1.284,30.151.685,41.893,12.323Z" transform="translate(10.261 90.54)" fill="#b6cce6"/>
    <path id="Контур_132" data-name="Контур 132" d="M56.754,633.149c-.2.937-.395,1.927-1.559,2.052-.255.028-.831-.533-.813-.79.083-1.17,1.03-1.422,2-1.583l.377.321" transform="translate(8.053 93.707)" fill="#b6cce6"/>
    <path id="Контур_133" data-name="Контур 133" d="M65.072,624.112c.27-1.155.68-2.185,2.141-2.1a.666.666,0,0,1,.466.459c.048,1.491-1.078,1.774-2.191,2.05Z" transform="translate(9.636 92.105)" fill="#b6cce6"/>
    <path id="Контур_134" data-name="Контур 134" d="M128.395,622.473q1.421.785,2.843,1.571c-.158.188-.319.379-.484.572q-1.4-.813-2.789-1.63l.431-.512" transform="translate(18.949 92.174)" fill="#b6cce6"/>
    <path id="Контур_135" data-name="Контур 135" d="M58.025,630.644a3.126,3.126,0,0,1-1.529,2.875l-.375-.32q.789-1.44,1.584-2.871l.32.317" transform="translate(8.31 93.337)" fill="#b6cce6"/>
    <path id="Контур_136" data-name="Контур 136" d="M61.868,626.809,60.3,628.223,60.079,628l1.447-1.531.342.336" transform="translate(8.896 92.766)" fill="#b6cce6"/>
    <path id="Контур_137" data-name="Контур 137" d="M65.555,624.253l-.94.516c.177-.308.354-.615.527-.925l.413.41" transform="translate(9.568 92.377)" fill="#b6cce6"/>
    <path id="Контур_138" data-name="Контур 138" d="M61.339,626.542l.887-.535c-.184.289-.369.578-.549.869l-.339-.334" transform="translate(9.083 92.697)" fill="#b6cce6"/>
    <path id="Контур_139" data-name="Контур 139" d="M59.219,629.29q-.7.766-1.4,1.536l-.318-.315q.751-.72,1.506-1.432l.212.21" transform="translate(8.514 93.152)" fill="#b6cce6"/>
    <path id="Контур_140" data-name="Контур 140" d="M60.485,628.025q-.734.723-1.464,1.45l-.209-.208c.484-.487.972-.971,1.457-1.458l.216.216" transform="translate(8.709 92.964)" fill="#b6cce6"/>
    <path id="Контур_141" data-name="Контур 141" d="M55.346,561.073a114.247,114.247,0,0,0,1.42,14.961c.316,1.97,3.341,1.417,3.382-.458q.255-11.569,1.482-23.084H58.186q.42,8.481.839,16.962a1.723,1.723,0,0,0,3.444,0q.32-5.5.638-11.01l-3.382.458,2.538,7.463a1.73,1.73,0,0,0,3.382-.457q.677-12.318.193-24.656H62.4q2.151,17.758,4.3,35.516c.263,2.173,3.711,2.2,3.444,0q-2.151-17.758-4.3-35.516c-.258-2.135-3.533-2.271-3.444,0q.484,12.327-.193,24.656l3.382-.458q-1.269-3.732-2.537-7.464a1.731,1.731,0,0,0-3.383.458q-.319,5.506-.638,11.01H62.47q-.418-8.48-.839-16.962a1.723,1.723,0,0,0-3.444,0Q56.959,564,56.7,575.575l3.383-.458a107.011,107.011,0,0,1-1.3-14.044c-.061-2.212-3.505-2.22-3.444,0" transform="translate(8.195 79.902)" fill="#90a0ea"/>
    <path id="Контур_142" data-name="Контур 142" d="M50.505,558.506c.248,8.017.47,16.035.75,24.051a132.462,132.462,0,0,0,2.45,23.534c.47,2.165,3.791,1.249,3.321-.916-1.652-7.617-2.083-15.4-2.347-23.172-.266-7.832-.488-15.665-.73-23.5-.069-2.211-3.513-2.22-3.444,0" transform="translate(7.478 82.456)" fill="#90a0ea"/>
    <path id="Контур_143" data-name="Контур 143" d="M52.934,564.253q-.115,15.056-.23,30.114a1.731,1.731,0,0,0,3.383.458c2.864-8.841,1.746-18.159,1.983-27.282a53.386,53.386,0,0,1,2.139-13.763c1.265-4.324,2.44-9.209,5.116-12.9l-3.209-.87c1.177,12.05,1.228,24.161,1.261,36.257a1.723,1.723,0,0,0,3.444,0,133.485,133.485,0,0,0-4.092-34.386c-.549-2.165-3.758-1.241-3.321.915.567,2.8-.1,5.711,1.045,8.413a6.121,6.121,0,0,0,4.976,3.941c.93.12,1.714-.879,1.722-1.722a1.763,1.763,0,0,0-1.722-1.722c-1.452-.191-2.077-2.22-2.24-3.417-.292-2.138-.028-4.274-.459-6.409l-3.321.915a129.758,129.758,0,0,1,3.969,33.471h3.444c-.032-12.1-.084-24.207-1.261-36.257a1.739,1.739,0,0,0-3.209-.869c-2.652,3.661-3.84,8.4-5.146,12.666a57,57,0,0,0-2.525,14.174c-.425,9.322,1.016,18.886-1.915,27.932l3.382.457q.115-15.056.23-30.114c.017-2.217-3.427-2.219-3.444,0" transform="translate(7.804 79.714)" fill="#90a0ea"/>
    <path id="Контур_144" data-name="Контур 144" d="M69.875,552.863a1.723,1.723,0,0,0,0-3.444,1.723,1.723,0,0,0,0,3.444" transform="translate(10.1 81.356)" fill="#90a0ea"/>
    <path id="Контур_145" data-name="Контур 145" d="M69.875,552.863a1.723,1.723,0,0,0,0-3.444,1.723,1.723,0,0,0,0,3.444" transform="translate(10.1 81.356)" fill="#90a0ea"/>
    <path id="Контур_146" data-name="Контур 146" d="M79.745,547.039q10.357-1.128,20.765-1.621l-.458-3.382c-6.762,2.561-13.9,3.734-21.012,4.867-2.184.347-1.255,3.665.916,3.32l3.345-.529-.915-3.321a15,15,0,0,0-5.049,1.925,1.735,1.735,0,0,0,.869,3.209l12.515-.343-.458-3.383a153.01,153.01,0,0,0-16.987,4.026c-1.812.54-1.54,3.46.457,3.382l21.872-.851-.458-3.382-17.987,4.4c-1.851.452-1.507,3.523.457,3.382l18.246-1.312-.458-3.382-31.958,7.641c-1.907.457-1.47,3.375.458,3.383,9.47.038,18.886-1.016,28.282-2.088L91.73,559.6l-18.5,3.778c-1.886.386-1.484,3.507.458,3.383L96.6,565.284l-.458-3.382a99.621,99.621,0,0,1-15.128,2.875c-2.179.239-2.2,3.685,0,3.444a105.332,105.332,0,0,0,16.043-3c1.829-.493,1.523-3.51-.457-3.382l-22.919,1.475.458,3.382,18.5-3.778c1.871-.382,1.484-3.6-.458-3.382-9.4,1.072-18.811,2.126-28.282,2.088q.227,1.691.457,3.382l31.959-7.641c1.855-.444,1.5-3.523-.458-3.383L77.618,555.3l.458,3.383,17.988-4.4a1.73,1.73,0,0,0-.458-3.383l-21.872.851.458,3.383A152.8,152.8,0,0,1,91.18,551.1c1.923-.341,1.459-3.435-.458-3.382l-12.515.343q.436,1.605.87,3.21a12.272,12.272,0,0,1,4.225-1.579c2.2-.4,1.241-3.664-.915-3.321l-3.347.53.916,3.32c7.111-1.132,14.249-2.305,21.012-4.867,1.693-.642,1.623-3.481-.458-3.382q-10.405.492-20.765,1.621c-2.18.238-2.2,3.684,0,3.444" transform="translate(9.213 80.253)" fill="#90a0ea"/>
    <path id="Контур_147" data-name="Контур 147" d="M74.15,543.98,93.4,541.045c1.9-.291,1.474-3.589-.458-3.383A173.238,173.238,0,0,0,72,541.189c-1.933.451-1.445,3.332.458,3.383a62.666,62.666,0,0,0,15-1.42,1.735,1.735,0,0,0,0-3.321,49.364,49.364,0,0,0-21.872.575c-2.166.553-1.24,3.749.915,3.321a40.6,40.6,0,0,0,13.419-5.285c1.586-.978.564-3.882-1.327-3.148A42.861,42.861,0,0,0,64.8,543.913a1.739,1.739,0,0,0,1.218,2.94,124.653,124.653,0,0,0,29.153-4.947c1.8-.533,1.543-3.5-.458-3.383q-10.443.606-20.817,1.983c-3.319.443-6.642.912-9.939,1.5a25.224,25.224,0,0,0-8.872,3.038,1.744,1.744,0,0,0,.411,3.148c6.4,1.931,13.643.489,20.105-.476a167.47,167.47,0,0,0,20.428-4.389c1.8-.5,1.53-3.606-.458-3.383a80.439,80.439,0,0,0-21.1,5.273,1.724,1.724,0,0,0,.915,3.321l25.29-3.952c1.907-.3,1.473-3.523-.458-3.383A131.515,131.515,0,0,0,67,547.974c-1.738.6-1.589,3.5.458,3.382,12.088-.706,23.986-3.041,35.838-5.4q-.665-1.574-1.327-3.148a131.455,131.455,0,0,0-14.854,8.875c-1.3.9-.966,3.309.869,3.209,10.962-.6,21.684-3.021,32.348-5.482,2.2-.509,1.224-3.654-.916-3.321a240.626,240.626,0,0,0-28.777,6.295c-2.174.618-1.228,3.673.916,3.321l24.586-4.029c2.185-.358,1.255-3.67-.915-3.321l-35.435,5.7,1.675,2.878a32.023,32.023,0,0,1,7.838-4.678l-1.675-2.878-2.174,2.173a1.723,1.723,0,0,0,2.435,2.436l2.174-2.174c1.126-1.125-.014-3.568-1.675-2.878a37.64,37.64,0,0,0-9.358,5.565c-1.491,1.208.193,3.117,1.676,2.878l35.434-5.7-.915-3.321-24.587,4.029.916,3.321a240.566,240.566,0,0,1,28.777-6.295l-.916-3.321c-10.365,2.393-20.777,4.779-31.432,5.359q.436,1.605.869,3.21a131.385,131.385,0,0,1,14.854-8.876c1.824-.932.5-3.511-1.327-3.147-11.553,2.3-23.138,4.59-34.922,5.279q.229,1.691.457,3.383a127.891,127.891,0,0,1,32.309-6.646l-.458-3.382-25.289,3.952q.456,1.66.915,3.321a77.256,77.256,0,0,1,20.187-5.15l-.458-3.382a167.556,167.556,0,0,1-19.341,4.223c-3.188.5-6.395.9-9.609,1.2a25.413,25.413,0,0,1-9.751-.552q.2,1.574.411,3.147a23.22,23.22,0,0,1,8.3-2.734c3.28-.576,6.58-1.055,9.883-1.483q9.818-1.273,19.71-1.837l-.458-3.382a120.564,120.564,0,0,1-28.237,4.824l1.217,2.939a38.448,38.448,0,0,1,12.272-7.731q-.665-1.574-1.327-3.148a37.839,37.839,0,0,1-12.6,4.938q.456,1.66.915,3.321a45.314,45.314,0,0,1,20.042-.575v-3.321a58.752,58.752,0,0,1-14.085,1.3q.229,1.691.457,3.382a165.639,165.639,0,0,1,20.027-3.405l-.458-3.382-19.253,2.936c-2.184.333-1.256,3.652.916,3.321" transform="translate(8.036 79.247)" fill="#90a0ea"/>
    <path id="Контур_148" data-name="Контур 148" d="M65.876,557.058a163.446,163.446,0,0,0,20.973-1.437c6.5-.873,13.451-3.342,20-2.723q-.765-5.636-1.527-11.275c-9.816,1.884-19.655,3.674-29.452,5.654-6.57,1.328-16.645,2.936-19.065,10.154-1.307,3.894,2.083,6.863,5.535,7.266,8.617,1.007,17.019-.652,25.474-2.187a89.805,89.805,0,0,1,26.9-1.009l-1.526-11.275q-14.536,2.1-29.126,3.788c-7.254.84-7.339,12.331,0,11.481q16.119-1.867,32.177-4.2c6.956-1.007,4.286-10.591-1.526-11.276a92.862,92.862,0,0,0-25.786.693c-8.916,1.427-17.5,3.566-26.591,2.5q2.767,3.634,5.536,7.266c-.6,1.793,3.479-.313,3.918-.449,1.164-.359,2.354-.65,3.538-.928,3.538-.832,7.135-1.441,10.7-2.126l22.338-4.286c6.794-1.3,4.471-10.708-1.526-11.276-6.522-.616-13.04,1.641-19.445,2.623a146.981,146.981,0,0,1-21.529,1.537c-7.386.038-7.4,11.519,0,11.481" transform="translate(8.369 80.156)" fill="#90a0ea"/>
    <path id="Контур_149" data-name="Контур 149" d="M64.4,571.385c7.729,10.477,19.66,13.31,32.065,10.37,12.064-2.857,21.864-11.12,30.609-19.475,11.241-10.74-5.824-27.772-17.048-17.049-4.682,4.474-9.487,9.1-15.475,11.8a19.653,19.653,0,0,1-6.909,1.816c-.22.013-3.065-.11-2.243-.155-1.319.072-2-1.949-.18.524-3.859-5.232-10.449-7.86-16.493-4.325-5.161,3.018-8.211,11.225-4.325,16.493" transform="translate(9.275 80.231)" fill="#90a0ea"/>
  </g>
</svg>
