<svg id="Сгруппировать_43" data-name="Сгруппировать 43" xmlns="http://www.w3.org/2000/svg" xmlns:xlink="http://www.w3.org/1999/xlink" width="431" height="570.073" viewBox="0 0 431 570.073">
  <defs>
    <clipPath id="clip-path">
      <rect id="Прямоугольник_16" data-name="Прямоугольник 16" width="431" height="570.073" fill="none"/>
    </clipPath>
  </defs>
  <g id="Сгруппировать_29" data-name="Сгруппировать 29" clip-path="url(#clip-path)">
    <path id="Контур_996" data-name="Контур 996" d="M437.5,117.036a130.985,130.985,0,0,1,24.661,2.93c1.07.24,1.724-.477,2.591-.666,7.517,3.262,15.73,4.513,23.16,8.027l-.16-.051,5.218,2.358,1.794.662,1.37.86c3.467,2.224,6.854,4.6,10.724,6.133a.708.708,0,0,0,1.232-.023l-.122.045c-.513,1.293.557,1.5,1.311,1.991,16.334,10.655,29.1,24.672,39.012,41.385,1.1,1.861,1.906,3.952,3.71,5.333,2.566,6.571,5.432,13.042,7.651,19.728,17.6,53.017-2.155,112.386-47.92,144.469-1.657,1.162-3.164,2.539-4.741,3.816l-24.877,12.085-.894.322c-1.212-2.55-2.309-5.163-3.655-7.641-11.438-21.046-28.827-33.886-52.545-37.948-.511-5.147.645-10.382-.661-15.47a10.229,10.229,0,0,0-11.284-7.828c-5.08.64-8.547,4.585-8.752,10.038-.159,4.227-.249,8.455-.37,12.683-10.212.96-19.471,4.789-28.449,9.461l-.421-5.02c.367-8.834.38-17.668-.031-26.5,9.356-17.573,14.307-36.084,11.347-56.1-4.371-29.554-19.587-51.715-45.78-66.253-2.554-1.418-5.873-1.247-7.858-3.819a6.757,6.757,0,0,1,.65-1.743c16.744-22.629,38.343-38.567,65.207-47.232a132.833,132.833,0,0,1,38.88-6.034m61,82.219c-.117-2.419-.912-4.5-3.4-5.6-3.34-1.468-6,.283-8.005,2.382-3.887,4.057-7.351,8.521-10.975,12.828a2.149,2.149,0,0,0-.548,2.565c.685,1.181,1.94.938,2.969.8a33.258,33.258,0,0,0,16.735-6.863,7.919,7.919,0,0,0,3.223-6.116m-14.893-12.148c.055-1.7.317-4.733-2.836-5.28-2.9-.5-4.22,2.26-5.181,4.529-1.15,2.717-1.907,5.6-2.867,8.4-.814,2.375-.311,4.408,1.856,5.671,2.486,1.449,4.308-.264,5.524-2.022a18.266,18.266,0,0,0,3.5-11.3" transform="translate(-135.023 -47.49)" fill="#5bc57f"/>
    <path id="Контур_997" data-name="Контур 997" d="M317.8,69.546a132.832,132.832,0,0,0-38.88,6.034c-26.864,8.666-48.463,24.6-65.207,47.233a6.757,6.757,0,0,0-.65,1.743c-1.5-.447-3.034-.785-4.48-1.358-14.518-5.75-29.471-6.471-44.674-3.758-20.487,3.656-37.352,13.76-50.926,29.363-7.231,8.311-12.243,17.891-16.139,28.257-4.655,12.384-4.684,25.087-4.438,37.927-3.452.178-6.08,2.3-8.941,3.838-7.857,4.229-14.727,9.893-21.875,15.152a149.1,149.1,0,0,1-23.665-74.907c-1.6-38.558,10-72.892,34.043-103.044,1.176-1.475,2.543-2.8,2.371-4.9,1.956-.078,3.038-1.528,4.2-2.771a149.489,149.489,0,0,1,62.1-40.2C161.2,1.2,182.319-1.591,204.012.89c2.639.3,5.332.138,8,.189-.524,1.785,21.829,3.094,41.382,13.194,9.592,3.259,17.842,8.917,25.965,14.735A151.942,151.942,0,0,1,317.8,69.546" transform="translate(-15.331 0)" fill="#c2ead1"/>
    <path id="Контур_998" data-name="Контур 998" d="M51.888,380.781c7.148-5.259,14.018-10.923,21.875-15.152,2.862-1.54,5.489-3.66,8.941-3.838,1.7,14.222,6.192,27.457,14.278,39.329,12.671,18.6,30.012,30.713,51.7,36.654-.031,7.057-.083,14.114-.09,21.171-.01,11.257,5.391,16.706,16.682,16.788,7.058.051,14.117.069,21.174-.019,2.443-.031,3.751.522,3.739,3.366q-.194,45.163-.226,90.326A215.774,215.774,0,0,1,166.7,579.68a212.875,212.875,0,0,1-27.842,5.1,120.719,120.719,0,0,1-50.147-7.759c-11.866-4.411-22.214-11.432-32.488-18.6-9.908-9.436-19.346-19.251-26.2-31.26-17.186-30.1-20.526-61.739-10.687-94.875.534-1.8.979-3.628,1.465-5.444a14.268,14.268,0,0,0,1.448-2.359,110.543,110.543,0,0,1,18.475-31.226c3.536-4.312,7.431-8.328,11.163-12.478" transform="translate(-5.625 -146.804)" fill="#5bc57f"/>
    <path id="Контур_999" data-name="Контур 999" d="M310.787,877.274a39.689,39.689,0,0,0,13.194,1.907c2.327.131,4.661.449,6.979.358,10.431-.408,20.857-.987,31.3-.6a52.532,52.532,0,0,1,25.8,7.985c5.168,5.245,10.732,10.164,12.678,17.762,1.553,6.066,1.144,6.737-5.159,6.745-2.2,0-4.4,0-6.6,0-95.95.171-191.9.617-287.85.359q-48.04-.129-96.086-.271c-4.56-.011-5.389-2.153-4.945-5.819,1.073-8.849,7.919-15.4,17.827-16.71a146.457,146.457,0,0,1,15.017-1.128c9.709-.281,17.733-3.8,23.472-11.785A129.323,129.323,0,0,1,77.054,853c1.694.061,2.893-1.035,4.261-1.777,16.263-8.828,33.248-11.412,51.272-6.256,9.855,2.819,17.98,8.722,26.447,14.046,7.855,4.94,15.757,9.714,25.3,10.611.063,4.86.026,9.724.228,14.578.112,2.7-.954,3.606-3.568,3.491-3.445-.151-6.9-.036-10.354-.018-3.312.018-5.151,2.023-6.236,4.849-1.032,2.687.094,4.887,1.9,6.838,2,2.164,4.6,2.405,7.342,2.4q38.6-.04,77.194-.015c.785,0,1.575.046,2.353-.031,4.323-.428,7.455-3.438,7.449-7.12-.007-4.069-3.1-6.835-7.8-6.933-3.92-.082-7.841-.125-11.762-.185,1.034-1.755,2.011-3.547,3.112-5.26q9.414-14.648,18.878-29.266c6.554,2.647,12.321,6.687,18.323,10.317,9.332,5.644,18.4,11.859,29.4,14" transform="translate(0 -341.794)" fill="#5bc57f"/>
    <path id="Контур_1000" data-name="Контур 1000" d="M594.8,628.969l-.011,0Z" transform="translate(-241.346 -255.215)" fill="#2646d8"/>
    <path id="Контур_1001" data-name="Контур 1001" d="M594.379,635.282l0,.075.265.137-.261-.212" transform="translate(-241.179 -257.778)" fill="#2646d8"/>
    <path id="Контур_1002" data-name="Контур 1002" d="M195.631,371.491c-21.684-5.939-39.025-18.049-51.7-36.653-8.086-11.872-12.581-25.107-14.278-39.329-.245-12.84-.217-25.543,4.438-37.927,3.9-10.365,8.908-19.945,16.139-28.257,13.574-15.6,30.439-25.706,50.926-29.362,15.2-2.713,30.157-1.992,44.675,3.758,1.445.573,2.984.91,4.479,1.358,1.985,2.572,5.3,2.4,7.858,3.818,26.193,14.538,41.409,36.7,45.78,66.253,2.96,20.014-1.991,38.525-11.347,56.1-2.9,3.871-5.7,7.825-8.727,11.6-8.136,10.138-18.81,17.08-29.915,23.455l.157-.073a2.342,2.342,0,0,0-2.41.921l-14.65,4.8-21.023,2.217-16.574-1.831-3.83-.84m-4.2-42.729c1.833-.813,6.229,1.436,4.757-3.21-1.983-6.256-15.32-15.593-22.7-13.907-4.308.984-6.386,4.929-4.474,8.952a10.129,10.129,0,0,0,6.315,5.212c5.21,1.792,10.674,2.054,16.1,2.953" transform="translate(-52.578 -80.522)" fill="#dcf4e4"/>
    <path id="Контур_1003" data-name="Контур 1003" d="M510.159,505.617a85.881,85.881,0,0,1,4.748,30.854c-1.863,19.715-9.7,36.485-24.5,49.856-8.426,7.615-18.407,12.405-28.975,16.147-12.19,2.36-24.38,3.176-36.631.25-7.2-1.72-13.85-4.745-20.386-8.092q-.167-14.927-.334-29.856c.782-1.721,2.512-2.25,3.955-3.135q7.762-4.757,15.534-9.5a28.716,28.716,0,0,0,4.508-2.459,9.522,9.522,0,0,0-9.649-16.213,32.192,32.192,0,0,0-4.714,3.034l-9.411,4.514q.039-19.488.079-38.974,16.478-.045,32.957-.091c10.978-.029,16.013-5.145,16.184-16.1.134-8.607-.627-17.231.431-25.822,23.718,4.062,41.107,16.9,52.545,37.948,1.346,2.477,2.443,5.091,3.655,7.641" transform="translate(-163.965 -186.665)" fill="#c1e8d0"/>
    <path id="Контур_1004" data-name="Контур 1004" d="M453.958,444.062c-1.058,8.591-.3,17.215-.431,25.822-.171,10.956-5.205,16.073-16.184,16.1s-21.971.061-32.957.092a176.148,176.148,0,0,1-.009-20.542c8.436.034,16.873.039,25.309.122,2.139.021,3.627-.268,3.54-2.985-.2-6.392-.235-12.79-.336-19.186.121-4.228.211-8.457.37-12.683.205-5.454,3.672-9.4,8.753-10.039a10.229,10.229,0,0,1,11.284,7.828c1.306,5.088.15,10.324.661,15.47" transform="translate(-163.964 -170.699)" fill="#814428"/>
    <path id="Контур_1005" data-name="Контур 1005" d="M394.005,484.139a176.142,176.142,0,0,0,.01,20.542q-.039,19.487-.079,38.974c-3.411,2.2-6.776,4.479-10.256,6.563-1.279.765-2.73,2.3-4.213,1.464-1.547-.869-.727-2.871-.73-4.354q-.1-38.63-.092-77.261l15.006-3.536.421,5.019q-.032,6.293-.065,12.589" transform="translate(-153.593 -189.304)" fill="#462817"/>
    <path id="Контур_1006" data-name="Контур 1006" d="M404.578,481.107q.033-6.3.065-12.589c8.978-4.671,18.236-8.5,28.449-9.46.1,6.4.13,12.794.335,19.186.087,2.717-1.4,3.007-3.54,2.985-8.436-.084-16.873-.089-25.309-.122" transform="translate(-164.165 -186.271)" fill="#c1e8d0"/>
    <path id="Контур_1007" data-name="Контур 1007" d="M377.572,448.435l-15.006,3.537c-7.975,1.27-15.58,4.279-23.668,5.013,11.1-6.375,21.78-13.317,29.915-23.455,3.026-3.771,5.825-7.725,8.727-11.6.411,8.833.4,17.667.031,26.5" transform="translate(-137.515 -171.208)" fill="#080a0d"/>
    <path id="Контур_1008" data-name="Контур 1008" d="M595.857,251.206a7.921,7.921,0,0,1-3.223,6.117,33.263,33.263,0,0,1-16.735,6.863c-1.029.137-2.284.38-2.969-.8a2.148,2.148,0,0,1,.548-2.564c3.624-4.308,7.088-8.771,10.975-12.829,2.01-2.1,4.666-3.85,8.005-2.382,2.487,1.093,3.282,3.177,3.4,5.6M576.521,262c5.75.055,10.65-2.384,14.973-5.771,2.549-2,4.091-5.1,1.474-8.156-2.594-3.024-5.41-1.123-7.219.953-3.453,3.964-7.445,7.545-9.848,12.358-.126.235-.419.565-.349.688.314.551.66.226.969-.072" transform="translate(-232.379 -99.441)" fill="#c1e8d0"/>
    <path id="Контур_1009" data-name="Контур 1009" d="M578.933,231.308a18.266,18.266,0,0,1-3.5,11.3c-1.216,1.758-3.038,3.471-5.523,2.022-2.167-1.263-2.67-3.3-1.856-5.67.96-2.8,1.717-5.683,2.868-8.4.96-2.268,2.278-5.031,5.18-4.528,3.152.546,2.89,3.581,2.836,5.279m-1.861.937c-.215-1.289.445-2.878-1.117-3.379-1.787-.574-2.549.942-2.97,2.24-.953,2.938-1.748,5.932-2.473,8.935a1.753,1.753,0,0,0,1.036,2.306,1.935,1.935,0,0,0,2.322-1.1,20.814,20.814,0,0,0,3.2-9.006" transform="translate(-230.348 -91.691)" fill="#5bc57f"/>
    <path id="Контур_1010" data-name="Контур 1010" d="M602.364,138.239l1.806.667-1.806-.667" transform="translate(-244.421 -56.093)" fill="#462817"/>
    <path id="Контур_1011" data-name="Контур 1011" d="M593.743,134.321l-.16-.05.16.05" transform="translate(-240.858 -54.483)" fill="#462817"/>
    <path id="Контур_1012" data-name="Контур 1012" d="M299.006,477.5c8.087-.734,15.693-3.743,23.668-5.013q.03,38.628.092,77.26c0,1.483-.816,3.485.73,4.354,1.483.833,2.934-.7,4.213-1.464,3.48-2.085,6.846-4.362,10.256-6.563l9.41-4.513c-2.942,9.867-.276,14.1,9.856,15.637q-7.768,4.748-15.534,9.5c-1.443.885-3.173,1.414-3.955,3.136-3.611.319-6.078,3.066-9.238,4.346-4.625,1.874-5.938,5.115-5.913,10.234.241,49.1.143,98.2.146,147.3,0,1.411,0,2.824.07,4.233.059,1.2.668,2.426,1.837,2.392,4.411-.13,8.977,1.563,13.209-.965l.422,0,.418.04c3.921.061,7.841.1,11.762.186,4.7.1,7.794,2.864,7.8,6.933.006,3.682-3.126,6.692-7.449,7.12-.777.077-1.568.031-2.353.031q-38.6,0-77.194.015c-2.746,0-5.345-.239-7.342-2.4-1.8-1.951-2.927-4.152-1.895-6.839,1.085-2.826,2.925-4.831,6.236-4.848,3.452-.019,6.909-.134,10.354.018,2.614.115,3.68-.793,3.568-3.492-.2-4.854-.165-9.717-.228-14.578q0-4.638,0-9.275,0-47.979,0-95.957.092-45.163.226-90.325c.012-2.845-1.3-3.4-3.739-3.366-7.057.088-14.117.071-21.174.02-11.292-.081-16.693-5.531-16.682-16.788.007-7.057.058-14.114.09-21.172l3.83.839c4.69,5.405,10.438,9.543,16.272,13.575.387,1.89,1.251,3.005,3.474,2.946,4.86-.131,9.728-.157,14.586.005,2.863.1,3.413-1.291,3.342-3.738-.128-4.388-.062-8.782-.078-13.174l14.648-4.8,2.411-.922Z" transform="translate(-97.622 -191.72)" fill="#814428"/>
    <path id="Контур_1013" data-name="Контур 1013" d="M405.107,890.253l-.418-.04s-.422,0-.423.007q0-20.529-.008-41.062c7.934,1.074,15.777,2.459,22.839,6.569q-9.444,14.631-18.878,29.267c-1.1,1.713-2.078,3.5-3.112,5.26" transform="translate(-164.036 -344.563)" fill="#080a0d"/>
    <path id="Контур_1014" data-name="Контур 1014" d="M393.841,762.787q0,20.532.008,41.062c-4.232,2.526-8.8.833-13.209.963-1.169.034-1.779-1.191-1.837-2.392-.069-1.408-.071-2.821-.071-4.233,0-49.1.1-98.2-.146-147.3-.025-5.119,1.288-8.36,5.913-10.234,3.16-1.281,5.628-4.028,9.239-4.346q.167,14.927.333,29.855-.107,30.251-.209,60.506c-.032,12.042-.016,24.083-.021,36.124" transform="translate(-153.619 -258.192)" fill="#462817"/>
    <path id="Контур_1015" data-name="Контур 1015" d="M295.893,490.42c.015,4.391-.05,8.785.078,13.173.072,2.447-.478,3.834-3.342,3.739-4.857-.162-9.726-.136-14.586-.006-2.223.059-3.087-1.056-3.473-2.945q.152-5.872.3-11.744l21.023-2.217" transform="translate(-111.412 -198.998)" fill="#5bc57f"/>
    <path id="Контур_1016" data-name="Контур 1016" d="M217.879,405.924c-5.429-.9-10.893-1.161-16.1-2.953a10.129,10.129,0,0,1-6.315-5.212c-1.912-4.024.166-7.969,4.473-8.953,7.38-1.686,20.718,7.652,22.7,13.908,1.473,4.646-2.924,2.4-4.757,3.209m-.541-2.08c1.375-.189,3.149.238,1.96-2.3-2.205-4.7-12.134-11.052-17.314-10.843-1.962.079-3.617.519-4.523,2.642-.881,2.064-.254,3.641,1,5.178a7.442,7.442,0,0,0,4.136,2.973c4.9.911,9.848,1.586,14.744,2.349" transform="translate(-79.023 -157.685)" fill="#c1e8d0"/>
    <path id="Контур_1017" data-name="Контур 1017" d="M263.757,492.9q-.149,5.872-.3,11.744c-5.837-4.032-11.583-8.17-16.274-13.575l16.573,1.831" transform="translate(-100.3 -199.261)" fill="#080a0d"/>
    <path id="Контур_1018" data-name="Контур 1018" d="M337.514,480.777l-2.411.922a2.343,2.343,0,0,1,2.411-.922" transform="translate(-135.975 -195.073)" fill="#080a0d"/>
    <path id="Контур_1019" data-name="Контур 1019" d="M429.383,601.768c-10.132-1.542-12.8-5.77-9.856-15.638a32.184,32.184,0,0,1,4.715-3.035,9.522,9.522,0,0,1,9.649,16.213,28.732,28.732,0,0,1-4.508,2.46" transform="translate(-169.774 -236.292)" fill="#080a0d"/>
    <path id="Контур_1020" data-name="Контур 1020" d="M578.086,262.363c2.408-4.809,6.4-8.39,9.853-12.353,1.808-2.076,4.625-3.978,7.219-.953,2.617,3.051,1.075,6.159-1.474,8.156-4.323,3.387-9.222,5.826-14.973,5.771q-.307-.316-.625-.621" transform="translate(-234.57 -100.42)" fill="#5bc57f"/>
    <path id="Контур_1021" data-name="Контур 1021" d="M578.469,273.148c-.309.3-.655.623-.969.072-.07-.123.223-.453.347-.69.209.2.418.408.622.619" transform="translate(-234.328 -110.584)" fill="#5bc57f"/>
    <path id="Контур_1022" data-name="Контур 1022" d="M578.947,234.138a20.815,20.815,0,0,1-3.2,9.006,1.935,1.935,0,0,1-2.322,1.1,1.753,1.753,0,0,1-1.036-2.306c.724-3,1.52-6,2.473-8.935.421-1.3,1.183-2.814,2.97-2.24,1.562.5.9,2.09,1.117,3.379" transform="translate(-232.222 -93.584)" fill="#5bc57f"/>
    <path id="Контур_1023" data-name="Контур 1023" d="M218.91,405.271c-4.9-.763-9.842-1.438-14.744-2.349a7.442,7.442,0,0,1-4.136-2.973c-1.25-1.537-1.877-3.114-1-5.177.906-2.123,2.561-2.563,4.523-2.642,5.179-.209,15.108,6.138,17.314,10.843,1.188,2.536-.585,2.109-1.96,2.3" transform="translate(-80.595 -159.112)" fill="#dcf4e4"/>
    <path id="Контур_1024" data-name="Контур 1024" d="M578.026,581.552c2.844.224,4.609,2.83,7.332,3.321,3.933,3.406,8.6,5.662,13,8.336,4.079,2.9,8.85,4.734,12.551,8.208a28.133,28.133,0,0,1-2.724,11.94c-1.179,2.852-4.358,4.394-4.985,7.6-.223.254-.443.513-.664.772-2.886-.421-4.864,1.128-6.664,3.063-.263.225-.523.455-.785.685-1.761-1.073-3.663-.5-5.511-.447-16.6.474-27.4-13.09-23.319-29.284.152-.6.244-1.225.364-1.837a30.761,30.761,0,0,1,11.4-12.361m4.585,15.421c-1.647,5.652-.553,11.623-1.666,17.471a1.67,1.67,0,0,0,1.813,2.149,9.958,9.958,0,0,0,8.632-4.847,11.137,11.137,0,0,0,1.7-9.817c-1.7,3.09-.37,5.7-2.434,7.271-1.131-.7.21-2.443-1.244-3.054-1.166,2.2.081,5.286-2.719,7.184-.232-2.017-.424-3.679-.616-5.341a4.7,4.7,0,0,0-.861,2.816c-.127,1.326.423,3.449-1.374,3.487-2.061.043-1.15-2.134-1.18-3.312-.118-4.666-.049-9.337-.049-14.005" transform="translate(-229.42 -235.976)" fill="#d04267"/>
    <path id="Контур_1025" data-name="Контур 1025" d="M574.976,576.361a30.763,30.763,0,0,0-11.4,12.361c-4.834-4.328-6.314-9.8-5.472-16.06,2.172-.557,3.268-2.395,4.641-3.9a35.489,35.489,0,0,1,12.233,7.6m-12.39-4.135c-1.125,3.386-.275,4.556,1.747,4.943.893.171,2.383.138,2.3-.836-.191-2.176-3.042-1.386-4.044-4.107" transform="translate(-226.37 -230.785)" fill="#95a1e6"/>
    <path id="Контур_1026" data-name="Контур 1026" d="M611.991,590.116c-4.4-2.674-9.07-4.931-13-8.336,3.95-3.483,9.008-4.955,13.525-7.406,2.06-1.118,3.053-.014,3.754,2,1.251,3.6-.231,6.477-2.189,9.2-1.017,1.412-2.287,2.61-2.087,4.542" transform="translate(-243.052 -232.883)" fill="#e69fb2"/>
    <path id="Контур_1027" data-name="Контур 1027" d="M637.409,626.922a28.124,28.124,0,0,0,2.723-11.94c3.982,1.051,7.108,3.668,10.473,5.817,2.568,1.64,1.145,3.113-.606,4.2-3.9,2.418-8.209,2.48-12.59,1.926" transform="translate(-258.641 -249.541)" fill="#95a1e6"/>
    <path id="Контур_1028" data-name="Контур 1028" d="M561.388,565.672c-1.373,1.509-2.469,3.346-4.641,3.9a16.539,16.539,0,0,1-2.2-8.423c2.719,1.42,5.182,2.3,6.839,4.519" transform="translate(-225.014 -227.699)" fill="#d04267"/>
    <path id="Контур_1029" data-name="Контур 1029" d="M627.9,648.643c.22-.259.441-.518.663-.772,1.694,2.159,4.139,3.041,6.934,3.754-.891,2.255-2.751,3.063-4.491,4.607-.936-2.8-.713-5.8-3.106-7.589" transform="translate(-254.784 -262.886)" fill="#2646d8"/>
    <path id="Контур_1030" data-name="Контур 1030" d="M615.367,655.01c.261-.23.522-.461.785-.686,1.436,2.06,4.016,2.092,6.2,3.422-.708,2.081-2.544,2.814-4.213,4.144-1.459-2.275-.573-5.253-2.776-6.88" transform="translate(-249.697 -265.505)" fill="#2646d8"/>
    <path id="Контур_1031" data-name="Контур 1031" d="M593.2,607.5c0,4.669-.07,9.34.049,14.005.03,1.178-.882,3.356,1.18,3.312,1.8-.038,1.247-2.161,1.374-3.487a4.7,4.7,0,0,1,.861-2.816c.192,1.662.384,3.324.616,5.341,2.8-1.9,1.552-4.982,2.719-7.184,1.453.611.113,2.354,1.244,3.054,2.064-1.575.737-4.181,2.434-7.271a11.137,11.137,0,0,1-1.7,9.817,9.958,9.958,0,0,1-8.632,4.847,1.67,1.67,0,0,1-1.813-2.149c1.114-5.848.02-11.819,1.666-17.471" transform="translate(-240.005 -246.507)" fill="#e69fb2"/>
    <path id="Контур_1032" data-name="Контур 1032" d="M565.458,574.594c1,2.721,3.852,1.932,4.044,4.107.086.974-1.4,1.007-2.3.836-2.022-.387-2.872-1.558-1.747-4.943" transform="translate(-229.242 -233.153)" fill="#2646d8"/>
  </g>
</svg>
